G75*
%MOIN*%
%OFA0B0*%
%FSLAX25Y25*%
%IPPOS*%
%LPD*%
%AMOC8*
5,1,8,0,0,1.08239X$1,22.5*
%
%ADD10C,0.00000*%
%ADD11C,0.14400*%
%ADD12C,0.01000*%
%ADD13C,0.07300*%
%ADD14OC8,0.06000*%
%ADD15C,0.08200*%
%ADD16R,0.08800X0.08800*%
%ADD17C,0.08800*%
%ADD18C,0.06000*%
%ADD19C,0.06000*%
D10*
X0022033Y0028833D02*
X0022035Y0029000D01*
X0022041Y0029167D01*
X0022051Y0029333D01*
X0022066Y0029500D01*
X0022084Y0029665D01*
X0022107Y0029831D01*
X0022133Y0029996D01*
X0022164Y0030160D01*
X0022198Y0030323D01*
X0022237Y0030485D01*
X0022279Y0030647D01*
X0022326Y0030807D01*
X0022376Y0030966D01*
X0022431Y0031124D01*
X0022489Y0031280D01*
X0022551Y0031435D01*
X0022616Y0031589D01*
X0022686Y0031740D01*
X0022759Y0031890D01*
X0022836Y0032038D01*
X0022916Y0032185D01*
X0023000Y0032329D01*
X0023088Y0032471D01*
X0023179Y0032611D01*
X0023273Y0032748D01*
X0023371Y0032884D01*
X0023472Y0033017D01*
X0023577Y0033147D01*
X0023684Y0033275D01*
X0023795Y0033400D01*
X0023908Y0033522D01*
X0024025Y0033641D01*
X0024144Y0033758D01*
X0024266Y0033871D01*
X0024391Y0033982D01*
X0024519Y0034089D01*
X0024649Y0034194D01*
X0024782Y0034295D01*
X0024918Y0034393D01*
X0025055Y0034487D01*
X0025195Y0034578D01*
X0025337Y0034666D01*
X0025481Y0034750D01*
X0025628Y0034830D01*
X0025776Y0034907D01*
X0025926Y0034980D01*
X0026077Y0035050D01*
X0026231Y0035115D01*
X0026386Y0035177D01*
X0026542Y0035235D01*
X0026700Y0035290D01*
X0026859Y0035340D01*
X0027019Y0035387D01*
X0027181Y0035429D01*
X0027343Y0035468D01*
X0027506Y0035502D01*
X0027670Y0035533D01*
X0027835Y0035559D01*
X0028001Y0035582D01*
X0028166Y0035600D01*
X0028333Y0035615D01*
X0028499Y0035625D01*
X0028666Y0035631D01*
X0028833Y0035633D01*
X0029000Y0035631D01*
X0029167Y0035625D01*
X0029333Y0035615D01*
X0029500Y0035600D01*
X0029665Y0035582D01*
X0029831Y0035559D01*
X0029996Y0035533D01*
X0030160Y0035502D01*
X0030323Y0035468D01*
X0030485Y0035429D01*
X0030647Y0035387D01*
X0030807Y0035340D01*
X0030966Y0035290D01*
X0031124Y0035235D01*
X0031280Y0035177D01*
X0031435Y0035115D01*
X0031589Y0035050D01*
X0031740Y0034980D01*
X0031890Y0034907D01*
X0032038Y0034830D01*
X0032185Y0034750D01*
X0032329Y0034666D01*
X0032471Y0034578D01*
X0032611Y0034487D01*
X0032748Y0034393D01*
X0032884Y0034295D01*
X0033017Y0034194D01*
X0033147Y0034089D01*
X0033275Y0033982D01*
X0033400Y0033871D01*
X0033522Y0033758D01*
X0033641Y0033641D01*
X0033758Y0033522D01*
X0033871Y0033400D01*
X0033982Y0033275D01*
X0034089Y0033147D01*
X0034194Y0033017D01*
X0034295Y0032884D01*
X0034393Y0032748D01*
X0034487Y0032611D01*
X0034578Y0032471D01*
X0034666Y0032329D01*
X0034750Y0032185D01*
X0034830Y0032038D01*
X0034907Y0031890D01*
X0034980Y0031740D01*
X0035050Y0031589D01*
X0035115Y0031435D01*
X0035177Y0031280D01*
X0035235Y0031124D01*
X0035290Y0030966D01*
X0035340Y0030807D01*
X0035387Y0030647D01*
X0035429Y0030485D01*
X0035468Y0030323D01*
X0035502Y0030160D01*
X0035533Y0029996D01*
X0035559Y0029831D01*
X0035582Y0029665D01*
X0035600Y0029500D01*
X0035615Y0029333D01*
X0035625Y0029167D01*
X0035631Y0029000D01*
X0035633Y0028833D01*
X0035631Y0028666D01*
X0035625Y0028499D01*
X0035615Y0028333D01*
X0035600Y0028166D01*
X0035582Y0028001D01*
X0035559Y0027835D01*
X0035533Y0027670D01*
X0035502Y0027506D01*
X0035468Y0027343D01*
X0035429Y0027181D01*
X0035387Y0027019D01*
X0035340Y0026859D01*
X0035290Y0026700D01*
X0035235Y0026542D01*
X0035177Y0026386D01*
X0035115Y0026231D01*
X0035050Y0026077D01*
X0034980Y0025926D01*
X0034907Y0025776D01*
X0034830Y0025628D01*
X0034750Y0025481D01*
X0034666Y0025337D01*
X0034578Y0025195D01*
X0034487Y0025055D01*
X0034393Y0024918D01*
X0034295Y0024782D01*
X0034194Y0024649D01*
X0034089Y0024519D01*
X0033982Y0024391D01*
X0033871Y0024266D01*
X0033758Y0024144D01*
X0033641Y0024025D01*
X0033522Y0023908D01*
X0033400Y0023795D01*
X0033275Y0023684D01*
X0033147Y0023577D01*
X0033017Y0023472D01*
X0032884Y0023371D01*
X0032748Y0023273D01*
X0032611Y0023179D01*
X0032471Y0023088D01*
X0032329Y0023000D01*
X0032185Y0022916D01*
X0032038Y0022836D01*
X0031890Y0022759D01*
X0031740Y0022686D01*
X0031589Y0022616D01*
X0031435Y0022551D01*
X0031280Y0022489D01*
X0031124Y0022431D01*
X0030966Y0022376D01*
X0030807Y0022326D01*
X0030647Y0022279D01*
X0030485Y0022237D01*
X0030323Y0022198D01*
X0030160Y0022164D01*
X0029996Y0022133D01*
X0029831Y0022107D01*
X0029665Y0022084D01*
X0029500Y0022066D01*
X0029333Y0022051D01*
X0029167Y0022041D01*
X0029000Y0022035D01*
X0028833Y0022033D01*
X0028666Y0022035D01*
X0028499Y0022041D01*
X0028333Y0022051D01*
X0028166Y0022066D01*
X0028001Y0022084D01*
X0027835Y0022107D01*
X0027670Y0022133D01*
X0027506Y0022164D01*
X0027343Y0022198D01*
X0027181Y0022237D01*
X0027019Y0022279D01*
X0026859Y0022326D01*
X0026700Y0022376D01*
X0026542Y0022431D01*
X0026386Y0022489D01*
X0026231Y0022551D01*
X0026077Y0022616D01*
X0025926Y0022686D01*
X0025776Y0022759D01*
X0025628Y0022836D01*
X0025481Y0022916D01*
X0025337Y0023000D01*
X0025195Y0023088D01*
X0025055Y0023179D01*
X0024918Y0023273D01*
X0024782Y0023371D01*
X0024649Y0023472D01*
X0024519Y0023577D01*
X0024391Y0023684D01*
X0024266Y0023795D01*
X0024144Y0023908D01*
X0024025Y0024025D01*
X0023908Y0024144D01*
X0023795Y0024266D01*
X0023684Y0024391D01*
X0023577Y0024519D01*
X0023472Y0024649D01*
X0023371Y0024782D01*
X0023273Y0024918D01*
X0023179Y0025055D01*
X0023088Y0025195D01*
X0023000Y0025337D01*
X0022916Y0025481D01*
X0022836Y0025628D01*
X0022759Y0025776D01*
X0022686Y0025926D01*
X0022616Y0026077D01*
X0022551Y0026231D01*
X0022489Y0026386D01*
X0022431Y0026542D01*
X0022376Y0026700D01*
X0022326Y0026859D01*
X0022279Y0027019D01*
X0022237Y0027181D01*
X0022198Y0027343D01*
X0022164Y0027506D01*
X0022133Y0027670D01*
X0022107Y0027835D01*
X0022084Y0028001D01*
X0022066Y0028166D01*
X0022051Y0028333D01*
X0022041Y0028499D01*
X0022035Y0028666D01*
X0022033Y0028833D01*
X0024533Y0193833D02*
X0024535Y0194000D01*
X0024541Y0194167D01*
X0024551Y0194333D01*
X0024566Y0194500D01*
X0024584Y0194665D01*
X0024607Y0194831D01*
X0024633Y0194996D01*
X0024664Y0195160D01*
X0024698Y0195323D01*
X0024737Y0195485D01*
X0024779Y0195647D01*
X0024826Y0195807D01*
X0024876Y0195966D01*
X0024931Y0196124D01*
X0024989Y0196280D01*
X0025051Y0196435D01*
X0025116Y0196589D01*
X0025186Y0196740D01*
X0025259Y0196890D01*
X0025336Y0197038D01*
X0025416Y0197185D01*
X0025500Y0197329D01*
X0025588Y0197471D01*
X0025679Y0197611D01*
X0025773Y0197748D01*
X0025871Y0197884D01*
X0025972Y0198017D01*
X0026077Y0198147D01*
X0026184Y0198275D01*
X0026295Y0198400D01*
X0026408Y0198522D01*
X0026525Y0198641D01*
X0026644Y0198758D01*
X0026766Y0198871D01*
X0026891Y0198982D01*
X0027019Y0199089D01*
X0027149Y0199194D01*
X0027282Y0199295D01*
X0027418Y0199393D01*
X0027555Y0199487D01*
X0027695Y0199578D01*
X0027837Y0199666D01*
X0027981Y0199750D01*
X0028128Y0199830D01*
X0028276Y0199907D01*
X0028426Y0199980D01*
X0028577Y0200050D01*
X0028731Y0200115D01*
X0028886Y0200177D01*
X0029042Y0200235D01*
X0029200Y0200290D01*
X0029359Y0200340D01*
X0029519Y0200387D01*
X0029681Y0200429D01*
X0029843Y0200468D01*
X0030006Y0200502D01*
X0030170Y0200533D01*
X0030335Y0200559D01*
X0030501Y0200582D01*
X0030666Y0200600D01*
X0030833Y0200615D01*
X0030999Y0200625D01*
X0031166Y0200631D01*
X0031333Y0200633D01*
X0031500Y0200631D01*
X0031667Y0200625D01*
X0031833Y0200615D01*
X0032000Y0200600D01*
X0032165Y0200582D01*
X0032331Y0200559D01*
X0032496Y0200533D01*
X0032660Y0200502D01*
X0032823Y0200468D01*
X0032985Y0200429D01*
X0033147Y0200387D01*
X0033307Y0200340D01*
X0033466Y0200290D01*
X0033624Y0200235D01*
X0033780Y0200177D01*
X0033935Y0200115D01*
X0034089Y0200050D01*
X0034240Y0199980D01*
X0034390Y0199907D01*
X0034538Y0199830D01*
X0034685Y0199750D01*
X0034829Y0199666D01*
X0034971Y0199578D01*
X0035111Y0199487D01*
X0035248Y0199393D01*
X0035384Y0199295D01*
X0035517Y0199194D01*
X0035647Y0199089D01*
X0035775Y0198982D01*
X0035900Y0198871D01*
X0036022Y0198758D01*
X0036141Y0198641D01*
X0036258Y0198522D01*
X0036371Y0198400D01*
X0036482Y0198275D01*
X0036589Y0198147D01*
X0036694Y0198017D01*
X0036795Y0197884D01*
X0036893Y0197748D01*
X0036987Y0197611D01*
X0037078Y0197471D01*
X0037166Y0197329D01*
X0037250Y0197185D01*
X0037330Y0197038D01*
X0037407Y0196890D01*
X0037480Y0196740D01*
X0037550Y0196589D01*
X0037615Y0196435D01*
X0037677Y0196280D01*
X0037735Y0196124D01*
X0037790Y0195966D01*
X0037840Y0195807D01*
X0037887Y0195647D01*
X0037929Y0195485D01*
X0037968Y0195323D01*
X0038002Y0195160D01*
X0038033Y0194996D01*
X0038059Y0194831D01*
X0038082Y0194665D01*
X0038100Y0194500D01*
X0038115Y0194333D01*
X0038125Y0194167D01*
X0038131Y0194000D01*
X0038133Y0193833D01*
X0038131Y0193666D01*
X0038125Y0193499D01*
X0038115Y0193333D01*
X0038100Y0193166D01*
X0038082Y0193001D01*
X0038059Y0192835D01*
X0038033Y0192670D01*
X0038002Y0192506D01*
X0037968Y0192343D01*
X0037929Y0192181D01*
X0037887Y0192019D01*
X0037840Y0191859D01*
X0037790Y0191700D01*
X0037735Y0191542D01*
X0037677Y0191386D01*
X0037615Y0191231D01*
X0037550Y0191077D01*
X0037480Y0190926D01*
X0037407Y0190776D01*
X0037330Y0190628D01*
X0037250Y0190481D01*
X0037166Y0190337D01*
X0037078Y0190195D01*
X0036987Y0190055D01*
X0036893Y0189918D01*
X0036795Y0189782D01*
X0036694Y0189649D01*
X0036589Y0189519D01*
X0036482Y0189391D01*
X0036371Y0189266D01*
X0036258Y0189144D01*
X0036141Y0189025D01*
X0036022Y0188908D01*
X0035900Y0188795D01*
X0035775Y0188684D01*
X0035647Y0188577D01*
X0035517Y0188472D01*
X0035384Y0188371D01*
X0035248Y0188273D01*
X0035111Y0188179D01*
X0034971Y0188088D01*
X0034829Y0188000D01*
X0034685Y0187916D01*
X0034538Y0187836D01*
X0034390Y0187759D01*
X0034240Y0187686D01*
X0034089Y0187616D01*
X0033935Y0187551D01*
X0033780Y0187489D01*
X0033624Y0187431D01*
X0033466Y0187376D01*
X0033307Y0187326D01*
X0033147Y0187279D01*
X0032985Y0187237D01*
X0032823Y0187198D01*
X0032660Y0187164D01*
X0032496Y0187133D01*
X0032331Y0187107D01*
X0032165Y0187084D01*
X0032000Y0187066D01*
X0031833Y0187051D01*
X0031667Y0187041D01*
X0031500Y0187035D01*
X0031333Y0187033D01*
X0031166Y0187035D01*
X0030999Y0187041D01*
X0030833Y0187051D01*
X0030666Y0187066D01*
X0030501Y0187084D01*
X0030335Y0187107D01*
X0030170Y0187133D01*
X0030006Y0187164D01*
X0029843Y0187198D01*
X0029681Y0187237D01*
X0029519Y0187279D01*
X0029359Y0187326D01*
X0029200Y0187376D01*
X0029042Y0187431D01*
X0028886Y0187489D01*
X0028731Y0187551D01*
X0028577Y0187616D01*
X0028426Y0187686D01*
X0028276Y0187759D01*
X0028128Y0187836D01*
X0027981Y0187916D01*
X0027837Y0188000D01*
X0027695Y0188088D01*
X0027555Y0188179D01*
X0027418Y0188273D01*
X0027282Y0188371D01*
X0027149Y0188472D01*
X0027019Y0188577D01*
X0026891Y0188684D01*
X0026766Y0188795D01*
X0026644Y0188908D01*
X0026525Y0189025D01*
X0026408Y0189144D01*
X0026295Y0189266D01*
X0026184Y0189391D01*
X0026077Y0189519D01*
X0025972Y0189649D01*
X0025871Y0189782D01*
X0025773Y0189918D01*
X0025679Y0190055D01*
X0025588Y0190195D01*
X0025500Y0190337D01*
X0025416Y0190481D01*
X0025336Y0190628D01*
X0025259Y0190776D01*
X0025186Y0190926D01*
X0025116Y0191077D01*
X0025051Y0191231D01*
X0024989Y0191386D01*
X0024931Y0191542D01*
X0024876Y0191700D01*
X0024826Y0191859D01*
X0024779Y0192019D01*
X0024737Y0192181D01*
X0024698Y0192343D01*
X0024664Y0192506D01*
X0024633Y0192670D01*
X0024607Y0192835D01*
X0024584Y0193001D01*
X0024566Y0193166D01*
X0024551Y0193333D01*
X0024541Y0193499D01*
X0024535Y0193666D01*
X0024533Y0193833D01*
X0022033Y0221747D02*
X0022035Y0221914D01*
X0022041Y0222081D01*
X0022051Y0222247D01*
X0022066Y0222414D01*
X0022084Y0222579D01*
X0022107Y0222745D01*
X0022133Y0222910D01*
X0022164Y0223074D01*
X0022198Y0223237D01*
X0022237Y0223399D01*
X0022279Y0223561D01*
X0022326Y0223721D01*
X0022376Y0223880D01*
X0022431Y0224038D01*
X0022489Y0224194D01*
X0022551Y0224349D01*
X0022616Y0224503D01*
X0022686Y0224654D01*
X0022759Y0224804D01*
X0022836Y0224952D01*
X0022916Y0225099D01*
X0023000Y0225243D01*
X0023088Y0225385D01*
X0023179Y0225525D01*
X0023273Y0225662D01*
X0023371Y0225798D01*
X0023472Y0225931D01*
X0023577Y0226061D01*
X0023684Y0226189D01*
X0023795Y0226314D01*
X0023908Y0226436D01*
X0024025Y0226555D01*
X0024144Y0226672D01*
X0024266Y0226785D01*
X0024391Y0226896D01*
X0024519Y0227003D01*
X0024649Y0227108D01*
X0024782Y0227209D01*
X0024918Y0227307D01*
X0025055Y0227401D01*
X0025195Y0227492D01*
X0025337Y0227580D01*
X0025481Y0227664D01*
X0025628Y0227744D01*
X0025776Y0227821D01*
X0025926Y0227894D01*
X0026077Y0227964D01*
X0026231Y0228029D01*
X0026386Y0228091D01*
X0026542Y0228149D01*
X0026700Y0228204D01*
X0026859Y0228254D01*
X0027019Y0228301D01*
X0027181Y0228343D01*
X0027343Y0228382D01*
X0027506Y0228416D01*
X0027670Y0228447D01*
X0027835Y0228473D01*
X0028001Y0228496D01*
X0028166Y0228514D01*
X0028333Y0228529D01*
X0028499Y0228539D01*
X0028666Y0228545D01*
X0028833Y0228547D01*
X0029000Y0228545D01*
X0029167Y0228539D01*
X0029333Y0228529D01*
X0029500Y0228514D01*
X0029665Y0228496D01*
X0029831Y0228473D01*
X0029996Y0228447D01*
X0030160Y0228416D01*
X0030323Y0228382D01*
X0030485Y0228343D01*
X0030647Y0228301D01*
X0030807Y0228254D01*
X0030966Y0228204D01*
X0031124Y0228149D01*
X0031280Y0228091D01*
X0031435Y0228029D01*
X0031589Y0227964D01*
X0031740Y0227894D01*
X0031890Y0227821D01*
X0032038Y0227744D01*
X0032185Y0227664D01*
X0032329Y0227580D01*
X0032471Y0227492D01*
X0032611Y0227401D01*
X0032748Y0227307D01*
X0032884Y0227209D01*
X0033017Y0227108D01*
X0033147Y0227003D01*
X0033275Y0226896D01*
X0033400Y0226785D01*
X0033522Y0226672D01*
X0033641Y0226555D01*
X0033758Y0226436D01*
X0033871Y0226314D01*
X0033982Y0226189D01*
X0034089Y0226061D01*
X0034194Y0225931D01*
X0034295Y0225798D01*
X0034393Y0225662D01*
X0034487Y0225525D01*
X0034578Y0225385D01*
X0034666Y0225243D01*
X0034750Y0225099D01*
X0034830Y0224952D01*
X0034907Y0224804D01*
X0034980Y0224654D01*
X0035050Y0224503D01*
X0035115Y0224349D01*
X0035177Y0224194D01*
X0035235Y0224038D01*
X0035290Y0223880D01*
X0035340Y0223721D01*
X0035387Y0223561D01*
X0035429Y0223399D01*
X0035468Y0223237D01*
X0035502Y0223074D01*
X0035533Y0222910D01*
X0035559Y0222745D01*
X0035582Y0222579D01*
X0035600Y0222414D01*
X0035615Y0222247D01*
X0035625Y0222081D01*
X0035631Y0221914D01*
X0035633Y0221747D01*
X0035631Y0221580D01*
X0035625Y0221413D01*
X0035615Y0221247D01*
X0035600Y0221080D01*
X0035582Y0220915D01*
X0035559Y0220749D01*
X0035533Y0220584D01*
X0035502Y0220420D01*
X0035468Y0220257D01*
X0035429Y0220095D01*
X0035387Y0219933D01*
X0035340Y0219773D01*
X0035290Y0219614D01*
X0035235Y0219456D01*
X0035177Y0219300D01*
X0035115Y0219145D01*
X0035050Y0218991D01*
X0034980Y0218840D01*
X0034907Y0218690D01*
X0034830Y0218542D01*
X0034750Y0218395D01*
X0034666Y0218251D01*
X0034578Y0218109D01*
X0034487Y0217969D01*
X0034393Y0217832D01*
X0034295Y0217696D01*
X0034194Y0217563D01*
X0034089Y0217433D01*
X0033982Y0217305D01*
X0033871Y0217180D01*
X0033758Y0217058D01*
X0033641Y0216939D01*
X0033522Y0216822D01*
X0033400Y0216709D01*
X0033275Y0216598D01*
X0033147Y0216491D01*
X0033017Y0216386D01*
X0032884Y0216285D01*
X0032748Y0216187D01*
X0032611Y0216093D01*
X0032471Y0216002D01*
X0032329Y0215914D01*
X0032185Y0215830D01*
X0032038Y0215750D01*
X0031890Y0215673D01*
X0031740Y0215600D01*
X0031589Y0215530D01*
X0031435Y0215465D01*
X0031280Y0215403D01*
X0031124Y0215345D01*
X0030966Y0215290D01*
X0030807Y0215240D01*
X0030647Y0215193D01*
X0030485Y0215151D01*
X0030323Y0215112D01*
X0030160Y0215078D01*
X0029996Y0215047D01*
X0029831Y0215021D01*
X0029665Y0214998D01*
X0029500Y0214980D01*
X0029333Y0214965D01*
X0029167Y0214955D01*
X0029000Y0214949D01*
X0028833Y0214947D01*
X0028666Y0214949D01*
X0028499Y0214955D01*
X0028333Y0214965D01*
X0028166Y0214980D01*
X0028001Y0214998D01*
X0027835Y0215021D01*
X0027670Y0215047D01*
X0027506Y0215078D01*
X0027343Y0215112D01*
X0027181Y0215151D01*
X0027019Y0215193D01*
X0026859Y0215240D01*
X0026700Y0215290D01*
X0026542Y0215345D01*
X0026386Y0215403D01*
X0026231Y0215465D01*
X0026077Y0215530D01*
X0025926Y0215600D01*
X0025776Y0215673D01*
X0025628Y0215750D01*
X0025481Y0215830D01*
X0025337Y0215914D01*
X0025195Y0216002D01*
X0025055Y0216093D01*
X0024918Y0216187D01*
X0024782Y0216285D01*
X0024649Y0216386D01*
X0024519Y0216491D01*
X0024391Y0216598D01*
X0024266Y0216709D01*
X0024144Y0216822D01*
X0024025Y0216939D01*
X0023908Y0217058D01*
X0023795Y0217180D01*
X0023684Y0217305D01*
X0023577Y0217433D01*
X0023472Y0217563D01*
X0023371Y0217696D01*
X0023273Y0217832D01*
X0023179Y0217969D01*
X0023088Y0218109D01*
X0023000Y0218251D01*
X0022916Y0218395D01*
X0022836Y0218542D01*
X0022759Y0218690D01*
X0022686Y0218840D01*
X0022616Y0218991D01*
X0022551Y0219145D01*
X0022489Y0219300D01*
X0022431Y0219456D01*
X0022376Y0219614D01*
X0022326Y0219773D01*
X0022279Y0219933D01*
X0022237Y0220095D01*
X0022198Y0220257D01*
X0022164Y0220420D01*
X0022133Y0220584D01*
X0022107Y0220749D01*
X0022084Y0220915D01*
X0022066Y0221080D01*
X0022051Y0221247D01*
X0022041Y0221413D01*
X0022035Y0221580D01*
X0022033Y0221747D01*
X0024533Y0386747D02*
X0024535Y0386914D01*
X0024541Y0387081D01*
X0024551Y0387247D01*
X0024566Y0387414D01*
X0024584Y0387579D01*
X0024607Y0387745D01*
X0024633Y0387910D01*
X0024664Y0388074D01*
X0024698Y0388237D01*
X0024737Y0388399D01*
X0024779Y0388561D01*
X0024826Y0388721D01*
X0024876Y0388880D01*
X0024931Y0389038D01*
X0024989Y0389194D01*
X0025051Y0389349D01*
X0025116Y0389503D01*
X0025186Y0389654D01*
X0025259Y0389804D01*
X0025336Y0389952D01*
X0025416Y0390099D01*
X0025500Y0390243D01*
X0025588Y0390385D01*
X0025679Y0390525D01*
X0025773Y0390662D01*
X0025871Y0390798D01*
X0025972Y0390931D01*
X0026077Y0391061D01*
X0026184Y0391189D01*
X0026295Y0391314D01*
X0026408Y0391436D01*
X0026525Y0391555D01*
X0026644Y0391672D01*
X0026766Y0391785D01*
X0026891Y0391896D01*
X0027019Y0392003D01*
X0027149Y0392108D01*
X0027282Y0392209D01*
X0027418Y0392307D01*
X0027555Y0392401D01*
X0027695Y0392492D01*
X0027837Y0392580D01*
X0027981Y0392664D01*
X0028128Y0392744D01*
X0028276Y0392821D01*
X0028426Y0392894D01*
X0028577Y0392964D01*
X0028731Y0393029D01*
X0028886Y0393091D01*
X0029042Y0393149D01*
X0029200Y0393204D01*
X0029359Y0393254D01*
X0029519Y0393301D01*
X0029681Y0393343D01*
X0029843Y0393382D01*
X0030006Y0393416D01*
X0030170Y0393447D01*
X0030335Y0393473D01*
X0030501Y0393496D01*
X0030666Y0393514D01*
X0030833Y0393529D01*
X0030999Y0393539D01*
X0031166Y0393545D01*
X0031333Y0393547D01*
X0031500Y0393545D01*
X0031667Y0393539D01*
X0031833Y0393529D01*
X0032000Y0393514D01*
X0032165Y0393496D01*
X0032331Y0393473D01*
X0032496Y0393447D01*
X0032660Y0393416D01*
X0032823Y0393382D01*
X0032985Y0393343D01*
X0033147Y0393301D01*
X0033307Y0393254D01*
X0033466Y0393204D01*
X0033624Y0393149D01*
X0033780Y0393091D01*
X0033935Y0393029D01*
X0034089Y0392964D01*
X0034240Y0392894D01*
X0034390Y0392821D01*
X0034538Y0392744D01*
X0034685Y0392664D01*
X0034829Y0392580D01*
X0034971Y0392492D01*
X0035111Y0392401D01*
X0035248Y0392307D01*
X0035384Y0392209D01*
X0035517Y0392108D01*
X0035647Y0392003D01*
X0035775Y0391896D01*
X0035900Y0391785D01*
X0036022Y0391672D01*
X0036141Y0391555D01*
X0036258Y0391436D01*
X0036371Y0391314D01*
X0036482Y0391189D01*
X0036589Y0391061D01*
X0036694Y0390931D01*
X0036795Y0390798D01*
X0036893Y0390662D01*
X0036987Y0390525D01*
X0037078Y0390385D01*
X0037166Y0390243D01*
X0037250Y0390099D01*
X0037330Y0389952D01*
X0037407Y0389804D01*
X0037480Y0389654D01*
X0037550Y0389503D01*
X0037615Y0389349D01*
X0037677Y0389194D01*
X0037735Y0389038D01*
X0037790Y0388880D01*
X0037840Y0388721D01*
X0037887Y0388561D01*
X0037929Y0388399D01*
X0037968Y0388237D01*
X0038002Y0388074D01*
X0038033Y0387910D01*
X0038059Y0387745D01*
X0038082Y0387579D01*
X0038100Y0387414D01*
X0038115Y0387247D01*
X0038125Y0387081D01*
X0038131Y0386914D01*
X0038133Y0386747D01*
X0038131Y0386580D01*
X0038125Y0386413D01*
X0038115Y0386247D01*
X0038100Y0386080D01*
X0038082Y0385915D01*
X0038059Y0385749D01*
X0038033Y0385584D01*
X0038002Y0385420D01*
X0037968Y0385257D01*
X0037929Y0385095D01*
X0037887Y0384933D01*
X0037840Y0384773D01*
X0037790Y0384614D01*
X0037735Y0384456D01*
X0037677Y0384300D01*
X0037615Y0384145D01*
X0037550Y0383991D01*
X0037480Y0383840D01*
X0037407Y0383690D01*
X0037330Y0383542D01*
X0037250Y0383395D01*
X0037166Y0383251D01*
X0037078Y0383109D01*
X0036987Y0382969D01*
X0036893Y0382832D01*
X0036795Y0382696D01*
X0036694Y0382563D01*
X0036589Y0382433D01*
X0036482Y0382305D01*
X0036371Y0382180D01*
X0036258Y0382058D01*
X0036141Y0381939D01*
X0036022Y0381822D01*
X0035900Y0381709D01*
X0035775Y0381598D01*
X0035647Y0381491D01*
X0035517Y0381386D01*
X0035384Y0381285D01*
X0035248Y0381187D01*
X0035111Y0381093D01*
X0034971Y0381002D01*
X0034829Y0380914D01*
X0034685Y0380830D01*
X0034538Y0380750D01*
X0034390Y0380673D01*
X0034240Y0380600D01*
X0034089Y0380530D01*
X0033935Y0380465D01*
X0033780Y0380403D01*
X0033624Y0380345D01*
X0033466Y0380290D01*
X0033307Y0380240D01*
X0033147Y0380193D01*
X0032985Y0380151D01*
X0032823Y0380112D01*
X0032660Y0380078D01*
X0032496Y0380047D01*
X0032331Y0380021D01*
X0032165Y0379998D01*
X0032000Y0379980D01*
X0031833Y0379965D01*
X0031667Y0379955D01*
X0031500Y0379949D01*
X0031333Y0379947D01*
X0031166Y0379949D01*
X0030999Y0379955D01*
X0030833Y0379965D01*
X0030666Y0379980D01*
X0030501Y0379998D01*
X0030335Y0380021D01*
X0030170Y0380047D01*
X0030006Y0380078D01*
X0029843Y0380112D01*
X0029681Y0380151D01*
X0029519Y0380193D01*
X0029359Y0380240D01*
X0029200Y0380290D01*
X0029042Y0380345D01*
X0028886Y0380403D01*
X0028731Y0380465D01*
X0028577Y0380530D01*
X0028426Y0380600D01*
X0028276Y0380673D01*
X0028128Y0380750D01*
X0027981Y0380830D01*
X0027837Y0380914D01*
X0027695Y0381002D01*
X0027555Y0381093D01*
X0027418Y0381187D01*
X0027282Y0381285D01*
X0027149Y0381386D01*
X0027019Y0381491D01*
X0026891Y0381598D01*
X0026766Y0381709D01*
X0026644Y0381822D01*
X0026525Y0381939D01*
X0026408Y0382058D01*
X0026295Y0382180D01*
X0026184Y0382305D01*
X0026077Y0382433D01*
X0025972Y0382563D01*
X0025871Y0382696D01*
X0025773Y0382832D01*
X0025679Y0382969D01*
X0025588Y0383109D01*
X0025500Y0383251D01*
X0025416Y0383395D01*
X0025336Y0383542D01*
X0025259Y0383690D01*
X0025186Y0383840D01*
X0025116Y0383991D01*
X0025051Y0384145D01*
X0024989Y0384300D01*
X0024931Y0384456D01*
X0024876Y0384614D01*
X0024826Y0384773D01*
X0024779Y0384933D01*
X0024737Y0385095D01*
X0024698Y0385257D01*
X0024664Y0385420D01*
X0024633Y0385584D01*
X0024607Y0385749D01*
X0024584Y0385915D01*
X0024566Y0386080D01*
X0024551Y0386247D01*
X0024541Y0386413D01*
X0024535Y0386580D01*
X0024533Y0386747D01*
X0184533Y0386747D02*
X0184535Y0386914D01*
X0184541Y0387081D01*
X0184551Y0387247D01*
X0184566Y0387414D01*
X0184584Y0387579D01*
X0184607Y0387745D01*
X0184633Y0387910D01*
X0184664Y0388074D01*
X0184698Y0388237D01*
X0184737Y0388399D01*
X0184779Y0388561D01*
X0184826Y0388721D01*
X0184876Y0388880D01*
X0184931Y0389038D01*
X0184989Y0389194D01*
X0185051Y0389349D01*
X0185116Y0389503D01*
X0185186Y0389654D01*
X0185259Y0389804D01*
X0185336Y0389952D01*
X0185416Y0390099D01*
X0185500Y0390243D01*
X0185588Y0390385D01*
X0185679Y0390525D01*
X0185773Y0390662D01*
X0185871Y0390798D01*
X0185972Y0390931D01*
X0186077Y0391061D01*
X0186184Y0391189D01*
X0186295Y0391314D01*
X0186408Y0391436D01*
X0186525Y0391555D01*
X0186644Y0391672D01*
X0186766Y0391785D01*
X0186891Y0391896D01*
X0187019Y0392003D01*
X0187149Y0392108D01*
X0187282Y0392209D01*
X0187418Y0392307D01*
X0187555Y0392401D01*
X0187695Y0392492D01*
X0187837Y0392580D01*
X0187981Y0392664D01*
X0188128Y0392744D01*
X0188276Y0392821D01*
X0188426Y0392894D01*
X0188577Y0392964D01*
X0188731Y0393029D01*
X0188886Y0393091D01*
X0189042Y0393149D01*
X0189200Y0393204D01*
X0189359Y0393254D01*
X0189519Y0393301D01*
X0189681Y0393343D01*
X0189843Y0393382D01*
X0190006Y0393416D01*
X0190170Y0393447D01*
X0190335Y0393473D01*
X0190501Y0393496D01*
X0190666Y0393514D01*
X0190833Y0393529D01*
X0190999Y0393539D01*
X0191166Y0393545D01*
X0191333Y0393547D01*
X0191500Y0393545D01*
X0191667Y0393539D01*
X0191833Y0393529D01*
X0192000Y0393514D01*
X0192165Y0393496D01*
X0192331Y0393473D01*
X0192496Y0393447D01*
X0192660Y0393416D01*
X0192823Y0393382D01*
X0192985Y0393343D01*
X0193147Y0393301D01*
X0193307Y0393254D01*
X0193466Y0393204D01*
X0193624Y0393149D01*
X0193780Y0393091D01*
X0193935Y0393029D01*
X0194089Y0392964D01*
X0194240Y0392894D01*
X0194390Y0392821D01*
X0194538Y0392744D01*
X0194685Y0392664D01*
X0194829Y0392580D01*
X0194971Y0392492D01*
X0195111Y0392401D01*
X0195248Y0392307D01*
X0195384Y0392209D01*
X0195517Y0392108D01*
X0195647Y0392003D01*
X0195775Y0391896D01*
X0195900Y0391785D01*
X0196022Y0391672D01*
X0196141Y0391555D01*
X0196258Y0391436D01*
X0196371Y0391314D01*
X0196482Y0391189D01*
X0196589Y0391061D01*
X0196694Y0390931D01*
X0196795Y0390798D01*
X0196893Y0390662D01*
X0196987Y0390525D01*
X0197078Y0390385D01*
X0197166Y0390243D01*
X0197250Y0390099D01*
X0197330Y0389952D01*
X0197407Y0389804D01*
X0197480Y0389654D01*
X0197550Y0389503D01*
X0197615Y0389349D01*
X0197677Y0389194D01*
X0197735Y0389038D01*
X0197790Y0388880D01*
X0197840Y0388721D01*
X0197887Y0388561D01*
X0197929Y0388399D01*
X0197968Y0388237D01*
X0198002Y0388074D01*
X0198033Y0387910D01*
X0198059Y0387745D01*
X0198082Y0387579D01*
X0198100Y0387414D01*
X0198115Y0387247D01*
X0198125Y0387081D01*
X0198131Y0386914D01*
X0198133Y0386747D01*
X0198131Y0386580D01*
X0198125Y0386413D01*
X0198115Y0386247D01*
X0198100Y0386080D01*
X0198082Y0385915D01*
X0198059Y0385749D01*
X0198033Y0385584D01*
X0198002Y0385420D01*
X0197968Y0385257D01*
X0197929Y0385095D01*
X0197887Y0384933D01*
X0197840Y0384773D01*
X0197790Y0384614D01*
X0197735Y0384456D01*
X0197677Y0384300D01*
X0197615Y0384145D01*
X0197550Y0383991D01*
X0197480Y0383840D01*
X0197407Y0383690D01*
X0197330Y0383542D01*
X0197250Y0383395D01*
X0197166Y0383251D01*
X0197078Y0383109D01*
X0196987Y0382969D01*
X0196893Y0382832D01*
X0196795Y0382696D01*
X0196694Y0382563D01*
X0196589Y0382433D01*
X0196482Y0382305D01*
X0196371Y0382180D01*
X0196258Y0382058D01*
X0196141Y0381939D01*
X0196022Y0381822D01*
X0195900Y0381709D01*
X0195775Y0381598D01*
X0195647Y0381491D01*
X0195517Y0381386D01*
X0195384Y0381285D01*
X0195248Y0381187D01*
X0195111Y0381093D01*
X0194971Y0381002D01*
X0194829Y0380914D01*
X0194685Y0380830D01*
X0194538Y0380750D01*
X0194390Y0380673D01*
X0194240Y0380600D01*
X0194089Y0380530D01*
X0193935Y0380465D01*
X0193780Y0380403D01*
X0193624Y0380345D01*
X0193466Y0380290D01*
X0193307Y0380240D01*
X0193147Y0380193D01*
X0192985Y0380151D01*
X0192823Y0380112D01*
X0192660Y0380078D01*
X0192496Y0380047D01*
X0192331Y0380021D01*
X0192165Y0379998D01*
X0192000Y0379980D01*
X0191833Y0379965D01*
X0191667Y0379955D01*
X0191500Y0379949D01*
X0191333Y0379947D01*
X0191166Y0379949D01*
X0190999Y0379955D01*
X0190833Y0379965D01*
X0190666Y0379980D01*
X0190501Y0379998D01*
X0190335Y0380021D01*
X0190170Y0380047D01*
X0190006Y0380078D01*
X0189843Y0380112D01*
X0189681Y0380151D01*
X0189519Y0380193D01*
X0189359Y0380240D01*
X0189200Y0380290D01*
X0189042Y0380345D01*
X0188886Y0380403D01*
X0188731Y0380465D01*
X0188577Y0380530D01*
X0188426Y0380600D01*
X0188276Y0380673D01*
X0188128Y0380750D01*
X0187981Y0380830D01*
X0187837Y0380914D01*
X0187695Y0381002D01*
X0187555Y0381093D01*
X0187418Y0381187D01*
X0187282Y0381285D01*
X0187149Y0381386D01*
X0187019Y0381491D01*
X0186891Y0381598D01*
X0186766Y0381709D01*
X0186644Y0381822D01*
X0186525Y0381939D01*
X0186408Y0382058D01*
X0186295Y0382180D01*
X0186184Y0382305D01*
X0186077Y0382433D01*
X0185972Y0382563D01*
X0185871Y0382696D01*
X0185773Y0382832D01*
X0185679Y0382969D01*
X0185588Y0383109D01*
X0185500Y0383251D01*
X0185416Y0383395D01*
X0185336Y0383542D01*
X0185259Y0383690D01*
X0185186Y0383840D01*
X0185116Y0383991D01*
X0185051Y0384145D01*
X0184989Y0384300D01*
X0184931Y0384456D01*
X0184876Y0384614D01*
X0184826Y0384773D01*
X0184779Y0384933D01*
X0184737Y0385095D01*
X0184698Y0385257D01*
X0184664Y0385420D01*
X0184633Y0385584D01*
X0184607Y0385749D01*
X0184584Y0385915D01*
X0184566Y0386080D01*
X0184551Y0386247D01*
X0184541Y0386413D01*
X0184535Y0386580D01*
X0184533Y0386747D01*
X0217447Y0386747D02*
X0217449Y0386914D01*
X0217455Y0387081D01*
X0217465Y0387247D01*
X0217480Y0387414D01*
X0217498Y0387579D01*
X0217521Y0387745D01*
X0217547Y0387910D01*
X0217578Y0388074D01*
X0217612Y0388237D01*
X0217651Y0388399D01*
X0217693Y0388561D01*
X0217740Y0388721D01*
X0217790Y0388880D01*
X0217845Y0389038D01*
X0217903Y0389194D01*
X0217965Y0389349D01*
X0218030Y0389503D01*
X0218100Y0389654D01*
X0218173Y0389804D01*
X0218250Y0389952D01*
X0218330Y0390099D01*
X0218414Y0390243D01*
X0218502Y0390385D01*
X0218593Y0390525D01*
X0218687Y0390662D01*
X0218785Y0390798D01*
X0218886Y0390931D01*
X0218991Y0391061D01*
X0219098Y0391189D01*
X0219209Y0391314D01*
X0219322Y0391436D01*
X0219439Y0391555D01*
X0219558Y0391672D01*
X0219680Y0391785D01*
X0219805Y0391896D01*
X0219933Y0392003D01*
X0220063Y0392108D01*
X0220196Y0392209D01*
X0220332Y0392307D01*
X0220469Y0392401D01*
X0220609Y0392492D01*
X0220751Y0392580D01*
X0220895Y0392664D01*
X0221042Y0392744D01*
X0221190Y0392821D01*
X0221340Y0392894D01*
X0221491Y0392964D01*
X0221645Y0393029D01*
X0221800Y0393091D01*
X0221956Y0393149D01*
X0222114Y0393204D01*
X0222273Y0393254D01*
X0222433Y0393301D01*
X0222595Y0393343D01*
X0222757Y0393382D01*
X0222920Y0393416D01*
X0223084Y0393447D01*
X0223249Y0393473D01*
X0223415Y0393496D01*
X0223580Y0393514D01*
X0223747Y0393529D01*
X0223913Y0393539D01*
X0224080Y0393545D01*
X0224247Y0393547D01*
X0224414Y0393545D01*
X0224581Y0393539D01*
X0224747Y0393529D01*
X0224914Y0393514D01*
X0225079Y0393496D01*
X0225245Y0393473D01*
X0225410Y0393447D01*
X0225574Y0393416D01*
X0225737Y0393382D01*
X0225899Y0393343D01*
X0226061Y0393301D01*
X0226221Y0393254D01*
X0226380Y0393204D01*
X0226538Y0393149D01*
X0226694Y0393091D01*
X0226849Y0393029D01*
X0227003Y0392964D01*
X0227154Y0392894D01*
X0227304Y0392821D01*
X0227452Y0392744D01*
X0227599Y0392664D01*
X0227743Y0392580D01*
X0227885Y0392492D01*
X0228025Y0392401D01*
X0228162Y0392307D01*
X0228298Y0392209D01*
X0228431Y0392108D01*
X0228561Y0392003D01*
X0228689Y0391896D01*
X0228814Y0391785D01*
X0228936Y0391672D01*
X0229055Y0391555D01*
X0229172Y0391436D01*
X0229285Y0391314D01*
X0229396Y0391189D01*
X0229503Y0391061D01*
X0229608Y0390931D01*
X0229709Y0390798D01*
X0229807Y0390662D01*
X0229901Y0390525D01*
X0229992Y0390385D01*
X0230080Y0390243D01*
X0230164Y0390099D01*
X0230244Y0389952D01*
X0230321Y0389804D01*
X0230394Y0389654D01*
X0230464Y0389503D01*
X0230529Y0389349D01*
X0230591Y0389194D01*
X0230649Y0389038D01*
X0230704Y0388880D01*
X0230754Y0388721D01*
X0230801Y0388561D01*
X0230843Y0388399D01*
X0230882Y0388237D01*
X0230916Y0388074D01*
X0230947Y0387910D01*
X0230973Y0387745D01*
X0230996Y0387579D01*
X0231014Y0387414D01*
X0231029Y0387247D01*
X0231039Y0387081D01*
X0231045Y0386914D01*
X0231047Y0386747D01*
X0231045Y0386580D01*
X0231039Y0386413D01*
X0231029Y0386247D01*
X0231014Y0386080D01*
X0230996Y0385915D01*
X0230973Y0385749D01*
X0230947Y0385584D01*
X0230916Y0385420D01*
X0230882Y0385257D01*
X0230843Y0385095D01*
X0230801Y0384933D01*
X0230754Y0384773D01*
X0230704Y0384614D01*
X0230649Y0384456D01*
X0230591Y0384300D01*
X0230529Y0384145D01*
X0230464Y0383991D01*
X0230394Y0383840D01*
X0230321Y0383690D01*
X0230244Y0383542D01*
X0230164Y0383395D01*
X0230080Y0383251D01*
X0229992Y0383109D01*
X0229901Y0382969D01*
X0229807Y0382832D01*
X0229709Y0382696D01*
X0229608Y0382563D01*
X0229503Y0382433D01*
X0229396Y0382305D01*
X0229285Y0382180D01*
X0229172Y0382058D01*
X0229055Y0381939D01*
X0228936Y0381822D01*
X0228814Y0381709D01*
X0228689Y0381598D01*
X0228561Y0381491D01*
X0228431Y0381386D01*
X0228298Y0381285D01*
X0228162Y0381187D01*
X0228025Y0381093D01*
X0227885Y0381002D01*
X0227743Y0380914D01*
X0227599Y0380830D01*
X0227452Y0380750D01*
X0227304Y0380673D01*
X0227154Y0380600D01*
X0227003Y0380530D01*
X0226849Y0380465D01*
X0226694Y0380403D01*
X0226538Y0380345D01*
X0226380Y0380290D01*
X0226221Y0380240D01*
X0226061Y0380193D01*
X0225899Y0380151D01*
X0225737Y0380112D01*
X0225574Y0380078D01*
X0225410Y0380047D01*
X0225245Y0380021D01*
X0225079Y0379998D01*
X0224914Y0379980D01*
X0224747Y0379965D01*
X0224581Y0379955D01*
X0224414Y0379949D01*
X0224247Y0379947D01*
X0224080Y0379949D01*
X0223913Y0379955D01*
X0223747Y0379965D01*
X0223580Y0379980D01*
X0223415Y0379998D01*
X0223249Y0380021D01*
X0223084Y0380047D01*
X0222920Y0380078D01*
X0222757Y0380112D01*
X0222595Y0380151D01*
X0222433Y0380193D01*
X0222273Y0380240D01*
X0222114Y0380290D01*
X0221956Y0380345D01*
X0221800Y0380403D01*
X0221645Y0380465D01*
X0221491Y0380530D01*
X0221340Y0380600D01*
X0221190Y0380673D01*
X0221042Y0380750D01*
X0220895Y0380830D01*
X0220751Y0380914D01*
X0220609Y0381002D01*
X0220469Y0381093D01*
X0220332Y0381187D01*
X0220196Y0381285D01*
X0220063Y0381386D01*
X0219933Y0381491D01*
X0219805Y0381598D01*
X0219680Y0381709D01*
X0219558Y0381822D01*
X0219439Y0381939D01*
X0219322Y0382058D01*
X0219209Y0382180D01*
X0219098Y0382305D01*
X0218991Y0382433D01*
X0218886Y0382563D01*
X0218785Y0382696D01*
X0218687Y0382832D01*
X0218593Y0382969D01*
X0218502Y0383109D01*
X0218414Y0383251D01*
X0218330Y0383395D01*
X0218250Y0383542D01*
X0218173Y0383690D01*
X0218100Y0383840D01*
X0218030Y0383991D01*
X0217965Y0384145D01*
X0217903Y0384300D01*
X0217845Y0384456D01*
X0217790Y0384614D01*
X0217740Y0384773D01*
X0217693Y0384933D01*
X0217651Y0385095D01*
X0217612Y0385257D01*
X0217578Y0385420D01*
X0217547Y0385584D01*
X0217521Y0385749D01*
X0217498Y0385915D01*
X0217480Y0386080D01*
X0217465Y0386247D01*
X0217455Y0386413D01*
X0217449Y0386580D01*
X0217447Y0386747D01*
X0187033Y0224247D02*
X0187035Y0224414D01*
X0187041Y0224581D01*
X0187051Y0224747D01*
X0187066Y0224914D01*
X0187084Y0225079D01*
X0187107Y0225245D01*
X0187133Y0225410D01*
X0187164Y0225574D01*
X0187198Y0225737D01*
X0187237Y0225899D01*
X0187279Y0226061D01*
X0187326Y0226221D01*
X0187376Y0226380D01*
X0187431Y0226538D01*
X0187489Y0226694D01*
X0187551Y0226849D01*
X0187616Y0227003D01*
X0187686Y0227154D01*
X0187759Y0227304D01*
X0187836Y0227452D01*
X0187916Y0227599D01*
X0188000Y0227743D01*
X0188088Y0227885D01*
X0188179Y0228025D01*
X0188273Y0228162D01*
X0188371Y0228298D01*
X0188472Y0228431D01*
X0188577Y0228561D01*
X0188684Y0228689D01*
X0188795Y0228814D01*
X0188908Y0228936D01*
X0189025Y0229055D01*
X0189144Y0229172D01*
X0189266Y0229285D01*
X0189391Y0229396D01*
X0189519Y0229503D01*
X0189649Y0229608D01*
X0189782Y0229709D01*
X0189918Y0229807D01*
X0190055Y0229901D01*
X0190195Y0229992D01*
X0190337Y0230080D01*
X0190481Y0230164D01*
X0190628Y0230244D01*
X0190776Y0230321D01*
X0190926Y0230394D01*
X0191077Y0230464D01*
X0191231Y0230529D01*
X0191386Y0230591D01*
X0191542Y0230649D01*
X0191700Y0230704D01*
X0191859Y0230754D01*
X0192019Y0230801D01*
X0192181Y0230843D01*
X0192343Y0230882D01*
X0192506Y0230916D01*
X0192670Y0230947D01*
X0192835Y0230973D01*
X0193001Y0230996D01*
X0193166Y0231014D01*
X0193333Y0231029D01*
X0193499Y0231039D01*
X0193666Y0231045D01*
X0193833Y0231047D01*
X0194000Y0231045D01*
X0194167Y0231039D01*
X0194333Y0231029D01*
X0194500Y0231014D01*
X0194665Y0230996D01*
X0194831Y0230973D01*
X0194996Y0230947D01*
X0195160Y0230916D01*
X0195323Y0230882D01*
X0195485Y0230843D01*
X0195647Y0230801D01*
X0195807Y0230754D01*
X0195966Y0230704D01*
X0196124Y0230649D01*
X0196280Y0230591D01*
X0196435Y0230529D01*
X0196589Y0230464D01*
X0196740Y0230394D01*
X0196890Y0230321D01*
X0197038Y0230244D01*
X0197185Y0230164D01*
X0197329Y0230080D01*
X0197471Y0229992D01*
X0197611Y0229901D01*
X0197748Y0229807D01*
X0197884Y0229709D01*
X0198017Y0229608D01*
X0198147Y0229503D01*
X0198275Y0229396D01*
X0198400Y0229285D01*
X0198522Y0229172D01*
X0198641Y0229055D01*
X0198758Y0228936D01*
X0198871Y0228814D01*
X0198982Y0228689D01*
X0199089Y0228561D01*
X0199194Y0228431D01*
X0199295Y0228298D01*
X0199393Y0228162D01*
X0199487Y0228025D01*
X0199578Y0227885D01*
X0199666Y0227743D01*
X0199750Y0227599D01*
X0199830Y0227452D01*
X0199907Y0227304D01*
X0199980Y0227154D01*
X0200050Y0227003D01*
X0200115Y0226849D01*
X0200177Y0226694D01*
X0200235Y0226538D01*
X0200290Y0226380D01*
X0200340Y0226221D01*
X0200387Y0226061D01*
X0200429Y0225899D01*
X0200468Y0225737D01*
X0200502Y0225574D01*
X0200533Y0225410D01*
X0200559Y0225245D01*
X0200582Y0225079D01*
X0200600Y0224914D01*
X0200615Y0224747D01*
X0200625Y0224581D01*
X0200631Y0224414D01*
X0200633Y0224247D01*
X0200631Y0224080D01*
X0200625Y0223913D01*
X0200615Y0223747D01*
X0200600Y0223580D01*
X0200582Y0223415D01*
X0200559Y0223249D01*
X0200533Y0223084D01*
X0200502Y0222920D01*
X0200468Y0222757D01*
X0200429Y0222595D01*
X0200387Y0222433D01*
X0200340Y0222273D01*
X0200290Y0222114D01*
X0200235Y0221956D01*
X0200177Y0221800D01*
X0200115Y0221645D01*
X0200050Y0221491D01*
X0199980Y0221340D01*
X0199907Y0221190D01*
X0199830Y0221042D01*
X0199750Y0220895D01*
X0199666Y0220751D01*
X0199578Y0220609D01*
X0199487Y0220469D01*
X0199393Y0220332D01*
X0199295Y0220196D01*
X0199194Y0220063D01*
X0199089Y0219933D01*
X0198982Y0219805D01*
X0198871Y0219680D01*
X0198758Y0219558D01*
X0198641Y0219439D01*
X0198522Y0219322D01*
X0198400Y0219209D01*
X0198275Y0219098D01*
X0198147Y0218991D01*
X0198017Y0218886D01*
X0197884Y0218785D01*
X0197748Y0218687D01*
X0197611Y0218593D01*
X0197471Y0218502D01*
X0197329Y0218414D01*
X0197185Y0218330D01*
X0197038Y0218250D01*
X0196890Y0218173D01*
X0196740Y0218100D01*
X0196589Y0218030D01*
X0196435Y0217965D01*
X0196280Y0217903D01*
X0196124Y0217845D01*
X0195966Y0217790D01*
X0195807Y0217740D01*
X0195647Y0217693D01*
X0195485Y0217651D01*
X0195323Y0217612D01*
X0195160Y0217578D01*
X0194996Y0217547D01*
X0194831Y0217521D01*
X0194665Y0217498D01*
X0194500Y0217480D01*
X0194333Y0217465D01*
X0194167Y0217455D01*
X0194000Y0217449D01*
X0193833Y0217447D01*
X0193666Y0217449D01*
X0193499Y0217455D01*
X0193333Y0217465D01*
X0193166Y0217480D01*
X0193001Y0217498D01*
X0192835Y0217521D01*
X0192670Y0217547D01*
X0192506Y0217578D01*
X0192343Y0217612D01*
X0192181Y0217651D01*
X0192019Y0217693D01*
X0191859Y0217740D01*
X0191700Y0217790D01*
X0191542Y0217845D01*
X0191386Y0217903D01*
X0191231Y0217965D01*
X0191077Y0218030D01*
X0190926Y0218100D01*
X0190776Y0218173D01*
X0190628Y0218250D01*
X0190481Y0218330D01*
X0190337Y0218414D01*
X0190195Y0218502D01*
X0190055Y0218593D01*
X0189918Y0218687D01*
X0189782Y0218785D01*
X0189649Y0218886D01*
X0189519Y0218991D01*
X0189391Y0219098D01*
X0189266Y0219209D01*
X0189144Y0219322D01*
X0189025Y0219439D01*
X0188908Y0219558D01*
X0188795Y0219680D01*
X0188684Y0219805D01*
X0188577Y0219933D01*
X0188472Y0220063D01*
X0188371Y0220196D01*
X0188273Y0220332D01*
X0188179Y0220469D01*
X0188088Y0220609D01*
X0188000Y0220751D01*
X0187916Y0220895D01*
X0187836Y0221042D01*
X0187759Y0221190D01*
X0187686Y0221340D01*
X0187616Y0221491D01*
X0187551Y0221645D01*
X0187489Y0221800D01*
X0187431Y0221956D01*
X0187376Y0222114D01*
X0187326Y0222273D01*
X0187279Y0222433D01*
X0187237Y0222595D01*
X0187198Y0222757D01*
X0187164Y0222920D01*
X0187133Y0223084D01*
X0187107Y0223249D01*
X0187084Y0223415D01*
X0187066Y0223580D01*
X0187051Y0223747D01*
X0187041Y0223913D01*
X0187035Y0224080D01*
X0187033Y0224247D01*
X0184533Y0193833D02*
X0184535Y0194000D01*
X0184541Y0194167D01*
X0184551Y0194333D01*
X0184566Y0194500D01*
X0184584Y0194665D01*
X0184607Y0194831D01*
X0184633Y0194996D01*
X0184664Y0195160D01*
X0184698Y0195323D01*
X0184737Y0195485D01*
X0184779Y0195647D01*
X0184826Y0195807D01*
X0184876Y0195966D01*
X0184931Y0196124D01*
X0184989Y0196280D01*
X0185051Y0196435D01*
X0185116Y0196589D01*
X0185186Y0196740D01*
X0185259Y0196890D01*
X0185336Y0197038D01*
X0185416Y0197185D01*
X0185500Y0197329D01*
X0185588Y0197471D01*
X0185679Y0197611D01*
X0185773Y0197748D01*
X0185871Y0197884D01*
X0185972Y0198017D01*
X0186077Y0198147D01*
X0186184Y0198275D01*
X0186295Y0198400D01*
X0186408Y0198522D01*
X0186525Y0198641D01*
X0186644Y0198758D01*
X0186766Y0198871D01*
X0186891Y0198982D01*
X0187019Y0199089D01*
X0187149Y0199194D01*
X0187282Y0199295D01*
X0187418Y0199393D01*
X0187555Y0199487D01*
X0187695Y0199578D01*
X0187837Y0199666D01*
X0187981Y0199750D01*
X0188128Y0199830D01*
X0188276Y0199907D01*
X0188426Y0199980D01*
X0188577Y0200050D01*
X0188731Y0200115D01*
X0188886Y0200177D01*
X0189042Y0200235D01*
X0189200Y0200290D01*
X0189359Y0200340D01*
X0189519Y0200387D01*
X0189681Y0200429D01*
X0189843Y0200468D01*
X0190006Y0200502D01*
X0190170Y0200533D01*
X0190335Y0200559D01*
X0190501Y0200582D01*
X0190666Y0200600D01*
X0190833Y0200615D01*
X0190999Y0200625D01*
X0191166Y0200631D01*
X0191333Y0200633D01*
X0191500Y0200631D01*
X0191667Y0200625D01*
X0191833Y0200615D01*
X0192000Y0200600D01*
X0192165Y0200582D01*
X0192331Y0200559D01*
X0192496Y0200533D01*
X0192660Y0200502D01*
X0192823Y0200468D01*
X0192985Y0200429D01*
X0193147Y0200387D01*
X0193307Y0200340D01*
X0193466Y0200290D01*
X0193624Y0200235D01*
X0193780Y0200177D01*
X0193935Y0200115D01*
X0194089Y0200050D01*
X0194240Y0199980D01*
X0194390Y0199907D01*
X0194538Y0199830D01*
X0194685Y0199750D01*
X0194829Y0199666D01*
X0194971Y0199578D01*
X0195111Y0199487D01*
X0195248Y0199393D01*
X0195384Y0199295D01*
X0195517Y0199194D01*
X0195647Y0199089D01*
X0195775Y0198982D01*
X0195900Y0198871D01*
X0196022Y0198758D01*
X0196141Y0198641D01*
X0196258Y0198522D01*
X0196371Y0198400D01*
X0196482Y0198275D01*
X0196589Y0198147D01*
X0196694Y0198017D01*
X0196795Y0197884D01*
X0196893Y0197748D01*
X0196987Y0197611D01*
X0197078Y0197471D01*
X0197166Y0197329D01*
X0197250Y0197185D01*
X0197330Y0197038D01*
X0197407Y0196890D01*
X0197480Y0196740D01*
X0197550Y0196589D01*
X0197615Y0196435D01*
X0197677Y0196280D01*
X0197735Y0196124D01*
X0197790Y0195966D01*
X0197840Y0195807D01*
X0197887Y0195647D01*
X0197929Y0195485D01*
X0197968Y0195323D01*
X0198002Y0195160D01*
X0198033Y0194996D01*
X0198059Y0194831D01*
X0198082Y0194665D01*
X0198100Y0194500D01*
X0198115Y0194333D01*
X0198125Y0194167D01*
X0198131Y0194000D01*
X0198133Y0193833D01*
X0198131Y0193666D01*
X0198125Y0193499D01*
X0198115Y0193333D01*
X0198100Y0193166D01*
X0198082Y0193001D01*
X0198059Y0192835D01*
X0198033Y0192670D01*
X0198002Y0192506D01*
X0197968Y0192343D01*
X0197929Y0192181D01*
X0197887Y0192019D01*
X0197840Y0191859D01*
X0197790Y0191700D01*
X0197735Y0191542D01*
X0197677Y0191386D01*
X0197615Y0191231D01*
X0197550Y0191077D01*
X0197480Y0190926D01*
X0197407Y0190776D01*
X0197330Y0190628D01*
X0197250Y0190481D01*
X0197166Y0190337D01*
X0197078Y0190195D01*
X0196987Y0190055D01*
X0196893Y0189918D01*
X0196795Y0189782D01*
X0196694Y0189649D01*
X0196589Y0189519D01*
X0196482Y0189391D01*
X0196371Y0189266D01*
X0196258Y0189144D01*
X0196141Y0189025D01*
X0196022Y0188908D01*
X0195900Y0188795D01*
X0195775Y0188684D01*
X0195647Y0188577D01*
X0195517Y0188472D01*
X0195384Y0188371D01*
X0195248Y0188273D01*
X0195111Y0188179D01*
X0194971Y0188088D01*
X0194829Y0188000D01*
X0194685Y0187916D01*
X0194538Y0187836D01*
X0194390Y0187759D01*
X0194240Y0187686D01*
X0194089Y0187616D01*
X0193935Y0187551D01*
X0193780Y0187489D01*
X0193624Y0187431D01*
X0193466Y0187376D01*
X0193307Y0187326D01*
X0193147Y0187279D01*
X0192985Y0187237D01*
X0192823Y0187198D01*
X0192660Y0187164D01*
X0192496Y0187133D01*
X0192331Y0187107D01*
X0192165Y0187084D01*
X0192000Y0187066D01*
X0191833Y0187051D01*
X0191667Y0187041D01*
X0191500Y0187035D01*
X0191333Y0187033D01*
X0191166Y0187035D01*
X0190999Y0187041D01*
X0190833Y0187051D01*
X0190666Y0187066D01*
X0190501Y0187084D01*
X0190335Y0187107D01*
X0190170Y0187133D01*
X0190006Y0187164D01*
X0189843Y0187198D01*
X0189681Y0187237D01*
X0189519Y0187279D01*
X0189359Y0187326D01*
X0189200Y0187376D01*
X0189042Y0187431D01*
X0188886Y0187489D01*
X0188731Y0187551D01*
X0188577Y0187616D01*
X0188426Y0187686D01*
X0188276Y0187759D01*
X0188128Y0187836D01*
X0187981Y0187916D01*
X0187837Y0188000D01*
X0187695Y0188088D01*
X0187555Y0188179D01*
X0187418Y0188273D01*
X0187282Y0188371D01*
X0187149Y0188472D01*
X0187019Y0188577D01*
X0186891Y0188684D01*
X0186766Y0188795D01*
X0186644Y0188908D01*
X0186525Y0189025D01*
X0186408Y0189144D01*
X0186295Y0189266D01*
X0186184Y0189391D01*
X0186077Y0189519D01*
X0185972Y0189649D01*
X0185871Y0189782D01*
X0185773Y0189918D01*
X0185679Y0190055D01*
X0185588Y0190195D01*
X0185500Y0190337D01*
X0185416Y0190481D01*
X0185336Y0190628D01*
X0185259Y0190776D01*
X0185186Y0190926D01*
X0185116Y0191077D01*
X0185051Y0191231D01*
X0184989Y0191386D01*
X0184931Y0191542D01*
X0184876Y0191700D01*
X0184826Y0191859D01*
X0184779Y0192019D01*
X0184737Y0192181D01*
X0184698Y0192343D01*
X0184664Y0192506D01*
X0184633Y0192670D01*
X0184607Y0192835D01*
X0184584Y0193001D01*
X0184566Y0193166D01*
X0184551Y0193333D01*
X0184541Y0193499D01*
X0184535Y0193666D01*
X0184533Y0193833D01*
X0217447Y0193833D02*
X0217449Y0194000D01*
X0217455Y0194167D01*
X0217465Y0194333D01*
X0217480Y0194500D01*
X0217498Y0194665D01*
X0217521Y0194831D01*
X0217547Y0194996D01*
X0217578Y0195160D01*
X0217612Y0195323D01*
X0217651Y0195485D01*
X0217693Y0195647D01*
X0217740Y0195807D01*
X0217790Y0195966D01*
X0217845Y0196124D01*
X0217903Y0196280D01*
X0217965Y0196435D01*
X0218030Y0196589D01*
X0218100Y0196740D01*
X0218173Y0196890D01*
X0218250Y0197038D01*
X0218330Y0197185D01*
X0218414Y0197329D01*
X0218502Y0197471D01*
X0218593Y0197611D01*
X0218687Y0197748D01*
X0218785Y0197884D01*
X0218886Y0198017D01*
X0218991Y0198147D01*
X0219098Y0198275D01*
X0219209Y0198400D01*
X0219322Y0198522D01*
X0219439Y0198641D01*
X0219558Y0198758D01*
X0219680Y0198871D01*
X0219805Y0198982D01*
X0219933Y0199089D01*
X0220063Y0199194D01*
X0220196Y0199295D01*
X0220332Y0199393D01*
X0220469Y0199487D01*
X0220609Y0199578D01*
X0220751Y0199666D01*
X0220895Y0199750D01*
X0221042Y0199830D01*
X0221190Y0199907D01*
X0221340Y0199980D01*
X0221491Y0200050D01*
X0221645Y0200115D01*
X0221800Y0200177D01*
X0221956Y0200235D01*
X0222114Y0200290D01*
X0222273Y0200340D01*
X0222433Y0200387D01*
X0222595Y0200429D01*
X0222757Y0200468D01*
X0222920Y0200502D01*
X0223084Y0200533D01*
X0223249Y0200559D01*
X0223415Y0200582D01*
X0223580Y0200600D01*
X0223747Y0200615D01*
X0223913Y0200625D01*
X0224080Y0200631D01*
X0224247Y0200633D01*
X0224414Y0200631D01*
X0224581Y0200625D01*
X0224747Y0200615D01*
X0224914Y0200600D01*
X0225079Y0200582D01*
X0225245Y0200559D01*
X0225410Y0200533D01*
X0225574Y0200502D01*
X0225737Y0200468D01*
X0225899Y0200429D01*
X0226061Y0200387D01*
X0226221Y0200340D01*
X0226380Y0200290D01*
X0226538Y0200235D01*
X0226694Y0200177D01*
X0226849Y0200115D01*
X0227003Y0200050D01*
X0227154Y0199980D01*
X0227304Y0199907D01*
X0227452Y0199830D01*
X0227599Y0199750D01*
X0227743Y0199666D01*
X0227885Y0199578D01*
X0228025Y0199487D01*
X0228162Y0199393D01*
X0228298Y0199295D01*
X0228431Y0199194D01*
X0228561Y0199089D01*
X0228689Y0198982D01*
X0228814Y0198871D01*
X0228936Y0198758D01*
X0229055Y0198641D01*
X0229172Y0198522D01*
X0229285Y0198400D01*
X0229396Y0198275D01*
X0229503Y0198147D01*
X0229608Y0198017D01*
X0229709Y0197884D01*
X0229807Y0197748D01*
X0229901Y0197611D01*
X0229992Y0197471D01*
X0230080Y0197329D01*
X0230164Y0197185D01*
X0230244Y0197038D01*
X0230321Y0196890D01*
X0230394Y0196740D01*
X0230464Y0196589D01*
X0230529Y0196435D01*
X0230591Y0196280D01*
X0230649Y0196124D01*
X0230704Y0195966D01*
X0230754Y0195807D01*
X0230801Y0195647D01*
X0230843Y0195485D01*
X0230882Y0195323D01*
X0230916Y0195160D01*
X0230947Y0194996D01*
X0230973Y0194831D01*
X0230996Y0194665D01*
X0231014Y0194500D01*
X0231029Y0194333D01*
X0231039Y0194167D01*
X0231045Y0194000D01*
X0231047Y0193833D01*
X0231045Y0193666D01*
X0231039Y0193499D01*
X0231029Y0193333D01*
X0231014Y0193166D01*
X0230996Y0193001D01*
X0230973Y0192835D01*
X0230947Y0192670D01*
X0230916Y0192506D01*
X0230882Y0192343D01*
X0230843Y0192181D01*
X0230801Y0192019D01*
X0230754Y0191859D01*
X0230704Y0191700D01*
X0230649Y0191542D01*
X0230591Y0191386D01*
X0230529Y0191231D01*
X0230464Y0191077D01*
X0230394Y0190926D01*
X0230321Y0190776D01*
X0230244Y0190628D01*
X0230164Y0190481D01*
X0230080Y0190337D01*
X0229992Y0190195D01*
X0229901Y0190055D01*
X0229807Y0189918D01*
X0229709Y0189782D01*
X0229608Y0189649D01*
X0229503Y0189519D01*
X0229396Y0189391D01*
X0229285Y0189266D01*
X0229172Y0189144D01*
X0229055Y0189025D01*
X0228936Y0188908D01*
X0228814Y0188795D01*
X0228689Y0188684D01*
X0228561Y0188577D01*
X0228431Y0188472D01*
X0228298Y0188371D01*
X0228162Y0188273D01*
X0228025Y0188179D01*
X0227885Y0188088D01*
X0227743Y0188000D01*
X0227599Y0187916D01*
X0227452Y0187836D01*
X0227304Y0187759D01*
X0227154Y0187686D01*
X0227003Y0187616D01*
X0226849Y0187551D01*
X0226694Y0187489D01*
X0226538Y0187431D01*
X0226380Y0187376D01*
X0226221Y0187326D01*
X0226061Y0187279D01*
X0225899Y0187237D01*
X0225737Y0187198D01*
X0225574Y0187164D01*
X0225410Y0187133D01*
X0225245Y0187107D01*
X0225079Y0187084D01*
X0224914Y0187066D01*
X0224747Y0187051D01*
X0224581Y0187041D01*
X0224414Y0187035D01*
X0224247Y0187033D01*
X0224080Y0187035D01*
X0223913Y0187041D01*
X0223747Y0187051D01*
X0223580Y0187066D01*
X0223415Y0187084D01*
X0223249Y0187107D01*
X0223084Y0187133D01*
X0222920Y0187164D01*
X0222757Y0187198D01*
X0222595Y0187237D01*
X0222433Y0187279D01*
X0222273Y0187326D01*
X0222114Y0187376D01*
X0221956Y0187431D01*
X0221800Y0187489D01*
X0221645Y0187551D01*
X0221491Y0187616D01*
X0221340Y0187686D01*
X0221190Y0187759D01*
X0221042Y0187836D01*
X0220895Y0187916D01*
X0220751Y0188000D01*
X0220609Y0188088D01*
X0220469Y0188179D01*
X0220332Y0188273D01*
X0220196Y0188371D01*
X0220063Y0188472D01*
X0219933Y0188577D01*
X0219805Y0188684D01*
X0219680Y0188795D01*
X0219558Y0188908D01*
X0219439Y0189025D01*
X0219322Y0189144D01*
X0219209Y0189266D01*
X0219098Y0189391D01*
X0218991Y0189519D01*
X0218886Y0189649D01*
X0218785Y0189782D01*
X0218687Y0189918D01*
X0218593Y0190055D01*
X0218502Y0190195D01*
X0218414Y0190337D01*
X0218330Y0190481D01*
X0218250Y0190628D01*
X0218173Y0190776D01*
X0218100Y0190926D01*
X0218030Y0191077D01*
X0217965Y0191231D01*
X0217903Y0191386D01*
X0217845Y0191542D01*
X0217790Y0191700D01*
X0217740Y0191859D01*
X0217693Y0192019D01*
X0217651Y0192181D01*
X0217612Y0192343D01*
X0217578Y0192506D01*
X0217547Y0192670D01*
X0217521Y0192835D01*
X0217498Y0193001D01*
X0217480Y0193166D01*
X0217465Y0193333D01*
X0217455Y0193499D01*
X0217449Y0193666D01*
X0217447Y0193833D01*
X0214947Y0221747D02*
X0214949Y0221914D01*
X0214955Y0222081D01*
X0214965Y0222247D01*
X0214980Y0222414D01*
X0214998Y0222579D01*
X0215021Y0222745D01*
X0215047Y0222910D01*
X0215078Y0223074D01*
X0215112Y0223237D01*
X0215151Y0223399D01*
X0215193Y0223561D01*
X0215240Y0223721D01*
X0215290Y0223880D01*
X0215345Y0224038D01*
X0215403Y0224194D01*
X0215465Y0224349D01*
X0215530Y0224503D01*
X0215600Y0224654D01*
X0215673Y0224804D01*
X0215750Y0224952D01*
X0215830Y0225099D01*
X0215914Y0225243D01*
X0216002Y0225385D01*
X0216093Y0225525D01*
X0216187Y0225662D01*
X0216285Y0225798D01*
X0216386Y0225931D01*
X0216491Y0226061D01*
X0216598Y0226189D01*
X0216709Y0226314D01*
X0216822Y0226436D01*
X0216939Y0226555D01*
X0217058Y0226672D01*
X0217180Y0226785D01*
X0217305Y0226896D01*
X0217433Y0227003D01*
X0217563Y0227108D01*
X0217696Y0227209D01*
X0217832Y0227307D01*
X0217969Y0227401D01*
X0218109Y0227492D01*
X0218251Y0227580D01*
X0218395Y0227664D01*
X0218542Y0227744D01*
X0218690Y0227821D01*
X0218840Y0227894D01*
X0218991Y0227964D01*
X0219145Y0228029D01*
X0219300Y0228091D01*
X0219456Y0228149D01*
X0219614Y0228204D01*
X0219773Y0228254D01*
X0219933Y0228301D01*
X0220095Y0228343D01*
X0220257Y0228382D01*
X0220420Y0228416D01*
X0220584Y0228447D01*
X0220749Y0228473D01*
X0220915Y0228496D01*
X0221080Y0228514D01*
X0221247Y0228529D01*
X0221413Y0228539D01*
X0221580Y0228545D01*
X0221747Y0228547D01*
X0221914Y0228545D01*
X0222081Y0228539D01*
X0222247Y0228529D01*
X0222414Y0228514D01*
X0222579Y0228496D01*
X0222745Y0228473D01*
X0222910Y0228447D01*
X0223074Y0228416D01*
X0223237Y0228382D01*
X0223399Y0228343D01*
X0223561Y0228301D01*
X0223721Y0228254D01*
X0223880Y0228204D01*
X0224038Y0228149D01*
X0224194Y0228091D01*
X0224349Y0228029D01*
X0224503Y0227964D01*
X0224654Y0227894D01*
X0224804Y0227821D01*
X0224952Y0227744D01*
X0225099Y0227664D01*
X0225243Y0227580D01*
X0225385Y0227492D01*
X0225525Y0227401D01*
X0225662Y0227307D01*
X0225798Y0227209D01*
X0225931Y0227108D01*
X0226061Y0227003D01*
X0226189Y0226896D01*
X0226314Y0226785D01*
X0226436Y0226672D01*
X0226555Y0226555D01*
X0226672Y0226436D01*
X0226785Y0226314D01*
X0226896Y0226189D01*
X0227003Y0226061D01*
X0227108Y0225931D01*
X0227209Y0225798D01*
X0227307Y0225662D01*
X0227401Y0225525D01*
X0227492Y0225385D01*
X0227580Y0225243D01*
X0227664Y0225099D01*
X0227744Y0224952D01*
X0227821Y0224804D01*
X0227894Y0224654D01*
X0227964Y0224503D01*
X0228029Y0224349D01*
X0228091Y0224194D01*
X0228149Y0224038D01*
X0228204Y0223880D01*
X0228254Y0223721D01*
X0228301Y0223561D01*
X0228343Y0223399D01*
X0228382Y0223237D01*
X0228416Y0223074D01*
X0228447Y0222910D01*
X0228473Y0222745D01*
X0228496Y0222579D01*
X0228514Y0222414D01*
X0228529Y0222247D01*
X0228539Y0222081D01*
X0228545Y0221914D01*
X0228547Y0221747D01*
X0228545Y0221580D01*
X0228539Y0221413D01*
X0228529Y0221247D01*
X0228514Y0221080D01*
X0228496Y0220915D01*
X0228473Y0220749D01*
X0228447Y0220584D01*
X0228416Y0220420D01*
X0228382Y0220257D01*
X0228343Y0220095D01*
X0228301Y0219933D01*
X0228254Y0219773D01*
X0228204Y0219614D01*
X0228149Y0219456D01*
X0228091Y0219300D01*
X0228029Y0219145D01*
X0227964Y0218991D01*
X0227894Y0218840D01*
X0227821Y0218690D01*
X0227744Y0218542D01*
X0227664Y0218395D01*
X0227580Y0218251D01*
X0227492Y0218109D01*
X0227401Y0217969D01*
X0227307Y0217832D01*
X0227209Y0217696D01*
X0227108Y0217563D01*
X0227003Y0217433D01*
X0226896Y0217305D01*
X0226785Y0217180D01*
X0226672Y0217058D01*
X0226555Y0216939D01*
X0226436Y0216822D01*
X0226314Y0216709D01*
X0226189Y0216598D01*
X0226061Y0216491D01*
X0225931Y0216386D01*
X0225798Y0216285D01*
X0225662Y0216187D01*
X0225525Y0216093D01*
X0225385Y0216002D01*
X0225243Y0215914D01*
X0225099Y0215830D01*
X0224952Y0215750D01*
X0224804Y0215673D01*
X0224654Y0215600D01*
X0224503Y0215530D01*
X0224349Y0215465D01*
X0224194Y0215403D01*
X0224038Y0215345D01*
X0223880Y0215290D01*
X0223721Y0215240D01*
X0223561Y0215193D01*
X0223399Y0215151D01*
X0223237Y0215112D01*
X0223074Y0215078D01*
X0222910Y0215047D01*
X0222745Y0215021D01*
X0222579Y0214998D01*
X0222414Y0214980D01*
X0222247Y0214965D01*
X0222081Y0214955D01*
X0221914Y0214949D01*
X0221747Y0214947D01*
X0221580Y0214949D01*
X0221413Y0214955D01*
X0221247Y0214965D01*
X0221080Y0214980D01*
X0220915Y0214998D01*
X0220749Y0215021D01*
X0220584Y0215047D01*
X0220420Y0215078D01*
X0220257Y0215112D01*
X0220095Y0215151D01*
X0219933Y0215193D01*
X0219773Y0215240D01*
X0219614Y0215290D01*
X0219456Y0215345D01*
X0219300Y0215403D01*
X0219145Y0215465D01*
X0218991Y0215530D01*
X0218840Y0215600D01*
X0218690Y0215673D01*
X0218542Y0215750D01*
X0218395Y0215830D01*
X0218251Y0215914D01*
X0218109Y0216002D01*
X0217969Y0216093D01*
X0217832Y0216187D01*
X0217696Y0216285D01*
X0217563Y0216386D01*
X0217433Y0216491D01*
X0217305Y0216598D01*
X0217180Y0216709D01*
X0217058Y0216822D01*
X0216939Y0216939D01*
X0216822Y0217058D01*
X0216709Y0217180D01*
X0216598Y0217305D01*
X0216491Y0217433D01*
X0216386Y0217563D01*
X0216285Y0217696D01*
X0216187Y0217832D01*
X0216093Y0217969D01*
X0216002Y0218109D01*
X0215914Y0218251D01*
X0215830Y0218395D01*
X0215750Y0218542D01*
X0215673Y0218690D01*
X0215600Y0218840D01*
X0215530Y0218991D01*
X0215465Y0219145D01*
X0215403Y0219300D01*
X0215345Y0219456D01*
X0215290Y0219614D01*
X0215240Y0219773D01*
X0215193Y0219933D01*
X0215151Y0220095D01*
X0215112Y0220257D01*
X0215078Y0220420D01*
X0215047Y0220584D01*
X0215021Y0220749D01*
X0214998Y0220915D01*
X0214980Y0221080D01*
X0214965Y0221247D01*
X0214955Y0221413D01*
X0214949Y0221580D01*
X0214947Y0221747D01*
X0377447Y0193833D02*
X0377449Y0194000D01*
X0377455Y0194167D01*
X0377465Y0194333D01*
X0377480Y0194500D01*
X0377498Y0194665D01*
X0377521Y0194831D01*
X0377547Y0194996D01*
X0377578Y0195160D01*
X0377612Y0195323D01*
X0377651Y0195485D01*
X0377693Y0195647D01*
X0377740Y0195807D01*
X0377790Y0195966D01*
X0377845Y0196124D01*
X0377903Y0196280D01*
X0377965Y0196435D01*
X0378030Y0196589D01*
X0378100Y0196740D01*
X0378173Y0196890D01*
X0378250Y0197038D01*
X0378330Y0197185D01*
X0378414Y0197329D01*
X0378502Y0197471D01*
X0378593Y0197611D01*
X0378687Y0197748D01*
X0378785Y0197884D01*
X0378886Y0198017D01*
X0378991Y0198147D01*
X0379098Y0198275D01*
X0379209Y0198400D01*
X0379322Y0198522D01*
X0379439Y0198641D01*
X0379558Y0198758D01*
X0379680Y0198871D01*
X0379805Y0198982D01*
X0379933Y0199089D01*
X0380063Y0199194D01*
X0380196Y0199295D01*
X0380332Y0199393D01*
X0380469Y0199487D01*
X0380609Y0199578D01*
X0380751Y0199666D01*
X0380895Y0199750D01*
X0381042Y0199830D01*
X0381190Y0199907D01*
X0381340Y0199980D01*
X0381491Y0200050D01*
X0381645Y0200115D01*
X0381800Y0200177D01*
X0381956Y0200235D01*
X0382114Y0200290D01*
X0382273Y0200340D01*
X0382433Y0200387D01*
X0382595Y0200429D01*
X0382757Y0200468D01*
X0382920Y0200502D01*
X0383084Y0200533D01*
X0383249Y0200559D01*
X0383415Y0200582D01*
X0383580Y0200600D01*
X0383747Y0200615D01*
X0383913Y0200625D01*
X0384080Y0200631D01*
X0384247Y0200633D01*
X0384414Y0200631D01*
X0384581Y0200625D01*
X0384747Y0200615D01*
X0384914Y0200600D01*
X0385079Y0200582D01*
X0385245Y0200559D01*
X0385410Y0200533D01*
X0385574Y0200502D01*
X0385737Y0200468D01*
X0385899Y0200429D01*
X0386061Y0200387D01*
X0386221Y0200340D01*
X0386380Y0200290D01*
X0386538Y0200235D01*
X0386694Y0200177D01*
X0386849Y0200115D01*
X0387003Y0200050D01*
X0387154Y0199980D01*
X0387304Y0199907D01*
X0387452Y0199830D01*
X0387599Y0199750D01*
X0387743Y0199666D01*
X0387885Y0199578D01*
X0388025Y0199487D01*
X0388162Y0199393D01*
X0388298Y0199295D01*
X0388431Y0199194D01*
X0388561Y0199089D01*
X0388689Y0198982D01*
X0388814Y0198871D01*
X0388936Y0198758D01*
X0389055Y0198641D01*
X0389172Y0198522D01*
X0389285Y0198400D01*
X0389396Y0198275D01*
X0389503Y0198147D01*
X0389608Y0198017D01*
X0389709Y0197884D01*
X0389807Y0197748D01*
X0389901Y0197611D01*
X0389992Y0197471D01*
X0390080Y0197329D01*
X0390164Y0197185D01*
X0390244Y0197038D01*
X0390321Y0196890D01*
X0390394Y0196740D01*
X0390464Y0196589D01*
X0390529Y0196435D01*
X0390591Y0196280D01*
X0390649Y0196124D01*
X0390704Y0195966D01*
X0390754Y0195807D01*
X0390801Y0195647D01*
X0390843Y0195485D01*
X0390882Y0195323D01*
X0390916Y0195160D01*
X0390947Y0194996D01*
X0390973Y0194831D01*
X0390996Y0194665D01*
X0391014Y0194500D01*
X0391029Y0194333D01*
X0391039Y0194167D01*
X0391045Y0194000D01*
X0391047Y0193833D01*
X0391045Y0193666D01*
X0391039Y0193499D01*
X0391029Y0193333D01*
X0391014Y0193166D01*
X0390996Y0193001D01*
X0390973Y0192835D01*
X0390947Y0192670D01*
X0390916Y0192506D01*
X0390882Y0192343D01*
X0390843Y0192181D01*
X0390801Y0192019D01*
X0390754Y0191859D01*
X0390704Y0191700D01*
X0390649Y0191542D01*
X0390591Y0191386D01*
X0390529Y0191231D01*
X0390464Y0191077D01*
X0390394Y0190926D01*
X0390321Y0190776D01*
X0390244Y0190628D01*
X0390164Y0190481D01*
X0390080Y0190337D01*
X0389992Y0190195D01*
X0389901Y0190055D01*
X0389807Y0189918D01*
X0389709Y0189782D01*
X0389608Y0189649D01*
X0389503Y0189519D01*
X0389396Y0189391D01*
X0389285Y0189266D01*
X0389172Y0189144D01*
X0389055Y0189025D01*
X0388936Y0188908D01*
X0388814Y0188795D01*
X0388689Y0188684D01*
X0388561Y0188577D01*
X0388431Y0188472D01*
X0388298Y0188371D01*
X0388162Y0188273D01*
X0388025Y0188179D01*
X0387885Y0188088D01*
X0387743Y0188000D01*
X0387599Y0187916D01*
X0387452Y0187836D01*
X0387304Y0187759D01*
X0387154Y0187686D01*
X0387003Y0187616D01*
X0386849Y0187551D01*
X0386694Y0187489D01*
X0386538Y0187431D01*
X0386380Y0187376D01*
X0386221Y0187326D01*
X0386061Y0187279D01*
X0385899Y0187237D01*
X0385737Y0187198D01*
X0385574Y0187164D01*
X0385410Y0187133D01*
X0385245Y0187107D01*
X0385079Y0187084D01*
X0384914Y0187066D01*
X0384747Y0187051D01*
X0384581Y0187041D01*
X0384414Y0187035D01*
X0384247Y0187033D01*
X0384080Y0187035D01*
X0383913Y0187041D01*
X0383747Y0187051D01*
X0383580Y0187066D01*
X0383415Y0187084D01*
X0383249Y0187107D01*
X0383084Y0187133D01*
X0382920Y0187164D01*
X0382757Y0187198D01*
X0382595Y0187237D01*
X0382433Y0187279D01*
X0382273Y0187326D01*
X0382114Y0187376D01*
X0381956Y0187431D01*
X0381800Y0187489D01*
X0381645Y0187551D01*
X0381491Y0187616D01*
X0381340Y0187686D01*
X0381190Y0187759D01*
X0381042Y0187836D01*
X0380895Y0187916D01*
X0380751Y0188000D01*
X0380609Y0188088D01*
X0380469Y0188179D01*
X0380332Y0188273D01*
X0380196Y0188371D01*
X0380063Y0188472D01*
X0379933Y0188577D01*
X0379805Y0188684D01*
X0379680Y0188795D01*
X0379558Y0188908D01*
X0379439Y0189025D01*
X0379322Y0189144D01*
X0379209Y0189266D01*
X0379098Y0189391D01*
X0378991Y0189519D01*
X0378886Y0189649D01*
X0378785Y0189782D01*
X0378687Y0189918D01*
X0378593Y0190055D01*
X0378502Y0190195D01*
X0378414Y0190337D01*
X0378330Y0190481D01*
X0378250Y0190628D01*
X0378173Y0190776D01*
X0378100Y0190926D01*
X0378030Y0191077D01*
X0377965Y0191231D01*
X0377903Y0191386D01*
X0377845Y0191542D01*
X0377790Y0191700D01*
X0377740Y0191859D01*
X0377693Y0192019D01*
X0377651Y0192181D01*
X0377612Y0192343D01*
X0377578Y0192506D01*
X0377547Y0192670D01*
X0377521Y0192835D01*
X0377498Y0193001D01*
X0377480Y0193166D01*
X0377465Y0193333D01*
X0377455Y0193499D01*
X0377449Y0193666D01*
X0377447Y0193833D01*
X0379947Y0224247D02*
X0379949Y0224414D01*
X0379955Y0224581D01*
X0379965Y0224747D01*
X0379980Y0224914D01*
X0379998Y0225079D01*
X0380021Y0225245D01*
X0380047Y0225410D01*
X0380078Y0225574D01*
X0380112Y0225737D01*
X0380151Y0225899D01*
X0380193Y0226061D01*
X0380240Y0226221D01*
X0380290Y0226380D01*
X0380345Y0226538D01*
X0380403Y0226694D01*
X0380465Y0226849D01*
X0380530Y0227003D01*
X0380600Y0227154D01*
X0380673Y0227304D01*
X0380750Y0227452D01*
X0380830Y0227599D01*
X0380914Y0227743D01*
X0381002Y0227885D01*
X0381093Y0228025D01*
X0381187Y0228162D01*
X0381285Y0228298D01*
X0381386Y0228431D01*
X0381491Y0228561D01*
X0381598Y0228689D01*
X0381709Y0228814D01*
X0381822Y0228936D01*
X0381939Y0229055D01*
X0382058Y0229172D01*
X0382180Y0229285D01*
X0382305Y0229396D01*
X0382433Y0229503D01*
X0382563Y0229608D01*
X0382696Y0229709D01*
X0382832Y0229807D01*
X0382969Y0229901D01*
X0383109Y0229992D01*
X0383251Y0230080D01*
X0383395Y0230164D01*
X0383542Y0230244D01*
X0383690Y0230321D01*
X0383840Y0230394D01*
X0383991Y0230464D01*
X0384145Y0230529D01*
X0384300Y0230591D01*
X0384456Y0230649D01*
X0384614Y0230704D01*
X0384773Y0230754D01*
X0384933Y0230801D01*
X0385095Y0230843D01*
X0385257Y0230882D01*
X0385420Y0230916D01*
X0385584Y0230947D01*
X0385749Y0230973D01*
X0385915Y0230996D01*
X0386080Y0231014D01*
X0386247Y0231029D01*
X0386413Y0231039D01*
X0386580Y0231045D01*
X0386747Y0231047D01*
X0386914Y0231045D01*
X0387081Y0231039D01*
X0387247Y0231029D01*
X0387414Y0231014D01*
X0387579Y0230996D01*
X0387745Y0230973D01*
X0387910Y0230947D01*
X0388074Y0230916D01*
X0388237Y0230882D01*
X0388399Y0230843D01*
X0388561Y0230801D01*
X0388721Y0230754D01*
X0388880Y0230704D01*
X0389038Y0230649D01*
X0389194Y0230591D01*
X0389349Y0230529D01*
X0389503Y0230464D01*
X0389654Y0230394D01*
X0389804Y0230321D01*
X0389952Y0230244D01*
X0390099Y0230164D01*
X0390243Y0230080D01*
X0390385Y0229992D01*
X0390525Y0229901D01*
X0390662Y0229807D01*
X0390798Y0229709D01*
X0390931Y0229608D01*
X0391061Y0229503D01*
X0391189Y0229396D01*
X0391314Y0229285D01*
X0391436Y0229172D01*
X0391555Y0229055D01*
X0391672Y0228936D01*
X0391785Y0228814D01*
X0391896Y0228689D01*
X0392003Y0228561D01*
X0392108Y0228431D01*
X0392209Y0228298D01*
X0392307Y0228162D01*
X0392401Y0228025D01*
X0392492Y0227885D01*
X0392580Y0227743D01*
X0392664Y0227599D01*
X0392744Y0227452D01*
X0392821Y0227304D01*
X0392894Y0227154D01*
X0392964Y0227003D01*
X0393029Y0226849D01*
X0393091Y0226694D01*
X0393149Y0226538D01*
X0393204Y0226380D01*
X0393254Y0226221D01*
X0393301Y0226061D01*
X0393343Y0225899D01*
X0393382Y0225737D01*
X0393416Y0225574D01*
X0393447Y0225410D01*
X0393473Y0225245D01*
X0393496Y0225079D01*
X0393514Y0224914D01*
X0393529Y0224747D01*
X0393539Y0224581D01*
X0393545Y0224414D01*
X0393547Y0224247D01*
X0393545Y0224080D01*
X0393539Y0223913D01*
X0393529Y0223747D01*
X0393514Y0223580D01*
X0393496Y0223415D01*
X0393473Y0223249D01*
X0393447Y0223084D01*
X0393416Y0222920D01*
X0393382Y0222757D01*
X0393343Y0222595D01*
X0393301Y0222433D01*
X0393254Y0222273D01*
X0393204Y0222114D01*
X0393149Y0221956D01*
X0393091Y0221800D01*
X0393029Y0221645D01*
X0392964Y0221491D01*
X0392894Y0221340D01*
X0392821Y0221190D01*
X0392744Y0221042D01*
X0392664Y0220895D01*
X0392580Y0220751D01*
X0392492Y0220609D01*
X0392401Y0220469D01*
X0392307Y0220332D01*
X0392209Y0220196D01*
X0392108Y0220063D01*
X0392003Y0219933D01*
X0391896Y0219805D01*
X0391785Y0219680D01*
X0391672Y0219558D01*
X0391555Y0219439D01*
X0391436Y0219322D01*
X0391314Y0219209D01*
X0391189Y0219098D01*
X0391061Y0218991D01*
X0390931Y0218886D01*
X0390798Y0218785D01*
X0390662Y0218687D01*
X0390525Y0218593D01*
X0390385Y0218502D01*
X0390243Y0218414D01*
X0390099Y0218330D01*
X0389952Y0218250D01*
X0389804Y0218173D01*
X0389654Y0218100D01*
X0389503Y0218030D01*
X0389349Y0217965D01*
X0389194Y0217903D01*
X0389038Y0217845D01*
X0388880Y0217790D01*
X0388721Y0217740D01*
X0388561Y0217693D01*
X0388399Y0217651D01*
X0388237Y0217612D01*
X0388074Y0217578D01*
X0387910Y0217547D01*
X0387745Y0217521D01*
X0387579Y0217498D01*
X0387414Y0217480D01*
X0387247Y0217465D01*
X0387081Y0217455D01*
X0386914Y0217449D01*
X0386747Y0217447D01*
X0386580Y0217449D01*
X0386413Y0217455D01*
X0386247Y0217465D01*
X0386080Y0217480D01*
X0385915Y0217498D01*
X0385749Y0217521D01*
X0385584Y0217547D01*
X0385420Y0217578D01*
X0385257Y0217612D01*
X0385095Y0217651D01*
X0384933Y0217693D01*
X0384773Y0217740D01*
X0384614Y0217790D01*
X0384456Y0217845D01*
X0384300Y0217903D01*
X0384145Y0217965D01*
X0383991Y0218030D01*
X0383840Y0218100D01*
X0383690Y0218173D01*
X0383542Y0218250D01*
X0383395Y0218330D01*
X0383251Y0218414D01*
X0383109Y0218502D01*
X0382969Y0218593D01*
X0382832Y0218687D01*
X0382696Y0218785D01*
X0382563Y0218886D01*
X0382433Y0218991D01*
X0382305Y0219098D01*
X0382180Y0219209D01*
X0382058Y0219322D01*
X0381939Y0219439D01*
X0381822Y0219558D01*
X0381709Y0219680D01*
X0381598Y0219805D01*
X0381491Y0219933D01*
X0381386Y0220063D01*
X0381285Y0220196D01*
X0381187Y0220332D01*
X0381093Y0220469D01*
X0381002Y0220609D01*
X0380914Y0220751D01*
X0380830Y0220895D01*
X0380750Y0221042D01*
X0380673Y0221190D01*
X0380600Y0221340D01*
X0380530Y0221491D01*
X0380465Y0221645D01*
X0380403Y0221800D01*
X0380345Y0221956D01*
X0380290Y0222114D01*
X0380240Y0222273D01*
X0380193Y0222433D01*
X0380151Y0222595D01*
X0380112Y0222757D01*
X0380078Y0222920D01*
X0380047Y0223084D01*
X0380021Y0223249D01*
X0379998Y0223415D01*
X0379980Y0223580D01*
X0379965Y0223747D01*
X0379955Y0223913D01*
X0379949Y0224080D01*
X0379947Y0224247D01*
X0377447Y0386747D02*
X0377449Y0386914D01*
X0377455Y0387081D01*
X0377465Y0387247D01*
X0377480Y0387414D01*
X0377498Y0387579D01*
X0377521Y0387745D01*
X0377547Y0387910D01*
X0377578Y0388074D01*
X0377612Y0388237D01*
X0377651Y0388399D01*
X0377693Y0388561D01*
X0377740Y0388721D01*
X0377790Y0388880D01*
X0377845Y0389038D01*
X0377903Y0389194D01*
X0377965Y0389349D01*
X0378030Y0389503D01*
X0378100Y0389654D01*
X0378173Y0389804D01*
X0378250Y0389952D01*
X0378330Y0390099D01*
X0378414Y0390243D01*
X0378502Y0390385D01*
X0378593Y0390525D01*
X0378687Y0390662D01*
X0378785Y0390798D01*
X0378886Y0390931D01*
X0378991Y0391061D01*
X0379098Y0391189D01*
X0379209Y0391314D01*
X0379322Y0391436D01*
X0379439Y0391555D01*
X0379558Y0391672D01*
X0379680Y0391785D01*
X0379805Y0391896D01*
X0379933Y0392003D01*
X0380063Y0392108D01*
X0380196Y0392209D01*
X0380332Y0392307D01*
X0380469Y0392401D01*
X0380609Y0392492D01*
X0380751Y0392580D01*
X0380895Y0392664D01*
X0381042Y0392744D01*
X0381190Y0392821D01*
X0381340Y0392894D01*
X0381491Y0392964D01*
X0381645Y0393029D01*
X0381800Y0393091D01*
X0381956Y0393149D01*
X0382114Y0393204D01*
X0382273Y0393254D01*
X0382433Y0393301D01*
X0382595Y0393343D01*
X0382757Y0393382D01*
X0382920Y0393416D01*
X0383084Y0393447D01*
X0383249Y0393473D01*
X0383415Y0393496D01*
X0383580Y0393514D01*
X0383747Y0393529D01*
X0383913Y0393539D01*
X0384080Y0393545D01*
X0384247Y0393547D01*
X0384414Y0393545D01*
X0384581Y0393539D01*
X0384747Y0393529D01*
X0384914Y0393514D01*
X0385079Y0393496D01*
X0385245Y0393473D01*
X0385410Y0393447D01*
X0385574Y0393416D01*
X0385737Y0393382D01*
X0385899Y0393343D01*
X0386061Y0393301D01*
X0386221Y0393254D01*
X0386380Y0393204D01*
X0386538Y0393149D01*
X0386694Y0393091D01*
X0386849Y0393029D01*
X0387003Y0392964D01*
X0387154Y0392894D01*
X0387304Y0392821D01*
X0387452Y0392744D01*
X0387599Y0392664D01*
X0387743Y0392580D01*
X0387885Y0392492D01*
X0388025Y0392401D01*
X0388162Y0392307D01*
X0388298Y0392209D01*
X0388431Y0392108D01*
X0388561Y0392003D01*
X0388689Y0391896D01*
X0388814Y0391785D01*
X0388936Y0391672D01*
X0389055Y0391555D01*
X0389172Y0391436D01*
X0389285Y0391314D01*
X0389396Y0391189D01*
X0389503Y0391061D01*
X0389608Y0390931D01*
X0389709Y0390798D01*
X0389807Y0390662D01*
X0389901Y0390525D01*
X0389992Y0390385D01*
X0390080Y0390243D01*
X0390164Y0390099D01*
X0390244Y0389952D01*
X0390321Y0389804D01*
X0390394Y0389654D01*
X0390464Y0389503D01*
X0390529Y0389349D01*
X0390591Y0389194D01*
X0390649Y0389038D01*
X0390704Y0388880D01*
X0390754Y0388721D01*
X0390801Y0388561D01*
X0390843Y0388399D01*
X0390882Y0388237D01*
X0390916Y0388074D01*
X0390947Y0387910D01*
X0390973Y0387745D01*
X0390996Y0387579D01*
X0391014Y0387414D01*
X0391029Y0387247D01*
X0391039Y0387081D01*
X0391045Y0386914D01*
X0391047Y0386747D01*
X0391045Y0386580D01*
X0391039Y0386413D01*
X0391029Y0386247D01*
X0391014Y0386080D01*
X0390996Y0385915D01*
X0390973Y0385749D01*
X0390947Y0385584D01*
X0390916Y0385420D01*
X0390882Y0385257D01*
X0390843Y0385095D01*
X0390801Y0384933D01*
X0390754Y0384773D01*
X0390704Y0384614D01*
X0390649Y0384456D01*
X0390591Y0384300D01*
X0390529Y0384145D01*
X0390464Y0383991D01*
X0390394Y0383840D01*
X0390321Y0383690D01*
X0390244Y0383542D01*
X0390164Y0383395D01*
X0390080Y0383251D01*
X0389992Y0383109D01*
X0389901Y0382969D01*
X0389807Y0382832D01*
X0389709Y0382696D01*
X0389608Y0382563D01*
X0389503Y0382433D01*
X0389396Y0382305D01*
X0389285Y0382180D01*
X0389172Y0382058D01*
X0389055Y0381939D01*
X0388936Y0381822D01*
X0388814Y0381709D01*
X0388689Y0381598D01*
X0388561Y0381491D01*
X0388431Y0381386D01*
X0388298Y0381285D01*
X0388162Y0381187D01*
X0388025Y0381093D01*
X0387885Y0381002D01*
X0387743Y0380914D01*
X0387599Y0380830D01*
X0387452Y0380750D01*
X0387304Y0380673D01*
X0387154Y0380600D01*
X0387003Y0380530D01*
X0386849Y0380465D01*
X0386694Y0380403D01*
X0386538Y0380345D01*
X0386380Y0380290D01*
X0386221Y0380240D01*
X0386061Y0380193D01*
X0385899Y0380151D01*
X0385737Y0380112D01*
X0385574Y0380078D01*
X0385410Y0380047D01*
X0385245Y0380021D01*
X0385079Y0379998D01*
X0384914Y0379980D01*
X0384747Y0379965D01*
X0384581Y0379955D01*
X0384414Y0379949D01*
X0384247Y0379947D01*
X0384080Y0379949D01*
X0383913Y0379955D01*
X0383747Y0379965D01*
X0383580Y0379980D01*
X0383415Y0379998D01*
X0383249Y0380021D01*
X0383084Y0380047D01*
X0382920Y0380078D01*
X0382757Y0380112D01*
X0382595Y0380151D01*
X0382433Y0380193D01*
X0382273Y0380240D01*
X0382114Y0380290D01*
X0381956Y0380345D01*
X0381800Y0380403D01*
X0381645Y0380465D01*
X0381491Y0380530D01*
X0381340Y0380600D01*
X0381190Y0380673D01*
X0381042Y0380750D01*
X0380895Y0380830D01*
X0380751Y0380914D01*
X0380609Y0381002D01*
X0380469Y0381093D01*
X0380332Y0381187D01*
X0380196Y0381285D01*
X0380063Y0381386D01*
X0379933Y0381491D01*
X0379805Y0381598D01*
X0379680Y0381709D01*
X0379558Y0381822D01*
X0379439Y0381939D01*
X0379322Y0382058D01*
X0379209Y0382180D01*
X0379098Y0382305D01*
X0378991Y0382433D01*
X0378886Y0382563D01*
X0378785Y0382696D01*
X0378687Y0382832D01*
X0378593Y0382969D01*
X0378502Y0383109D01*
X0378414Y0383251D01*
X0378330Y0383395D01*
X0378250Y0383542D01*
X0378173Y0383690D01*
X0378100Y0383840D01*
X0378030Y0383991D01*
X0377965Y0384145D01*
X0377903Y0384300D01*
X0377845Y0384456D01*
X0377790Y0384614D01*
X0377740Y0384773D01*
X0377693Y0384933D01*
X0377651Y0385095D01*
X0377612Y0385257D01*
X0377578Y0385420D01*
X0377547Y0385584D01*
X0377521Y0385749D01*
X0377498Y0385915D01*
X0377480Y0386080D01*
X0377465Y0386247D01*
X0377455Y0386413D01*
X0377449Y0386580D01*
X0377447Y0386747D01*
X0379947Y0031333D02*
X0379949Y0031500D01*
X0379955Y0031667D01*
X0379965Y0031833D01*
X0379980Y0032000D01*
X0379998Y0032165D01*
X0380021Y0032331D01*
X0380047Y0032496D01*
X0380078Y0032660D01*
X0380112Y0032823D01*
X0380151Y0032985D01*
X0380193Y0033147D01*
X0380240Y0033307D01*
X0380290Y0033466D01*
X0380345Y0033624D01*
X0380403Y0033780D01*
X0380465Y0033935D01*
X0380530Y0034089D01*
X0380600Y0034240D01*
X0380673Y0034390D01*
X0380750Y0034538D01*
X0380830Y0034685D01*
X0380914Y0034829D01*
X0381002Y0034971D01*
X0381093Y0035111D01*
X0381187Y0035248D01*
X0381285Y0035384D01*
X0381386Y0035517D01*
X0381491Y0035647D01*
X0381598Y0035775D01*
X0381709Y0035900D01*
X0381822Y0036022D01*
X0381939Y0036141D01*
X0382058Y0036258D01*
X0382180Y0036371D01*
X0382305Y0036482D01*
X0382433Y0036589D01*
X0382563Y0036694D01*
X0382696Y0036795D01*
X0382832Y0036893D01*
X0382969Y0036987D01*
X0383109Y0037078D01*
X0383251Y0037166D01*
X0383395Y0037250D01*
X0383542Y0037330D01*
X0383690Y0037407D01*
X0383840Y0037480D01*
X0383991Y0037550D01*
X0384145Y0037615D01*
X0384300Y0037677D01*
X0384456Y0037735D01*
X0384614Y0037790D01*
X0384773Y0037840D01*
X0384933Y0037887D01*
X0385095Y0037929D01*
X0385257Y0037968D01*
X0385420Y0038002D01*
X0385584Y0038033D01*
X0385749Y0038059D01*
X0385915Y0038082D01*
X0386080Y0038100D01*
X0386247Y0038115D01*
X0386413Y0038125D01*
X0386580Y0038131D01*
X0386747Y0038133D01*
X0386914Y0038131D01*
X0387081Y0038125D01*
X0387247Y0038115D01*
X0387414Y0038100D01*
X0387579Y0038082D01*
X0387745Y0038059D01*
X0387910Y0038033D01*
X0388074Y0038002D01*
X0388237Y0037968D01*
X0388399Y0037929D01*
X0388561Y0037887D01*
X0388721Y0037840D01*
X0388880Y0037790D01*
X0389038Y0037735D01*
X0389194Y0037677D01*
X0389349Y0037615D01*
X0389503Y0037550D01*
X0389654Y0037480D01*
X0389804Y0037407D01*
X0389952Y0037330D01*
X0390099Y0037250D01*
X0390243Y0037166D01*
X0390385Y0037078D01*
X0390525Y0036987D01*
X0390662Y0036893D01*
X0390798Y0036795D01*
X0390931Y0036694D01*
X0391061Y0036589D01*
X0391189Y0036482D01*
X0391314Y0036371D01*
X0391436Y0036258D01*
X0391555Y0036141D01*
X0391672Y0036022D01*
X0391785Y0035900D01*
X0391896Y0035775D01*
X0392003Y0035647D01*
X0392108Y0035517D01*
X0392209Y0035384D01*
X0392307Y0035248D01*
X0392401Y0035111D01*
X0392492Y0034971D01*
X0392580Y0034829D01*
X0392664Y0034685D01*
X0392744Y0034538D01*
X0392821Y0034390D01*
X0392894Y0034240D01*
X0392964Y0034089D01*
X0393029Y0033935D01*
X0393091Y0033780D01*
X0393149Y0033624D01*
X0393204Y0033466D01*
X0393254Y0033307D01*
X0393301Y0033147D01*
X0393343Y0032985D01*
X0393382Y0032823D01*
X0393416Y0032660D01*
X0393447Y0032496D01*
X0393473Y0032331D01*
X0393496Y0032165D01*
X0393514Y0032000D01*
X0393529Y0031833D01*
X0393539Y0031667D01*
X0393545Y0031500D01*
X0393547Y0031333D01*
X0393545Y0031166D01*
X0393539Y0030999D01*
X0393529Y0030833D01*
X0393514Y0030666D01*
X0393496Y0030501D01*
X0393473Y0030335D01*
X0393447Y0030170D01*
X0393416Y0030006D01*
X0393382Y0029843D01*
X0393343Y0029681D01*
X0393301Y0029519D01*
X0393254Y0029359D01*
X0393204Y0029200D01*
X0393149Y0029042D01*
X0393091Y0028886D01*
X0393029Y0028731D01*
X0392964Y0028577D01*
X0392894Y0028426D01*
X0392821Y0028276D01*
X0392744Y0028128D01*
X0392664Y0027981D01*
X0392580Y0027837D01*
X0392492Y0027695D01*
X0392401Y0027555D01*
X0392307Y0027418D01*
X0392209Y0027282D01*
X0392108Y0027149D01*
X0392003Y0027019D01*
X0391896Y0026891D01*
X0391785Y0026766D01*
X0391672Y0026644D01*
X0391555Y0026525D01*
X0391436Y0026408D01*
X0391314Y0026295D01*
X0391189Y0026184D01*
X0391061Y0026077D01*
X0390931Y0025972D01*
X0390798Y0025871D01*
X0390662Y0025773D01*
X0390525Y0025679D01*
X0390385Y0025588D01*
X0390243Y0025500D01*
X0390099Y0025416D01*
X0389952Y0025336D01*
X0389804Y0025259D01*
X0389654Y0025186D01*
X0389503Y0025116D01*
X0389349Y0025051D01*
X0389194Y0024989D01*
X0389038Y0024931D01*
X0388880Y0024876D01*
X0388721Y0024826D01*
X0388561Y0024779D01*
X0388399Y0024737D01*
X0388237Y0024698D01*
X0388074Y0024664D01*
X0387910Y0024633D01*
X0387745Y0024607D01*
X0387579Y0024584D01*
X0387414Y0024566D01*
X0387247Y0024551D01*
X0387081Y0024541D01*
X0386914Y0024535D01*
X0386747Y0024533D01*
X0386580Y0024535D01*
X0386413Y0024541D01*
X0386247Y0024551D01*
X0386080Y0024566D01*
X0385915Y0024584D01*
X0385749Y0024607D01*
X0385584Y0024633D01*
X0385420Y0024664D01*
X0385257Y0024698D01*
X0385095Y0024737D01*
X0384933Y0024779D01*
X0384773Y0024826D01*
X0384614Y0024876D01*
X0384456Y0024931D01*
X0384300Y0024989D01*
X0384145Y0025051D01*
X0383991Y0025116D01*
X0383840Y0025186D01*
X0383690Y0025259D01*
X0383542Y0025336D01*
X0383395Y0025416D01*
X0383251Y0025500D01*
X0383109Y0025588D01*
X0382969Y0025679D01*
X0382832Y0025773D01*
X0382696Y0025871D01*
X0382563Y0025972D01*
X0382433Y0026077D01*
X0382305Y0026184D01*
X0382180Y0026295D01*
X0382058Y0026408D01*
X0381939Y0026525D01*
X0381822Y0026644D01*
X0381709Y0026766D01*
X0381598Y0026891D01*
X0381491Y0027019D01*
X0381386Y0027149D01*
X0381285Y0027282D01*
X0381187Y0027418D01*
X0381093Y0027555D01*
X0381002Y0027695D01*
X0380914Y0027837D01*
X0380830Y0027981D01*
X0380750Y0028128D01*
X0380673Y0028276D01*
X0380600Y0028426D01*
X0380530Y0028577D01*
X0380465Y0028731D01*
X0380403Y0028886D01*
X0380345Y0029042D01*
X0380290Y0029200D01*
X0380240Y0029359D01*
X0380193Y0029519D01*
X0380151Y0029681D01*
X0380112Y0029843D01*
X0380078Y0030006D01*
X0380047Y0030170D01*
X0380021Y0030335D01*
X0379998Y0030501D01*
X0379980Y0030666D01*
X0379965Y0030833D01*
X0379955Y0030999D01*
X0379949Y0031166D01*
X0379947Y0031333D01*
X0214947Y0028833D02*
X0214949Y0029000D01*
X0214955Y0029167D01*
X0214965Y0029333D01*
X0214980Y0029500D01*
X0214998Y0029665D01*
X0215021Y0029831D01*
X0215047Y0029996D01*
X0215078Y0030160D01*
X0215112Y0030323D01*
X0215151Y0030485D01*
X0215193Y0030647D01*
X0215240Y0030807D01*
X0215290Y0030966D01*
X0215345Y0031124D01*
X0215403Y0031280D01*
X0215465Y0031435D01*
X0215530Y0031589D01*
X0215600Y0031740D01*
X0215673Y0031890D01*
X0215750Y0032038D01*
X0215830Y0032185D01*
X0215914Y0032329D01*
X0216002Y0032471D01*
X0216093Y0032611D01*
X0216187Y0032748D01*
X0216285Y0032884D01*
X0216386Y0033017D01*
X0216491Y0033147D01*
X0216598Y0033275D01*
X0216709Y0033400D01*
X0216822Y0033522D01*
X0216939Y0033641D01*
X0217058Y0033758D01*
X0217180Y0033871D01*
X0217305Y0033982D01*
X0217433Y0034089D01*
X0217563Y0034194D01*
X0217696Y0034295D01*
X0217832Y0034393D01*
X0217969Y0034487D01*
X0218109Y0034578D01*
X0218251Y0034666D01*
X0218395Y0034750D01*
X0218542Y0034830D01*
X0218690Y0034907D01*
X0218840Y0034980D01*
X0218991Y0035050D01*
X0219145Y0035115D01*
X0219300Y0035177D01*
X0219456Y0035235D01*
X0219614Y0035290D01*
X0219773Y0035340D01*
X0219933Y0035387D01*
X0220095Y0035429D01*
X0220257Y0035468D01*
X0220420Y0035502D01*
X0220584Y0035533D01*
X0220749Y0035559D01*
X0220915Y0035582D01*
X0221080Y0035600D01*
X0221247Y0035615D01*
X0221413Y0035625D01*
X0221580Y0035631D01*
X0221747Y0035633D01*
X0221914Y0035631D01*
X0222081Y0035625D01*
X0222247Y0035615D01*
X0222414Y0035600D01*
X0222579Y0035582D01*
X0222745Y0035559D01*
X0222910Y0035533D01*
X0223074Y0035502D01*
X0223237Y0035468D01*
X0223399Y0035429D01*
X0223561Y0035387D01*
X0223721Y0035340D01*
X0223880Y0035290D01*
X0224038Y0035235D01*
X0224194Y0035177D01*
X0224349Y0035115D01*
X0224503Y0035050D01*
X0224654Y0034980D01*
X0224804Y0034907D01*
X0224952Y0034830D01*
X0225099Y0034750D01*
X0225243Y0034666D01*
X0225385Y0034578D01*
X0225525Y0034487D01*
X0225662Y0034393D01*
X0225798Y0034295D01*
X0225931Y0034194D01*
X0226061Y0034089D01*
X0226189Y0033982D01*
X0226314Y0033871D01*
X0226436Y0033758D01*
X0226555Y0033641D01*
X0226672Y0033522D01*
X0226785Y0033400D01*
X0226896Y0033275D01*
X0227003Y0033147D01*
X0227108Y0033017D01*
X0227209Y0032884D01*
X0227307Y0032748D01*
X0227401Y0032611D01*
X0227492Y0032471D01*
X0227580Y0032329D01*
X0227664Y0032185D01*
X0227744Y0032038D01*
X0227821Y0031890D01*
X0227894Y0031740D01*
X0227964Y0031589D01*
X0228029Y0031435D01*
X0228091Y0031280D01*
X0228149Y0031124D01*
X0228204Y0030966D01*
X0228254Y0030807D01*
X0228301Y0030647D01*
X0228343Y0030485D01*
X0228382Y0030323D01*
X0228416Y0030160D01*
X0228447Y0029996D01*
X0228473Y0029831D01*
X0228496Y0029665D01*
X0228514Y0029500D01*
X0228529Y0029333D01*
X0228539Y0029167D01*
X0228545Y0029000D01*
X0228547Y0028833D01*
X0228545Y0028666D01*
X0228539Y0028499D01*
X0228529Y0028333D01*
X0228514Y0028166D01*
X0228496Y0028001D01*
X0228473Y0027835D01*
X0228447Y0027670D01*
X0228416Y0027506D01*
X0228382Y0027343D01*
X0228343Y0027181D01*
X0228301Y0027019D01*
X0228254Y0026859D01*
X0228204Y0026700D01*
X0228149Y0026542D01*
X0228091Y0026386D01*
X0228029Y0026231D01*
X0227964Y0026077D01*
X0227894Y0025926D01*
X0227821Y0025776D01*
X0227744Y0025628D01*
X0227664Y0025481D01*
X0227580Y0025337D01*
X0227492Y0025195D01*
X0227401Y0025055D01*
X0227307Y0024918D01*
X0227209Y0024782D01*
X0227108Y0024649D01*
X0227003Y0024519D01*
X0226896Y0024391D01*
X0226785Y0024266D01*
X0226672Y0024144D01*
X0226555Y0024025D01*
X0226436Y0023908D01*
X0226314Y0023795D01*
X0226189Y0023684D01*
X0226061Y0023577D01*
X0225931Y0023472D01*
X0225798Y0023371D01*
X0225662Y0023273D01*
X0225525Y0023179D01*
X0225385Y0023088D01*
X0225243Y0023000D01*
X0225099Y0022916D01*
X0224952Y0022836D01*
X0224804Y0022759D01*
X0224654Y0022686D01*
X0224503Y0022616D01*
X0224349Y0022551D01*
X0224194Y0022489D01*
X0224038Y0022431D01*
X0223880Y0022376D01*
X0223721Y0022326D01*
X0223561Y0022279D01*
X0223399Y0022237D01*
X0223237Y0022198D01*
X0223074Y0022164D01*
X0222910Y0022133D01*
X0222745Y0022107D01*
X0222579Y0022084D01*
X0222414Y0022066D01*
X0222247Y0022051D01*
X0222081Y0022041D01*
X0221914Y0022035D01*
X0221747Y0022033D01*
X0221580Y0022035D01*
X0221413Y0022041D01*
X0221247Y0022051D01*
X0221080Y0022066D01*
X0220915Y0022084D01*
X0220749Y0022107D01*
X0220584Y0022133D01*
X0220420Y0022164D01*
X0220257Y0022198D01*
X0220095Y0022237D01*
X0219933Y0022279D01*
X0219773Y0022326D01*
X0219614Y0022376D01*
X0219456Y0022431D01*
X0219300Y0022489D01*
X0219145Y0022551D01*
X0218991Y0022616D01*
X0218840Y0022686D01*
X0218690Y0022759D01*
X0218542Y0022836D01*
X0218395Y0022916D01*
X0218251Y0023000D01*
X0218109Y0023088D01*
X0217969Y0023179D01*
X0217832Y0023273D01*
X0217696Y0023371D01*
X0217563Y0023472D01*
X0217433Y0023577D01*
X0217305Y0023684D01*
X0217180Y0023795D01*
X0217058Y0023908D01*
X0216939Y0024025D01*
X0216822Y0024144D01*
X0216709Y0024266D01*
X0216598Y0024391D01*
X0216491Y0024519D01*
X0216386Y0024649D01*
X0216285Y0024782D01*
X0216187Y0024918D01*
X0216093Y0025055D01*
X0216002Y0025195D01*
X0215914Y0025337D01*
X0215830Y0025481D01*
X0215750Y0025628D01*
X0215673Y0025776D01*
X0215600Y0025926D01*
X0215530Y0026077D01*
X0215465Y0026231D01*
X0215403Y0026386D01*
X0215345Y0026542D01*
X0215290Y0026700D01*
X0215240Y0026859D01*
X0215193Y0027019D01*
X0215151Y0027181D01*
X0215112Y0027343D01*
X0215078Y0027506D01*
X0215047Y0027670D01*
X0215021Y0027835D01*
X0214998Y0028001D01*
X0214980Y0028166D01*
X0214965Y0028333D01*
X0214955Y0028499D01*
X0214949Y0028666D01*
X0214947Y0028833D01*
X0187033Y0031333D02*
X0187035Y0031500D01*
X0187041Y0031667D01*
X0187051Y0031833D01*
X0187066Y0032000D01*
X0187084Y0032165D01*
X0187107Y0032331D01*
X0187133Y0032496D01*
X0187164Y0032660D01*
X0187198Y0032823D01*
X0187237Y0032985D01*
X0187279Y0033147D01*
X0187326Y0033307D01*
X0187376Y0033466D01*
X0187431Y0033624D01*
X0187489Y0033780D01*
X0187551Y0033935D01*
X0187616Y0034089D01*
X0187686Y0034240D01*
X0187759Y0034390D01*
X0187836Y0034538D01*
X0187916Y0034685D01*
X0188000Y0034829D01*
X0188088Y0034971D01*
X0188179Y0035111D01*
X0188273Y0035248D01*
X0188371Y0035384D01*
X0188472Y0035517D01*
X0188577Y0035647D01*
X0188684Y0035775D01*
X0188795Y0035900D01*
X0188908Y0036022D01*
X0189025Y0036141D01*
X0189144Y0036258D01*
X0189266Y0036371D01*
X0189391Y0036482D01*
X0189519Y0036589D01*
X0189649Y0036694D01*
X0189782Y0036795D01*
X0189918Y0036893D01*
X0190055Y0036987D01*
X0190195Y0037078D01*
X0190337Y0037166D01*
X0190481Y0037250D01*
X0190628Y0037330D01*
X0190776Y0037407D01*
X0190926Y0037480D01*
X0191077Y0037550D01*
X0191231Y0037615D01*
X0191386Y0037677D01*
X0191542Y0037735D01*
X0191700Y0037790D01*
X0191859Y0037840D01*
X0192019Y0037887D01*
X0192181Y0037929D01*
X0192343Y0037968D01*
X0192506Y0038002D01*
X0192670Y0038033D01*
X0192835Y0038059D01*
X0193001Y0038082D01*
X0193166Y0038100D01*
X0193333Y0038115D01*
X0193499Y0038125D01*
X0193666Y0038131D01*
X0193833Y0038133D01*
X0194000Y0038131D01*
X0194167Y0038125D01*
X0194333Y0038115D01*
X0194500Y0038100D01*
X0194665Y0038082D01*
X0194831Y0038059D01*
X0194996Y0038033D01*
X0195160Y0038002D01*
X0195323Y0037968D01*
X0195485Y0037929D01*
X0195647Y0037887D01*
X0195807Y0037840D01*
X0195966Y0037790D01*
X0196124Y0037735D01*
X0196280Y0037677D01*
X0196435Y0037615D01*
X0196589Y0037550D01*
X0196740Y0037480D01*
X0196890Y0037407D01*
X0197038Y0037330D01*
X0197185Y0037250D01*
X0197329Y0037166D01*
X0197471Y0037078D01*
X0197611Y0036987D01*
X0197748Y0036893D01*
X0197884Y0036795D01*
X0198017Y0036694D01*
X0198147Y0036589D01*
X0198275Y0036482D01*
X0198400Y0036371D01*
X0198522Y0036258D01*
X0198641Y0036141D01*
X0198758Y0036022D01*
X0198871Y0035900D01*
X0198982Y0035775D01*
X0199089Y0035647D01*
X0199194Y0035517D01*
X0199295Y0035384D01*
X0199393Y0035248D01*
X0199487Y0035111D01*
X0199578Y0034971D01*
X0199666Y0034829D01*
X0199750Y0034685D01*
X0199830Y0034538D01*
X0199907Y0034390D01*
X0199980Y0034240D01*
X0200050Y0034089D01*
X0200115Y0033935D01*
X0200177Y0033780D01*
X0200235Y0033624D01*
X0200290Y0033466D01*
X0200340Y0033307D01*
X0200387Y0033147D01*
X0200429Y0032985D01*
X0200468Y0032823D01*
X0200502Y0032660D01*
X0200533Y0032496D01*
X0200559Y0032331D01*
X0200582Y0032165D01*
X0200600Y0032000D01*
X0200615Y0031833D01*
X0200625Y0031667D01*
X0200631Y0031500D01*
X0200633Y0031333D01*
X0200631Y0031166D01*
X0200625Y0030999D01*
X0200615Y0030833D01*
X0200600Y0030666D01*
X0200582Y0030501D01*
X0200559Y0030335D01*
X0200533Y0030170D01*
X0200502Y0030006D01*
X0200468Y0029843D01*
X0200429Y0029681D01*
X0200387Y0029519D01*
X0200340Y0029359D01*
X0200290Y0029200D01*
X0200235Y0029042D01*
X0200177Y0028886D01*
X0200115Y0028731D01*
X0200050Y0028577D01*
X0199980Y0028426D01*
X0199907Y0028276D01*
X0199830Y0028128D01*
X0199750Y0027981D01*
X0199666Y0027837D01*
X0199578Y0027695D01*
X0199487Y0027555D01*
X0199393Y0027418D01*
X0199295Y0027282D01*
X0199194Y0027149D01*
X0199089Y0027019D01*
X0198982Y0026891D01*
X0198871Y0026766D01*
X0198758Y0026644D01*
X0198641Y0026525D01*
X0198522Y0026408D01*
X0198400Y0026295D01*
X0198275Y0026184D01*
X0198147Y0026077D01*
X0198017Y0025972D01*
X0197884Y0025871D01*
X0197748Y0025773D01*
X0197611Y0025679D01*
X0197471Y0025588D01*
X0197329Y0025500D01*
X0197185Y0025416D01*
X0197038Y0025336D01*
X0196890Y0025259D01*
X0196740Y0025186D01*
X0196589Y0025116D01*
X0196435Y0025051D01*
X0196280Y0024989D01*
X0196124Y0024931D01*
X0195966Y0024876D01*
X0195807Y0024826D01*
X0195647Y0024779D01*
X0195485Y0024737D01*
X0195323Y0024698D01*
X0195160Y0024664D01*
X0194996Y0024633D01*
X0194831Y0024607D01*
X0194665Y0024584D01*
X0194500Y0024566D01*
X0194333Y0024551D01*
X0194167Y0024541D01*
X0194000Y0024535D01*
X0193833Y0024533D01*
X0193666Y0024535D01*
X0193499Y0024541D01*
X0193333Y0024551D01*
X0193166Y0024566D01*
X0193001Y0024584D01*
X0192835Y0024607D01*
X0192670Y0024633D01*
X0192506Y0024664D01*
X0192343Y0024698D01*
X0192181Y0024737D01*
X0192019Y0024779D01*
X0191859Y0024826D01*
X0191700Y0024876D01*
X0191542Y0024931D01*
X0191386Y0024989D01*
X0191231Y0025051D01*
X0191077Y0025116D01*
X0190926Y0025186D01*
X0190776Y0025259D01*
X0190628Y0025336D01*
X0190481Y0025416D01*
X0190337Y0025500D01*
X0190195Y0025588D01*
X0190055Y0025679D01*
X0189918Y0025773D01*
X0189782Y0025871D01*
X0189649Y0025972D01*
X0189519Y0026077D01*
X0189391Y0026184D01*
X0189266Y0026295D01*
X0189144Y0026408D01*
X0189025Y0026525D01*
X0188908Y0026644D01*
X0188795Y0026766D01*
X0188684Y0026891D01*
X0188577Y0027019D01*
X0188472Y0027149D01*
X0188371Y0027282D01*
X0188273Y0027418D01*
X0188179Y0027555D01*
X0188088Y0027695D01*
X0188000Y0027837D01*
X0187916Y0027981D01*
X0187836Y0028128D01*
X0187759Y0028276D01*
X0187686Y0028426D01*
X0187616Y0028577D01*
X0187551Y0028731D01*
X0187489Y0028886D01*
X0187431Y0029042D01*
X0187376Y0029200D01*
X0187326Y0029359D01*
X0187279Y0029519D01*
X0187237Y0029681D01*
X0187198Y0029843D01*
X0187164Y0030006D01*
X0187133Y0030170D01*
X0187107Y0030335D01*
X0187084Y0030501D01*
X0187066Y0030666D01*
X0187051Y0030833D01*
X0187041Y0030999D01*
X0187035Y0031166D01*
X0187033Y0031333D01*
D11*
X0193833Y0031333D03*
X0221747Y0028833D03*
X0386747Y0031333D03*
X0384247Y0193833D03*
X0386747Y0224247D03*
X0384247Y0386747D03*
X0224247Y0386747D03*
X0191333Y0386747D03*
X0031333Y0386747D03*
X0028833Y0221747D03*
X0031333Y0193833D03*
X0191333Y0193833D03*
X0193833Y0224247D03*
X0221747Y0221747D03*
X0224247Y0193833D03*
X0028833Y0028833D03*
D12*
X0016333Y0016333D02*
X0016333Y0402160D01*
X0402160Y0402160D01*
X0402160Y0016333D01*
X0016333Y0016333D01*
D13*
X0103833Y0136333D03*
X0113833Y0136333D03*
X0296747Y0136333D03*
X0306747Y0136333D03*
X0306747Y0329247D03*
X0296747Y0329247D03*
X0113833Y0329247D03*
X0103833Y0329247D03*
D14*
X0093833Y0329247D03*
X0108833Y0341747D03*
X0113833Y0329247D03*
X0286747Y0329247D03*
X0301747Y0341747D03*
X0306747Y0329247D03*
X0301747Y0148833D03*
X0306747Y0136333D03*
X0286747Y0136333D03*
X0113833Y0136333D03*
X0108833Y0148833D03*
X0093833Y0136333D03*
D15*
X0056833Y0141333D03*
X0055833Y0131333D03*
X0056833Y0121333D03*
X0055833Y0111333D03*
X0056833Y0101333D03*
X0055833Y0091333D03*
X0056833Y0081333D03*
X0055833Y0071333D03*
X0056833Y0061333D03*
X0055833Y0051333D03*
X0055833Y0151333D03*
X0056833Y0161333D03*
X0055833Y0244247D03*
X0056833Y0254247D03*
X0055833Y0264247D03*
X0056833Y0274247D03*
X0055833Y0284247D03*
X0056833Y0294247D03*
X0055833Y0304247D03*
X0056833Y0314247D03*
X0055833Y0324247D03*
X0056833Y0334247D03*
X0055833Y0344247D03*
X0056833Y0354247D03*
X0165833Y0344247D03*
X0166833Y0354247D03*
X0166833Y0334247D03*
X0165833Y0324247D03*
X0166833Y0314247D03*
X0165833Y0304247D03*
X0166833Y0294247D03*
X0165833Y0284247D03*
X0166833Y0274247D03*
X0165833Y0264247D03*
X0166833Y0254247D03*
X0165833Y0244247D03*
X0248747Y0244247D03*
X0249747Y0254247D03*
X0248747Y0264247D03*
X0249747Y0274247D03*
X0248747Y0284247D03*
X0249747Y0294247D03*
X0248747Y0304247D03*
X0249747Y0314247D03*
X0248747Y0324247D03*
X0249747Y0334247D03*
X0248747Y0344247D03*
X0249747Y0354247D03*
X0358747Y0344247D03*
X0359747Y0354247D03*
X0359747Y0334247D03*
X0358747Y0324247D03*
X0359747Y0314247D03*
X0358747Y0304247D03*
X0359747Y0294247D03*
X0358747Y0284247D03*
X0359747Y0274247D03*
X0358747Y0264247D03*
X0359747Y0254247D03*
X0358747Y0244247D03*
X0359747Y0161333D03*
X0358747Y0151333D03*
X0359747Y0141333D03*
X0358747Y0131333D03*
X0359747Y0121333D03*
X0358747Y0111333D03*
X0359747Y0101333D03*
X0358747Y0091333D03*
X0359747Y0081333D03*
X0358747Y0071333D03*
X0359747Y0061333D03*
X0358747Y0051333D03*
X0249747Y0061333D03*
X0248747Y0051333D03*
X0248747Y0071333D03*
X0249747Y0081333D03*
X0248747Y0091333D03*
X0249747Y0101333D03*
X0248747Y0111333D03*
X0249747Y0121333D03*
X0248747Y0131333D03*
X0249747Y0141333D03*
X0248747Y0151333D03*
X0249747Y0161333D03*
X0166833Y0161333D03*
X0165833Y0151333D03*
X0166833Y0141333D03*
X0165833Y0131333D03*
X0166833Y0121333D03*
X0165833Y0111333D03*
X0166833Y0101333D03*
X0165833Y0091333D03*
X0166833Y0081333D03*
X0165833Y0071333D03*
X0166833Y0061333D03*
X0165833Y0051333D03*
D16*
X0086333Y0196333D03*
X0086333Y0389247D03*
X0279247Y0389247D03*
X0279247Y0196333D03*
D17*
X0293026Y0196333D03*
X0306806Y0196333D03*
X0320585Y0196333D03*
X0127672Y0196333D03*
X0113892Y0196333D03*
X0100113Y0196333D03*
X0100113Y0389247D03*
X0113892Y0389247D03*
X0127672Y0389247D03*
X0293026Y0389247D03*
X0306806Y0389247D03*
X0320585Y0389247D03*
D18*
X0321747Y0369347D02*
X0321747Y0364147D01*
X0331747Y0364147D02*
X0331747Y0369347D01*
X0341747Y0369347D02*
X0341747Y0364147D01*
X0311747Y0364147D02*
X0311747Y0369347D01*
X0301747Y0369347D02*
X0301747Y0364147D01*
X0291747Y0364147D02*
X0291747Y0369347D01*
X0281747Y0369347D02*
X0281747Y0364147D01*
X0271747Y0364147D02*
X0271747Y0369347D01*
X0261747Y0369347D02*
X0261747Y0364147D01*
X0284147Y0314247D02*
X0289347Y0314247D01*
X0289347Y0304247D02*
X0284147Y0304247D01*
X0284147Y0294247D02*
X0289347Y0294247D01*
X0289347Y0284247D02*
X0284147Y0284247D01*
X0284147Y0274247D02*
X0289347Y0274247D01*
X0289347Y0264247D02*
X0284147Y0264247D01*
X0284147Y0254247D02*
X0289347Y0254247D01*
X0314147Y0254247D02*
X0319347Y0254247D01*
X0319347Y0264247D02*
X0314147Y0264247D01*
X0314147Y0274247D02*
X0319347Y0274247D01*
X0319347Y0284247D02*
X0314147Y0284247D01*
X0314147Y0294247D02*
X0319347Y0294247D01*
X0319347Y0304247D02*
X0314147Y0304247D01*
X0314147Y0314247D02*
X0319347Y0314247D01*
X0321747Y0229347D02*
X0321747Y0224147D01*
X0331747Y0224147D02*
X0331747Y0229347D01*
X0341747Y0229347D02*
X0341747Y0224147D01*
X0311747Y0224147D02*
X0311747Y0229347D01*
X0301747Y0229347D02*
X0301747Y0224147D01*
X0291747Y0224147D02*
X0291747Y0229347D01*
X0281747Y0229347D02*
X0281747Y0224147D01*
X0271747Y0224147D02*
X0271747Y0229347D01*
X0261747Y0229347D02*
X0261747Y0224147D01*
X0261747Y0176433D02*
X0261747Y0171233D01*
X0271747Y0171233D02*
X0271747Y0176433D01*
X0281747Y0176433D02*
X0281747Y0171233D01*
X0291747Y0171233D02*
X0291747Y0176433D01*
X0301747Y0176433D02*
X0301747Y0171233D01*
X0311747Y0171233D02*
X0311747Y0176433D01*
X0321747Y0176433D02*
X0321747Y0171233D01*
X0331747Y0171233D02*
X0331747Y0176433D01*
X0341747Y0176433D02*
X0341747Y0171233D01*
X0319347Y0121333D02*
X0314147Y0121333D01*
X0314147Y0111333D02*
X0319347Y0111333D01*
X0319347Y0101333D02*
X0314147Y0101333D01*
X0314147Y0091333D02*
X0319347Y0091333D01*
X0319347Y0081333D02*
X0314147Y0081333D01*
X0314147Y0071333D02*
X0319347Y0071333D01*
X0319347Y0061333D02*
X0314147Y0061333D01*
X0289347Y0061333D02*
X0284147Y0061333D01*
X0284147Y0071333D02*
X0289347Y0071333D01*
X0289347Y0081333D02*
X0284147Y0081333D01*
X0284147Y0091333D02*
X0289347Y0091333D01*
X0289347Y0101333D02*
X0284147Y0101333D01*
X0284147Y0111333D02*
X0289347Y0111333D01*
X0289347Y0121333D02*
X0284147Y0121333D01*
X0281747Y0036433D02*
X0281747Y0031233D01*
X0291747Y0031233D02*
X0291747Y0036433D01*
X0301747Y0036433D02*
X0301747Y0031233D01*
X0311747Y0031233D02*
X0311747Y0036433D01*
X0321747Y0036433D02*
X0321747Y0031233D01*
X0331747Y0031233D02*
X0331747Y0036433D01*
X0341747Y0036433D02*
X0341747Y0031233D01*
X0271747Y0031233D02*
X0271747Y0036433D01*
X0261747Y0036433D02*
X0261747Y0031233D01*
X0148833Y0031233D02*
X0148833Y0036433D01*
X0138833Y0036433D02*
X0138833Y0031233D01*
X0128833Y0031233D02*
X0128833Y0036433D01*
X0118833Y0036433D02*
X0118833Y0031233D01*
X0108833Y0031233D02*
X0108833Y0036433D01*
X0098833Y0036433D02*
X0098833Y0031233D01*
X0088833Y0031233D02*
X0088833Y0036433D01*
X0078833Y0036433D02*
X0078833Y0031233D01*
X0068833Y0031233D02*
X0068833Y0036433D01*
X0091233Y0061333D02*
X0096433Y0061333D01*
X0096433Y0071333D02*
X0091233Y0071333D01*
X0091233Y0081333D02*
X0096433Y0081333D01*
X0096433Y0091333D02*
X0091233Y0091333D01*
X0091233Y0101333D02*
X0096433Y0101333D01*
X0096433Y0111333D02*
X0091233Y0111333D01*
X0091233Y0121333D02*
X0096433Y0121333D01*
X0121233Y0121333D02*
X0126433Y0121333D01*
X0126433Y0111333D02*
X0121233Y0111333D01*
X0121233Y0101333D02*
X0126433Y0101333D01*
X0126433Y0091333D02*
X0121233Y0091333D01*
X0121233Y0081333D02*
X0126433Y0081333D01*
X0126433Y0071333D02*
X0121233Y0071333D01*
X0121233Y0061333D02*
X0126433Y0061333D01*
X0128833Y0171233D02*
X0128833Y0176433D01*
X0118833Y0176433D02*
X0118833Y0171233D01*
X0108833Y0171233D02*
X0108833Y0176433D01*
X0098833Y0176433D02*
X0098833Y0171233D01*
X0088833Y0171233D02*
X0088833Y0176433D01*
X0078833Y0176433D02*
X0078833Y0171233D01*
X0068833Y0171233D02*
X0068833Y0176433D01*
X0068833Y0224147D02*
X0068833Y0229347D01*
X0078833Y0229347D02*
X0078833Y0224147D01*
X0088833Y0224147D02*
X0088833Y0229347D01*
X0098833Y0229347D02*
X0098833Y0224147D01*
X0108833Y0224147D02*
X0108833Y0229347D01*
X0118833Y0229347D02*
X0118833Y0224147D01*
X0128833Y0224147D02*
X0128833Y0229347D01*
X0138833Y0229347D02*
X0138833Y0224147D01*
X0148833Y0224147D02*
X0148833Y0229347D01*
X0126433Y0254247D02*
X0121233Y0254247D01*
X0121233Y0264247D02*
X0126433Y0264247D01*
X0126433Y0274247D02*
X0121233Y0274247D01*
X0121233Y0284247D02*
X0126433Y0284247D01*
X0126433Y0294247D02*
X0121233Y0294247D01*
X0121233Y0304247D02*
X0126433Y0304247D01*
X0126433Y0314247D02*
X0121233Y0314247D01*
X0096433Y0314247D02*
X0091233Y0314247D01*
X0091233Y0304247D02*
X0096433Y0304247D01*
X0096433Y0294247D02*
X0091233Y0294247D01*
X0091233Y0284247D02*
X0096433Y0284247D01*
X0096433Y0274247D02*
X0091233Y0274247D01*
X0091233Y0264247D02*
X0096433Y0264247D01*
X0096433Y0254247D02*
X0091233Y0254247D01*
X0138833Y0176433D02*
X0138833Y0171233D01*
X0148833Y0171233D02*
X0148833Y0176433D01*
X0148833Y0364147D02*
X0148833Y0369347D01*
X0138833Y0369347D02*
X0138833Y0364147D01*
X0128833Y0364147D02*
X0128833Y0369347D01*
X0118833Y0369347D02*
X0118833Y0364147D01*
X0108833Y0364147D02*
X0108833Y0369347D01*
X0098833Y0369347D02*
X0098833Y0364147D01*
X0088833Y0364147D02*
X0088833Y0369347D01*
X0078833Y0369347D02*
X0078833Y0364147D01*
X0068833Y0364147D02*
X0068833Y0369347D01*
D19*
X0108833Y0351747D03*
X0108833Y0158833D03*
X0301747Y0158833D03*
X0301747Y0351747D03*
M02*
