%
M48
M72
T01C0.02756
T02C0.03200
T03C0.04000
T04C0.04724
T05C0.13600
%
T01
X103833Y136333
X113833Y136333
X296747Y136333
X306747Y136333
X306747Y329247
X296747Y329247
X113833Y329247
X103833Y329247
T02
X93833Y329247
X93833Y314247
X93833Y304247
X93833Y294247
X93833Y284247
X93833Y274247
X93833Y264247
X93833Y254247
X88833Y226747
X78833Y226747
X68833Y226747
X98833Y226747
X108833Y226747
X118833Y226747
X128833Y226747
X138833Y226747
X148833Y226747
X123833Y254247
X123833Y264247
X123833Y274247
X123833Y284247
X123833Y294247
X123833Y304247
X123833Y314247
X113833Y329247
X108833Y341747
X108833Y351747
X108833Y366747
X98833Y366747
X88833Y366747
X78833Y366747
X68833Y366747
X118833Y366747
X128833Y366747
X138833Y366747
X148833Y366747
X261747Y366747
X271747Y366747
X281747Y366747
X291747Y366747
X301747Y366747
X311747Y366747
X321747Y366747
X331747Y366747
X341747Y366747
X301747Y351747
X301747Y341747
X306747Y329247
X316747Y314247
X316747Y304247
X316747Y294247
X316747Y284247
X316747Y274247
X316747Y264247
X316747Y254247
X321747Y226747
X331747Y226747
X341747Y226747
X311747Y226747
X301747Y226747
X291747Y226747
X281747Y226747
X271747Y226747
X261747Y226747
X286747Y254247
X286747Y264247
X286747Y274247
X286747Y284247
X286747Y294247
X286747Y304247
X286747Y314247
X286747Y329247
X291747Y173833
X281747Y173833
X271747Y173833
X261747Y173833
X286747Y136333
X286747Y121333
X286747Y111333
X286747Y101333
X286747Y91333
X286747Y81333
X286747Y71333
X286747Y61333
X291747Y33833
X281747Y33833
X271747Y33833
X261747Y33833
X301747Y33833
X311747Y33833
X321747Y33833
X331747Y33833
X341747Y33833
X316747Y61333
X316747Y71333
X316747Y81333
X316747Y91333
X316747Y101333
X316747Y111333
X316747Y121333
X306747Y136333
X301747Y148833
X301747Y158833
X301747Y173833
X311747Y173833
X321747Y173833
X331747Y173833
X341747Y173833
X148833Y173833
X138833Y173833
X128833Y173833
X118833Y173833
X108833Y173833
X98833Y173833
X88833Y173833
X78833Y173833
X68833Y173833
X108833Y158833
X108833Y148833
X113833Y136333
X123833Y121333
X123833Y111333
X123833Y101333
X123833Y91333
X123833Y81333
X123833Y71333
X123833Y61333
X118833Y33833
X128833Y33833
X138833Y33833
X148833Y33833
X108833Y33833
X98833Y33833
X88833Y33833
X78833Y33833
X68833Y33833
X93833Y61333
X93833Y71333
X93833Y81333
X93833Y91333
X93833Y101333
X93833Y111333
X93833Y121333
X93833Y136333
T03
X56833Y141333
X55833Y131333
X56833Y121333
X55833Y111333
X56833Y101333
X55833Y91333
X56833Y81333
X55833Y71333
X56833Y61333
X55833Y51333
X55833Y151333
X56833Y161333
X55833Y244247
X56833Y254247
X55833Y264247
X56833Y274247
X55833Y284247
X56833Y294247
X55833Y304247
X56833Y314247
X55833Y324247
X56833Y334247
X55833Y344247
X56833Y354247
X165833Y344247
X166833Y354247
X166833Y334247
X165833Y324247
X166833Y314247
X165833Y304247
X166833Y294247
X165833Y284247
X166833Y274247
X165833Y264247
X166833Y254247
X165833Y244247
X248747Y244247
X249747Y254247
X248747Y264247
X249747Y274247
X248747Y284247
X249747Y294247
X248747Y304247
X249747Y314247
X248747Y324247
X249747Y334247
X248747Y344247
X249747Y354247
X358747Y344247
X359747Y354247
X359747Y334247
X358747Y324247
X359747Y314247
X358747Y304247
X359747Y294247
X358747Y284247
X359747Y274247
X358747Y264247
X359747Y254247
X358747Y244247
X359747Y161333
X358747Y151333
X359747Y141333
X358747Y131333
X359747Y121333
X358747Y111333
X359747Y101333
X358747Y91333
X359747Y81333
X358747Y71333
X359747Y61333
X358747Y51333
X249747Y61333
X248747Y51333
X248747Y71333
X249747Y81333
X248747Y91333
X249747Y101333
X248747Y111333
X249747Y121333
X248747Y131333
X249747Y141333
X248747Y151333
X249747Y161333
X166833Y161333
X165833Y151333
X166833Y141333
X165833Y131333
X166833Y121333
X165833Y111333
X166833Y101333
X165833Y91333
X166833Y81333
X165833Y71333
X166833Y61333
X165833Y51333
T04
X127672Y196333
X113892Y196333
X100113Y196333
X86333Y196333
X86333Y389247
X100113Y389247
X113892Y389247
X127672Y389247
X279247Y389247
X293026Y389247
X306806Y389247
X320585Y389247
X320585Y196333
X306806Y196333
X293026Y196333
X279247Y196333
T05
X28833Y28833
X31333Y193833
X28833Y221747
X191333Y193833
X193833Y224247
X221747Y221747
X224247Y193833
X384247Y193833
X386747Y224247
X384247Y386747
X224247Y386747
X191333Y386747
X31333Y386747
X193833Y31333
X221747Y28833
X386747Y31333
M30
