G75*
%MOIN*%
%OFA0B0*%
%FSLAX25Y25*%
%IPPOS*%
%LPD*%
%AMOC8*
5,1,8,0,0,1.08239X$1,22.5*
%
%ADD10C,0.01200*%
%ADD11C,0.00000*%
%ADD12C,0.07400*%
%ADD13C,0.04800*%
%ADD14C,0.06500*%
%ADD15R,0.08000X0.08000*%
%ADD16C,0.08000*%
%ADD17C,0.04800*%
%ADD18OC8,0.04800*%
D10*
X0011733Y0001600D02*
X0011733Y0194513D01*
X0204647Y0194513D01*
X0204647Y0001600D01*
X0011733Y0001600D01*
X0014508Y0004375D02*
X0014508Y0191739D01*
X0201872Y0191739D01*
X0201872Y0004375D01*
X0014508Y0004375D01*
X0014508Y0005196D02*
X0022278Y0005196D01*
X0022448Y0005125D02*
X0026018Y0005125D01*
X0029317Y0006492D01*
X0031842Y0009016D01*
X0033208Y0012315D01*
X0033208Y0015885D01*
X0031842Y0019184D01*
X0029317Y0021708D01*
X0026018Y0023075D01*
X0022448Y0023075D01*
X0019149Y0021708D01*
X0016625Y0019184D01*
X0015258Y0015885D01*
X0015258Y0012315D01*
X0016625Y0009016D01*
X0019149Y0006492D01*
X0022448Y0005125D01*
X0019385Y0006394D02*
X0014508Y0006394D01*
X0014508Y0007593D02*
X0018048Y0007593D01*
X0016850Y0008791D02*
X0014508Y0008791D01*
X0014508Y0009990D02*
X0016222Y0009990D01*
X0015725Y0011188D02*
X0014508Y0011188D01*
X0014508Y0012387D02*
X0015258Y0012387D01*
X0015258Y0013585D02*
X0014508Y0013585D01*
X0014508Y0014784D02*
X0015258Y0014784D01*
X0015299Y0015982D02*
X0014508Y0015982D01*
X0014508Y0017181D02*
X0015795Y0017181D01*
X0016291Y0018379D02*
X0014508Y0018379D01*
X0014508Y0019578D02*
X0017019Y0019578D01*
X0018217Y0020776D02*
X0014508Y0020776D01*
X0014508Y0021975D02*
X0019792Y0021975D01*
X0014508Y0023173D02*
X0060597Y0023173D01*
X0060688Y0023395D02*
X0060387Y0022667D01*
X0060233Y0021894D01*
X0060233Y0019300D01*
X0064033Y0019300D01*
X0064033Y0018900D01*
X0060233Y0018900D01*
X0060233Y0016306D01*
X0060387Y0015533D01*
X0060688Y0014805D01*
X0061126Y0014150D01*
X0061683Y0013593D01*
X0062339Y0013155D01*
X0063066Y0012854D01*
X0063839Y0012700D01*
X0064033Y0012700D01*
X0064033Y0018900D01*
X0064433Y0018900D01*
X0064433Y0012700D01*
X0064627Y0012700D01*
X0065400Y0012854D01*
X0066128Y0013155D01*
X0066783Y0013593D01*
X0067340Y0014150D01*
X0067778Y0014805D01*
X0068080Y0015533D01*
X0068233Y0016306D01*
X0068233Y0018900D01*
X0064433Y0018900D01*
X0064433Y0019300D01*
X0064033Y0019300D01*
X0064033Y0025500D01*
X0063839Y0025500D01*
X0063066Y0025346D01*
X0062339Y0025045D01*
X0061683Y0024607D01*
X0061126Y0024050D01*
X0060688Y0023395D01*
X0061448Y0024372D02*
X0014508Y0024372D01*
X0014508Y0025570D02*
X0075359Y0025570D01*
X0075033Y0025896D02*
X0080733Y0020196D01*
X0080733Y0016004D01*
X0081266Y0014717D01*
X0082251Y0013733D01*
X0083537Y0013200D01*
X0084929Y0013200D01*
X0086216Y0013733D01*
X0087200Y0014717D01*
X0087733Y0016004D01*
X0087733Y0022196D01*
X0087200Y0023483D01*
X0086216Y0024467D01*
X0084929Y0025000D01*
X0083537Y0025000D01*
X0082251Y0024467D01*
X0081760Y0023977D01*
X0078433Y0027304D01*
X0078433Y0098396D01*
X0084260Y0104223D01*
X0084851Y0103633D01*
X0086137Y0103100D01*
X0092329Y0103100D01*
X0093616Y0103633D01*
X0094600Y0104617D01*
X0095133Y0105904D01*
X0095133Y0107296D01*
X0094600Y0108583D01*
X0093616Y0109567D01*
X0092329Y0110100D01*
X0086137Y0110100D01*
X0084851Y0109567D01*
X0083866Y0108583D01*
X0083749Y0108300D01*
X0083529Y0108300D01*
X0075933Y0100704D01*
X0075933Y0146004D01*
X0082176Y0153807D01*
X0082251Y0153733D01*
X0083537Y0153200D01*
X0084929Y0153200D01*
X0086216Y0153733D01*
X0087200Y0154717D01*
X0087733Y0156004D01*
X0087733Y0162196D01*
X0087200Y0163483D01*
X0086216Y0164467D01*
X0084929Y0165000D01*
X0083537Y0165000D01*
X0082251Y0164467D01*
X0081266Y0163483D01*
X0080733Y0162196D01*
X0080733Y0157446D01*
X0073433Y0148321D01*
X0073433Y0153243D01*
X0073537Y0153200D01*
X0074929Y0153200D01*
X0076216Y0153733D01*
X0077200Y0154717D01*
X0077733Y0156004D01*
X0077733Y0162196D01*
X0077200Y0163483D01*
X0076216Y0164467D01*
X0074929Y0165000D01*
X0073537Y0165000D01*
X0072251Y0164467D01*
X0071266Y0163483D01*
X0070733Y0162196D01*
X0070733Y0158004D01*
X0070033Y0157304D01*
X0070033Y0109804D01*
X0068529Y0108300D01*
X0056725Y0108300D01*
X0056302Y0109319D01*
X0054952Y0110669D01*
X0053188Y0111400D01*
X0051278Y0111400D01*
X0049514Y0110669D01*
X0048164Y0109319D01*
X0047433Y0107555D01*
X0047433Y0105645D01*
X0048164Y0103881D01*
X0049514Y0102531D01*
X0051278Y0101800D01*
X0053188Y0101800D01*
X0054952Y0102531D01*
X0056302Y0103881D01*
X0056725Y0104900D01*
X0069937Y0104900D01*
X0072437Y0107400D01*
X0072533Y0107496D01*
X0072533Y0069804D01*
X0071029Y0068300D01*
X0056725Y0068300D01*
X0056302Y0069319D01*
X0054952Y0070669D01*
X0053188Y0071400D01*
X0051278Y0071400D01*
X0049514Y0070669D01*
X0048164Y0069319D01*
X0047433Y0067555D01*
X0047433Y0065645D01*
X0048164Y0063881D01*
X0049514Y0062531D01*
X0051278Y0061800D01*
X0053188Y0061800D01*
X0054952Y0062531D01*
X0056302Y0063881D01*
X0056725Y0064900D01*
X0072437Y0064900D01*
X0073433Y0065896D01*
X0074937Y0067400D01*
X0074937Y0067400D01*
X0075033Y0067496D01*
X0075033Y0025896D01*
X0075033Y0026769D02*
X0014508Y0026769D01*
X0014508Y0027967D02*
X0075033Y0027967D01*
X0075033Y0029166D02*
X0014508Y0029166D01*
X0014508Y0030364D02*
X0075033Y0030364D01*
X0075033Y0031563D02*
X0014508Y0031563D01*
X0014508Y0032761D02*
X0048284Y0032761D01*
X0048514Y0032531D02*
X0050278Y0031800D01*
X0052188Y0031800D01*
X0053952Y0032531D01*
X0055302Y0033881D01*
X0056033Y0035645D01*
X0056033Y0037555D01*
X0055302Y0039319D01*
X0053952Y0040669D01*
X0052188Y0041400D01*
X0050278Y0041400D01*
X0048514Y0040669D01*
X0047164Y0039319D01*
X0046433Y0037555D01*
X0046433Y0035645D01*
X0047164Y0033881D01*
X0048514Y0032531D01*
X0047131Y0033960D02*
X0014508Y0033960D01*
X0014508Y0035158D02*
X0046635Y0035158D01*
X0046433Y0036357D02*
X0014508Y0036357D01*
X0014508Y0037555D02*
X0046433Y0037555D01*
X0046930Y0038754D02*
X0014508Y0038754D01*
X0014508Y0039952D02*
X0047797Y0039952D01*
X0049677Y0041151D02*
X0014508Y0041151D01*
X0014508Y0042349D02*
X0049952Y0042349D01*
X0049514Y0042531D02*
X0051278Y0041800D01*
X0053188Y0041800D01*
X0054952Y0042531D01*
X0056302Y0043881D01*
X0057033Y0045645D01*
X0057033Y0047555D01*
X0056302Y0049319D01*
X0054952Y0050669D01*
X0053188Y0051400D01*
X0051278Y0051400D01*
X0049514Y0050669D01*
X0048164Y0049319D01*
X0047433Y0047555D01*
X0047433Y0045645D01*
X0048164Y0043881D01*
X0049514Y0042531D01*
X0048497Y0043548D02*
X0014508Y0043548D01*
X0014508Y0044746D02*
X0047806Y0044746D01*
X0047433Y0045945D02*
X0014508Y0045945D01*
X0014508Y0047143D02*
X0047433Y0047143D01*
X0047759Y0048342D02*
X0014508Y0048342D01*
X0014508Y0049540D02*
X0048385Y0049540D01*
X0049683Y0050739D02*
X0014508Y0050739D01*
X0014508Y0051937D02*
X0049947Y0051937D01*
X0050278Y0051800D02*
X0052188Y0051800D01*
X0053952Y0052531D01*
X0055302Y0053881D01*
X0056033Y0055645D01*
X0056033Y0057555D01*
X0055302Y0059319D01*
X0053952Y0060669D01*
X0052188Y0061400D01*
X0050278Y0061400D01*
X0048514Y0060669D01*
X0047164Y0059319D01*
X0046433Y0057555D01*
X0046433Y0055645D01*
X0047164Y0053881D01*
X0048514Y0052531D01*
X0050278Y0051800D01*
X0052520Y0051937D02*
X0075033Y0051937D01*
X0075033Y0050739D02*
X0054784Y0050739D01*
X0056081Y0049540D02*
X0075033Y0049540D01*
X0075033Y0048342D02*
X0056707Y0048342D01*
X0057033Y0047143D02*
X0075033Y0047143D01*
X0075033Y0045945D02*
X0057033Y0045945D01*
X0056661Y0044746D02*
X0075033Y0044746D01*
X0075033Y0043548D02*
X0055969Y0043548D01*
X0054514Y0042349D02*
X0075033Y0042349D01*
X0075033Y0041151D02*
X0052789Y0041151D01*
X0054669Y0039952D02*
X0075033Y0039952D01*
X0075033Y0038754D02*
X0055537Y0038754D01*
X0056033Y0037555D02*
X0075033Y0037555D01*
X0075033Y0036357D02*
X0056033Y0036357D01*
X0055832Y0035158D02*
X0075033Y0035158D01*
X0075033Y0033960D02*
X0055335Y0033960D01*
X0054183Y0032761D02*
X0075033Y0032761D01*
X0078433Y0032761D02*
X0095033Y0032761D01*
X0095033Y0032304D02*
X0093529Y0030800D01*
X0092533Y0029804D01*
X0092533Y0024584D01*
X0092251Y0024467D01*
X0091266Y0023483D01*
X0090733Y0022196D01*
X0090733Y0016004D01*
X0091266Y0014717D01*
X0092251Y0013733D01*
X0093537Y0013200D01*
X0094929Y0013200D01*
X0096216Y0013733D01*
X0097200Y0014717D01*
X0097733Y0016004D01*
X0097733Y0022196D01*
X0097200Y0023483D01*
X0096216Y0024467D01*
X0095933Y0024584D01*
X0095933Y0028396D01*
X0098433Y0030896D01*
X0098433Y0082304D01*
X0097437Y0083300D01*
X0095045Y0085692D01*
X0095133Y0085904D01*
X0095133Y0087296D01*
X0094600Y0088583D01*
X0093616Y0089567D01*
X0092329Y0090100D01*
X0086137Y0090100D01*
X0084851Y0089567D01*
X0083866Y0088583D01*
X0083333Y0087296D01*
X0083333Y0085904D01*
X0083866Y0084617D01*
X0084851Y0083633D01*
X0086137Y0083100D01*
X0092329Y0083100D01*
X0092683Y0083246D01*
X0095033Y0080896D01*
X0095033Y0077538D01*
X0094600Y0078583D01*
X0093616Y0079567D01*
X0092329Y0080100D01*
X0086137Y0080100D01*
X0084851Y0079567D01*
X0083866Y0078583D01*
X0083333Y0077296D01*
X0083333Y0075904D01*
X0083866Y0074617D01*
X0084851Y0073633D01*
X0086137Y0073100D01*
X0092329Y0073100D01*
X0093616Y0073633D01*
X0094600Y0074617D01*
X0095033Y0075662D01*
X0095033Y0067538D01*
X0094600Y0068583D01*
X0093616Y0069567D01*
X0092329Y0070100D01*
X0086137Y0070100D01*
X0084851Y0069567D01*
X0083866Y0068583D01*
X0083333Y0067296D01*
X0083333Y0065904D01*
X0083866Y0064617D01*
X0084851Y0063633D01*
X0086137Y0063100D01*
X0092329Y0063100D01*
X0093616Y0063633D01*
X0094600Y0064617D01*
X0095033Y0065662D01*
X0095033Y0057538D01*
X0094600Y0058583D01*
X0093616Y0059567D01*
X0092329Y0060100D01*
X0086137Y0060100D01*
X0084851Y0059567D01*
X0083866Y0058583D01*
X0083333Y0057296D01*
X0083333Y0055904D01*
X0083866Y0054617D01*
X0084851Y0053633D01*
X0086137Y0053100D01*
X0092329Y0053100D01*
X0093616Y0053633D01*
X0094600Y0054617D01*
X0095033Y0055662D01*
X0095033Y0047538D01*
X0094600Y0048583D01*
X0093616Y0049567D01*
X0092329Y0050100D01*
X0086137Y0050100D01*
X0084851Y0049567D01*
X0083866Y0048583D01*
X0083333Y0047296D01*
X0083333Y0045904D01*
X0083866Y0044617D01*
X0084851Y0043633D01*
X0086137Y0043100D01*
X0092329Y0043100D01*
X0093616Y0043633D01*
X0094600Y0044617D01*
X0095033Y0045662D01*
X0095033Y0032304D01*
X0094292Y0031563D02*
X0078433Y0031563D01*
X0078433Y0030364D02*
X0093093Y0030364D01*
X0092533Y0029166D02*
X0078433Y0029166D01*
X0078433Y0027967D02*
X0092533Y0027967D01*
X0092533Y0026769D02*
X0078969Y0026769D01*
X0080167Y0025570D02*
X0092533Y0025570D01*
X0092155Y0024372D02*
X0086311Y0024372D01*
X0087329Y0023173D02*
X0091138Y0023173D01*
X0090733Y0021975D02*
X0087733Y0021975D01*
X0087733Y0020776D02*
X0090733Y0020776D01*
X0090733Y0019578D02*
X0087733Y0019578D01*
X0087733Y0018379D02*
X0090733Y0018379D01*
X0090733Y0017181D02*
X0087733Y0017181D01*
X0087724Y0015982D02*
X0090742Y0015982D01*
X0091239Y0014784D02*
X0087228Y0014784D01*
X0085859Y0013585D02*
X0092607Y0013585D01*
X0095859Y0013585D02*
X0102607Y0013585D01*
X0102251Y0013733D02*
X0103537Y0013200D01*
X0104929Y0013200D01*
X0106216Y0013733D01*
X0107200Y0014717D01*
X0107733Y0016004D01*
X0107733Y0022196D01*
X0107200Y0023483D01*
X0106216Y0024467D01*
X0104929Y0025000D01*
X0103537Y0025000D01*
X0102251Y0024467D01*
X0101266Y0023483D01*
X0100733Y0022196D01*
X0100733Y0016004D01*
X0101266Y0014717D01*
X0102251Y0013733D01*
X0101239Y0014784D02*
X0097228Y0014784D01*
X0097724Y0015982D02*
X0100742Y0015982D01*
X0100733Y0017181D02*
X0097733Y0017181D01*
X0097733Y0018379D02*
X0100733Y0018379D01*
X0100733Y0019578D02*
X0097733Y0019578D01*
X0097733Y0020776D02*
X0100733Y0020776D01*
X0100733Y0021975D02*
X0097733Y0021975D01*
X0097329Y0023173D02*
X0101138Y0023173D01*
X0102155Y0024372D02*
X0096311Y0024372D01*
X0095933Y0025570D02*
X0120359Y0025570D01*
X0121557Y0024372D02*
X0116311Y0024372D01*
X0116216Y0024467D02*
X0114929Y0025000D01*
X0113537Y0025000D01*
X0112251Y0024467D01*
X0111266Y0023483D01*
X0110733Y0022196D01*
X0110733Y0016004D01*
X0111266Y0014717D01*
X0112251Y0013733D01*
X0113537Y0013200D01*
X0114929Y0013200D01*
X0116216Y0013733D01*
X0117200Y0014717D01*
X0117733Y0016004D01*
X0117733Y0022196D01*
X0117200Y0023483D01*
X0116216Y0024467D01*
X0117329Y0023173D02*
X0121138Y0023173D01*
X0121266Y0023483D02*
X0120733Y0022196D01*
X0120733Y0016004D01*
X0121266Y0014717D01*
X0122251Y0013733D01*
X0123537Y0013200D01*
X0124929Y0013200D01*
X0126216Y0013733D01*
X0127200Y0014717D01*
X0127733Y0016004D01*
X0127733Y0022196D01*
X0127200Y0023483D01*
X0126216Y0024467D01*
X0125933Y0024584D01*
X0125933Y0024804D01*
X0124937Y0025800D01*
X0113433Y0037304D01*
X0113433Y0045662D01*
X0113866Y0044617D01*
X0114851Y0043633D01*
X0116137Y0043100D01*
X0122329Y0043100D01*
X0123616Y0043633D01*
X0124600Y0044617D01*
X0125133Y0045904D01*
X0125133Y0047296D01*
X0124746Y0048232D01*
X0127248Y0049900D01*
X0127437Y0049900D01*
X0127816Y0050279D01*
X0128262Y0050576D01*
X0128299Y0050762D01*
X0128433Y0050896D01*
X0128433Y0051432D01*
X0128538Y0051957D01*
X0128433Y0052115D01*
X0128433Y0060896D01*
X0132437Y0064900D01*
X0157742Y0064900D01*
X0158164Y0063881D01*
X0159514Y0062531D01*
X0161278Y0061800D01*
X0163188Y0061800D01*
X0164952Y0062531D01*
X0166302Y0063881D01*
X0167033Y0065645D01*
X0167033Y0067555D01*
X0166302Y0069319D01*
X0164952Y0070669D01*
X0163188Y0071400D01*
X0161278Y0071400D01*
X0159514Y0070669D01*
X0158164Y0069319D01*
X0157742Y0068300D01*
X0131029Y0068300D01*
X0125033Y0062304D01*
X0125033Y0057538D01*
X0124600Y0058583D01*
X0123616Y0059567D01*
X0122329Y0060100D01*
X0116137Y0060100D01*
X0114851Y0059567D01*
X0113866Y0058583D01*
X0113433Y0057538D01*
X0113433Y0065662D01*
X0113866Y0064617D01*
X0114851Y0063633D01*
X0116137Y0063100D01*
X0122329Y0063100D01*
X0123616Y0063633D01*
X0124600Y0064617D01*
X0125133Y0065904D01*
X0125133Y0067296D01*
X0124600Y0068583D01*
X0123616Y0069567D01*
X0122329Y0070100D01*
X0116137Y0070100D01*
X0114851Y0069567D01*
X0113866Y0068583D01*
X0113433Y0067538D01*
X0113433Y0068396D01*
X0118137Y0073100D01*
X0122329Y0073100D01*
X0123616Y0073633D01*
X0124600Y0074617D01*
X0124717Y0074900D01*
X0127437Y0074900D01*
X0137437Y0084900D01*
X0157742Y0084900D01*
X0158164Y0083881D01*
X0159514Y0082531D01*
X0161278Y0081800D01*
X0163188Y0081800D01*
X0164952Y0082531D01*
X0166302Y0083881D01*
X0167033Y0085645D01*
X0167033Y0087555D01*
X0166302Y0089319D01*
X0164952Y0090669D01*
X0163188Y0091400D01*
X0161278Y0091400D01*
X0159514Y0090669D01*
X0158164Y0089319D01*
X0157742Y0088300D01*
X0136029Y0088300D01*
X0135033Y0087304D01*
X0126029Y0078300D01*
X0124717Y0078300D01*
X0124600Y0078583D01*
X0123616Y0079567D01*
X0122329Y0080100D01*
X0116137Y0080100D01*
X0114851Y0079567D01*
X0113866Y0078583D01*
X0113333Y0077296D01*
X0113333Y0075904D01*
X0113866Y0074617D01*
X0114356Y0074127D01*
X0110033Y0069804D01*
X0110033Y0035896D01*
X0121856Y0024073D01*
X0121266Y0023483D01*
X0120733Y0021975D02*
X0117733Y0021975D01*
X0117733Y0020776D02*
X0120733Y0020776D01*
X0120733Y0019578D02*
X0117733Y0019578D01*
X0117733Y0018379D02*
X0120733Y0018379D01*
X0120733Y0017181D02*
X0117733Y0017181D01*
X0117724Y0015982D02*
X0120742Y0015982D01*
X0121239Y0014784D02*
X0117228Y0014784D01*
X0115859Y0013585D02*
X0122607Y0013585D01*
X0125859Y0013585D02*
X0132607Y0013585D01*
X0132251Y0013733D02*
X0133537Y0013200D01*
X0134929Y0013200D01*
X0136216Y0013733D01*
X0137200Y0014717D01*
X0137733Y0016004D01*
X0137733Y0022196D01*
X0137200Y0023483D01*
X0136216Y0024467D01*
X0134929Y0025000D01*
X0133537Y0025000D01*
X0132251Y0024467D01*
X0131266Y0023483D01*
X0130733Y0022196D01*
X0130733Y0016004D01*
X0131266Y0014717D01*
X0132251Y0013733D01*
X0131239Y0014784D02*
X0127228Y0014784D01*
X0127724Y0015982D02*
X0130742Y0015982D01*
X0130733Y0017181D02*
X0127733Y0017181D01*
X0127733Y0018379D02*
X0130733Y0018379D01*
X0130733Y0019578D02*
X0127733Y0019578D01*
X0127733Y0020776D02*
X0130733Y0020776D01*
X0130733Y0021975D02*
X0127733Y0021975D01*
X0127329Y0023173D02*
X0131138Y0023173D01*
X0132155Y0024372D02*
X0126311Y0024372D01*
X0125167Y0025570D02*
X0142533Y0025570D01*
X0142533Y0024584D02*
X0142251Y0024467D01*
X0141266Y0023483D01*
X0140733Y0022196D01*
X0140733Y0016004D01*
X0141266Y0014717D01*
X0142251Y0013733D01*
X0143537Y0013200D01*
X0144929Y0013200D01*
X0146216Y0013733D01*
X0147200Y0014717D01*
X0147733Y0016004D01*
X0147733Y0022196D01*
X0147200Y0023483D01*
X0146216Y0024467D01*
X0145933Y0024584D01*
X0145933Y0038396D01*
X0152437Y0044900D01*
X0157742Y0044900D01*
X0158164Y0043881D01*
X0159514Y0042531D01*
X0161278Y0041800D01*
X0163188Y0041800D01*
X0164952Y0042531D01*
X0166302Y0043881D01*
X0167033Y0045645D01*
X0167033Y0047555D01*
X0166302Y0049319D01*
X0164952Y0050669D01*
X0163188Y0051400D01*
X0161278Y0051400D01*
X0159514Y0050669D01*
X0158164Y0049319D01*
X0157742Y0048300D01*
X0151029Y0048300D01*
X0150033Y0047304D01*
X0143529Y0040800D01*
X0142533Y0039804D01*
X0142533Y0024584D01*
X0142155Y0024372D02*
X0136311Y0024372D01*
X0137329Y0023173D02*
X0141138Y0023173D01*
X0140733Y0021975D02*
X0137733Y0021975D01*
X0137733Y0020776D02*
X0140733Y0020776D01*
X0140733Y0019578D02*
X0137733Y0019578D01*
X0137733Y0018379D02*
X0140733Y0018379D01*
X0140733Y0017181D02*
X0137733Y0017181D01*
X0137724Y0015982D02*
X0140742Y0015982D01*
X0141239Y0014784D02*
X0137228Y0014784D01*
X0135859Y0013585D02*
X0142607Y0013585D01*
X0145859Y0013585D02*
X0180768Y0013585D01*
X0181264Y0012387D02*
X0033208Y0012387D01*
X0033208Y0013585D02*
X0061695Y0013585D01*
X0060703Y0014784D02*
X0033208Y0014784D01*
X0033168Y0015982D02*
X0060298Y0015982D01*
X0060233Y0017181D02*
X0032671Y0017181D01*
X0032175Y0018379D02*
X0060233Y0018379D01*
X0060233Y0019578D02*
X0031448Y0019578D01*
X0030249Y0020776D02*
X0060233Y0020776D01*
X0060249Y0021975D02*
X0028674Y0021975D01*
X0032741Y0011188D02*
X0181953Y0011188D01*
X0181625Y0011516D02*
X0184149Y0008992D01*
X0187448Y0007625D01*
X0191018Y0007625D01*
X0194317Y0008992D01*
X0196842Y0011516D01*
X0198208Y0014815D01*
X0198208Y0018385D01*
X0196842Y0021684D01*
X0194317Y0024208D01*
X0191018Y0025575D01*
X0187448Y0025575D01*
X0184149Y0024208D01*
X0181625Y0021684D01*
X0180258Y0018385D01*
X0180258Y0014815D01*
X0181625Y0011516D01*
X0183151Y0009990D02*
X0032245Y0009990D01*
X0031617Y0008791D02*
X0184633Y0008791D01*
X0180271Y0014784D02*
X0147228Y0014784D01*
X0147724Y0015982D02*
X0180258Y0015982D01*
X0180258Y0017181D02*
X0147733Y0017181D01*
X0147733Y0018379D02*
X0180258Y0018379D01*
X0180752Y0019578D02*
X0147733Y0019578D01*
X0147733Y0020776D02*
X0181249Y0020776D01*
X0181916Y0021975D02*
X0147733Y0021975D01*
X0147329Y0023173D02*
X0183114Y0023173D01*
X0184544Y0024372D02*
X0146311Y0024372D01*
X0145933Y0025570D02*
X0187437Y0025570D01*
X0191029Y0025570D02*
X0201872Y0025570D01*
X0201872Y0024372D02*
X0193923Y0024372D01*
X0195352Y0023173D02*
X0201872Y0023173D01*
X0201872Y0021975D02*
X0196551Y0021975D01*
X0197218Y0020776D02*
X0201872Y0020776D01*
X0201872Y0019578D02*
X0197714Y0019578D01*
X0198208Y0018379D02*
X0201872Y0018379D01*
X0201872Y0017181D02*
X0198208Y0017181D01*
X0198208Y0015982D02*
X0201872Y0015982D01*
X0201872Y0014784D02*
X0198195Y0014784D01*
X0197699Y0013585D02*
X0201872Y0013585D01*
X0201872Y0012387D02*
X0197202Y0012387D01*
X0196514Y0011188D02*
X0201872Y0011188D01*
X0201872Y0009990D02*
X0195315Y0009990D01*
X0193833Y0008791D02*
X0201872Y0008791D01*
X0201872Y0007593D02*
X0030418Y0007593D01*
X0029082Y0006394D02*
X0201872Y0006394D01*
X0201872Y0005196D02*
X0026188Y0005196D01*
X0064033Y0013585D02*
X0064433Y0013585D01*
X0064433Y0014784D02*
X0064033Y0014784D01*
X0064033Y0015982D02*
X0064433Y0015982D01*
X0064433Y0017181D02*
X0064033Y0017181D01*
X0064033Y0018379D02*
X0064433Y0018379D01*
X0064433Y0019300D02*
X0068233Y0019300D01*
X0068233Y0021894D01*
X0068080Y0022667D01*
X0067778Y0023395D01*
X0067340Y0024050D01*
X0066783Y0024607D01*
X0066128Y0025045D01*
X0065400Y0025346D01*
X0064627Y0025500D01*
X0064433Y0025500D01*
X0064433Y0019300D01*
X0064433Y0019578D02*
X0064033Y0019578D01*
X0064033Y0020776D02*
X0064433Y0020776D01*
X0064433Y0021975D02*
X0064033Y0021975D01*
X0064033Y0023173D02*
X0064433Y0023173D01*
X0064433Y0024372D02*
X0064033Y0024372D01*
X0067018Y0024372D02*
X0072155Y0024372D01*
X0072251Y0024467D02*
X0071266Y0023483D01*
X0070733Y0022196D01*
X0070733Y0016004D01*
X0071266Y0014717D01*
X0072251Y0013733D01*
X0073537Y0013200D01*
X0074929Y0013200D01*
X0076216Y0013733D01*
X0077200Y0014717D01*
X0077733Y0016004D01*
X0077733Y0022196D01*
X0077200Y0023483D01*
X0076216Y0024467D01*
X0074929Y0025000D01*
X0073537Y0025000D01*
X0072251Y0024467D01*
X0071138Y0023173D02*
X0067870Y0023173D01*
X0068217Y0021975D02*
X0070733Y0021975D01*
X0070733Y0020776D02*
X0068233Y0020776D01*
X0068233Y0019578D02*
X0070733Y0019578D01*
X0070733Y0018379D02*
X0068233Y0018379D01*
X0068233Y0017181D02*
X0070733Y0017181D01*
X0070742Y0015982D02*
X0068169Y0015982D01*
X0067764Y0014784D02*
X0071239Y0014784D01*
X0072607Y0013585D02*
X0066771Y0013585D01*
X0075859Y0013585D02*
X0082607Y0013585D01*
X0081239Y0014784D02*
X0077228Y0014784D01*
X0077724Y0015982D02*
X0080742Y0015982D01*
X0080733Y0017181D02*
X0077733Y0017181D01*
X0077733Y0018379D02*
X0080733Y0018379D01*
X0080733Y0019578D02*
X0077733Y0019578D01*
X0077733Y0020776D02*
X0080153Y0020776D01*
X0078954Y0021975D02*
X0077733Y0021975D01*
X0077756Y0023173D02*
X0077329Y0023173D01*
X0076557Y0024372D02*
X0076311Y0024372D01*
X0076733Y0026600D02*
X0084233Y0019100D01*
X0082155Y0024372D02*
X0081366Y0024372D01*
X0076733Y0026600D02*
X0076733Y0099100D01*
X0084233Y0106600D01*
X0083497Y0108268D02*
X0075933Y0108268D01*
X0075933Y0109466D02*
X0084750Y0109466D01*
X0082298Y0107069D02*
X0075933Y0107069D01*
X0075933Y0105870D02*
X0081100Y0105870D01*
X0079901Y0104672D02*
X0075933Y0104672D01*
X0075933Y0103473D02*
X0078703Y0103473D01*
X0077504Y0102275D02*
X0075933Y0102275D01*
X0075933Y0101076D02*
X0076306Y0101076D01*
X0072533Y0101076D02*
X0052969Y0101076D01*
X0052188Y0101400D02*
X0050278Y0101400D01*
X0048514Y0100669D01*
X0047164Y0099319D01*
X0046433Y0097555D01*
X0046433Y0095645D01*
X0047164Y0093881D01*
X0048514Y0092531D01*
X0050278Y0091800D01*
X0052188Y0091800D01*
X0053952Y0092531D01*
X0055302Y0093881D01*
X0056033Y0095645D01*
X0056033Y0097555D01*
X0055302Y0099319D01*
X0053952Y0100669D01*
X0052188Y0101400D01*
X0050132Y0102275D02*
X0014508Y0102275D01*
X0014508Y0103473D02*
X0048572Y0103473D01*
X0047836Y0104672D02*
X0014508Y0104672D01*
X0014508Y0105870D02*
X0047433Y0105870D01*
X0047433Y0107069D02*
X0014508Y0107069D01*
X0014508Y0108268D02*
X0047728Y0108268D01*
X0048311Y0109466D02*
X0014508Y0109466D01*
X0014508Y0110665D02*
X0049510Y0110665D01*
X0050126Y0111863D02*
X0014508Y0111863D01*
X0014508Y0113062D02*
X0047983Y0113062D01*
X0048514Y0112531D02*
X0050278Y0111800D01*
X0052188Y0111800D01*
X0053952Y0112531D01*
X0055302Y0113881D01*
X0056033Y0115645D01*
X0056033Y0117555D01*
X0055302Y0119319D01*
X0053952Y0120669D01*
X0052188Y0121400D01*
X0050278Y0121400D01*
X0048514Y0120669D01*
X0047164Y0119319D01*
X0046433Y0117555D01*
X0046433Y0115645D01*
X0047164Y0113881D01*
X0048514Y0112531D01*
X0047007Y0114260D02*
X0014508Y0114260D01*
X0014508Y0115459D02*
X0046511Y0115459D01*
X0046433Y0116657D02*
X0014508Y0116657D01*
X0014508Y0117856D02*
X0046558Y0117856D01*
X0047054Y0119054D02*
X0014508Y0119054D01*
X0014508Y0120253D02*
X0048098Y0120253D01*
X0049514Y0122531D02*
X0051278Y0121800D01*
X0053188Y0121800D01*
X0054952Y0122531D01*
X0056302Y0123881D01*
X0057033Y0125645D01*
X0057033Y0127555D01*
X0056302Y0129319D01*
X0054952Y0130669D01*
X0053188Y0131400D01*
X0051278Y0131400D01*
X0049514Y0130669D01*
X0048164Y0129319D01*
X0047433Y0127555D01*
X0047433Y0125645D01*
X0048164Y0123881D01*
X0049514Y0122531D01*
X0049395Y0122650D02*
X0014508Y0122650D01*
X0014508Y0123848D02*
X0048197Y0123848D01*
X0047681Y0125047D02*
X0014508Y0125047D01*
X0014508Y0126245D02*
X0047433Y0126245D01*
X0047433Y0127444D02*
X0014508Y0127444D01*
X0014508Y0128642D02*
X0047884Y0128642D01*
X0048686Y0129841D02*
X0014508Y0129841D01*
X0014508Y0131039D02*
X0050408Y0131039D01*
X0050278Y0131800D02*
X0048514Y0132531D01*
X0047164Y0133881D01*
X0046433Y0135645D01*
X0046433Y0137555D01*
X0047164Y0139319D01*
X0048514Y0140669D01*
X0050278Y0141400D01*
X0052188Y0141400D01*
X0053952Y0140669D01*
X0055302Y0139319D01*
X0056033Y0137555D01*
X0056033Y0135645D01*
X0055302Y0133881D01*
X0053952Y0132531D01*
X0052188Y0131800D01*
X0050278Y0131800D01*
X0049222Y0132238D02*
X0014508Y0132238D01*
X0014508Y0133436D02*
X0047609Y0133436D01*
X0046852Y0134635D02*
X0014508Y0134635D01*
X0014508Y0135833D02*
X0046433Y0135833D01*
X0046433Y0137032D02*
X0014508Y0137032D01*
X0014508Y0138230D02*
X0046713Y0138230D01*
X0047274Y0139429D02*
X0014508Y0139429D01*
X0014508Y0140627D02*
X0048472Y0140627D01*
X0049514Y0142531D02*
X0051278Y0141800D01*
X0053188Y0141800D01*
X0054952Y0142531D01*
X0056302Y0143881D01*
X0056725Y0144900D01*
X0059937Y0144900D01*
X0064937Y0149900D01*
X0065933Y0150896D01*
X0065933Y0153616D01*
X0066216Y0153733D01*
X0067200Y0154717D01*
X0067733Y0156004D01*
X0067733Y0162196D01*
X0067200Y0163483D01*
X0066216Y0164467D01*
X0064929Y0165000D01*
X0063537Y0165000D01*
X0062251Y0164467D01*
X0061266Y0163483D01*
X0060733Y0162196D01*
X0060733Y0156004D01*
X0061266Y0154717D01*
X0062251Y0153733D01*
X0062533Y0153616D01*
X0062533Y0152304D01*
X0058529Y0148300D01*
X0056725Y0148300D01*
X0056302Y0149319D01*
X0054952Y0150669D01*
X0053188Y0151400D01*
X0051278Y0151400D01*
X0049514Y0150669D01*
X0048164Y0149319D01*
X0047433Y0147555D01*
X0047433Y0145645D01*
X0048164Y0143881D01*
X0049514Y0142531D01*
X0049021Y0143024D02*
X0014508Y0143024D01*
X0014508Y0141826D02*
X0051216Y0141826D01*
X0053250Y0141826D02*
X0070033Y0141826D01*
X0070033Y0143024D02*
X0055446Y0143024D01*
X0056444Y0144223D02*
X0070033Y0144223D01*
X0070033Y0145421D02*
X0060459Y0145421D01*
X0061657Y0146620D02*
X0070033Y0146620D01*
X0070033Y0147818D02*
X0062856Y0147818D01*
X0064054Y0149017D02*
X0070033Y0149017D01*
X0070033Y0150215D02*
X0065253Y0150215D01*
X0065933Y0151414D02*
X0070033Y0151414D01*
X0070033Y0152612D02*
X0065933Y0152612D01*
X0066294Y0153811D02*
X0070033Y0153811D01*
X0070033Y0155009D02*
X0067321Y0155009D01*
X0067733Y0156208D02*
X0070033Y0156208D01*
X0070136Y0157406D02*
X0067733Y0157406D01*
X0067733Y0158605D02*
X0070733Y0158605D01*
X0070733Y0159803D02*
X0067733Y0159803D01*
X0067733Y0161002D02*
X0070733Y0161002D01*
X0070735Y0162201D02*
X0067731Y0162201D01*
X0067235Y0163399D02*
X0071231Y0163399D01*
X0072565Y0164598D02*
X0065901Y0164598D01*
X0062565Y0164598D02*
X0014508Y0164598D01*
X0014508Y0165796D02*
X0137130Y0165796D01*
X0136231Y0164598D02*
X0135901Y0164598D01*
X0136153Y0164493D02*
X0134929Y0165000D01*
X0133537Y0165000D01*
X0132251Y0164467D01*
X0131266Y0163483D01*
X0130733Y0162196D01*
X0130733Y0156004D01*
X0131266Y0154717D01*
X0132251Y0153733D01*
X0133537Y0153200D01*
X0134929Y0153200D01*
X0136216Y0153733D01*
X0137200Y0154717D01*
X0137733Y0156004D01*
X0137733Y0160933D01*
X0142583Y0167400D01*
X0183529Y0167400D01*
X0190033Y0160896D01*
X0190033Y0042304D01*
X0186029Y0038300D01*
X0165725Y0038300D01*
X0165302Y0039319D01*
X0163952Y0040669D01*
X0162188Y0041400D01*
X0160278Y0041400D01*
X0158514Y0040669D01*
X0157164Y0039319D01*
X0156433Y0037555D01*
X0156433Y0035645D01*
X0157164Y0033881D01*
X0158514Y0032531D01*
X0160278Y0031800D01*
X0162188Y0031800D01*
X0163952Y0032531D01*
X0165302Y0033881D01*
X0165725Y0034900D01*
X0187437Y0034900D01*
X0192437Y0039900D01*
X0193433Y0040896D01*
X0193433Y0162304D01*
X0185933Y0169804D01*
X0185612Y0170125D01*
X0188518Y0170125D01*
X0191817Y0171492D01*
X0194342Y0174016D01*
X0195708Y0177315D01*
X0195708Y0180885D01*
X0194342Y0184184D01*
X0191817Y0186708D01*
X0188518Y0188075D01*
X0184948Y0188075D01*
X0181649Y0186708D01*
X0179125Y0184184D01*
X0177758Y0180885D01*
X0177758Y0177315D01*
X0179125Y0174016D01*
X0181649Y0171492D01*
X0183319Y0170800D01*
X0142300Y0170800D01*
X0142190Y0170882D01*
X0141612Y0170800D01*
X0141029Y0170800D01*
X0140932Y0170703D01*
X0140796Y0170683D01*
X0140446Y0170217D01*
X0140033Y0169804D01*
X0140033Y0169667D01*
X0136153Y0164493D01*
X0138684Y0162201D02*
X0140294Y0162201D01*
X0140233Y0161894D02*
X0140387Y0162667D01*
X0140688Y0163395D01*
X0141126Y0164050D01*
X0141683Y0164607D01*
X0142339Y0165045D01*
X0143066Y0165346D01*
X0143839Y0165500D01*
X0144033Y0165500D01*
X0144033Y0159300D01*
X0144033Y0158900D01*
X0140233Y0158900D01*
X0140233Y0156306D01*
X0140387Y0155533D01*
X0140688Y0154805D01*
X0141126Y0154150D01*
X0141683Y0153593D01*
X0142339Y0153155D01*
X0143066Y0152854D01*
X0143839Y0152700D01*
X0144033Y0152700D01*
X0144033Y0158900D01*
X0144433Y0158900D01*
X0144433Y0152700D01*
X0144627Y0152700D01*
X0145400Y0152854D01*
X0146128Y0153155D01*
X0146783Y0153593D01*
X0147340Y0154150D01*
X0147778Y0154805D01*
X0148080Y0155533D01*
X0148233Y0156306D01*
X0148233Y0158900D01*
X0144433Y0158900D01*
X0144433Y0159300D01*
X0144033Y0159300D01*
X0140233Y0159300D01*
X0140233Y0161894D01*
X0140233Y0161002D02*
X0137785Y0161002D01*
X0137733Y0159803D02*
X0140233Y0159803D01*
X0140233Y0158605D02*
X0137733Y0158605D01*
X0137733Y0157406D02*
X0140233Y0157406D01*
X0140253Y0156208D02*
X0137733Y0156208D01*
X0137321Y0155009D02*
X0140604Y0155009D01*
X0141465Y0153811D02*
X0136294Y0153811D01*
X0132173Y0153811D02*
X0126294Y0153811D01*
X0126216Y0153733D02*
X0127200Y0154717D01*
X0127733Y0156004D01*
X0127733Y0162196D01*
X0127200Y0163483D01*
X0126216Y0164467D01*
X0124929Y0165000D01*
X0123537Y0165000D01*
X0122251Y0164467D01*
X0121266Y0163483D01*
X0120733Y0162196D01*
X0120733Y0156004D01*
X0121266Y0154717D01*
X0122251Y0153733D01*
X0122533Y0153616D01*
X0122533Y0150896D01*
X0123529Y0149900D01*
X0128529Y0144900D01*
X0147437Y0144900D01*
X0148433Y0145896D01*
X0157437Y0154900D01*
X0166029Y0154900D01*
X0170033Y0150896D01*
X0170033Y0122304D01*
X0166029Y0118300D01*
X0165725Y0118300D01*
X0165302Y0119319D01*
X0163952Y0120669D01*
X0162188Y0121400D01*
X0160278Y0121400D01*
X0158514Y0120669D01*
X0157164Y0119319D01*
X0156433Y0117555D01*
X0156433Y0115645D01*
X0157164Y0113881D01*
X0158514Y0112531D01*
X0160278Y0111800D01*
X0162188Y0111800D01*
X0163952Y0112531D01*
X0165302Y0113881D01*
X0165725Y0114900D01*
X0167437Y0114900D01*
X0172437Y0119900D01*
X0173433Y0120896D01*
X0173433Y0152304D01*
X0168433Y0157304D01*
X0167437Y0158300D01*
X0156029Y0158300D01*
X0146029Y0148300D01*
X0129937Y0148300D01*
X0125933Y0152304D01*
X0125933Y0153616D01*
X0126216Y0153733D01*
X0125933Y0152612D02*
X0150342Y0152612D01*
X0151540Y0153811D02*
X0147001Y0153811D01*
X0147863Y0155009D02*
X0152739Y0155009D01*
X0153937Y0156208D02*
X0148214Y0156208D01*
X0148233Y0157406D02*
X0155136Y0157406D01*
X0156733Y0156600D02*
X0146733Y0146600D01*
X0129233Y0146600D01*
X0124233Y0151600D01*
X0124233Y0159100D01*
X0127733Y0158605D02*
X0130733Y0158605D01*
X0130733Y0159803D02*
X0127733Y0159803D01*
X0127733Y0161002D02*
X0130733Y0161002D01*
X0130735Y0162201D02*
X0127731Y0162201D01*
X0127235Y0163399D02*
X0131231Y0163399D01*
X0132565Y0164598D02*
X0125901Y0164598D01*
X0122565Y0164598D02*
X0115901Y0164598D01*
X0116216Y0164467D02*
X0114929Y0165000D01*
X0113537Y0165000D01*
X0112251Y0164467D01*
X0111266Y0163483D01*
X0110733Y0162196D01*
X0110733Y0156004D01*
X0111266Y0154717D01*
X0112251Y0153733D01*
X0113537Y0153200D01*
X0114929Y0153200D01*
X0116216Y0153733D01*
X0117200Y0154717D01*
X0117733Y0156004D01*
X0117733Y0162196D01*
X0117200Y0163483D01*
X0116216Y0164467D01*
X0117235Y0163399D02*
X0121231Y0163399D01*
X0120735Y0162201D02*
X0117731Y0162201D01*
X0117733Y0161002D02*
X0120733Y0161002D01*
X0120733Y0159803D02*
X0117733Y0159803D01*
X0117733Y0158605D02*
X0120733Y0158605D01*
X0120733Y0157406D02*
X0117733Y0157406D01*
X0117733Y0156208D02*
X0120733Y0156208D01*
X0121145Y0155009D02*
X0117321Y0155009D01*
X0116294Y0153811D02*
X0122173Y0153811D01*
X0122533Y0152612D02*
X0081220Y0152612D01*
X0080261Y0151414D02*
X0122533Y0151414D01*
X0123214Y0150215D02*
X0079303Y0150215D01*
X0078344Y0149017D02*
X0124412Y0149017D01*
X0125611Y0147818D02*
X0077385Y0147818D01*
X0076426Y0146620D02*
X0101803Y0146620D01*
X0102251Y0147067D02*
X0101266Y0146083D01*
X0100733Y0144796D01*
X0100733Y0143404D01*
X0101266Y0142117D01*
X0102251Y0141133D01*
X0103537Y0140600D01*
X0104929Y0140600D01*
X0106216Y0141133D01*
X0107200Y0142117D01*
X0107733Y0143404D01*
X0107733Y0144796D01*
X0107200Y0146083D01*
X0106216Y0147067D01*
X0104929Y0147600D01*
X0103537Y0147600D01*
X0102251Y0147067D01*
X0100992Y0145421D02*
X0075933Y0145421D01*
X0075933Y0144223D02*
X0100733Y0144223D01*
X0100890Y0143024D02*
X0075933Y0143024D01*
X0075933Y0141826D02*
X0101558Y0141826D01*
X0103471Y0140627D02*
X0075933Y0140627D01*
X0075933Y0139429D02*
X0150033Y0139429D01*
X0150033Y0140627D02*
X0104995Y0140627D01*
X0106909Y0141826D02*
X0150033Y0141826D01*
X0150033Y0142304D02*
X0150033Y0132304D01*
X0146029Y0128300D01*
X0131029Y0128300D01*
X0127533Y0124804D01*
X0127533Y0089804D01*
X0126029Y0088300D01*
X0124717Y0088300D01*
X0124600Y0088583D01*
X0123616Y0089567D01*
X0122329Y0090100D01*
X0116137Y0090100D01*
X0114851Y0089567D01*
X0113866Y0088583D01*
X0113333Y0087296D01*
X0113333Y0085904D01*
X0113866Y0084617D01*
X0114851Y0083633D01*
X0116137Y0083100D01*
X0122329Y0083100D01*
X0123616Y0083633D01*
X0124600Y0084617D01*
X0124717Y0084900D01*
X0127437Y0084900D01*
X0128433Y0085896D01*
X0129937Y0087400D01*
X0130933Y0088396D01*
X0130933Y0123396D01*
X0132437Y0124900D01*
X0147437Y0124900D01*
X0153433Y0130896D01*
X0153433Y0140896D01*
X0157437Y0144900D01*
X0157742Y0144900D01*
X0158164Y0143881D01*
X0159514Y0142531D01*
X0161278Y0141800D01*
X0163188Y0141800D01*
X0164952Y0142531D01*
X0166302Y0143881D01*
X0167033Y0145645D01*
X0167033Y0147555D01*
X0166302Y0149319D01*
X0164952Y0150669D01*
X0163188Y0151400D01*
X0161278Y0151400D01*
X0159514Y0150669D01*
X0158164Y0149319D01*
X0157742Y0148300D01*
X0156029Y0148300D01*
X0151029Y0143300D01*
X0150033Y0142304D01*
X0150753Y0143024D02*
X0107576Y0143024D01*
X0107733Y0144223D02*
X0151952Y0144223D01*
X0153150Y0145421D02*
X0147959Y0145421D01*
X0149157Y0146620D02*
X0154349Y0146620D01*
X0155547Y0147818D02*
X0150356Y0147818D01*
X0151554Y0149017D02*
X0158039Y0149017D01*
X0159060Y0150215D02*
X0152753Y0150215D01*
X0153951Y0151414D02*
X0169515Y0151414D01*
X0170033Y0150215D02*
X0165406Y0150215D01*
X0166428Y0149017D02*
X0170033Y0149017D01*
X0170033Y0147818D02*
X0166924Y0147818D01*
X0167033Y0146620D02*
X0170033Y0146620D01*
X0170033Y0145421D02*
X0166941Y0145421D01*
X0166444Y0144223D02*
X0170033Y0144223D01*
X0170033Y0143024D02*
X0165446Y0143024D01*
X0163250Y0141826D02*
X0170033Y0141826D01*
X0170033Y0140627D02*
X0163994Y0140627D01*
X0163952Y0140669D02*
X0162188Y0141400D01*
X0160278Y0141400D01*
X0158514Y0140669D01*
X0157164Y0139319D01*
X0156433Y0137555D01*
X0156433Y0135645D01*
X0157164Y0133881D01*
X0158514Y0132531D01*
X0160278Y0131800D01*
X0162188Y0131800D01*
X0163952Y0132531D01*
X0165302Y0133881D01*
X0166033Y0135645D01*
X0166033Y0137555D01*
X0165302Y0139319D01*
X0163952Y0140669D01*
X0165193Y0139429D02*
X0170033Y0139429D01*
X0170033Y0138230D02*
X0165753Y0138230D01*
X0166033Y0137032D02*
X0170033Y0137032D01*
X0170033Y0135833D02*
X0166033Y0135833D01*
X0165615Y0134635D02*
X0170033Y0134635D01*
X0170033Y0133436D02*
X0164858Y0133436D01*
X0163245Y0132238D02*
X0170033Y0132238D01*
X0170033Y0131039D02*
X0164059Y0131039D01*
X0163188Y0131400D02*
X0161278Y0131400D01*
X0159514Y0130669D01*
X0158164Y0129319D01*
X0157433Y0127555D01*
X0157433Y0125645D01*
X0158164Y0123881D01*
X0159514Y0122531D01*
X0161278Y0121800D01*
X0163188Y0121800D01*
X0164952Y0122531D01*
X0166302Y0123881D01*
X0167033Y0125645D01*
X0167033Y0127555D01*
X0166302Y0129319D01*
X0164952Y0130669D01*
X0163188Y0131400D01*
X0165781Y0129841D02*
X0170033Y0129841D01*
X0170033Y0128642D02*
X0166583Y0128642D01*
X0167033Y0127444D02*
X0170033Y0127444D01*
X0170033Y0126245D02*
X0167033Y0126245D01*
X0166785Y0125047D02*
X0170033Y0125047D01*
X0170033Y0123848D02*
X0166270Y0123848D01*
X0165071Y0122650D02*
X0170033Y0122650D01*
X0169180Y0121451D02*
X0130933Y0121451D01*
X0130933Y0120253D02*
X0158098Y0120253D01*
X0157054Y0119054D02*
X0130933Y0119054D01*
X0130933Y0117856D02*
X0156558Y0117856D01*
X0156433Y0116657D02*
X0130933Y0116657D01*
X0130933Y0115459D02*
X0156511Y0115459D01*
X0157007Y0114260D02*
X0130933Y0114260D01*
X0130933Y0113062D02*
X0157983Y0113062D01*
X0160126Y0111863D02*
X0130933Y0111863D01*
X0130933Y0110665D02*
X0159510Y0110665D01*
X0159514Y0110669D02*
X0158164Y0109319D01*
X0157433Y0107555D01*
X0157433Y0105645D01*
X0158164Y0103881D01*
X0159514Y0102531D01*
X0161278Y0101800D01*
X0163188Y0101800D01*
X0164952Y0102531D01*
X0166302Y0103881D01*
X0167033Y0105645D01*
X0167033Y0107555D01*
X0166302Y0109319D01*
X0164952Y0110669D01*
X0163188Y0111400D01*
X0161278Y0111400D01*
X0159514Y0110669D01*
X0158311Y0109466D02*
X0130933Y0109466D01*
X0130933Y0108268D02*
X0157728Y0108268D01*
X0157433Y0107069D02*
X0130933Y0107069D01*
X0130933Y0105870D02*
X0157433Y0105870D01*
X0157836Y0104672D02*
X0130933Y0104672D01*
X0130933Y0103473D02*
X0158572Y0103473D01*
X0160132Y0102275D02*
X0130933Y0102275D01*
X0130933Y0101076D02*
X0159497Y0101076D01*
X0160278Y0101400D02*
X0158514Y0100669D01*
X0157164Y0099319D01*
X0156433Y0097555D01*
X0156433Y0095645D01*
X0157164Y0093881D01*
X0158514Y0092531D01*
X0160278Y0091800D01*
X0162188Y0091800D01*
X0163952Y0092531D01*
X0165302Y0093881D01*
X0166033Y0095645D01*
X0166033Y0097555D01*
X0165302Y0099319D01*
X0163952Y0100669D01*
X0162188Y0101400D01*
X0160278Y0101400D01*
X0157723Y0099878D02*
X0130933Y0099878D01*
X0130933Y0098679D02*
X0156899Y0098679D01*
X0156433Y0097481D02*
X0130933Y0097481D01*
X0130933Y0096282D02*
X0156433Y0096282D01*
X0156666Y0095084D02*
X0130933Y0095084D01*
X0130933Y0093885D02*
X0157162Y0093885D01*
X0158358Y0092687D02*
X0130933Y0092687D01*
X0130933Y0091488D02*
X0190033Y0091488D01*
X0190033Y0090290D02*
X0165332Y0090290D01*
X0166397Y0089091D02*
X0190033Y0089091D01*
X0190033Y0087893D02*
X0166893Y0087893D01*
X0167033Y0086694D02*
X0190033Y0086694D01*
X0190033Y0085496D02*
X0166971Y0085496D01*
X0166475Y0084297D02*
X0190033Y0084297D01*
X0190033Y0083099D02*
X0165520Y0083099D01*
X0163430Y0081900D02*
X0190033Y0081900D01*
X0190033Y0080702D02*
X0163874Y0080702D01*
X0163952Y0080669D02*
X0162188Y0081400D01*
X0160278Y0081400D01*
X0158514Y0080669D01*
X0157164Y0079319D01*
X0156433Y0077555D01*
X0156433Y0075645D01*
X0157164Y0073881D01*
X0158514Y0072531D01*
X0160278Y0071800D01*
X0162188Y0071800D01*
X0163952Y0072531D01*
X0165302Y0073881D01*
X0166033Y0075645D01*
X0166033Y0077555D01*
X0165302Y0079319D01*
X0163952Y0080669D01*
X0165118Y0079503D02*
X0190033Y0079503D01*
X0190033Y0078305D02*
X0165723Y0078305D01*
X0166033Y0077106D02*
X0190033Y0077106D01*
X0190033Y0075908D02*
X0166033Y0075908D01*
X0165646Y0074709D02*
X0190033Y0074709D01*
X0190033Y0073511D02*
X0164932Y0073511D01*
X0163424Y0072312D02*
X0190033Y0072312D01*
X0190033Y0071114D02*
X0163879Y0071114D01*
X0165706Y0069915D02*
X0190033Y0069915D01*
X0190033Y0068717D02*
X0166552Y0068717D01*
X0167033Y0067518D02*
X0190033Y0067518D01*
X0190033Y0066320D02*
X0167033Y0066320D01*
X0166816Y0065121D02*
X0190033Y0065121D01*
X0190033Y0063923D02*
X0166320Y0063923D01*
X0165146Y0062724D02*
X0190033Y0062724D01*
X0190033Y0061526D02*
X0129063Y0061526D01*
X0128433Y0060327D02*
X0158172Y0060327D01*
X0158514Y0060669D02*
X0157164Y0059319D01*
X0156433Y0057555D01*
X0156433Y0055645D01*
X0157164Y0053881D01*
X0158514Y0052531D01*
X0160278Y0051800D01*
X0162188Y0051800D01*
X0163952Y0052531D01*
X0165302Y0053881D01*
X0166033Y0055645D01*
X0166033Y0057555D01*
X0165302Y0059319D01*
X0163952Y0060669D01*
X0162188Y0061400D01*
X0160278Y0061400D01*
X0158514Y0060669D01*
X0157085Y0059129D02*
X0128433Y0059129D01*
X0128433Y0057930D02*
X0156589Y0057930D01*
X0156433Y0056732D02*
X0128433Y0056732D01*
X0128433Y0055533D02*
X0156480Y0055533D01*
X0156976Y0054334D02*
X0128433Y0054334D01*
X0128433Y0053136D02*
X0157909Y0053136D01*
X0159947Y0051937D02*
X0128534Y0051937D01*
X0128295Y0050739D02*
X0159683Y0050739D01*
X0158385Y0049540D02*
X0126709Y0049540D01*
X0126733Y0051600D02*
X0126733Y0061600D01*
X0131733Y0066600D01*
X0162233Y0066600D01*
X0158760Y0069915D02*
X0122776Y0069915D01*
X0124466Y0068717D02*
X0157915Y0068717D01*
X0160587Y0071114D02*
X0116151Y0071114D01*
X0115691Y0069915D02*
X0114953Y0069915D01*
X0114000Y0068717D02*
X0113754Y0068717D01*
X0111733Y0069100D02*
X0119233Y0076600D01*
X0126733Y0076600D01*
X0136733Y0086600D01*
X0162233Y0086600D01*
X0159135Y0090290D02*
X0130933Y0090290D01*
X0130933Y0089091D02*
X0158070Y0089091D01*
X0157992Y0084297D02*
X0136835Y0084297D01*
X0135636Y0083099D02*
X0158946Y0083099D01*
X0161036Y0081900D02*
X0134438Y0081900D01*
X0133239Y0080702D02*
X0158593Y0080702D01*
X0157348Y0079503D02*
X0132041Y0079503D01*
X0130842Y0078305D02*
X0156744Y0078305D01*
X0156433Y0077106D02*
X0129644Y0077106D01*
X0128445Y0075908D02*
X0156433Y0075908D01*
X0156821Y0074709D02*
X0124638Y0074709D01*
X0123321Y0073511D02*
X0157534Y0073511D01*
X0159042Y0072312D02*
X0117350Y0072312D01*
X0113740Y0073511D02*
X0098433Y0073511D01*
X0098433Y0074709D02*
X0113828Y0074709D01*
X0113333Y0075908D02*
X0098433Y0075908D01*
X0098433Y0077106D02*
X0113333Y0077106D01*
X0113751Y0078305D02*
X0098433Y0078305D01*
X0098433Y0079503D02*
X0114787Y0079503D01*
X0114186Y0084297D02*
X0096440Y0084297D01*
X0097639Y0083099D02*
X0130828Y0083099D01*
X0132026Y0084297D02*
X0124280Y0084297D01*
X0126733Y0086600D02*
X0119233Y0086600D01*
X0114375Y0089091D02*
X0094092Y0089091D01*
X0094886Y0087893D02*
X0113580Y0087893D01*
X0113333Y0086694D02*
X0095133Y0086694D01*
X0095242Y0085496D02*
X0113502Y0085496D01*
X0116137Y0093100D02*
X0114851Y0093633D01*
X0113866Y0094617D01*
X0113333Y0095904D01*
X0113333Y0097296D01*
X0113866Y0098583D01*
X0114851Y0099567D01*
X0116137Y0100100D01*
X0122329Y0100100D01*
X0123616Y0099567D01*
X0124600Y0098583D01*
X0125133Y0097296D01*
X0125133Y0095904D01*
X0124600Y0094617D01*
X0123616Y0093633D01*
X0122329Y0093100D01*
X0116137Y0093100D01*
X0114598Y0093885D02*
X0093868Y0093885D01*
X0093616Y0093633D02*
X0094600Y0094617D01*
X0095133Y0095904D01*
X0095133Y0097296D01*
X0094600Y0098583D01*
X0093616Y0099567D01*
X0092329Y0100100D01*
X0086137Y0100100D01*
X0084851Y0099567D01*
X0083866Y0098583D01*
X0083333Y0097296D01*
X0083333Y0095904D01*
X0083866Y0094617D01*
X0084851Y0093633D01*
X0086137Y0093100D01*
X0092329Y0093100D01*
X0093616Y0093633D01*
X0094794Y0095084D02*
X0113673Y0095084D01*
X0113333Y0096282D02*
X0095133Y0096282D01*
X0095057Y0097481D02*
X0113410Y0097481D01*
X0113963Y0098679D02*
X0094504Y0098679D01*
X0092866Y0099878D02*
X0115601Y0099878D01*
X0116439Y0102600D02*
X0119033Y0102600D01*
X0119033Y0106400D01*
X0112833Y0106400D01*
X0112833Y0106206D01*
X0112987Y0105433D01*
X0113288Y0104705D01*
X0113726Y0104050D01*
X0114283Y0103493D01*
X0114939Y0103055D01*
X0115666Y0102754D01*
X0116439Y0102600D01*
X0114313Y0103473D02*
X0093231Y0103473D01*
X0094623Y0104672D02*
X0113311Y0104672D01*
X0112900Y0105870D02*
X0095119Y0105870D01*
X0095133Y0107069D02*
X0112848Y0107069D01*
X0112833Y0106994D02*
X0112833Y0106800D01*
X0119033Y0106800D01*
X0119033Y0106400D01*
X0119433Y0106400D01*
X0119433Y0102600D01*
X0122027Y0102600D01*
X0122800Y0102754D01*
X0123528Y0103055D01*
X0124183Y0103493D01*
X0124740Y0104050D01*
X0125178Y0104705D01*
X0125480Y0105433D01*
X0125633Y0106206D01*
X0125633Y0106400D01*
X0119433Y0106400D01*
X0119433Y0106800D01*
X0119033Y0106800D01*
X0119033Y0110600D01*
X0116439Y0110600D01*
X0115666Y0110446D01*
X0114939Y0110145D01*
X0114283Y0109707D01*
X0113726Y0109150D01*
X0113288Y0108495D01*
X0112987Y0107767D01*
X0112833Y0106994D01*
X0113194Y0108268D02*
X0094731Y0108268D01*
X0093717Y0109466D02*
X0114042Y0109466D01*
X0119033Y0109466D02*
X0119433Y0109466D01*
X0119433Y0110600D02*
X0119433Y0106800D01*
X0125633Y0106800D01*
X0125633Y0106994D01*
X0125480Y0107767D01*
X0125178Y0108495D01*
X0124740Y0109150D01*
X0124183Y0109707D01*
X0123528Y0110145D01*
X0122800Y0110446D01*
X0122027Y0110600D01*
X0119433Y0110600D01*
X0119433Y0108268D02*
X0119033Y0108268D01*
X0119033Y0107069D02*
X0119433Y0107069D01*
X0119433Y0105870D02*
X0119033Y0105870D01*
X0119033Y0104672D02*
X0119433Y0104672D01*
X0119433Y0103473D02*
X0119033Y0103473D01*
X0122866Y0099878D02*
X0127533Y0099878D01*
X0127533Y0101076D02*
X0081114Y0101076D01*
X0079915Y0099878D02*
X0085601Y0099878D01*
X0083963Y0098679D02*
X0078717Y0098679D01*
X0078433Y0097481D02*
X0083410Y0097481D01*
X0083333Y0096282D02*
X0078433Y0096282D01*
X0078433Y0095084D02*
X0083673Y0095084D01*
X0084598Y0093885D02*
X0078433Y0093885D01*
X0078433Y0092687D02*
X0127533Y0092687D01*
X0127533Y0093885D02*
X0123868Y0093885D01*
X0124794Y0095084D02*
X0127533Y0095084D01*
X0127533Y0096282D02*
X0125133Y0096282D01*
X0125057Y0097481D02*
X0127533Y0097481D01*
X0127533Y0098679D02*
X0124504Y0098679D01*
X0127533Y0102275D02*
X0082312Y0102275D01*
X0083511Y0103473D02*
X0085235Y0103473D01*
X0075933Y0110665D02*
X0127533Y0110665D01*
X0127533Y0111863D02*
X0075933Y0111863D01*
X0075933Y0113062D02*
X0127533Y0113062D01*
X0127533Y0114260D02*
X0075933Y0114260D01*
X0075933Y0115459D02*
X0127533Y0115459D01*
X0127533Y0116657D02*
X0075933Y0116657D01*
X0075933Y0117856D02*
X0096136Y0117856D01*
X0096074Y0117901D02*
X0096691Y0117452D01*
X0097371Y0117105D01*
X0098098Y0116869D01*
X0098852Y0116750D01*
X0099144Y0116750D01*
X0099144Y0121511D01*
X0094383Y0121511D01*
X0094383Y0121218D01*
X0094503Y0120464D01*
X0094739Y0119738D01*
X0095085Y0119058D01*
X0095534Y0118440D01*
X0096074Y0117901D01*
X0095088Y0119054D02*
X0075933Y0119054D01*
X0075933Y0120253D02*
X0094571Y0120253D01*
X0094383Y0121451D02*
X0075933Y0121451D01*
X0075933Y0122650D02*
X0094489Y0122650D01*
X0094503Y0122736D02*
X0094383Y0121982D01*
X0094383Y0121689D01*
X0099144Y0121689D01*
X0099144Y0121511D01*
X0099322Y0121511D01*
X0099322Y0116750D01*
X0099615Y0116750D01*
X0100369Y0116869D01*
X0101095Y0117105D01*
X0101775Y0117452D01*
X0102393Y0117901D01*
X0102933Y0118440D01*
X0103381Y0119058D01*
X0103728Y0119738D01*
X0103964Y0120464D01*
X0104083Y0121218D01*
X0104083Y0121511D01*
X0099322Y0121511D01*
X0099322Y0121689D01*
X0099144Y0121689D01*
X0099144Y0126450D01*
X0098852Y0126450D01*
X0098098Y0126331D01*
X0097371Y0126095D01*
X0096691Y0125748D01*
X0096074Y0125299D01*
X0095534Y0124760D01*
X0095085Y0124142D01*
X0094739Y0123462D01*
X0094503Y0122736D01*
X0094935Y0123848D02*
X0075933Y0123848D01*
X0075933Y0125047D02*
X0095821Y0125047D01*
X0097835Y0126245D02*
X0075933Y0126245D01*
X0075933Y0127444D02*
X0130173Y0127444D01*
X0128974Y0126245D02*
X0100632Y0126245D01*
X0100369Y0126331D02*
X0099615Y0126450D01*
X0099322Y0126450D01*
X0099322Y0121689D01*
X0104083Y0121689D01*
X0104083Y0121982D01*
X0103964Y0122736D01*
X0103728Y0123462D01*
X0103381Y0124142D01*
X0102933Y0124760D01*
X0102393Y0125299D01*
X0101775Y0125748D01*
X0101095Y0126095D01*
X0100369Y0126331D01*
X0099322Y0126245D02*
X0099144Y0126245D01*
X0099144Y0125047D02*
X0099322Y0125047D01*
X0099322Y0123848D02*
X0099144Y0123848D01*
X0099144Y0122650D02*
X0099322Y0122650D01*
X0099322Y0121451D02*
X0099144Y0121451D01*
X0099144Y0120253D02*
X0099322Y0120253D01*
X0099322Y0119054D02*
X0099144Y0119054D01*
X0099144Y0117856D02*
X0099322Y0117856D01*
X0102331Y0117856D02*
X0106906Y0117856D01*
X0106769Y0117912D02*
X0108368Y0117250D01*
X0110099Y0117250D01*
X0111697Y0117912D01*
X0112921Y0119136D01*
X0113583Y0120735D01*
X0113583Y0122465D01*
X0112921Y0124064D01*
X0111697Y0125288D01*
X0110099Y0125950D01*
X0108368Y0125950D01*
X0106769Y0125288D01*
X0105545Y0124064D01*
X0104883Y0122465D01*
X0104883Y0120735D01*
X0105545Y0119136D01*
X0106769Y0117912D01*
X0105627Y0119054D02*
X0103378Y0119054D01*
X0103895Y0120253D02*
X0105083Y0120253D01*
X0104883Y0121451D02*
X0104083Y0121451D01*
X0103977Y0122650D02*
X0104960Y0122650D01*
X0105456Y0123848D02*
X0103531Y0123848D01*
X0102645Y0125047D02*
X0106528Y0125047D01*
X0111938Y0125047D02*
X0127776Y0125047D01*
X0127533Y0123848D02*
X0113010Y0123848D01*
X0113507Y0122650D02*
X0127533Y0122650D01*
X0127533Y0121451D02*
X0113583Y0121451D01*
X0113384Y0120253D02*
X0127533Y0120253D01*
X0127533Y0119054D02*
X0112839Y0119054D01*
X0111561Y0117856D02*
X0127533Y0117856D01*
X0130933Y0122650D02*
X0159395Y0122650D01*
X0158197Y0123848D02*
X0131386Y0123848D01*
X0129233Y0124100D02*
X0131733Y0126600D01*
X0146733Y0126600D01*
X0151733Y0131600D01*
X0151733Y0141600D01*
X0156733Y0146600D01*
X0162233Y0146600D01*
X0159021Y0143024D02*
X0155562Y0143024D01*
X0154363Y0141826D02*
X0161216Y0141826D01*
X0158472Y0140627D02*
X0153433Y0140627D01*
X0153433Y0139429D02*
X0157274Y0139429D01*
X0156713Y0138230D02*
X0153433Y0138230D01*
X0153433Y0137032D02*
X0156433Y0137032D01*
X0156433Y0135833D02*
X0153433Y0135833D01*
X0153433Y0134635D02*
X0156852Y0134635D01*
X0157609Y0133436D02*
X0153433Y0133436D01*
X0153433Y0132238D02*
X0159222Y0132238D01*
X0160408Y0131039D02*
X0153433Y0131039D01*
X0152378Y0129841D02*
X0158686Y0129841D01*
X0157884Y0128642D02*
X0151180Y0128642D01*
X0149981Y0127444D02*
X0157433Y0127444D01*
X0157433Y0126245D02*
X0148783Y0126245D01*
X0147584Y0125047D02*
X0157681Y0125047D01*
X0164369Y0120253D02*
X0167982Y0120253D01*
X0166783Y0119054D02*
X0165412Y0119054D01*
X0166733Y0116600D02*
X0171733Y0121600D01*
X0171733Y0151600D01*
X0166733Y0156600D01*
X0156733Y0156600D01*
X0156348Y0153811D02*
X0167118Y0153811D01*
X0168317Y0152612D02*
X0155150Y0152612D01*
X0149143Y0151414D02*
X0126823Y0151414D01*
X0128022Y0150215D02*
X0147944Y0150215D01*
X0146746Y0149017D02*
X0129220Y0149017D01*
X0126809Y0146620D02*
X0106663Y0146620D01*
X0107474Y0145421D02*
X0128008Y0145421D01*
X0127321Y0155009D02*
X0131145Y0155009D01*
X0130733Y0156208D02*
X0127733Y0156208D01*
X0127733Y0157406D02*
X0130733Y0157406D01*
X0134233Y0159100D02*
X0141733Y0169100D01*
X0184233Y0169100D01*
X0191733Y0161600D01*
X0191733Y0041600D01*
X0186733Y0036600D01*
X0161233Y0036600D01*
X0157797Y0039952D02*
X0147490Y0039952D01*
X0146291Y0038754D02*
X0156930Y0038754D01*
X0156433Y0037555D02*
X0145933Y0037555D01*
X0145933Y0036357D02*
X0156433Y0036357D01*
X0156635Y0035158D02*
X0145933Y0035158D01*
X0145933Y0033960D02*
X0157131Y0033960D01*
X0158284Y0032761D02*
X0145933Y0032761D01*
X0145933Y0031563D02*
X0201872Y0031563D01*
X0201872Y0032761D02*
X0164183Y0032761D01*
X0165335Y0033960D02*
X0201872Y0033960D01*
X0201872Y0035158D02*
X0187696Y0035158D01*
X0188894Y0036357D02*
X0201872Y0036357D01*
X0201872Y0037555D02*
X0190093Y0037555D01*
X0191291Y0038754D02*
X0201872Y0038754D01*
X0201872Y0039952D02*
X0192490Y0039952D01*
X0193433Y0041151D02*
X0201872Y0041151D01*
X0201872Y0042349D02*
X0193433Y0042349D01*
X0193433Y0043548D02*
X0201872Y0043548D01*
X0201872Y0044746D02*
X0193433Y0044746D01*
X0193433Y0045945D02*
X0201872Y0045945D01*
X0201872Y0047143D02*
X0193433Y0047143D01*
X0193433Y0048342D02*
X0201872Y0048342D01*
X0201872Y0049540D02*
X0193433Y0049540D01*
X0193433Y0050739D02*
X0201872Y0050739D01*
X0201872Y0051937D02*
X0193433Y0051937D01*
X0193433Y0053136D02*
X0201872Y0053136D01*
X0201872Y0054334D02*
X0193433Y0054334D01*
X0193433Y0055533D02*
X0201872Y0055533D01*
X0201872Y0056732D02*
X0193433Y0056732D01*
X0193433Y0057930D02*
X0201872Y0057930D01*
X0201872Y0059129D02*
X0193433Y0059129D01*
X0193433Y0060327D02*
X0201872Y0060327D01*
X0201872Y0061526D02*
X0193433Y0061526D01*
X0193433Y0062724D02*
X0201872Y0062724D01*
X0201872Y0063923D02*
X0193433Y0063923D01*
X0193433Y0065121D02*
X0201872Y0065121D01*
X0201872Y0066320D02*
X0193433Y0066320D01*
X0193433Y0067518D02*
X0201872Y0067518D01*
X0201872Y0068717D02*
X0193433Y0068717D01*
X0193433Y0069915D02*
X0201872Y0069915D01*
X0201872Y0071114D02*
X0193433Y0071114D01*
X0193433Y0072312D02*
X0201872Y0072312D01*
X0201872Y0073511D02*
X0193433Y0073511D01*
X0193433Y0074709D02*
X0201872Y0074709D01*
X0201872Y0075908D02*
X0193433Y0075908D01*
X0193433Y0077106D02*
X0201872Y0077106D01*
X0201872Y0078305D02*
X0193433Y0078305D01*
X0193433Y0079503D02*
X0201872Y0079503D01*
X0201872Y0080702D02*
X0193433Y0080702D01*
X0193433Y0081900D02*
X0201872Y0081900D01*
X0201872Y0083099D02*
X0193433Y0083099D01*
X0193433Y0084297D02*
X0201872Y0084297D01*
X0201872Y0085496D02*
X0193433Y0085496D01*
X0193433Y0086694D02*
X0201872Y0086694D01*
X0201872Y0087893D02*
X0193433Y0087893D01*
X0193433Y0089091D02*
X0201872Y0089091D01*
X0201872Y0090290D02*
X0193433Y0090290D01*
X0193433Y0091488D02*
X0201872Y0091488D01*
X0201872Y0092687D02*
X0193433Y0092687D01*
X0193433Y0093885D02*
X0201872Y0093885D01*
X0201872Y0095084D02*
X0193433Y0095084D01*
X0193433Y0096282D02*
X0201872Y0096282D01*
X0201872Y0097481D02*
X0193433Y0097481D01*
X0193433Y0098679D02*
X0201872Y0098679D01*
X0201872Y0099878D02*
X0193433Y0099878D01*
X0193433Y0101076D02*
X0201872Y0101076D01*
X0201872Y0102275D02*
X0193433Y0102275D01*
X0193433Y0103473D02*
X0201872Y0103473D01*
X0201872Y0104672D02*
X0193433Y0104672D01*
X0193433Y0105870D02*
X0201872Y0105870D01*
X0201872Y0107069D02*
X0193433Y0107069D01*
X0193433Y0108268D02*
X0201872Y0108268D01*
X0201872Y0109466D02*
X0193433Y0109466D01*
X0193433Y0110665D02*
X0201872Y0110665D01*
X0201872Y0111863D02*
X0193433Y0111863D01*
X0193433Y0113062D02*
X0201872Y0113062D01*
X0201872Y0114260D02*
X0193433Y0114260D01*
X0193433Y0115459D02*
X0201872Y0115459D01*
X0201872Y0116657D02*
X0193433Y0116657D01*
X0193433Y0117856D02*
X0201872Y0117856D01*
X0201872Y0119054D02*
X0193433Y0119054D01*
X0193433Y0120253D02*
X0201872Y0120253D01*
X0201872Y0121451D02*
X0193433Y0121451D01*
X0193433Y0122650D02*
X0201872Y0122650D01*
X0201872Y0123848D02*
X0193433Y0123848D01*
X0193433Y0125047D02*
X0201872Y0125047D01*
X0201872Y0126245D02*
X0193433Y0126245D01*
X0193433Y0127444D02*
X0201872Y0127444D01*
X0201872Y0128642D02*
X0193433Y0128642D01*
X0193433Y0129841D02*
X0201872Y0129841D01*
X0201872Y0131039D02*
X0193433Y0131039D01*
X0193433Y0132238D02*
X0201872Y0132238D01*
X0201872Y0133436D02*
X0193433Y0133436D01*
X0193433Y0134635D02*
X0201872Y0134635D01*
X0201872Y0135833D02*
X0193433Y0135833D01*
X0193433Y0137032D02*
X0201872Y0137032D01*
X0201872Y0138230D02*
X0193433Y0138230D01*
X0193433Y0139429D02*
X0201872Y0139429D01*
X0201872Y0140627D02*
X0193433Y0140627D01*
X0193433Y0141826D02*
X0201872Y0141826D01*
X0201872Y0143024D02*
X0193433Y0143024D01*
X0193433Y0144223D02*
X0201872Y0144223D01*
X0201872Y0145421D02*
X0193433Y0145421D01*
X0193433Y0146620D02*
X0201872Y0146620D01*
X0201872Y0147818D02*
X0193433Y0147818D01*
X0193433Y0149017D02*
X0201872Y0149017D01*
X0201872Y0150215D02*
X0193433Y0150215D01*
X0193433Y0151414D02*
X0201872Y0151414D01*
X0201872Y0152612D02*
X0193433Y0152612D01*
X0193433Y0153811D02*
X0201872Y0153811D01*
X0201872Y0155009D02*
X0193433Y0155009D01*
X0193433Y0156208D02*
X0201872Y0156208D01*
X0201872Y0157406D02*
X0193433Y0157406D01*
X0193433Y0158605D02*
X0201872Y0158605D01*
X0201872Y0159803D02*
X0193433Y0159803D01*
X0193433Y0161002D02*
X0201872Y0161002D01*
X0201872Y0162201D02*
X0193433Y0162201D01*
X0192338Y0163399D02*
X0201872Y0163399D01*
X0201872Y0164598D02*
X0191140Y0164598D01*
X0189941Y0165796D02*
X0201872Y0165796D01*
X0201872Y0166995D02*
X0188743Y0166995D01*
X0187544Y0168193D02*
X0201872Y0168193D01*
X0201872Y0169392D02*
X0186346Y0169392D01*
X0183935Y0166995D02*
X0142279Y0166995D01*
X0141380Y0165796D02*
X0185133Y0165796D01*
X0186332Y0164598D02*
X0146793Y0164598D01*
X0146783Y0164607D02*
X0146128Y0165045D01*
X0145400Y0165346D01*
X0144627Y0165500D01*
X0144433Y0165500D01*
X0144433Y0159300D01*
X0148233Y0159300D01*
X0148233Y0161894D01*
X0148080Y0162667D01*
X0147778Y0163395D01*
X0147340Y0164050D01*
X0146783Y0164607D01*
X0147775Y0163399D02*
X0187530Y0163399D01*
X0188729Y0162201D02*
X0148172Y0162201D01*
X0148233Y0161002D02*
X0189927Y0161002D01*
X0190033Y0159803D02*
X0148233Y0159803D01*
X0148233Y0158605D02*
X0190033Y0158605D01*
X0190033Y0157406D02*
X0168331Y0157406D01*
X0169529Y0156208D02*
X0190033Y0156208D01*
X0190033Y0155009D02*
X0170728Y0155009D01*
X0171926Y0153811D02*
X0190033Y0153811D01*
X0190033Y0152612D02*
X0173125Y0152612D01*
X0173433Y0151414D02*
X0190033Y0151414D01*
X0190033Y0150215D02*
X0173433Y0150215D01*
X0173433Y0149017D02*
X0190033Y0149017D01*
X0190033Y0147818D02*
X0173433Y0147818D01*
X0173433Y0146620D02*
X0190033Y0146620D01*
X0190033Y0145421D02*
X0173433Y0145421D01*
X0173433Y0144223D02*
X0190033Y0144223D01*
X0190033Y0143024D02*
X0173433Y0143024D01*
X0173433Y0141826D02*
X0190033Y0141826D01*
X0190033Y0140627D02*
X0173433Y0140627D01*
X0173433Y0139429D02*
X0190033Y0139429D01*
X0190033Y0138230D02*
X0173433Y0138230D01*
X0173433Y0137032D02*
X0190033Y0137032D01*
X0190033Y0135833D02*
X0173433Y0135833D01*
X0173433Y0134635D02*
X0190033Y0134635D01*
X0190033Y0133436D02*
X0173433Y0133436D01*
X0173433Y0132238D02*
X0190033Y0132238D01*
X0190033Y0131039D02*
X0173433Y0131039D01*
X0173433Y0129841D02*
X0190033Y0129841D01*
X0190033Y0128642D02*
X0173433Y0128642D01*
X0173433Y0127444D02*
X0190033Y0127444D01*
X0190033Y0126245D02*
X0173433Y0126245D01*
X0173433Y0125047D02*
X0190033Y0125047D01*
X0190033Y0123848D02*
X0173433Y0123848D01*
X0173433Y0122650D02*
X0190033Y0122650D01*
X0190033Y0121451D02*
X0173433Y0121451D01*
X0172790Y0120253D02*
X0190033Y0120253D01*
X0190033Y0119054D02*
X0171592Y0119054D01*
X0170393Y0117856D02*
X0190033Y0117856D01*
X0190033Y0116657D02*
X0169194Y0116657D01*
X0167996Y0115459D02*
X0190033Y0115459D01*
X0190033Y0114260D02*
X0165459Y0114260D01*
X0164483Y0113062D02*
X0190033Y0113062D01*
X0190033Y0111863D02*
X0162340Y0111863D01*
X0164957Y0110665D02*
X0190033Y0110665D01*
X0190033Y0109466D02*
X0166155Y0109466D01*
X0166738Y0108268D02*
X0190033Y0108268D01*
X0190033Y0107069D02*
X0167033Y0107069D01*
X0167033Y0105870D02*
X0190033Y0105870D01*
X0190033Y0104672D02*
X0166630Y0104672D01*
X0165895Y0103473D02*
X0190033Y0103473D01*
X0190033Y0102275D02*
X0164335Y0102275D01*
X0162969Y0101076D02*
X0190033Y0101076D01*
X0190033Y0099878D02*
X0164744Y0099878D01*
X0165567Y0098679D02*
X0190033Y0098679D01*
X0190033Y0097481D02*
X0166033Y0097481D01*
X0166033Y0096282D02*
X0190033Y0096282D01*
X0190033Y0095084D02*
X0165801Y0095084D01*
X0165304Y0093885D02*
X0190033Y0093885D01*
X0190033Y0092687D02*
X0164108Y0092687D01*
X0166733Y0116600D02*
X0161233Y0116600D01*
X0147570Y0129841D02*
X0075933Y0129841D01*
X0075933Y0131039D02*
X0102344Y0131039D01*
X0102783Y0130600D02*
X0105683Y0130600D01*
X0107733Y0132650D01*
X0107733Y0135550D01*
X0105683Y0137600D01*
X0102783Y0137600D01*
X0100733Y0135550D01*
X0100733Y0132650D01*
X0102783Y0130600D01*
X0101146Y0132238D02*
X0075933Y0132238D01*
X0075933Y0133436D02*
X0100733Y0133436D01*
X0100733Y0134635D02*
X0075933Y0134635D01*
X0075933Y0135833D02*
X0101017Y0135833D01*
X0102215Y0137032D02*
X0075933Y0137032D01*
X0075933Y0138230D02*
X0150033Y0138230D01*
X0150033Y0137032D02*
X0106251Y0137032D01*
X0107450Y0135833D02*
X0150033Y0135833D01*
X0150033Y0134635D02*
X0107733Y0134635D01*
X0107733Y0133436D02*
X0150033Y0133436D01*
X0149967Y0132238D02*
X0107321Y0132238D01*
X0106122Y0131039D02*
X0148768Y0131039D01*
X0146371Y0128642D02*
X0075933Y0128642D01*
X0070033Y0128642D02*
X0056583Y0128642D01*
X0057033Y0127444D02*
X0070033Y0127444D01*
X0070033Y0126245D02*
X0057033Y0126245D01*
X0056785Y0125047D02*
X0070033Y0125047D01*
X0070033Y0123848D02*
X0056270Y0123848D01*
X0055071Y0122650D02*
X0070033Y0122650D01*
X0070033Y0121451D02*
X0014508Y0121451D01*
X0014508Y0101076D02*
X0049497Y0101076D01*
X0047723Y0099878D02*
X0014508Y0099878D01*
X0014508Y0098679D02*
X0046899Y0098679D01*
X0046433Y0097481D02*
X0014508Y0097481D01*
X0014508Y0096282D02*
X0046433Y0096282D01*
X0046666Y0095084D02*
X0014508Y0095084D01*
X0014508Y0093885D02*
X0047162Y0093885D01*
X0048358Y0092687D02*
X0014508Y0092687D01*
X0014508Y0091488D02*
X0072533Y0091488D01*
X0072533Y0090290D02*
X0055332Y0090290D01*
X0054952Y0090669D02*
X0053188Y0091400D01*
X0051278Y0091400D01*
X0049514Y0090669D01*
X0048164Y0089319D01*
X0047433Y0087555D01*
X0047433Y0085645D01*
X0048164Y0083881D01*
X0049514Y0082531D01*
X0051278Y0081800D01*
X0053188Y0081800D01*
X0054952Y0082531D01*
X0056302Y0083881D01*
X0057033Y0085645D01*
X0057033Y0087555D01*
X0056302Y0089319D01*
X0054952Y0090669D01*
X0056397Y0089091D02*
X0072533Y0089091D01*
X0072533Y0087893D02*
X0056893Y0087893D01*
X0057033Y0086694D02*
X0072533Y0086694D01*
X0072533Y0085496D02*
X0056971Y0085496D01*
X0056475Y0084297D02*
X0072533Y0084297D01*
X0072533Y0083099D02*
X0055520Y0083099D01*
X0053430Y0081900D02*
X0072533Y0081900D01*
X0072533Y0080702D02*
X0053874Y0080702D01*
X0053952Y0080669D02*
X0052188Y0081400D01*
X0050278Y0081400D01*
X0048514Y0080669D01*
X0047164Y0079319D01*
X0046433Y0077555D01*
X0046433Y0075645D01*
X0047164Y0073881D01*
X0048514Y0072531D01*
X0050278Y0071800D01*
X0052188Y0071800D01*
X0053952Y0072531D01*
X0055302Y0073881D01*
X0056033Y0075645D01*
X0056033Y0077555D01*
X0055302Y0079319D01*
X0053952Y0080669D01*
X0055118Y0079503D02*
X0072533Y0079503D01*
X0072533Y0078305D02*
X0055723Y0078305D01*
X0056033Y0077106D02*
X0072533Y0077106D01*
X0072533Y0075908D02*
X0056033Y0075908D01*
X0055646Y0074709D02*
X0072533Y0074709D01*
X0072533Y0073511D02*
X0054932Y0073511D01*
X0053424Y0072312D02*
X0072533Y0072312D01*
X0072533Y0071114D02*
X0053879Y0071114D01*
X0055706Y0069915D02*
X0072533Y0069915D01*
X0071446Y0068717D02*
X0056552Y0068717D01*
X0056320Y0063923D02*
X0075033Y0063923D01*
X0075033Y0065121D02*
X0072659Y0065121D01*
X0073433Y0065896D02*
X0073433Y0065896D01*
X0073857Y0066320D02*
X0075033Y0066320D01*
X0074233Y0069100D02*
X0074233Y0146600D01*
X0084233Y0159100D01*
X0080733Y0158605D02*
X0077733Y0158605D01*
X0077733Y0159803D02*
X0080733Y0159803D01*
X0080733Y0161002D02*
X0077733Y0161002D01*
X0077731Y0162201D02*
X0080735Y0162201D01*
X0081231Y0163399D02*
X0077235Y0163399D01*
X0075901Y0164598D02*
X0082565Y0164598D01*
X0085901Y0164598D02*
X0092565Y0164598D01*
X0092251Y0164467D02*
X0091266Y0163483D01*
X0090733Y0162196D01*
X0090733Y0156004D01*
X0091266Y0154717D01*
X0092251Y0153733D01*
X0093537Y0153200D01*
X0094929Y0153200D01*
X0096216Y0153733D01*
X0097200Y0154717D01*
X0097733Y0156004D01*
X0097733Y0162196D01*
X0097200Y0163483D01*
X0096216Y0164467D01*
X0094929Y0165000D01*
X0093537Y0165000D01*
X0092251Y0164467D01*
X0091231Y0163399D02*
X0087235Y0163399D01*
X0087731Y0162201D02*
X0090735Y0162201D01*
X0090733Y0161002D02*
X0087733Y0161002D01*
X0087733Y0159803D02*
X0090733Y0159803D01*
X0090733Y0158605D02*
X0087733Y0158605D01*
X0087733Y0157406D02*
X0090733Y0157406D01*
X0090733Y0156208D02*
X0087733Y0156208D01*
X0087321Y0155009D02*
X0091145Y0155009D01*
X0092173Y0153811D02*
X0086294Y0153811D01*
X0080701Y0157406D02*
X0077733Y0157406D01*
X0077733Y0156208D02*
X0079743Y0156208D01*
X0078784Y0155009D02*
X0077321Y0155009D01*
X0077825Y0153811D02*
X0076294Y0153811D01*
X0076866Y0152612D02*
X0073433Y0152612D01*
X0073433Y0151414D02*
X0075907Y0151414D01*
X0074949Y0150215D02*
X0073433Y0150215D01*
X0073433Y0149017D02*
X0073990Y0149017D01*
X0071733Y0156600D02*
X0071733Y0109100D01*
X0069233Y0106600D01*
X0052233Y0106600D01*
X0056630Y0104672D02*
X0072533Y0104672D01*
X0072533Y0105870D02*
X0070908Y0105870D01*
X0072106Y0107069D02*
X0072533Y0107069D01*
X0072533Y0103473D02*
X0055895Y0103473D01*
X0054335Y0102275D02*
X0072533Y0102275D01*
X0072533Y0099878D02*
X0054744Y0099878D01*
X0055567Y0098679D02*
X0072533Y0098679D01*
X0072533Y0097481D02*
X0056033Y0097481D01*
X0056033Y0096282D02*
X0072533Y0096282D01*
X0072533Y0095084D02*
X0055801Y0095084D01*
X0055304Y0093885D02*
X0072533Y0093885D01*
X0072533Y0092687D02*
X0054108Y0092687D01*
X0049135Y0090290D02*
X0014508Y0090290D01*
X0014508Y0089091D02*
X0048070Y0089091D01*
X0047573Y0087893D02*
X0014508Y0087893D01*
X0014508Y0086694D02*
X0047433Y0086694D01*
X0047495Y0085496D02*
X0014508Y0085496D01*
X0014508Y0084297D02*
X0047992Y0084297D01*
X0048946Y0083099D02*
X0014508Y0083099D01*
X0014508Y0081900D02*
X0051036Y0081900D01*
X0048593Y0080702D02*
X0014508Y0080702D01*
X0014508Y0079503D02*
X0047348Y0079503D01*
X0046744Y0078305D02*
X0014508Y0078305D01*
X0014508Y0077106D02*
X0046433Y0077106D01*
X0046433Y0075908D02*
X0014508Y0075908D01*
X0014508Y0074709D02*
X0046821Y0074709D01*
X0047534Y0073511D02*
X0014508Y0073511D01*
X0014508Y0072312D02*
X0049042Y0072312D01*
X0050587Y0071114D02*
X0014508Y0071114D01*
X0014508Y0069915D02*
X0048760Y0069915D01*
X0047915Y0068717D02*
X0014508Y0068717D01*
X0014508Y0067518D02*
X0047433Y0067518D01*
X0047433Y0066320D02*
X0014508Y0066320D01*
X0014508Y0065121D02*
X0047650Y0065121D01*
X0048147Y0063923D02*
X0014508Y0063923D01*
X0014508Y0062724D02*
X0049321Y0062724D01*
X0048172Y0060327D02*
X0014508Y0060327D01*
X0014508Y0059129D02*
X0047085Y0059129D01*
X0046589Y0057930D02*
X0014508Y0057930D01*
X0014508Y0056732D02*
X0046433Y0056732D01*
X0046480Y0055533D02*
X0014508Y0055533D01*
X0014508Y0054334D02*
X0046976Y0054334D01*
X0047909Y0053136D02*
X0014508Y0053136D01*
X0014508Y0061526D02*
X0075033Y0061526D01*
X0075033Y0062724D02*
X0055146Y0062724D01*
X0054294Y0060327D02*
X0075033Y0060327D01*
X0075033Y0059129D02*
X0055381Y0059129D01*
X0055878Y0057930D02*
X0075033Y0057930D01*
X0075033Y0056732D02*
X0056033Y0056732D01*
X0055987Y0055533D02*
X0075033Y0055533D01*
X0075033Y0054334D02*
X0055490Y0054334D01*
X0054557Y0053136D02*
X0075033Y0053136D01*
X0078433Y0053136D02*
X0086050Y0053136D01*
X0084149Y0054334D02*
X0078433Y0054334D01*
X0078433Y0055533D02*
X0083487Y0055533D01*
X0083333Y0056732D02*
X0078433Y0056732D01*
X0078433Y0057930D02*
X0083596Y0057930D01*
X0084412Y0059129D02*
X0078433Y0059129D01*
X0078433Y0060327D02*
X0095033Y0060327D01*
X0095033Y0059129D02*
X0094054Y0059129D01*
X0094871Y0057930D02*
X0095033Y0057930D01*
X0094980Y0055533D02*
X0095033Y0055533D01*
X0095033Y0054334D02*
X0094317Y0054334D01*
X0095033Y0053136D02*
X0092416Y0053136D01*
X0095033Y0051937D02*
X0078433Y0051937D01*
X0078433Y0050739D02*
X0095033Y0050739D01*
X0095033Y0049540D02*
X0093643Y0049540D01*
X0094700Y0048342D02*
X0095033Y0048342D01*
X0098433Y0048342D02*
X0110033Y0048342D01*
X0110033Y0049540D02*
X0098433Y0049540D01*
X0098433Y0050739D02*
X0110033Y0050739D01*
X0110033Y0051937D02*
X0098433Y0051937D01*
X0098433Y0053136D02*
X0110033Y0053136D01*
X0110033Y0054334D02*
X0098433Y0054334D01*
X0098433Y0055533D02*
X0110033Y0055533D01*
X0110033Y0056732D02*
X0098433Y0056732D01*
X0098433Y0057930D02*
X0110033Y0057930D01*
X0110033Y0059129D02*
X0098433Y0059129D01*
X0098433Y0060327D02*
X0110033Y0060327D01*
X0110033Y0061526D02*
X0098433Y0061526D01*
X0098433Y0062724D02*
X0110033Y0062724D01*
X0110033Y0063923D02*
X0098433Y0063923D01*
X0098433Y0065121D02*
X0110033Y0065121D01*
X0110033Y0066320D02*
X0098433Y0066320D01*
X0098433Y0067518D02*
X0110033Y0067518D01*
X0110033Y0068717D02*
X0098433Y0068717D01*
X0098433Y0069915D02*
X0110144Y0069915D01*
X0111343Y0071114D02*
X0098433Y0071114D01*
X0098433Y0072312D02*
X0112541Y0072312D01*
X0111733Y0069100D02*
X0111733Y0036600D01*
X0124233Y0024100D01*
X0124233Y0019100D01*
X0123969Y0026769D02*
X0142533Y0026769D01*
X0142533Y0027967D02*
X0122770Y0027967D01*
X0121572Y0029166D02*
X0142533Y0029166D01*
X0142533Y0030364D02*
X0120373Y0030364D01*
X0119175Y0031563D02*
X0142533Y0031563D01*
X0142533Y0032761D02*
X0117976Y0032761D01*
X0116778Y0033960D02*
X0142533Y0033960D01*
X0142533Y0035158D02*
X0115579Y0035158D01*
X0114381Y0036357D02*
X0142533Y0036357D01*
X0142533Y0037555D02*
X0113433Y0037555D01*
X0113433Y0038754D02*
X0142533Y0038754D01*
X0142681Y0039952D02*
X0113433Y0039952D01*
X0113433Y0041151D02*
X0143880Y0041151D01*
X0143529Y0040800D02*
X0143529Y0040800D01*
X0144233Y0039100D02*
X0151733Y0046600D01*
X0162233Y0046600D01*
X0157806Y0044746D02*
X0152284Y0044746D01*
X0151085Y0043548D02*
X0158497Y0043548D01*
X0159952Y0042349D02*
X0149887Y0042349D01*
X0148688Y0041151D02*
X0159677Y0041151D01*
X0162789Y0041151D02*
X0188880Y0041151D01*
X0190033Y0042349D02*
X0164514Y0042349D01*
X0165969Y0043548D02*
X0190033Y0043548D01*
X0190033Y0044746D02*
X0166661Y0044746D01*
X0167033Y0045945D02*
X0190033Y0045945D01*
X0190033Y0047143D02*
X0167033Y0047143D01*
X0166707Y0048342D02*
X0190033Y0048342D01*
X0190033Y0049540D02*
X0166081Y0049540D01*
X0164784Y0050739D02*
X0190033Y0050739D01*
X0190033Y0051937D02*
X0162520Y0051937D01*
X0164557Y0053136D02*
X0190033Y0053136D01*
X0190033Y0054334D02*
X0165490Y0054334D01*
X0165987Y0055533D02*
X0190033Y0055533D01*
X0190033Y0056732D02*
X0166033Y0056732D01*
X0165878Y0057930D02*
X0190033Y0057930D01*
X0190033Y0059129D02*
X0165381Y0059129D01*
X0164294Y0060327D02*
X0190033Y0060327D01*
X0187681Y0039952D02*
X0164669Y0039952D01*
X0165537Y0038754D02*
X0186483Y0038754D01*
X0201872Y0030364D02*
X0145933Y0030364D01*
X0145933Y0029166D02*
X0201872Y0029166D01*
X0201872Y0027967D02*
X0145933Y0027967D01*
X0145933Y0026769D02*
X0201872Y0026769D01*
X0159321Y0062724D02*
X0130261Y0062724D01*
X0131460Y0063923D02*
X0158147Y0063923D01*
X0157759Y0048342D02*
X0124911Y0048342D01*
X0125133Y0047143D02*
X0149873Y0047143D01*
X0150033Y0047304D02*
X0150033Y0047304D01*
X0148674Y0045945D02*
X0125133Y0045945D01*
X0124654Y0044746D02*
X0147476Y0044746D01*
X0146277Y0043548D02*
X0123411Y0043548D01*
X0119233Y0046600D02*
X0126733Y0051600D01*
X0125033Y0057930D02*
X0124871Y0057930D01*
X0125033Y0059129D02*
X0124054Y0059129D01*
X0125033Y0060327D02*
X0113433Y0060327D01*
X0113433Y0059129D02*
X0114412Y0059129D01*
X0113596Y0057930D02*
X0113433Y0057930D01*
X0113433Y0061526D02*
X0125033Y0061526D01*
X0125453Y0062724D02*
X0113433Y0062724D01*
X0113433Y0063923D02*
X0114561Y0063923D01*
X0113657Y0065121D02*
X0113433Y0065121D01*
X0123906Y0063923D02*
X0126652Y0063923D01*
X0127850Y0065121D02*
X0124809Y0065121D01*
X0125133Y0066320D02*
X0129049Y0066320D01*
X0130247Y0067518D02*
X0125041Y0067518D01*
X0124715Y0078305D02*
X0126034Y0078305D01*
X0127232Y0079503D02*
X0123680Y0079503D01*
X0128431Y0080702D02*
X0098433Y0080702D01*
X0098433Y0081900D02*
X0129629Y0081900D01*
X0128033Y0085496D02*
X0133225Y0085496D01*
X0134423Y0086694D02*
X0129232Y0086694D01*
X0130430Y0087893D02*
X0135622Y0087893D01*
X0129233Y0089100D02*
X0129233Y0124100D01*
X0127533Y0109466D02*
X0124424Y0109466D01*
X0125272Y0108268D02*
X0127533Y0108268D01*
X0127533Y0107069D02*
X0125618Y0107069D01*
X0125566Y0105870D02*
X0127533Y0105870D01*
X0127533Y0104672D02*
X0125156Y0104672D01*
X0124154Y0103473D02*
X0127533Y0103473D01*
X0127533Y0091488D02*
X0078433Y0091488D01*
X0078433Y0090290D02*
X0127533Y0090290D01*
X0126820Y0089091D02*
X0124092Y0089091D01*
X0126733Y0086600D02*
X0129233Y0089100D01*
X0096733Y0081600D02*
X0096733Y0031600D01*
X0094233Y0029100D01*
X0094233Y0019100D01*
X0095933Y0026769D02*
X0119160Y0026769D01*
X0117962Y0027967D02*
X0095933Y0027967D01*
X0096703Y0029166D02*
X0116763Y0029166D01*
X0115565Y0030364D02*
X0097902Y0030364D01*
X0098433Y0031563D02*
X0114366Y0031563D01*
X0113168Y0032761D02*
X0098433Y0032761D01*
X0098433Y0033960D02*
X0111969Y0033960D01*
X0110771Y0035158D02*
X0098433Y0035158D01*
X0098433Y0036357D02*
X0110033Y0036357D01*
X0110033Y0037555D02*
X0098433Y0037555D01*
X0098433Y0038754D02*
X0110033Y0038754D01*
X0110033Y0039952D02*
X0098433Y0039952D01*
X0098433Y0041151D02*
X0110033Y0041151D01*
X0110033Y0042349D02*
X0098433Y0042349D01*
X0098433Y0043548D02*
X0110033Y0043548D01*
X0110033Y0044746D02*
X0098433Y0044746D01*
X0098433Y0045945D02*
X0110033Y0045945D01*
X0110033Y0047143D02*
X0098433Y0047143D01*
X0095033Y0044746D02*
X0094654Y0044746D01*
X0095033Y0043548D02*
X0093411Y0043548D01*
X0095033Y0042349D02*
X0078433Y0042349D01*
X0078433Y0041151D02*
X0095033Y0041151D01*
X0095033Y0039952D02*
X0078433Y0039952D01*
X0078433Y0038754D02*
X0095033Y0038754D01*
X0095033Y0037555D02*
X0078433Y0037555D01*
X0078433Y0036357D02*
X0095033Y0036357D01*
X0095033Y0035158D02*
X0078433Y0035158D01*
X0078433Y0033960D02*
X0095033Y0033960D01*
X0085056Y0043548D02*
X0078433Y0043548D01*
X0078433Y0044746D02*
X0083813Y0044746D01*
X0083333Y0045945D02*
X0078433Y0045945D01*
X0078433Y0047143D02*
X0083333Y0047143D01*
X0083766Y0048342D02*
X0078433Y0048342D01*
X0078433Y0049540D02*
X0084824Y0049540D01*
X0078433Y0061526D02*
X0095033Y0061526D01*
X0095033Y0062724D02*
X0078433Y0062724D01*
X0078433Y0063923D02*
X0084561Y0063923D01*
X0083657Y0065121D02*
X0078433Y0065121D01*
X0078433Y0066320D02*
X0083333Y0066320D01*
X0083425Y0067518D02*
X0078433Y0067518D01*
X0078433Y0068717D02*
X0084000Y0068717D01*
X0085691Y0069915D02*
X0078433Y0069915D01*
X0078433Y0071114D02*
X0095033Y0071114D01*
X0095033Y0072312D02*
X0078433Y0072312D01*
X0078433Y0073511D02*
X0085146Y0073511D01*
X0083828Y0074709D02*
X0078433Y0074709D01*
X0078433Y0075908D02*
X0083333Y0075908D01*
X0083333Y0077106D02*
X0078433Y0077106D01*
X0078433Y0078305D02*
X0083751Y0078305D01*
X0084787Y0079503D02*
X0078433Y0079503D01*
X0078433Y0080702D02*
X0095033Y0080702D01*
X0095033Y0079503D02*
X0093680Y0079503D01*
X0094715Y0078305D02*
X0095033Y0078305D01*
X0095033Y0074709D02*
X0094638Y0074709D01*
X0095033Y0073511D02*
X0093321Y0073511D01*
X0092776Y0069915D02*
X0095033Y0069915D01*
X0095033Y0068717D02*
X0094466Y0068717D01*
X0094809Y0065121D02*
X0095033Y0065121D01*
X0095033Y0063923D02*
X0093906Y0063923D01*
X0096733Y0081600D02*
X0091733Y0086600D01*
X0089233Y0086600D01*
X0092830Y0083099D02*
X0078433Y0083099D01*
X0078433Y0084297D02*
X0084186Y0084297D01*
X0083502Y0085496D02*
X0078433Y0085496D01*
X0078433Y0086694D02*
X0083333Y0086694D01*
X0083580Y0087893D02*
X0078433Y0087893D01*
X0078433Y0089091D02*
X0084375Y0089091D01*
X0078433Y0081900D02*
X0094029Y0081900D01*
X0074233Y0069100D02*
X0071733Y0066600D01*
X0052233Y0066600D01*
X0056155Y0109466D02*
X0069695Y0109466D01*
X0070033Y0110665D02*
X0054957Y0110665D01*
X0054483Y0113062D02*
X0070033Y0113062D01*
X0070033Y0114260D02*
X0055459Y0114260D01*
X0055956Y0115459D02*
X0070033Y0115459D01*
X0070033Y0116657D02*
X0056033Y0116657D01*
X0055909Y0117856D02*
X0070033Y0117856D01*
X0070033Y0119054D02*
X0055412Y0119054D01*
X0054369Y0120253D02*
X0070033Y0120253D01*
X0070033Y0111863D02*
X0052340Y0111863D01*
X0055781Y0129841D02*
X0070033Y0129841D01*
X0070033Y0131039D02*
X0054059Y0131039D01*
X0053245Y0132238D02*
X0070033Y0132238D01*
X0070033Y0133436D02*
X0054858Y0133436D01*
X0055615Y0134635D02*
X0070033Y0134635D01*
X0070033Y0135833D02*
X0056033Y0135833D01*
X0056033Y0137032D02*
X0070033Y0137032D01*
X0070033Y0138230D02*
X0055753Y0138230D01*
X0055193Y0139429D02*
X0070033Y0139429D01*
X0070033Y0140627D02*
X0053994Y0140627D01*
X0052233Y0146600D02*
X0059233Y0146600D01*
X0064233Y0151600D01*
X0064233Y0159100D01*
X0060733Y0158605D02*
X0014508Y0158605D01*
X0014508Y0159803D02*
X0060733Y0159803D01*
X0060733Y0161002D02*
X0014508Y0161002D01*
X0014508Y0162201D02*
X0060735Y0162201D01*
X0061231Y0163399D02*
X0014508Y0163399D01*
X0014508Y0166995D02*
X0138029Y0166995D01*
X0138928Y0168193D02*
X0014508Y0168193D01*
X0014508Y0169392D02*
X0139827Y0169392D01*
X0140726Y0170590D02*
X0029641Y0170590D01*
X0028518Y0170125D02*
X0031817Y0171492D01*
X0034342Y0174016D01*
X0035708Y0177315D01*
X0035708Y0180885D01*
X0034342Y0184184D01*
X0031817Y0186708D01*
X0028518Y0188075D01*
X0024948Y0188075D01*
X0021649Y0186708D01*
X0019125Y0184184D01*
X0017758Y0180885D01*
X0017758Y0177315D01*
X0019125Y0174016D01*
X0021649Y0171492D01*
X0024948Y0170125D01*
X0028518Y0170125D01*
X0032114Y0171789D02*
X0181352Y0171789D01*
X0180154Y0172987D02*
X0033313Y0172987D01*
X0034412Y0174186D02*
X0179055Y0174186D01*
X0178558Y0175384D02*
X0034908Y0175384D01*
X0035405Y0176583D02*
X0077195Y0176583D01*
X0077278Y0176500D02*
X0086189Y0176500D01*
X0086833Y0177144D01*
X0086833Y0186056D01*
X0086189Y0186700D01*
X0077278Y0186700D01*
X0076633Y0186056D01*
X0076633Y0177144D01*
X0077278Y0176500D01*
X0076633Y0177781D02*
X0035708Y0177781D01*
X0035708Y0178980D02*
X0076633Y0178980D01*
X0076633Y0180178D02*
X0035708Y0180178D01*
X0035504Y0181377D02*
X0076633Y0181377D01*
X0076633Y0182575D02*
X0035008Y0182575D01*
X0034512Y0183774D02*
X0076633Y0183774D01*
X0076633Y0184972D02*
X0033553Y0184972D01*
X0032355Y0186171D02*
X0076748Y0186171D01*
X0086718Y0186171D02*
X0092277Y0186171D01*
X0092578Y0186390D02*
X0091865Y0185871D01*
X0091241Y0185248D01*
X0090723Y0184535D01*
X0090323Y0183750D01*
X0090051Y0182911D01*
X0089935Y0182181D01*
X0094932Y0182181D01*
X0094932Y0187178D01*
X0094201Y0187062D01*
X0093363Y0186790D01*
X0092578Y0186390D01*
X0091041Y0184972D02*
X0086833Y0184972D01*
X0086833Y0183774D02*
X0090335Y0183774D01*
X0089997Y0182575D02*
X0086833Y0182575D01*
X0086833Y0181377D02*
X0094932Y0181377D01*
X0094932Y0181019D02*
X0089935Y0181019D01*
X0090051Y0180289D01*
X0090323Y0179450D01*
X0090723Y0178665D01*
X0091241Y0177952D01*
X0091865Y0177329D01*
X0092578Y0176810D01*
X0093363Y0176410D01*
X0094201Y0176138D01*
X0094932Y0176022D01*
X0094932Y0181019D01*
X0096094Y0181019D01*
X0096094Y0182181D01*
X0101091Y0182181D01*
X0100975Y0182911D01*
X0100702Y0183750D01*
X0100302Y0184535D01*
X0099784Y0185248D01*
X0099161Y0185871D01*
X0098448Y0186390D01*
X0097662Y0186790D01*
X0096824Y0187062D01*
X0096094Y0187178D01*
X0096094Y0182181D01*
X0094932Y0182181D01*
X0094932Y0181019D01*
X0094932Y0180178D02*
X0096094Y0180178D01*
X0096094Y0181019D02*
X0096094Y0176022D01*
X0096824Y0176138D01*
X0097662Y0176410D01*
X0098448Y0176810D01*
X0099161Y0177329D01*
X0099784Y0177952D01*
X0100302Y0178665D01*
X0100702Y0179450D01*
X0100975Y0180289D01*
X0101091Y0181019D01*
X0096094Y0181019D01*
X0096094Y0181377D02*
X0104192Y0181377D01*
X0104192Y0180586D02*
X0104192Y0182614D01*
X0104969Y0184489D01*
X0106403Y0185924D01*
X0108278Y0186700D01*
X0110307Y0186700D01*
X0112181Y0185924D01*
X0113616Y0184489D01*
X0114392Y0182614D01*
X0114392Y0180586D01*
X0113616Y0178711D01*
X0112181Y0177276D01*
X0110307Y0176500D01*
X0108278Y0176500D01*
X0106403Y0177276D01*
X0104969Y0178711D01*
X0104192Y0180586D01*
X0104361Y0180178D02*
X0100939Y0180178D01*
X0100463Y0178980D02*
X0104857Y0178980D01*
X0105899Y0177781D02*
X0099614Y0177781D01*
X0098001Y0176583D02*
X0108078Y0176583D01*
X0110506Y0176583D02*
X0120584Y0176583D01*
X0120922Y0176410D02*
X0121760Y0176138D01*
X0122491Y0176022D01*
X0122491Y0181019D01*
X0123653Y0181019D01*
X0123653Y0182181D01*
X0128650Y0182181D01*
X0128534Y0182911D01*
X0128262Y0183750D01*
X0127861Y0184535D01*
X0127343Y0185248D01*
X0126720Y0185871D01*
X0126007Y0186390D01*
X0125221Y0186790D01*
X0124383Y0187062D01*
X0123653Y0187178D01*
X0123653Y0182181D01*
X0122491Y0182181D01*
X0122491Y0187178D01*
X0121760Y0187062D01*
X0120922Y0186790D01*
X0120137Y0186390D01*
X0119424Y0185871D01*
X0118800Y0185248D01*
X0118282Y0184535D01*
X0117882Y0183750D01*
X0117610Y0182911D01*
X0117494Y0182181D01*
X0122491Y0182181D01*
X0122491Y0181019D01*
X0117494Y0181019D01*
X0117610Y0180289D01*
X0117882Y0179450D01*
X0118282Y0178665D01*
X0118800Y0177952D01*
X0119424Y0177329D01*
X0120137Y0176810D01*
X0120922Y0176410D01*
X0122491Y0176583D02*
X0123653Y0176583D01*
X0123653Y0176022D02*
X0124383Y0176138D01*
X0125221Y0176410D01*
X0126007Y0176810D01*
X0126720Y0177329D01*
X0127343Y0177952D01*
X0127861Y0178665D01*
X0128262Y0179450D01*
X0128534Y0180289D01*
X0128650Y0181019D01*
X0123653Y0181019D01*
X0123653Y0176022D01*
X0123653Y0177781D02*
X0122491Y0177781D01*
X0122491Y0178980D02*
X0123653Y0178980D01*
X0123653Y0180178D02*
X0122491Y0180178D01*
X0122491Y0181377D02*
X0114392Y0181377D01*
X0114392Y0182575D02*
X0117556Y0182575D01*
X0117894Y0183774D02*
X0113912Y0183774D01*
X0113133Y0184972D02*
X0118600Y0184972D01*
X0119836Y0186171D02*
X0111584Y0186171D01*
X0107000Y0186171D02*
X0098749Y0186171D01*
X0099985Y0184972D02*
X0105452Y0184972D01*
X0104672Y0183774D02*
X0100690Y0183774D01*
X0101028Y0182575D02*
X0104192Y0182575D01*
X0096094Y0182575D02*
X0094932Y0182575D01*
X0094932Y0183774D02*
X0096094Y0183774D01*
X0096094Y0184972D02*
X0094932Y0184972D01*
X0094932Y0186171D02*
X0096094Y0186171D01*
X0096094Y0178980D02*
X0094932Y0178980D01*
X0094932Y0177781D02*
X0096094Y0177781D01*
X0096094Y0176583D02*
X0094932Y0176583D01*
X0093025Y0176583D02*
X0086272Y0176583D01*
X0086833Y0177781D02*
X0091412Y0177781D01*
X0090563Y0178980D02*
X0086833Y0178980D01*
X0086833Y0180178D02*
X0090087Y0180178D01*
X0102251Y0164467D02*
X0103537Y0165000D01*
X0104929Y0165000D01*
X0106216Y0164467D01*
X0107200Y0163483D01*
X0107733Y0162196D01*
X0107733Y0156004D01*
X0107200Y0154717D01*
X0106216Y0153733D01*
X0104929Y0153200D01*
X0103537Y0153200D01*
X0102251Y0153733D01*
X0101266Y0154717D01*
X0100733Y0156004D01*
X0100733Y0162196D01*
X0101266Y0163483D01*
X0102251Y0164467D01*
X0102565Y0164598D02*
X0095901Y0164598D01*
X0097235Y0163399D02*
X0101231Y0163399D01*
X0100735Y0162201D02*
X0097731Y0162201D01*
X0097733Y0161002D02*
X0100733Y0161002D01*
X0100733Y0159803D02*
X0097733Y0159803D01*
X0097733Y0158605D02*
X0100733Y0158605D01*
X0100733Y0157406D02*
X0097733Y0157406D01*
X0097733Y0156208D02*
X0100733Y0156208D01*
X0101145Y0155009D02*
X0097321Y0155009D01*
X0096294Y0153811D02*
X0102173Y0153811D01*
X0106294Y0153811D02*
X0112173Y0153811D01*
X0111145Y0155009D02*
X0107321Y0155009D01*
X0107733Y0156208D02*
X0110733Y0156208D01*
X0110733Y0157406D02*
X0107733Y0157406D01*
X0107733Y0158605D02*
X0110733Y0158605D01*
X0110733Y0159803D02*
X0107733Y0159803D01*
X0107733Y0161002D02*
X0110733Y0161002D01*
X0110735Y0162201D02*
X0107731Y0162201D01*
X0107235Y0163399D02*
X0111231Y0163399D01*
X0112565Y0164598D02*
X0105901Y0164598D01*
X0112686Y0177781D02*
X0118971Y0177781D01*
X0118122Y0178980D02*
X0113727Y0178980D01*
X0114224Y0180178D02*
X0117646Y0180178D01*
X0122491Y0182575D02*
X0123653Y0182575D01*
X0123653Y0181377D02*
X0177962Y0181377D01*
X0177758Y0180178D02*
X0128498Y0180178D01*
X0128022Y0178980D02*
X0177758Y0178980D01*
X0177758Y0177781D02*
X0127173Y0177781D01*
X0125560Y0176583D02*
X0178062Y0176583D01*
X0178458Y0182575D02*
X0128587Y0182575D01*
X0128249Y0183774D02*
X0178955Y0183774D01*
X0179913Y0184972D02*
X0127544Y0184972D01*
X0126308Y0186171D02*
X0181112Y0186171D01*
X0183245Y0187369D02*
X0030222Y0187369D01*
X0023245Y0187369D02*
X0014508Y0187369D01*
X0014508Y0186171D02*
X0021112Y0186171D01*
X0019913Y0184972D02*
X0014508Y0184972D01*
X0014508Y0183774D02*
X0018955Y0183774D01*
X0018458Y0182575D02*
X0014508Y0182575D01*
X0014508Y0181377D02*
X0017962Y0181377D01*
X0017758Y0180178D02*
X0014508Y0180178D01*
X0014508Y0178980D02*
X0017758Y0178980D01*
X0017758Y0177781D02*
X0014508Y0177781D01*
X0014508Y0176583D02*
X0018062Y0176583D01*
X0018558Y0175384D02*
X0014508Y0175384D01*
X0014508Y0174186D02*
X0019055Y0174186D01*
X0020154Y0172987D02*
X0014508Y0172987D01*
X0014508Y0171789D02*
X0021352Y0171789D01*
X0023826Y0170590D02*
X0014508Y0170590D01*
X0014508Y0157406D02*
X0060733Y0157406D01*
X0060733Y0156208D02*
X0014508Y0156208D01*
X0014508Y0155009D02*
X0061145Y0155009D01*
X0062173Y0153811D02*
X0014508Y0153811D01*
X0014508Y0152612D02*
X0062533Y0152612D01*
X0061643Y0151414D02*
X0014508Y0151414D01*
X0014508Y0150215D02*
X0049060Y0150215D01*
X0048039Y0149017D02*
X0014508Y0149017D01*
X0014508Y0147818D02*
X0047542Y0147818D01*
X0047433Y0146620D02*
X0014508Y0146620D01*
X0014508Y0145421D02*
X0047526Y0145421D01*
X0048022Y0144223D02*
X0014508Y0144223D01*
X0055406Y0150215D02*
X0060444Y0150215D01*
X0059246Y0149017D02*
X0056428Y0149017D01*
X0071733Y0156600D02*
X0074233Y0159100D01*
X0122491Y0183774D02*
X0123653Y0183774D01*
X0123653Y0184972D02*
X0122491Y0184972D01*
X0122491Y0186171D02*
X0123653Y0186171D01*
X0140481Y0164598D02*
X0141674Y0164598D01*
X0140691Y0163399D02*
X0139582Y0163399D01*
X0144033Y0163399D02*
X0144433Y0163399D01*
X0144433Y0162201D02*
X0144033Y0162201D01*
X0144033Y0161002D02*
X0144433Y0161002D01*
X0144433Y0159803D02*
X0144033Y0159803D01*
X0144033Y0158605D02*
X0144433Y0158605D01*
X0144433Y0157406D02*
X0144033Y0157406D01*
X0144033Y0156208D02*
X0144433Y0156208D01*
X0144433Y0155009D02*
X0144033Y0155009D01*
X0144033Y0153811D02*
X0144433Y0153811D01*
X0144433Y0164598D02*
X0144033Y0164598D01*
X0156760Y0144223D02*
X0158022Y0144223D01*
X0189641Y0170590D02*
X0201872Y0170590D01*
X0201872Y0171789D02*
X0192114Y0171789D01*
X0193313Y0172987D02*
X0201872Y0172987D01*
X0201872Y0174186D02*
X0194412Y0174186D01*
X0194908Y0175384D02*
X0201872Y0175384D01*
X0201872Y0176583D02*
X0195405Y0176583D01*
X0195708Y0177781D02*
X0201872Y0177781D01*
X0201872Y0178980D02*
X0195708Y0178980D01*
X0195708Y0180178D02*
X0201872Y0180178D01*
X0201872Y0181377D02*
X0195504Y0181377D01*
X0195008Y0182575D02*
X0201872Y0182575D01*
X0201872Y0183774D02*
X0194512Y0183774D01*
X0193553Y0184972D02*
X0201872Y0184972D01*
X0201872Y0186171D02*
X0192355Y0186171D01*
X0190222Y0187369D02*
X0201872Y0187369D01*
X0201872Y0188568D02*
X0014508Y0188568D01*
X0014508Y0189766D02*
X0201872Y0189766D01*
X0201872Y0190965D02*
X0014508Y0190965D01*
X0113433Y0044746D02*
X0113813Y0044746D01*
X0113433Y0043548D02*
X0115056Y0043548D01*
X0113433Y0042349D02*
X0145078Y0042349D01*
X0144233Y0039100D02*
X0144233Y0019100D01*
X0112607Y0013585D02*
X0105859Y0013585D01*
X0107228Y0014784D02*
X0111239Y0014784D01*
X0110742Y0015982D02*
X0107724Y0015982D01*
X0107733Y0017181D02*
X0110733Y0017181D01*
X0110733Y0018379D02*
X0107733Y0018379D01*
X0107733Y0019578D02*
X0110733Y0019578D01*
X0110733Y0020776D02*
X0107733Y0020776D01*
X0107733Y0021975D02*
X0110733Y0021975D01*
X0111138Y0023173D02*
X0107329Y0023173D01*
X0106311Y0024372D02*
X0112155Y0024372D01*
D11*
X0182433Y0016600D02*
X0182435Y0016767D01*
X0182441Y0016934D01*
X0182451Y0017100D01*
X0182466Y0017267D01*
X0182484Y0017432D01*
X0182507Y0017598D01*
X0182533Y0017763D01*
X0182564Y0017927D01*
X0182598Y0018090D01*
X0182637Y0018252D01*
X0182679Y0018414D01*
X0182726Y0018574D01*
X0182776Y0018733D01*
X0182831Y0018891D01*
X0182889Y0019047D01*
X0182951Y0019202D01*
X0183016Y0019356D01*
X0183086Y0019507D01*
X0183159Y0019657D01*
X0183236Y0019805D01*
X0183316Y0019952D01*
X0183400Y0020096D01*
X0183488Y0020238D01*
X0183579Y0020378D01*
X0183673Y0020515D01*
X0183771Y0020651D01*
X0183872Y0020784D01*
X0183977Y0020914D01*
X0184084Y0021042D01*
X0184195Y0021167D01*
X0184308Y0021289D01*
X0184425Y0021408D01*
X0184544Y0021525D01*
X0184666Y0021638D01*
X0184791Y0021749D01*
X0184919Y0021856D01*
X0185049Y0021961D01*
X0185182Y0022062D01*
X0185318Y0022160D01*
X0185455Y0022254D01*
X0185595Y0022345D01*
X0185737Y0022433D01*
X0185881Y0022517D01*
X0186028Y0022597D01*
X0186176Y0022674D01*
X0186326Y0022747D01*
X0186477Y0022817D01*
X0186631Y0022882D01*
X0186786Y0022944D01*
X0186942Y0023002D01*
X0187100Y0023057D01*
X0187259Y0023107D01*
X0187419Y0023154D01*
X0187581Y0023196D01*
X0187743Y0023235D01*
X0187906Y0023269D01*
X0188070Y0023300D01*
X0188235Y0023326D01*
X0188401Y0023349D01*
X0188566Y0023367D01*
X0188733Y0023382D01*
X0188899Y0023392D01*
X0189066Y0023398D01*
X0189233Y0023400D01*
X0189400Y0023398D01*
X0189567Y0023392D01*
X0189733Y0023382D01*
X0189900Y0023367D01*
X0190065Y0023349D01*
X0190231Y0023326D01*
X0190396Y0023300D01*
X0190560Y0023269D01*
X0190723Y0023235D01*
X0190885Y0023196D01*
X0191047Y0023154D01*
X0191207Y0023107D01*
X0191366Y0023057D01*
X0191524Y0023002D01*
X0191680Y0022944D01*
X0191835Y0022882D01*
X0191989Y0022817D01*
X0192140Y0022747D01*
X0192290Y0022674D01*
X0192438Y0022597D01*
X0192585Y0022517D01*
X0192729Y0022433D01*
X0192871Y0022345D01*
X0193011Y0022254D01*
X0193148Y0022160D01*
X0193284Y0022062D01*
X0193417Y0021961D01*
X0193547Y0021856D01*
X0193675Y0021749D01*
X0193800Y0021638D01*
X0193922Y0021525D01*
X0194041Y0021408D01*
X0194158Y0021289D01*
X0194271Y0021167D01*
X0194382Y0021042D01*
X0194489Y0020914D01*
X0194594Y0020784D01*
X0194695Y0020651D01*
X0194793Y0020515D01*
X0194887Y0020378D01*
X0194978Y0020238D01*
X0195066Y0020096D01*
X0195150Y0019952D01*
X0195230Y0019805D01*
X0195307Y0019657D01*
X0195380Y0019507D01*
X0195450Y0019356D01*
X0195515Y0019202D01*
X0195577Y0019047D01*
X0195635Y0018891D01*
X0195690Y0018733D01*
X0195740Y0018574D01*
X0195787Y0018414D01*
X0195829Y0018252D01*
X0195868Y0018090D01*
X0195902Y0017927D01*
X0195933Y0017763D01*
X0195959Y0017598D01*
X0195982Y0017432D01*
X0196000Y0017267D01*
X0196015Y0017100D01*
X0196025Y0016934D01*
X0196031Y0016767D01*
X0196033Y0016600D01*
X0196031Y0016433D01*
X0196025Y0016266D01*
X0196015Y0016100D01*
X0196000Y0015933D01*
X0195982Y0015768D01*
X0195959Y0015602D01*
X0195933Y0015437D01*
X0195902Y0015273D01*
X0195868Y0015110D01*
X0195829Y0014948D01*
X0195787Y0014786D01*
X0195740Y0014626D01*
X0195690Y0014467D01*
X0195635Y0014309D01*
X0195577Y0014153D01*
X0195515Y0013998D01*
X0195450Y0013844D01*
X0195380Y0013693D01*
X0195307Y0013543D01*
X0195230Y0013395D01*
X0195150Y0013248D01*
X0195066Y0013104D01*
X0194978Y0012962D01*
X0194887Y0012822D01*
X0194793Y0012685D01*
X0194695Y0012549D01*
X0194594Y0012416D01*
X0194489Y0012286D01*
X0194382Y0012158D01*
X0194271Y0012033D01*
X0194158Y0011911D01*
X0194041Y0011792D01*
X0193922Y0011675D01*
X0193800Y0011562D01*
X0193675Y0011451D01*
X0193547Y0011344D01*
X0193417Y0011239D01*
X0193284Y0011138D01*
X0193148Y0011040D01*
X0193011Y0010946D01*
X0192871Y0010855D01*
X0192729Y0010767D01*
X0192585Y0010683D01*
X0192438Y0010603D01*
X0192290Y0010526D01*
X0192140Y0010453D01*
X0191989Y0010383D01*
X0191835Y0010318D01*
X0191680Y0010256D01*
X0191524Y0010198D01*
X0191366Y0010143D01*
X0191207Y0010093D01*
X0191047Y0010046D01*
X0190885Y0010004D01*
X0190723Y0009965D01*
X0190560Y0009931D01*
X0190396Y0009900D01*
X0190231Y0009874D01*
X0190065Y0009851D01*
X0189900Y0009833D01*
X0189733Y0009818D01*
X0189567Y0009808D01*
X0189400Y0009802D01*
X0189233Y0009800D01*
X0189066Y0009802D01*
X0188899Y0009808D01*
X0188733Y0009818D01*
X0188566Y0009833D01*
X0188401Y0009851D01*
X0188235Y0009874D01*
X0188070Y0009900D01*
X0187906Y0009931D01*
X0187743Y0009965D01*
X0187581Y0010004D01*
X0187419Y0010046D01*
X0187259Y0010093D01*
X0187100Y0010143D01*
X0186942Y0010198D01*
X0186786Y0010256D01*
X0186631Y0010318D01*
X0186477Y0010383D01*
X0186326Y0010453D01*
X0186176Y0010526D01*
X0186028Y0010603D01*
X0185881Y0010683D01*
X0185737Y0010767D01*
X0185595Y0010855D01*
X0185455Y0010946D01*
X0185318Y0011040D01*
X0185182Y0011138D01*
X0185049Y0011239D01*
X0184919Y0011344D01*
X0184791Y0011451D01*
X0184666Y0011562D01*
X0184544Y0011675D01*
X0184425Y0011792D01*
X0184308Y0011911D01*
X0184195Y0012033D01*
X0184084Y0012158D01*
X0183977Y0012286D01*
X0183872Y0012416D01*
X0183771Y0012549D01*
X0183673Y0012685D01*
X0183579Y0012822D01*
X0183488Y0012962D01*
X0183400Y0013104D01*
X0183316Y0013248D01*
X0183236Y0013395D01*
X0183159Y0013543D01*
X0183086Y0013693D01*
X0183016Y0013844D01*
X0182951Y0013998D01*
X0182889Y0014153D01*
X0182831Y0014309D01*
X0182776Y0014467D01*
X0182726Y0014626D01*
X0182679Y0014786D01*
X0182637Y0014948D01*
X0182598Y0015110D01*
X0182564Y0015273D01*
X0182533Y0015437D01*
X0182507Y0015602D01*
X0182484Y0015768D01*
X0182466Y0015933D01*
X0182451Y0016100D01*
X0182441Y0016266D01*
X0182435Y0016433D01*
X0182433Y0016600D01*
X0017433Y0014100D02*
X0017435Y0014267D01*
X0017441Y0014434D01*
X0017451Y0014600D01*
X0017466Y0014767D01*
X0017484Y0014932D01*
X0017507Y0015098D01*
X0017533Y0015263D01*
X0017564Y0015427D01*
X0017598Y0015590D01*
X0017637Y0015752D01*
X0017679Y0015914D01*
X0017726Y0016074D01*
X0017776Y0016233D01*
X0017831Y0016391D01*
X0017889Y0016547D01*
X0017951Y0016702D01*
X0018016Y0016856D01*
X0018086Y0017007D01*
X0018159Y0017157D01*
X0018236Y0017305D01*
X0018316Y0017452D01*
X0018400Y0017596D01*
X0018488Y0017738D01*
X0018579Y0017878D01*
X0018673Y0018015D01*
X0018771Y0018151D01*
X0018872Y0018284D01*
X0018977Y0018414D01*
X0019084Y0018542D01*
X0019195Y0018667D01*
X0019308Y0018789D01*
X0019425Y0018908D01*
X0019544Y0019025D01*
X0019666Y0019138D01*
X0019791Y0019249D01*
X0019919Y0019356D01*
X0020049Y0019461D01*
X0020182Y0019562D01*
X0020318Y0019660D01*
X0020455Y0019754D01*
X0020595Y0019845D01*
X0020737Y0019933D01*
X0020881Y0020017D01*
X0021028Y0020097D01*
X0021176Y0020174D01*
X0021326Y0020247D01*
X0021477Y0020317D01*
X0021631Y0020382D01*
X0021786Y0020444D01*
X0021942Y0020502D01*
X0022100Y0020557D01*
X0022259Y0020607D01*
X0022419Y0020654D01*
X0022581Y0020696D01*
X0022743Y0020735D01*
X0022906Y0020769D01*
X0023070Y0020800D01*
X0023235Y0020826D01*
X0023401Y0020849D01*
X0023566Y0020867D01*
X0023733Y0020882D01*
X0023899Y0020892D01*
X0024066Y0020898D01*
X0024233Y0020900D01*
X0024400Y0020898D01*
X0024567Y0020892D01*
X0024733Y0020882D01*
X0024900Y0020867D01*
X0025065Y0020849D01*
X0025231Y0020826D01*
X0025396Y0020800D01*
X0025560Y0020769D01*
X0025723Y0020735D01*
X0025885Y0020696D01*
X0026047Y0020654D01*
X0026207Y0020607D01*
X0026366Y0020557D01*
X0026524Y0020502D01*
X0026680Y0020444D01*
X0026835Y0020382D01*
X0026989Y0020317D01*
X0027140Y0020247D01*
X0027290Y0020174D01*
X0027438Y0020097D01*
X0027585Y0020017D01*
X0027729Y0019933D01*
X0027871Y0019845D01*
X0028011Y0019754D01*
X0028148Y0019660D01*
X0028284Y0019562D01*
X0028417Y0019461D01*
X0028547Y0019356D01*
X0028675Y0019249D01*
X0028800Y0019138D01*
X0028922Y0019025D01*
X0029041Y0018908D01*
X0029158Y0018789D01*
X0029271Y0018667D01*
X0029382Y0018542D01*
X0029489Y0018414D01*
X0029594Y0018284D01*
X0029695Y0018151D01*
X0029793Y0018015D01*
X0029887Y0017878D01*
X0029978Y0017738D01*
X0030066Y0017596D01*
X0030150Y0017452D01*
X0030230Y0017305D01*
X0030307Y0017157D01*
X0030380Y0017007D01*
X0030450Y0016856D01*
X0030515Y0016702D01*
X0030577Y0016547D01*
X0030635Y0016391D01*
X0030690Y0016233D01*
X0030740Y0016074D01*
X0030787Y0015914D01*
X0030829Y0015752D01*
X0030868Y0015590D01*
X0030902Y0015427D01*
X0030933Y0015263D01*
X0030959Y0015098D01*
X0030982Y0014932D01*
X0031000Y0014767D01*
X0031015Y0014600D01*
X0031025Y0014434D01*
X0031031Y0014267D01*
X0031033Y0014100D01*
X0031031Y0013933D01*
X0031025Y0013766D01*
X0031015Y0013600D01*
X0031000Y0013433D01*
X0030982Y0013268D01*
X0030959Y0013102D01*
X0030933Y0012937D01*
X0030902Y0012773D01*
X0030868Y0012610D01*
X0030829Y0012448D01*
X0030787Y0012286D01*
X0030740Y0012126D01*
X0030690Y0011967D01*
X0030635Y0011809D01*
X0030577Y0011653D01*
X0030515Y0011498D01*
X0030450Y0011344D01*
X0030380Y0011193D01*
X0030307Y0011043D01*
X0030230Y0010895D01*
X0030150Y0010748D01*
X0030066Y0010604D01*
X0029978Y0010462D01*
X0029887Y0010322D01*
X0029793Y0010185D01*
X0029695Y0010049D01*
X0029594Y0009916D01*
X0029489Y0009786D01*
X0029382Y0009658D01*
X0029271Y0009533D01*
X0029158Y0009411D01*
X0029041Y0009292D01*
X0028922Y0009175D01*
X0028800Y0009062D01*
X0028675Y0008951D01*
X0028547Y0008844D01*
X0028417Y0008739D01*
X0028284Y0008638D01*
X0028148Y0008540D01*
X0028011Y0008446D01*
X0027871Y0008355D01*
X0027729Y0008267D01*
X0027585Y0008183D01*
X0027438Y0008103D01*
X0027290Y0008026D01*
X0027140Y0007953D01*
X0026989Y0007883D01*
X0026835Y0007818D01*
X0026680Y0007756D01*
X0026524Y0007698D01*
X0026366Y0007643D01*
X0026207Y0007593D01*
X0026047Y0007546D01*
X0025885Y0007504D01*
X0025723Y0007465D01*
X0025560Y0007431D01*
X0025396Y0007400D01*
X0025231Y0007374D01*
X0025065Y0007351D01*
X0024900Y0007333D01*
X0024733Y0007318D01*
X0024567Y0007308D01*
X0024400Y0007302D01*
X0024233Y0007300D01*
X0024066Y0007302D01*
X0023899Y0007308D01*
X0023733Y0007318D01*
X0023566Y0007333D01*
X0023401Y0007351D01*
X0023235Y0007374D01*
X0023070Y0007400D01*
X0022906Y0007431D01*
X0022743Y0007465D01*
X0022581Y0007504D01*
X0022419Y0007546D01*
X0022259Y0007593D01*
X0022100Y0007643D01*
X0021942Y0007698D01*
X0021786Y0007756D01*
X0021631Y0007818D01*
X0021477Y0007883D01*
X0021326Y0007953D01*
X0021176Y0008026D01*
X0021028Y0008103D01*
X0020881Y0008183D01*
X0020737Y0008267D01*
X0020595Y0008355D01*
X0020455Y0008446D01*
X0020318Y0008540D01*
X0020182Y0008638D01*
X0020049Y0008739D01*
X0019919Y0008844D01*
X0019791Y0008951D01*
X0019666Y0009062D01*
X0019544Y0009175D01*
X0019425Y0009292D01*
X0019308Y0009411D01*
X0019195Y0009533D01*
X0019084Y0009658D01*
X0018977Y0009786D01*
X0018872Y0009916D01*
X0018771Y0010049D01*
X0018673Y0010185D01*
X0018579Y0010322D01*
X0018488Y0010462D01*
X0018400Y0010604D01*
X0018316Y0010748D01*
X0018236Y0010895D01*
X0018159Y0011043D01*
X0018086Y0011193D01*
X0018016Y0011344D01*
X0017951Y0011498D01*
X0017889Y0011653D01*
X0017831Y0011809D01*
X0017776Y0011967D01*
X0017726Y0012126D01*
X0017679Y0012286D01*
X0017637Y0012448D01*
X0017598Y0012610D01*
X0017564Y0012773D01*
X0017533Y0012937D01*
X0017507Y0013102D01*
X0017484Y0013268D01*
X0017466Y0013433D01*
X0017451Y0013600D01*
X0017441Y0013766D01*
X0017435Y0013933D01*
X0017433Y0014100D01*
X0019933Y0179100D02*
X0019935Y0179267D01*
X0019941Y0179434D01*
X0019951Y0179600D01*
X0019966Y0179767D01*
X0019984Y0179932D01*
X0020007Y0180098D01*
X0020033Y0180263D01*
X0020064Y0180427D01*
X0020098Y0180590D01*
X0020137Y0180752D01*
X0020179Y0180914D01*
X0020226Y0181074D01*
X0020276Y0181233D01*
X0020331Y0181391D01*
X0020389Y0181547D01*
X0020451Y0181702D01*
X0020516Y0181856D01*
X0020586Y0182007D01*
X0020659Y0182157D01*
X0020736Y0182305D01*
X0020816Y0182452D01*
X0020900Y0182596D01*
X0020988Y0182738D01*
X0021079Y0182878D01*
X0021173Y0183015D01*
X0021271Y0183151D01*
X0021372Y0183284D01*
X0021477Y0183414D01*
X0021584Y0183542D01*
X0021695Y0183667D01*
X0021808Y0183789D01*
X0021925Y0183908D01*
X0022044Y0184025D01*
X0022166Y0184138D01*
X0022291Y0184249D01*
X0022419Y0184356D01*
X0022549Y0184461D01*
X0022682Y0184562D01*
X0022818Y0184660D01*
X0022955Y0184754D01*
X0023095Y0184845D01*
X0023237Y0184933D01*
X0023381Y0185017D01*
X0023528Y0185097D01*
X0023676Y0185174D01*
X0023826Y0185247D01*
X0023977Y0185317D01*
X0024131Y0185382D01*
X0024286Y0185444D01*
X0024442Y0185502D01*
X0024600Y0185557D01*
X0024759Y0185607D01*
X0024919Y0185654D01*
X0025081Y0185696D01*
X0025243Y0185735D01*
X0025406Y0185769D01*
X0025570Y0185800D01*
X0025735Y0185826D01*
X0025901Y0185849D01*
X0026066Y0185867D01*
X0026233Y0185882D01*
X0026399Y0185892D01*
X0026566Y0185898D01*
X0026733Y0185900D01*
X0026900Y0185898D01*
X0027067Y0185892D01*
X0027233Y0185882D01*
X0027400Y0185867D01*
X0027565Y0185849D01*
X0027731Y0185826D01*
X0027896Y0185800D01*
X0028060Y0185769D01*
X0028223Y0185735D01*
X0028385Y0185696D01*
X0028547Y0185654D01*
X0028707Y0185607D01*
X0028866Y0185557D01*
X0029024Y0185502D01*
X0029180Y0185444D01*
X0029335Y0185382D01*
X0029489Y0185317D01*
X0029640Y0185247D01*
X0029790Y0185174D01*
X0029938Y0185097D01*
X0030085Y0185017D01*
X0030229Y0184933D01*
X0030371Y0184845D01*
X0030511Y0184754D01*
X0030648Y0184660D01*
X0030784Y0184562D01*
X0030917Y0184461D01*
X0031047Y0184356D01*
X0031175Y0184249D01*
X0031300Y0184138D01*
X0031422Y0184025D01*
X0031541Y0183908D01*
X0031658Y0183789D01*
X0031771Y0183667D01*
X0031882Y0183542D01*
X0031989Y0183414D01*
X0032094Y0183284D01*
X0032195Y0183151D01*
X0032293Y0183015D01*
X0032387Y0182878D01*
X0032478Y0182738D01*
X0032566Y0182596D01*
X0032650Y0182452D01*
X0032730Y0182305D01*
X0032807Y0182157D01*
X0032880Y0182007D01*
X0032950Y0181856D01*
X0033015Y0181702D01*
X0033077Y0181547D01*
X0033135Y0181391D01*
X0033190Y0181233D01*
X0033240Y0181074D01*
X0033287Y0180914D01*
X0033329Y0180752D01*
X0033368Y0180590D01*
X0033402Y0180427D01*
X0033433Y0180263D01*
X0033459Y0180098D01*
X0033482Y0179932D01*
X0033500Y0179767D01*
X0033515Y0179600D01*
X0033525Y0179434D01*
X0033531Y0179267D01*
X0033533Y0179100D01*
X0033531Y0178933D01*
X0033525Y0178766D01*
X0033515Y0178600D01*
X0033500Y0178433D01*
X0033482Y0178268D01*
X0033459Y0178102D01*
X0033433Y0177937D01*
X0033402Y0177773D01*
X0033368Y0177610D01*
X0033329Y0177448D01*
X0033287Y0177286D01*
X0033240Y0177126D01*
X0033190Y0176967D01*
X0033135Y0176809D01*
X0033077Y0176653D01*
X0033015Y0176498D01*
X0032950Y0176344D01*
X0032880Y0176193D01*
X0032807Y0176043D01*
X0032730Y0175895D01*
X0032650Y0175748D01*
X0032566Y0175604D01*
X0032478Y0175462D01*
X0032387Y0175322D01*
X0032293Y0175185D01*
X0032195Y0175049D01*
X0032094Y0174916D01*
X0031989Y0174786D01*
X0031882Y0174658D01*
X0031771Y0174533D01*
X0031658Y0174411D01*
X0031541Y0174292D01*
X0031422Y0174175D01*
X0031300Y0174062D01*
X0031175Y0173951D01*
X0031047Y0173844D01*
X0030917Y0173739D01*
X0030784Y0173638D01*
X0030648Y0173540D01*
X0030511Y0173446D01*
X0030371Y0173355D01*
X0030229Y0173267D01*
X0030085Y0173183D01*
X0029938Y0173103D01*
X0029790Y0173026D01*
X0029640Y0172953D01*
X0029489Y0172883D01*
X0029335Y0172818D01*
X0029180Y0172756D01*
X0029024Y0172698D01*
X0028866Y0172643D01*
X0028707Y0172593D01*
X0028547Y0172546D01*
X0028385Y0172504D01*
X0028223Y0172465D01*
X0028060Y0172431D01*
X0027896Y0172400D01*
X0027731Y0172374D01*
X0027565Y0172351D01*
X0027400Y0172333D01*
X0027233Y0172318D01*
X0027067Y0172308D01*
X0026900Y0172302D01*
X0026733Y0172300D01*
X0026566Y0172302D01*
X0026399Y0172308D01*
X0026233Y0172318D01*
X0026066Y0172333D01*
X0025901Y0172351D01*
X0025735Y0172374D01*
X0025570Y0172400D01*
X0025406Y0172431D01*
X0025243Y0172465D01*
X0025081Y0172504D01*
X0024919Y0172546D01*
X0024759Y0172593D01*
X0024600Y0172643D01*
X0024442Y0172698D01*
X0024286Y0172756D01*
X0024131Y0172818D01*
X0023977Y0172883D01*
X0023826Y0172953D01*
X0023676Y0173026D01*
X0023528Y0173103D01*
X0023381Y0173183D01*
X0023237Y0173267D01*
X0023095Y0173355D01*
X0022955Y0173446D01*
X0022818Y0173540D01*
X0022682Y0173638D01*
X0022549Y0173739D01*
X0022419Y0173844D01*
X0022291Y0173951D01*
X0022166Y0174062D01*
X0022044Y0174175D01*
X0021925Y0174292D01*
X0021808Y0174411D01*
X0021695Y0174533D01*
X0021584Y0174658D01*
X0021477Y0174786D01*
X0021372Y0174916D01*
X0021271Y0175049D01*
X0021173Y0175185D01*
X0021079Y0175322D01*
X0020988Y0175462D01*
X0020900Y0175604D01*
X0020816Y0175748D01*
X0020736Y0175895D01*
X0020659Y0176043D01*
X0020586Y0176193D01*
X0020516Y0176344D01*
X0020451Y0176498D01*
X0020389Y0176653D01*
X0020331Y0176809D01*
X0020276Y0176967D01*
X0020226Y0177126D01*
X0020179Y0177286D01*
X0020137Y0177448D01*
X0020098Y0177610D01*
X0020064Y0177773D01*
X0020033Y0177937D01*
X0020007Y0178102D01*
X0019984Y0178268D01*
X0019966Y0178433D01*
X0019951Y0178600D01*
X0019941Y0178766D01*
X0019935Y0178933D01*
X0019933Y0179100D01*
X0179933Y0179100D02*
X0179935Y0179267D01*
X0179941Y0179434D01*
X0179951Y0179600D01*
X0179966Y0179767D01*
X0179984Y0179932D01*
X0180007Y0180098D01*
X0180033Y0180263D01*
X0180064Y0180427D01*
X0180098Y0180590D01*
X0180137Y0180752D01*
X0180179Y0180914D01*
X0180226Y0181074D01*
X0180276Y0181233D01*
X0180331Y0181391D01*
X0180389Y0181547D01*
X0180451Y0181702D01*
X0180516Y0181856D01*
X0180586Y0182007D01*
X0180659Y0182157D01*
X0180736Y0182305D01*
X0180816Y0182452D01*
X0180900Y0182596D01*
X0180988Y0182738D01*
X0181079Y0182878D01*
X0181173Y0183015D01*
X0181271Y0183151D01*
X0181372Y0183284D01*
X0181477Y0183414D01*
X0181584Y0183542D01*
X0181695Y0183667D01*
X0181808Y0183789D01*
X0181925Y0183908D01*
X0182044Y0184025D01*
X0182166Y0184138D01*
X0182291Y0184249D01*
X0182419Y0184356D01*
X0182549Y0184461D01*
X0182682Y0184562D01*
X0182818Y0184660D01*
X0182955Y0184754D01*
X0183095Y0184845D01*
X0183237Y0184933D01*
X0183381Y0185017D01*
X0183528Y0185097D01*
X0183676Y0185174D01*
X0183826Y0185247D01*
X0183977Y0185317D01*
X0184131Y0185382D01*
X0184286Y0185444D01*
X0184442Y0185502D01*
X0184600Y0185557D01*
X0184759Y0185607D01*
X0184919Y0185654D01*
X0185081Y0185696D01*
X0185243Y0185735D01*
X0185406Y0185769D01*
X0185570Y0185800D01*
X0185735Y0185826D01*
X0185901Y0185849D01*
X0186066Y0185867D01*
X0186233Y0185882D01*
X0186399Y0185892D01*
X0186566Y0185898D01*
X0186733Y0185900D01*
X0186900Y0185898D01*
X0187067Y0185892D01*
X0187233Y0185882D01*
X0187400Y0185867D01*
X0187565Y0185849D01*
X0187731Y0185826D01*
X0187896Y0185800D01*
X0188060Y0185769D01*
X0188223Y0185735D01*
X0188385Y0185696D01*
X0188547Y0185654D01*
X0188707Y0185607D01*
X0188866Y0185557D01*
X0189024Y0185502D01*
X0189180Y0185444D01*
X0189335Y0185382D01*
X0189489Y0185317D01*
X0189640Y0185247D01*
X0189790Y0185174D01*
X0189938Y0185097D01*
X0190085Y0185017D01*
X0190229Y0184933D01*
X0190371Y0184845D01*
X0190511Y0184754D01*
X0190648Y0184660D01*
X0190784Y0184562D01*
X0190917Y0184461D01*
X0191047Y0184356D01*
X0191175Y0184249D01*
X0191300Y0184138D01*
X0191422Y0184025D01*
X0191541Y0183908D01*
X0191658Y0183789D01*
X0191771Y0183667D01*
X0191882Y0183542D01*
X0191989Y0183414D01*
X0192094Y0183284D01*
X0192195Y0183151D01*
X0192293Y0183015D01*
X0192387Y0182878D01*
X0192478Y0182738D01*
X0192566Y0182596D01*
X0192650Y0182452D01*
X0192730Y0182305D01*
X0192807Y0182157D01*
X0192880Y0182007D01*
X0192950Y0181856D01*
X0193015Y0181702D01*
X0193077Y0181547D01*
X0193135Y0181391D01*
X0193190Y0181233D01*
X0193240Y0181074D01*
X0193287Y0180914D01*
X0193329Y0180752D01*
X0193368Y0180590D01*
X0193402Y0180427D01*
X0193433Y0180263D01*
X0193459Y0180098D01*
X0193482Y0179932D01*
X0193500Y0179767D01*
X0193515Y0179600D01*
X0193525Y0179434D01*
X0193531Y0179267D01*
X0193533Y0179100D01*
X0193531Y0178933D01*
X0193525Y0178766D01*
X0193515Y0178600D01*
X0193500Y0178433D01*
X0193482Y0178268D01*
X0193459Y0178102D01*
X0193433Y0177937D01*
X0193402Y0177773D01*
X0193368Y0177610D01*
X0193329Y0177448D01*
X0193287Y0177286D01*
X0193240Y0177126D01*
X0193190Y0176967D01*
X0193135Y0176809D01*
X0193077Y0176653D01*
X0193015Y0176498D01*
X0192950Y0176344D01*
X0192880Y0176193D01*
X0192807Y0176043D01*
X0192730Y0175895D01*
X0192650Y0175748D01*
X0192566Y0175604D01*
X0192478Y0175462D01*
X0192387Y0175322D01*
X0192293Y0175185D01*
X0192195Y0175049D01*
X0192094Y0174916D01*
X0191989Y0174786D01*
X0191882Y0174658D01*
X0191771Y0174533D01*
X0191658Y0174411D01*
X0191541Y0174292D01*
X0191422Y0174175D01*
X0191300Y0174062D01*
X0191175Y0173951D01*
X0191047Y0173844D01*
X0190917Y0173739D01*
X0190784Y0173638D01*
X0190648Y0173540D01*
X0190511Y0173446D01*
X0190371Y0173355D01*
X0190229Y0173267D01*
X0190085Y0173183D01*
X0189938Y0173103D01*
X0189790Y0173026D01*
X0189640Y0172953D01*
X0189489Y0172883D01*
X0189335Y0172818D01*
X0189180Y0172756D01*
X0189024Y0172698D01*
X0188866Y0172643D01*
X0188707Y0172593D01*
X0188547Y0172546D01*
X0188385Y0172504D01*
X0188223Y0172465D01*
X0188060Y0172431D01*
X0187896Y0172400D01*
X0187731Y0172374D01*
X0187565Y0172351D01*
X0187400Y0172333D01*
X0187233Y0172318D01*
X0187067Y0172308D01*
X0186900Y0172302D01*
X0186733Y0172300D01*
X0186566Y0172302D01*
X0186399Y0172308D01*
X0186233Y0172318D01*
X0186066Y0172333D01*
X0185901Y0172351D01*
X0185735Y0172374D01*
X0185570Y0172400D01*
X0185406Y0172431D01*
X0185243Y0172465D01*
X0185081Y0172504D01*
X0184919Y0172546D01*
X0184759Y0172593D01*
X0184600Y0172643D01*
X0184442Y0172698D01*
X0184286Y0172756D01*
X0184131Y0172818D01*
X0183977Y0172883D01*
X0183826Y0172953D01*
X0183676Y0173026D01*
X0183528Y0173103D01*
X0183381Y0173183D01*
X0183237Y0173267D01*
X0183095Y0173355D01*
X0182955Y0173446D01*
X0182818Y0173540D01*
X0182682Y0173638D01*
X0182549Y0173739D01*
X0182419Y0173844D01*
X0182291Y0173951D01*
X0182166Y0174062D01*
X0182044Y0174175D01*
X0181925Y0174292D01*
X0181808Y0174411D01*
X0181695Y0174533D01*
X0181584Y0174658D01*
X0181477Y0174786D01*
X0181372Y0174916D01*
X0181271Y0175049D01*
X0181173Y0175185D01*
X0181079Y0175322D01*
X0180988Y0175462D01*
X0180900Y0175604D01*
X0180816Y0175748D01*
X0180736Y0175895D01*
X0180659Y0176043D01*
X0180586Y0176193D01*
X0180516Y0176344D01*
X0180451Y0176498D01*
X0180389Y0176653D01*
X0180331Y0176809D01*
X0180276Y0176967D01*
X0180226Y0177126D01*
X0180179Y0177286D01*
X0180137Y0177448D01*
X0180098Y0177610D01*
X0180064Y0177773D01*
X0180033Y0177937D01*
X0180007Y0178102D01*
X0179984Y0178268D01*
X0179966Y0178433D01*
X0179951Y0178600D01*
X0179941Y0178766D01*
X0179935Y0178933D01*
X0179933Y0179100D01*
D12*
X0162233Y0146600D03*
X0161233Y0136600D03*
X0162233Y0126600D03*
X0161233Y0116600D03*
X0162233Y0106600D03*
X0161233Y0096600D03*
X0162233Y0086600D03*
X0161233Y0076600D03*
X0162233Y0066600D03*
X0161233Y0056600D03*
X0162233Y0046600D03*
X0161233Y0036600D03*
X0052233Y0046600D03*
X0051233Y0036600D03*
X0051233Y0056600D03*
X0052233Y0066600D03*
X0051233Y0076600D03*
X0052233Y0086600D03*
X0051233Y0096600D03*
X0052233Y0106600D03*
X0051233Y0116600D03*
X0052233Y0126600D03*
X0051233Y0136600D03*
X0052233Y0146600D03*
D13*
X0064233Y0156700D02*
X0064233Y0161500D01*
X0074233Y0161500D02*
X0074233Y0156700D01*
X0084233Y0156700D02*
X0084233Y0161500D01*
X0094233Y0161500D02*
X0094233Y0156700D01*
X0104233Y0156700D02*
X0104233Y0161500D01*
X0114233Y0161500D02*
X0114233Y0156700D01*
X0124233Y0156700D02*
X0124233Y0161500D01*
X0134233Y0161500D02*
X0134233Y0156700D01*
X0144233Y0156700D02*
X0144233Y0161500D01*
X0121633Y0106600D02*
X0116833Y0106600D01*
X0116833Y0096600D02*
X0121633Y0096600D01*
X0121633Y0086600D02*
X0116833Y0086600D01*
X0116833Y0076600D02*
X0121633Y0076600D01*
X0121633Y0066600D02*
X0116833Y0066600D01*
X0116833Y0056600D02*
X0121633Y0056600D01*
X0121633Y0046600D02*
X0116833Y0046600D01*
X0091633Y0046600D02*
X0086833Y0046600D01*
X0086833Y0056600D02*
X0091633Y0056600D01*
X0091633Y0066600D02*
X0086833Y0066600D01*
X0086833Y0076600D02*
X0091633Y0076600D01*
X0091633Y0086600D02*
X0086833Y0086600D01*
X0086833Y0096600D02*
X0091633Y0096600D01*
X0091633Y0106600D02*
X0086833Y0106600D01*
X0084233Y0021500D02*
X0084233Y0016700D01*
X0074233Y0016700D02*
X0074233Y0021500D01*
X0064233Y0021500D02*
X0064233Y0016700D01*
X0094233Y0016700D02*
X0094233Y0021500D01*
X0104233Y0021500D02*
X0104233Y0016700D01*
X0114233Y0016700D02*
X0114233Y0021500D01*
X0124233Y0021500D02*
X0124233Y0016700D01*
X0134233Y0016700D02*
X0134233Y0021500D01*
X0144233Y0021500D02*
X0144233Y0016700D01*
D14*
X0109233Y0121600D03*
X0099233Y0121600D03*
D15*
X0081733Y0181600D03*
D16*
X0095513Y0181600D03*
X0109292Y0181600D03*
X0123072Y0181600D03*
D17*
X0104233Y0144100D03*
D18*
X0104233Y0134100D03*
M02*
