G75*
%MOIN*%
%OFA0B0*%
%FSLAX25Y25*%
%IPPOS*%
%LPD*%
%AMOC8*
5,1,8,0,0,1.08239X$1,22.5*
%
%ADD10C,0.01200*%
%ADD11C,0.00000*%
%ADD12C,0.01000*%
%ADD13C,0.00700*%
%ADD14C,0.00200*%
%ADD15C,0.00500*%
%ADD16C,0.00300*%
D10*
X0011733Y0001600D02*
X0011733Y0194513D01*
X0204647Y0194513D01*
X0204647Y0001600D01*
X0011733Y0001600D01*
X0064733Y0168600D02*
X0066733Y0168600D01*
X0066733Y0172600D01*
X0066733Y0168600D02*
X0068733Y0168600D01*
X0066733Y0179100D02*
X0062733Y0179100D01*
X0063233Y0182100D02*
X0066733Y0185600D01*
D11*
X0019933Y0179100D02*
X0019935Y0179267D01*
X0019941Y0179434D01*
X0019951Y0179600D01*
X0019966Y0179767D01*
X0019984Y0179932D01*
X0020007Y0180098D01*
X0020033Y0180263D01*
X0020064Y0180427D01*
X0020098Y0180590D01*
X0020137Y0180752D01*
X0020179Y0180914D01*
X0020226Y0181074D01*
X0020276Y0181233D01*
X0020331Y0181391D01*
X0020389Y0181547D01*
X0020451Y0181702D01*
X0020516Y0181856D01*
X0020586Y0182007D01*
X0020659Y0182157D01*
X0020736Y0182305D01*
X0020816Y0182452D01*
X0020900Y0182596D01*
X0020988Y0182738D01*
X0021079Y0182878D01*
X0021173Y0183015D01*
X0021271Y0183151D01*
X0021372Y0183284D01*
X0021477Y0183414D01*
X0021584Y0183542D01*
X0021695Y0183667D01*
X0021808Y0183789D01*
X0021925Y0183908D01*
X0022044Y0184025D01*
X0022166Y0184138D01*
X0022291Y0184249D01*
X0022419Y0184356D01*
X0022549Y0184461D01*
X0022682Y0184562D01*
X0022818Y0184660D01*
X0022955Y0184754D01*
X0023095Y0184845D01*
X0023237Y0184933D01*
X0023381Y0185017D01*
X0023528Y0185097D01*
X0023676Y0185174D01*
X0023826Y0185247D01*
X0023977Y0185317D01*
X0024131Y0185382D01*
X0024286Y0185444D01*
X0024442Y0185502D01*
X0024600Y0185557D01*
X0024759Y0185607D01*
X0024919Y0185654D01*
X0025081Y0185696D01*
X0025243Y0185735D01*
X0025406Y0185769D01*
X0025570Y0185800D01*
X0025735Y0185826D01*
X0025901Y0185849D01*
X0026066Y0185867D01*
X0026233Y0185882D01*
X0026399Y0185892D01*
X0026566Y0185898D01*
X0026733Y0185900D01*
X0026900Y0185898D01*
X0027067Y0185892D01*
X0027233Y0185882D01*
X0027400Y0185867D01*
X0027565Y0185849D01*
X0027731Y0185826D01*
X0027896Y0185800D01*
X0028060Y0185769D01*
X0028223Y0185735D01*
X0028385Y0185696D01*
X0028547Y0185654D01*
X0028707Y0185607D01*
X0028866Y0185557D01*
X0029024Y0185502D01*
X0029180Y0185444D01*
X0029335Y0185382D01*
X0029489Y0185317D01*
X0029640Y0185247D01*
X0029790Y0185174D01*
X0029938Y0185097D01*
X0030085Y0185017D01*
X0030229Y0184933D01*
X0030371Y0184845D01*
X0030511Y0184754D01*
X0030648Y0184660D01*
X0030784Y0184562D01*
X0030917Y0184461D01*
X0031047Y0184356D01*
X0031175Y0184249D01*
X0031300Y0184138D01*
X0031422Y0184025D01*
X0031541Y0183908D01*
X0031658Y0183789D01*
X0031771Y0183667D01*
X0031882Y0183542D01*
X0031989Y0183414D01*
X0032094Y0183284D01*
X0032195Y0183151D01*
X0032293Y0183015D01*
X0032387Y0182878D01*
X0032478Y0182738D01*
X0032566Y0182596D01*
X0032650Y0182452D01*
X0032730Y0182305D01*
X0032807Y0182157D01*
X0032880Y0182007D01*
X0032950Y0181856D01*
X0033015Y0181702D01*
X0033077Y0181547D01*
X0033135Y0181391D01*
X0033190Y0181233D01*
X0033240Y0181074D01*
X0033287Y0180914D01*
X0033329Y0180752D01*
X0033368Y0180590D01*
X0033402Y0180427D01*
X0033433Y0180263D01*
X0033459Y0180098D01*
X0033482Y0179932D01*
X0033500Y0179767D01*
X0033515Y0179600D01*
X0033525Y0179434D01*
X0033531Y0179267D01*
X0033533Y0179100D01*
X0033531Y0178933D01*
X0033525Y0178766D01*
X0033515Y0178600D01*
X0033500Y0178433D01*
X0033482Y0178268D01*
X0033459Y0178102D01*
X0033433Y0177937D01*
X0033402Y0177773D01*
X0033368Y0177610D01*
X0033329Y0177448D01*
X0033287Y0177286D01*
X0033240Y0177126D01*
X0033190Y0176967D01*
X0033135Y0176809D01*
X0033077Y0176653D01*
X0033015Y0176498D01*
X0032950Y0176344D01*
X0032880Y0176193D01*
X0032807Y0176043D01*
X0032730Y0175895D01*
X0032650Y0175748D01*
X0032566Y0175604D01*
X0032478Y0175462D01*
X0032387Y0175322D01*
X0032293Y0175185D01*
X0032195Y0175049D01*
X0032094Y0174916D01*
X0031989Y0174786D01*
X0031882Y0174658D01*
X0031771Y0174533D01*
X0031658Y0174411D01*
X0031541Y0174292D01*
X0031422Y0174175D01*
X0031300Y0174062D01*
X0031175Y0173951D01*
X0031047Y0173844D01*
X0030917Y0173739D01*
X0030784Y0173638D01*
X0030648Y0173540D01*
X0030511Y0173446D01*
X0030371Y0173355D01*
X0030229Y0173267D01*
X0030085Y0173183D01*
X0029938Y0173103D01*
X0029790Y0173026D01*
X0029640Y0172953D01*
X0029489Y0172883D01*
X0029335Y0172818D01*
X0029180Y0172756D01*
X0029024Y0172698D01*
X0028866Y0172643D01*
X0028707Y0172593D01*
X0028547Y0172546D01*
X0028385Y0172504D01*
X0028223Y0172465D01*
X0028060Y0172431D01*
X0027896Y0172400D01*
X0027731Y0172374D01*
X0027565Y0172351D01*
X0027400Y0172333D01*
X0027233Y0172318D01*
X0027067Y0172308D01*
X0026900Y0172302D01*
X0026733Y0172300D01*
X0026566Y0172302D01*
X0026399Y0172308D01*
X0026233Y0172318D01*
X0026066Y0172333D01*
X0025901Y0172351D01*
X0025735Y0172374D01*
X0025570Y0172400D01*
X0025406Y0172431D01*
X0025243Y0172465D01*
X0025081Y0172504D01*
X0024919Y0172546D01*
X0024759Y0172593D01*
X0024600Y0172643D01*
X0024442Y0172698D01*
X0024286Y0172756D01*
X0024131Y0172818D01*
X0023977Y0172883D01*
X0023826Y0172953D01*
X0023676Y0173026D01*
X0023528Y0173103D01*
X0023381Y0173183D01*
X0023237Y0173267D01*
X0023095Y0173355D01*
X0022955Y0173446D01*
X0022818Y0173540D01*
X0022682Y0173638D01*
X0022549Y0173739D01*
X0022419Y0173844D01*
X0022291Y0173951D01*
X0022166Y0174062D01*
X0022044Y0174175D01*
X0021925Y0174292D01*
X0021808Y0174411D01*
X0021695Y0174533D01*
X0021584Y0174658D01*
X0021477Y0174786D01*
X0021372Y0174916D01*
X0021271Y0175049D01*
X0021173Y0175185D01*
X0021079Y0175322D01*
X0020988Y0175462D01*
X0020900Y0175604D01*
X0020816Y0175748D01*
X0020736Y0175895D01*
X0020659Y0176043D01*
X0020586Y0176193D01*
X0020516Y0176344D01*
X0020451Y0176498D01*
X0020389Y0176653D01*
X0020331Y0176809D01*
X0020276Y0176967D01*
X0020226Y0177126D01*
X0020179Y0177286D01*
X0020137Y0177448D01*
X0020098Y0177610D01*
X0020064Y0177773D01*
X0020033Y0177937D01*
X0020007Y0178102D01*
X0019984Y0178268D01*
X0019966Y0178433D01*
X0019951Y0178600D01*
X0019941Y0178766D01*
X0019935Y0178933D01*
X0019933Y0179100D01*
X0179933Y0179100D02*
X0179935Y0179267D01*
X0179941Y0179434D01*
X0179951Y0179600D01*
X0179966Y0179767D01*
X0179984Y0179932D01*
X0180007Y0180098D01*
X0180033Y0180263D01*
X0180064Y0180427D01*
X0180098Y0180590D01*
X0180137Y0180752D01*
X0180179Y0180914D01*
X0180226Y0181074D01*
X0180276Y0181233D01*
X0180331Y0181391D01*
X0180389Y0181547D01*
X0180451Y0181702D01*
X0180516Y0181856D01*
X0180586Y0182007D01*
X0180659Y0182157D01*
X0180736Y0182305D01*
X0180816Y0182452D01*
X0180900Y0182596D01*
X0180988Y0182738D01*
X0181079Y0182878D01*
X0181173Y0183015D01*
X0181271Y0183151D01*
X0181372Y0183284D01*
X0181477Y0183414D01*
X0181584Y0183542D01*
X0181695Y0183667D01*
X0181808Y0183789D01*
X0181925Y0183908D01*
X0182044Y0184025D01*
X0182166Y0184138D01*
X0182291Y0184249D01*
X0182419Y0184356D01*
X0182549Y0184461D01*
X0182682Y0184562D01*
X0182818Y0184660D01*
X0182955Y0184754D01*
X0183095Y0184845D01*
X0183237Y0184933D01*
X0183381Y0185017D01*
X0183528Y0185097D01*
X0183676Y0185174D01*
X0183826Y0185247D01*
X0183977Y0185317D01*
X0184131Y0185382D01*
X0184286Y0185444D01*
X0184442Y0185502D01*
X0184600Y0185557D01*
X0184759Y0185607D01*
X0184919Y0185654D01*
X0185081Y0185696D01*
X0185243Y0185735D01*
X0185406Y0185769D01*
X0185570Y0185800D01*
X0185735Y0185826D01*
X0185901Y0185849D01*
X0186066Y0185867D01*
X0186233Y0185882D01*
X0186399Y0185892D01*
X0186566Y0185898D01*
X0186733Y0185900D01*
X0186900Y0185898D01*
X0187067Y0185892D01*
X0187233Y0185882D01*
X0187400Y0185867D01*
X0187565Y0185849D01*
X0187731Y0185826D01*
X0187896Y0185800D01*
X0188060Y0185769D01*
X0188223Y0185735D01*
X0188385Y0185696D01*
X0188547Y0185654D01*
X0188707Y0185607D01*
X0188866Y0185557D01*
X0189024Y0185502D01*
X0189180Y0185444D01*
X0189335Y0185382D01*
X0189489Y0185317D01*
X0189640Y0185247D01*
X0189790Y0185174D01*
X0189938Y0185097D01*
X0190085Y0185017D01*
X0190229Y0184933D01*
X0190371Y0184845D01*
X0190511Y0184754D01*
X0190648Y0184660D01*
X0190784Y0184562D01*
X0190917Y0184461D01*
X0191047Y0184356D01*
X0191175Y0184249D01*
X0191300Y0184138D01*
X0191422Y0184025D01*
X0191541Y0183908D01*
X0191658Y0183789D01*
X0191771Y0183667D01*
X0191882Y0183542D01*
X0191989Y0183414D01*
X0192094Y0183284D01*
X0192195Y0183151D01*
X0192293Y0183015D01*
X0192387Y0182878D01*
X0192478Y0182738D01*
X0192566Y0182596D01*
X0192650Y0182452D01*
X0192730Y0182305D01*
X0192807Y0182157D01*
X0192880Y0182007D01*
X0192950Y0181856D01*
X0193015Y0181702D01*
X0193077Y0181547D01*
X0193135Y0181391D01*
X0193190Y0181233D01*
X0193240Y0181074D01*
X0193287Y0180914D01*
X0193329Y0180752D01*
X0193368Y0180590D01*
X0193402Y0180427D01*
X0193433Y0180263D01*
X0193459Y0180098D01*
X0193482Y0179932D01*
X0193500Y0179767D01*
X0193515Y0179600D01*
X0193525Y0179434D01*
X0193531Y0179267D01*
X0193533Y0179100D01*
X0193531Y0178933D01*
X0193525Y0178766D01*
X0193515Y0178600D01*
X0193500Y0178433D01*
X0193482Y0178268D01*
X0193459Y0178102D01*
X0193433Y0177937D01*
X0193402Y0177773D01*
X0193368Y0177610D01*
X0193329Y0177448D01*
X0193287Y0177286D01*
X0193240Y0177126D01*
X0193190Y0176967D01*
X0193135Y0176809D01*
X0193077Y0176653D01*
X0193015Y0176498D01*
X0192950Y0176344D01*
X0192880Y0176193D01*
X0192807Y0176043D01*
X0192730Y0175895D01*
X0192650Y0175748D01*
X0192566Y0175604D01*
X0192478Y0175462D01*
X0192387Y0175322D01*
X0192293Y0175185D01*
X0192195Y0175049D01*
X0192094Y0174916D01*
X0191989Y0174786D01*
X0191882Y0174658D01*
X0191771Y0174533D01*
X0191658Y0174411D01*
X0191541Y0174292D01*
X0191422Y0174175D01*
X0191300Y0174062D01*
X0191175Y0173951D01*
X0191047Y0173844D01*
X0190917Y0173739D01*
X0190784Y0173638D01*
X0190648Y0173540D01*
X0190511Y0173446D01*
X0190371Y0173355D01*
X0190229Y0173267D01*
X0190085Y0173183D01*
X0189938Y0173103D01*
X0189790Y0173026D01*
X0189640Y0172953D01*
X0189489Y0172883D01*
X0189335Y0172818D01*
X0189180Y0172756D01*
X0189024Y0172698D01*
X0188866Y0172643D01*
X0188707Y0172593D01*
X0188547Y0172546D01*
X0188385Y0172504D01*
X0188223Y0172465D01*
X0188060Y0172431D01*
X0187896Y0172400D01*
X0187731Y0172374D01*
X0187565Y0172351D01*
X0187400Y0172333D01*
X0187233Y0172318D01*
X0187067Y0172308D01*
X0186900Y0172302D01*
X0186733Y0172300D01*
X0186566Y0172302D01*
X0186399Y0172308D01*
X0186233Y0172318D01*
X0186066Y0172333D01*
X0185901Y0172351D01*
X0185735Y0172374D01*
X0185570Y0172400D01*
X0185406Y0172431D01*
X0185243Y0172465D01*
X0185081Y0172504D01*
X0184919Y0172546D01*
X0184759Y0172593D01*
X0184600Y0172643D01*
X0184442Y0172698D01*
X0184286Y0172756D01*
X0184131Y0172818D01*
X0183977Y0172883D01*
X0183826Y0172953D01*
X0183676Y0173026D01*
X0183528Y0173103D01*
X0183381Y0173183D01*
X0183237Y0173267D01*
X0183095Y0173355D01*
X0182955Y0173446D01*
X0182818Y0173540D01*
X0182682Y0173638D01*
X0182549Y0173739D01*
X0182419Y0173844D01*
X0182291Y0173951D01*
X0182166Y0174062D01*
X0182044Y0174175D01*
X0181925Y0174292D01*
X0181808Y0174411D01*
X0181695Y0174533D01*
X0181584Y0174658D01*
X0181477Y0174786D01*
X0181372Y0174916D01*
X0181271Y0175049D01*
X0181173Y0175185D01*
X0181079Y0175322D01*
X0180988Y0175462D01*
X0180900Y0175604D01*
X0180816Y0175748D01*
X0180736Y0175895D01*
X0180659Y0176043D01*
X0180586Y0176193D01*
X0180516Y0176344D01*
X0180451Y0176498D01*
X0180389Y0176653D01*
X0180331Y0176809D01*
X0180276Y0176967D01*
X0180226Y0177126D01*
X0180179Y0177286D01*
X0180137Y0177448D01*
X0180098Y0177610D01*
X0180064Y0177773D01*
X0180033Y0177937D01*
X0180007Y0178102D01*
X0179984Y0178268D01*
X0179966Y0178433D01*
X0179951Y0178600D01*
X0179941Y0178766D01*
X0179935Y0178933D01*
X0179933Y0179100D01*
X0182433Y0016600D02*
X0182435Y0016767D01*
X0182441Y0016934D01*
X0182451Y0017100D01*
X0182466Y0017267D01*
X0182484Y0017432D01*
X0182507Y0017598D01*
X0182533Y0017763D01*
X0182564Y0017927D01*
X0182598Y0018090D01*
X0182637Y0018252D01*
X0182679Y0018414D01*
X0182726Y0018574D01*
X0182776Y0018733D01*
X0182831Y0018891D01*
X0182889Y0019047D01*
X0182951Y0019202D01*
X0183016Y0019356D01*
X0183086Y0019507D01*
X0183159Y0019657D01*
X0183236Y0019805D01*
X0183316Y0019952D01*
X0183400Y0020096D01*
X0183488Y0020238D01*
X0183579Y0020378D01*
X0183673Y0020515D01*
X0183771Y0020651D01*
X0183872Y0020784D01*
X0183977Y0020914D01*
X0184084Y0021042D01*
X0184195Y0021167D01*
X0184308Y0021289D01*
X0184425Y0021408D01*
X0184544Y0021525D01*
X0184666Y0021638D01*
X0184791Y0021749D01*
X0184919Y0021856D01*
X0185049Y0021961D01*
X0185182Y0022062D01*
X0185318Y0022160D01*
X0185455Y0022254D01*
X0185595Y0022345D01*
X0185737Y0022433D01*
X0185881Y0022517D01*
X0186028Y0022597D01*
X0186176Y0022674D01*
X0186326Y0022747D01*
X0186477Y0022817D01*
X0186631Y0022882D01*
X0186786Y0022944D01*
X0186942Y0023002D01*
X0187100Y0023057D01*
X0187259Y0023107D01*
X0187419Y0023154D01*
X0187581Y0023196D01*
X0187743Y0023235D01*
X0187906Y0023269D01*
X0188070Y0023300D01*
X0188235Y0023326D01*
X0188401Y0023349D01*
X0188566Y0023367D01*
X0188733Y0023382D01*
X0188899Y0023392D01*
X0189066Y0023398D01*
X0189233Y0023400D01*
X0189400Y0023398D01*
X0189567Y0023392D01*
X0189733Y0023382D01*
X0189900Y0023367D01*
X0190065Y0023349D01*
X0190231Y0023326D01*
X0190396Y0023300D01*
X0190560Y0023269D01*
X0190723Y0023235D01*
X0190885Y0023196D01*
X0191047Y0023154D01*
X0191207Y0023107D01*
X0191366Y0023057D01*
X0191524Y0023002D01*
X0191680Y0022944D01*
X0191835Y0022882D01*
X0191989Y0022817D01*
X0192140Y0022747D01*
X0192290Y0022674D01*
X0192438Y0022597D01*
X0192585Y0022517D01*
X0192729Y0022433D01*
X0192871Y0022345D01*
X0193011Y0022254D01*
X0193148Y0022160D01*
X0193284Y0022062D01*
X0193417Y0021961D01*
X0193547Y0021856D01*
X0193675Y0021749D01*
X0193800Y0021638D01*
X0193922Y0021525D01*
X0194041Y0021408D01*
X0194158Y0021289D01*
X0194271Y0021167D01*
X0194382Y0021042D01*
X0194489Y0020914D01*
X0194594Y0020784D01*
X0194695Y0020651D01*
X0194793Y0020515D01*
X0194887Y0020378D01*
X0194978Y0020238D01*
X0195066Y0020096D01*
X0195150Y0019952D01*
X0195230Y0019805D01*
X0195307Y0019657D01*
X0195380Y0019507D01*
X0195450Y0019356D01*
X0195515Y0019202D01*
X0195577Y0019047D01*
X0195635Y0018891D01*
X0195690Y0018733D01*
X0195740Y0018574D01*
X0195787Y0018414D01*
X0195829Y0018252D01*
X0195868Y0018090D01*
X0195902Y0017927D01*
X0195933Y0017763D01*
X0195959Y0017598D01*
X0195982Y0017432D01*
X0196000Y0017267D01*
X0196015Y0017100D01*
X0196025Y0016934D01*
X0196031Y0016767D01*
X0196033Y0016600D01*
X0196031Y0016433D01*
X0196025Y0016266D01*
X0196015Y0016100D01*
X0196000Y0015933D01*
X0195982Y0015768D01*
X0195959Y0015602D01*
X0195933Y0015437D01*
X0195902Y0015273D01*
X0195868Y0015110D01*
X0195829Y0014948D01*
X0195787Y0014786D01*
X0195740Y0014626D01*
X0195690Y0014467D01*
X0195635Y0014309D01*
X0195577Y0014153D01*
X0195515Y0013998D01*
X0195450Y0013844D01*
X0195380Y0013693D01*
X0195307Y0013543D01*
X0195230Y0013395D01*
X0195150Y0013248D01*
X0195066Y0013104D01*
X0194978Y0012962D01*
X0194887Y0012822D01*
X0194793Y0012685D01*
X0194695Y0012549D01*
X0194594Y0012416D01*
X0194489Y0012286D01*
X0194382Y0012158D01*
X0194271Y0012033D01*
X0194158Y0011911D01*
X0194041Y0011792D01*
X0193922Y0011675D01*
X0193800Y0011562D01*
X0193675Y0011451D01*
X0193547Y0011344D01*
X0193417Y0011239D01*
X0193284Y0011138D01*
X0193148Y0011040D01*
X0193011Y0010946D01*
X0192871Y0010855D01*
X0192729Y0010767D01*
X0192585Y0010683D01*
X0192438Y0010603D01*
X0192290Y0010526D01*
X0192140Y0010453D01*
X0191989Y0010383D01*
X0191835Y0010318D01*
X0191680Y0010256D01*
X0191524Y0010198D01*
X0191366Y0010143D01*
X0191207Y0010093D01*
X0191047Y0010046D01*
X0190885Y0010004D01*
X0190723Y0009965D01*
X0190560Y0009931D01*
X0190396Y0009900D01*
X0190231Y0009874D01*
X0190065Y0009851D01*
X0189900Y0009833D01*
X0189733Y0009818D01*
X0189567Y0009808D01*
X0189400Y0009802D01*
X0189233Y0009800D01*
X0189066Y0009802D01*
X0188899Y0009808D01*
X0188733Y0009818D01*
X0188566Y0009833D01*
X0188401Y0009851D01*
X0188235Y0009874D01*
X0188070Y0009900D01*
X0187906Y0009931D01*
X0187743Y0009965D01*
X0187581Y0010004D01*
X0187419Y0010046D01*
X0187259Y0010093D01*
X0187100Y0010143D01*
X0186942Y0010198D01*
X0186786Y0010256D01*
X0186631Y0010318D01*
X0186477Y0010383D01*
X0186326Y0010453D01*
X0186176Y0010526D01*
X0186028Y0010603D01*
X0185881Y0010683D01*
X0185737Y0010767D01*
X0185595Y0010855D01*
X0185455Y0010946D01*
X0185318Y0011040D01*
X0185182Y0011138D01*
X0185049Y0011239D01*
X0184919Y0011344D01*
X0184791Y0011451D01*
X0184666Y0011562D01*
X0184544Y0011675D01*
X0184425Y0011792D01*
X0184308Y0011911D01*
X0184195Y0012033D01*
X0184084Y0012158D01*
X0183977Y0012286D01*
X0183872Y0012416D01*
X0183771Y0012549D01*
X0183673Y0012685D01*
X0183579Y0012822D01*
X0183488Y0012962D01*
X0183400Y0013104D01*
X0183316Y0013248D01*
X0183236Y0013395D01*
X0183159Y0013543D01*
X0183086Y0013693D01*
X0183016Y0013844D01*
X0182951Y0013998D01*
X0182889Y0014153D01*
X0182831Y0014309D01*
X0182776Y0014467D01*
X0182726Y0014626D01*
X0182679Y0014786D01*
X0182637Y0014948D01*
X0182598Y0015110D01*
X0182564Y0015273D01*
X0182533Y0015437D01*
X0182507Y0015602D01*
X0182484Y0015768D01*
X0182466Y0015933D01*
X0182451Y0016100D01*
X0182441Y0016266D01*
X0182435Y0016433D01*
X0182433Y0016600D01*
X0017433Y0014100D02*
X0017435Y0014267D01*
X0017441Y0014434D01*
X0017451Y0014600D01*
X0017466Y0014767D01*
X0017484Y0014932D01*
X0017507Y0015098D01*
X0017533Y0015263D01*
X0017564Y0015427D01*
X0017598Y0015590D01*
X0017637Y0015752D01*
X0017679Y0015914D01*
X0017726Y0016074D01*
X0017776Y0016233D01*
X0017831Y0016391D01*
X0017889Y0016547D01*
X0017951Y0016702D01*
X0018016Y0016856D01*
X0018086Y0017007D01*
X0018159Y0017157D01*
X0018236Y0017305D01*
X0018316Y0017452D01*
X0018400Y0017596D01*
X0018488Y0017738D01*
X0018579Y0017878D01*
X0018673Y0018015D01*
X0018771Y0018151D01*
X0018872Y0018284D01*
X0018977Y0018414D01*
X0019084Y0018542D01*
X0019195Y0018667D01*
X0019308Y0018789D01*
X0019425Y0018908D01*
X0019544Y0019025D01*
X0019666Y0019138D01*
X0019791Y0019249D01*
X0019919Y0019356D01*
X0020049Y0019461D01*
X0020182Y0019562D01*
X0020318Y0019660D01*
X0020455Y0019754D01*
X0020595Y0019845D01*
X0020737Y0019933D01*
X0020881Y0020017D01*
X0021028Y0020097D01*
X0021176Y0020174D01*
X0021326Y0020247D01*
X0021477Y0020317D01*
X0021631Y0020382D01*
X0021786Y0020444D01*
X0021942Y0020502D01*
X0022100Y0020557D01*
X0022259Y0020607D01*
X0022419Y0020654D01*
X0022581Y0020696D01*
X0022743Y0020735D01*
X0022906Y0020769D01*
X0023070Y0020800D01*
X0023235Y0020826D01*
X0023401Y0020849D01*
X0023566Y0020867D01*
X0023733Y0020882D01*
X0023899Y0020892D01*
X0024066Y0020898D01*
X0024233Y0020900D01*
X0024400Y0020898D01*
X0024567Y0020892D01*
X0024733Y0020882D01*
X0024900Y0020867D01*
X0025065Y0020849D01*
X0025231Y0020826D01*
X0025396Y0020800D01*
X0025560Y0020769D01*
X0025723Y0020735D01*
X0025885Y0020696D01*
X0026047Y0020654D01*
X0026207Y0020607D01*
X0026366Y0020557D01*
X0026524Y0020502D01*
X0026680Y0020444D01*
X0026835Y0020382D01*
X0026989Y0020317D01*
X0027140Y0020247D01*
X0027290Y0020174D01*
X0027438Y0020097D01*
X0027585Y0020017D01*
X0027729Y0019933D01*
X0027871Y0019845D01*
X0028011Y0019754D01*
X0028148Y0019660D01*
X0028284Y0019562D01*
X0028417Y0019461D01*
X0028547Y0019356D01*
X0028675Y0019249D01*
X0028800Y0019138D01*
X0028922Y0019025D01*
X0029041Y0018908D01*
X0029158Y0018789D01*
X0029271Y0018667D01*
X0029382Y0018542D01*
X0029489Y0018414D01*
X0029594Y0018284D01*
X0029695Y0018151D01*
X0029793Y0018015D01*
X0029887Y0017878D01*
X0029978Y0017738D01*
X0030066Y0017596D01*
X0030150Y0017452D01*
X0030230Y0017305D01*
X0030307Y0017157D01*
X0030380Y0017007D01*
X0030450Y0016856D01*
X0030515Y0016702D01*
X0030577Y0016547D01*
X0030635Y0016391D01*
X0030690Y0016233D01*
X0030740Y0016074D01*
X0030787Y0015914D01*
X0030829Y0015752D01*
X0030868Y0015590D01*
X0030902Y0015427D01*
X0030933Y0015263D01*
X0030959Y0015098D01*
X0030982Y0014932D01*
X0031000Y0014767D01*
X0031015Y0014600D01*
X0031025Y0014434D01*
X0031031Y0014267D01*
X0031033Y0014100D01*
X0031031Y0013933D01*
X0031025Y0013766D01*
X0031015Y0013600D01*
X0031000Y0013433D01*
X0030982Y0013268D01*
X0030959Y0013102D01*
X0030933Y0012937D01*
X0030902Y0012773D01*
X0030868Y0012610D01*
X0030829Y0012448D01*
X0030787Y0012286D01*
X0030740Y0012126D01*
X0030690Y0011967D01*
X0030635Y0011809D01*
X0030577Y0011653D01*
X0030515Y0011498D01*
X0030450Y0011344D01*
X0030380Y0011193D01*
X0030307Y0011043D01*
X0030230Y0010895D01*
X0030150Y0010748D01*
X0030066Y0010604D01*
X0029978Y0010462D01*
X0029887Y0010322D01*
X0029793Y0010185D01*
X0029695Y0010049D01*
X0029594Y0009916D01*
X0029489Y0009786D01*
X0029382Y0009658D01*
X0029271Y0009533D01*
X0029158Y0009411D01*
X0029041Y0009292D01*
X0028922Y0009175D01*
X0028800Y0009062D01*
X0028675Y0008951D01*
X0028547Y0008844D01*
X0028417Y0008739D01*
X0028284Y0008638D01*
X0028148Y0008540D01*
X0028011Y0008446D01*
X0027871Y0008355D01*
X0027729Y0008267D01*
X0027585Y0008183D01*
X0027438Y0008103D01*
X0027290Y0008026D01*
X0027140Y0007953D01*
X0026989Y0007883D01*
X0026835Y0007818D01*
X0026680Y0007756D01*
X0026524Y0007698D01*
X0026366Y0007643D01*
X0026207Y0007593D01*
X0026047Y0007546D01*
X0025885Y0007504D01*
X0025723Y0007465D01*
X0025560Y0007431D01*
X0025396Y0007400D01*
X0025231Y0007374D01*
X0025065Y0007351D01*
X0024900Y0007333D01*
X0024733Y0007318D01*
X0024567Y0007308D01*
X0024400Y0007302D01*
X0024233Y0007300D01*
X0024066Y0007302D01*
X0023899Y0007308D01*
X0023733Y0007318D01*
X0023566Y0007333D01*
X0023401Y0007351D01*
X0023235Y0007374D01*
X0023070Y0007400D01*
X0022906Y0007431D01*
X0022743Y0007465D01*
X0022581Y0007504D01*
X0022419Y0007546D01*
X0022259Y0007593D01*
X0022100Y0007643D01*
X0021942Y0007698D01*
X0021786Y0007756D01*
X0021631Y0007818D01*
X0021477Y0007883D01*
X0021326Y0007953D01*
X0021176Y0008026D01*
X0021028Y0008103D01*
X0020881Y0008183D01*
X0020737Y0008267D01*
X0020595Y0008355D01*
X0020455Y0008446D01*
X0020318Y0008540D01*
X0020182Y0008638D01*
X0020049Y0008739D01*
X0019919Y0008844D01*
X0019791Y0008951D01*
X0019666Y0009062D01*
X0019544Y0009175D01*
X0019425Y0009292D01*
X0019308Y0009411D01*
X0019195Y0009533D01*
X0019084Y0009658D01*
X0018977Y0009786D01*
X0018872Y0009916D01*
X0018771Y0010049D01*
X0018673Y0010185D01*
X0018579Y0010322D01*
X0018488Y0010462D01*
X0018400Y0010604D01*
X0018316Y0010748D01*
X0018236Y0010895D01*
X0018159Y0011043D01*
X0018086Y0011193D01*
X0018016Y0011344D01*
X0017951Y0011498D01*
X0017889Y0011653D01*
X0017831Y0011809D01*
X0017776Y0011967D01*
X0017726Y0012126D01*
X0017679Y0012286D01*
X0017637Y0012448D01*
X0017598Y0012610D01*
X0017564Y0012773D01*
X0017533Y0012937D01*
X0017507Y0013102D01*
X0017484Y0013268D01*
X0017466Y0013433D01*
X0017451Y0013600D01*
X0017441Y0013766D01*
X0017435Y0013933D01*
X0017433Y0014100D01*
D12*
X0017745Y0141597D02*
X0016244Y0143099D01*
X0016244Y0150605D01*
X0016244Y0144600D02*
X0020748Y0144600D01*
X0022249Y0146101D01*
X0022249Y0150605D01*
X0025452Y0150605D02*
X0029956Y0150605D01*
X0031457Y0149104D01*
X0031457Y0146101D01*
X0029956Y0144600D01*
X0025452Y0144600D01*
X0019247Y0141597D02*
X0017745Y0141597D01*
X0034660Y0144600D02*
X0034660Y0149104D01*
X0036161Y0150605D01*
X0040665Y0150605D01*
X0040665Y0144600D01*
X0043868Y0144600D02*
X0043868Y0149104D01*
X0045369Y0150605D01*
X0048372Y0150605D01*
X0048372Y0147603D02*
X0043868Y0147603D01*
X0043868Y0144600D02*
X0048372Y0144600D01*
X0049873Y0146101D01*
X0048372Y0147603D01*
X0053076Y0149104D02*
X0053076Y0146101D01*
X0054577Y0144600D01*
X0059081Y0144600D01*
X0059081Y0141597D02*
X0059081Y0150605D01*
X0054577Y0150605D01*
X0053076Y0149104D01*
X0062283Y0150605D02*
X0062283Y0144600D01*
X0066787Y0144600D01*
X0068289Y0146101D01*
X0068289Y0150605D01*
X0071491Y0150605D02*
X0075995Y0150605D01*
X0077496Y0149104D01*
X0077496Y0146101D01*
X0075995Y0144600D01*
X0071491Y0144600D01*
X0080699Y0144600D02*
X0085203Y0144600D01*
X0086704Y0146101D01*
X0086704Y0149104D01*
X0085203Y0150605D01*
X0080699Y0150605D01*
X0089907Y0152106D02*
X0089907Y0146101D01*
X0091408Y0144600D01*
X0094411Y0144600D01*
X0095912Y0146101D01*
X0095912Y0152106D01*
X0094411Y0153608D01*
X0091408Y0153608D01*
X0089907Y0152106D01*
X0108323Y0152106D02*
X0108323Y0146101D01*
X0109824Y0144600D01*
X0114328Y0144600D01*
X0114328Y0153608D01*
X0109824Y0153608D01*
X0108323Y0152106D01*
X0117531Y0153608D02*
X0123536Y0153608D01*
X0123536Y0144600D01*
X0117531Y0144600D01*
X0120533Y0149104D02*
X0123536Y0149104D01*
X0126738Y0144600D02*
X0132744Y0144600D01*
X0132744Y0153608D01*
X0145121Y0150605D02*
X0146622Y0150605D01*
X0149625Y0147603D01*
X0149625Y0150605D02*
X0149625Y0144600D01*
X0152827Y0144600D02*
X0152827Y0149104D01*
X0154329Y0150605D01*
X0157331Y0150605D01*
X0157331Y0147603D02*
X0152827Y0147603D01*
X0152827Y0144600D02*
X0157331Y0144600D01*
X0158833Y0146101D01*
X0157331Y0147603D01*
X0161969Y0144600D02*
X0164971Y0144600D01*
X0163470Y0144600D02*
X0163470Y0153608D01*
X0164971Y0153608D01*
X0168174Y0149104D02*
X0169675Y0150605D01*
X0172678Y0150605D01*
X0174179Y0149104D01*
X0174179Y0146101D01*
X0172678Y0144600D01*
X0169675Y0144600D01*
X0168174Y0146101D01*
X0168174Y0149104D01*
X0177382Y0149104D02*
X0178883Y0147603D01*
X0183387Y0147603D01*
X0183387Y0144600D02*
X0183387Y0153608D01*
X0178883Y0153608D01*
X0177382Y0152106D01*
X0177382Y0149104D01*
X0186523Y0144600D02*
X0189525Y0144600D01*
X0188024Y0144600D02*
X0188024Y0150605D01*
X0189525Y0150605D01*
X0192728Y0150605D02*
X0194229Y0149104D01*
X0198733Y0149104D01*
X0194229Y0149104D02*
X0192728Y0147603D01*
X0192728Y0146101D01*
X0194229Y0144600D01*
X0198733Y0144600D01*
X0198733Y0153608D01*
X0194229Y0153608D01*
X0192728Y0152106D01*
X0192728Y0150605D01*
X0188024Y0153608D02*
X0188024Y0155109D01*
D13*
X0172832Y0043755D02*
X0170731Y0043755D01*
X0169680Y0042704D01*
X0170731Y0040603D02*
X0169680Y0039552D01*
X0169680Y0038501D01*
X0170731Y0037450D01*
X0172832Y0037450D01*
X0173883Y0038501D01*
X0172832Y0040603D02*
X0170731Y0040603D01*
X0172832Y0040603D02*
X0173883Y0041654D01*
X0173883Y0042704D01*
X0172832Y0043755D01*
X0167438Y0040603D02*
X0166387Y0041654D01*
X0164285Y0041654D01*
X0163234Y0040603D01*
X0163234Y0039552D01*
X0167438Y0039552D01*
X0167438Y0038501D02*
X0167438Y0040603D01*
X0167438Y0038501D02*
X0166387Y0037450D01*
X0164285Y0037450D01*
X0159941Y0038501D02*
X0159941Y0042704D01*
X0160992Y0041654D02*
X0158890Y0041654D01*
X0156695Y0040603D02*
X0155644Y0041654D01*
X0153543Y0041654D01*
X0152492Y0040603D01*
X0152492Y0037450D01*
X0156695Y0037450D02*
X0156695Y0043755D01*
X0159941Y0038501D02*
X0158890Y0037450D01*
X0157793Y0034306D02*
X0157793Y0033255D01*
X0157793Y0031154D02*
X0157793Y0026950D01*
X0158844Y0026950D02*
X0156742Y0026950D01*
X0154547Y0026950D02*
X0151394Y0026950D01*
X0150343Y0028001D01*
X0151394Y0029052D01*
X0153496Y0029052D01*
X0154547Y0030103D01*
X0153496Y0031154D01*
X0150343Y0031154D01*
X0148101Y0030103D02*
X0148101Y0028001D01*
X0147050Y0026950D01*
X0144949Y0026950D01*
X0143898Y0028001D01*
X0143898Y0030103D01*
X0144949Y0031154D01*
X0147050Y0031154D01*
X0148101Y0030103D01*
X0141656Y0031154D02*
X0141656Y0026950D01*
X0141656Y0031154D02*
X0138503Y0031154D01*
X0137452Y0030103D01*
X0137452Y0026950D01*
X0128765Y0026950D02*
X0125612Y0026950D01*
X0124561Y0028001D01*
X0124561Y0032204D01*
X0125612Y0033255D01*
X0128765Y0033255D01*
X0128765Y0026950D01*
X0122319Y0028001D02*
X0122319Y0030103D01*
X0121268Y0031154D01*
X0119167Y0031154D01*
X0118116Y0030103D01*
X0118116Y0029052D01*
X0122319Y0029052D01*
X0122319Y0028001D02*
X0121268Y0026950D01*
X0119167Y0026950D01*
X0115874Y0026950D02*
X0115874Y0031154D01*
X0112721Y0031154D01*
X0111670Y0030103D01*
X0111670Y0026950D01*
X0109428Y0028001D02*
X0109428Y0030103D01*
X0108377Y0031154D01*
X0105225Y0031154D01*
X0105225Y0033255D02*
X0105225Y0026950D01*
X0108377Y0026950D01*
X0109428Y0028001D01*
X0102983Y0028001D02*
X0101932Y0026950D01*
X0098779Y0026950D01*
X0098779Y0025899D02*
X0099830Y0024848D01*
X0100881Y0024848D01*
X0098779Y0025899D02*
X0098779Y0031154D01*
X0102983Y0031154D02*
X0102983Y0028001D01*
X0100928Y0037450D02*
X0100928Y0040603D01*
X0101979Y0041654D01*
X0105131Y0041654D01*
X0105131Y0037450D01*
X0107373Y0037450D02*
X0107373Y0040603D01*
X0108424Y0041654D01*
X0111577Y0041654D01*
X0111577Y0037450D01*
X0113819Y0037450D02*
X0113819Y0040603D01*
X0114870Y0041654D01*
X0116971Y0041654D01*
X0116971Y0039552D02*
X0113819Y0039552D01*
X0113819Y0037450D02*
X0116971Y0037450D01*
X0118022Y0038501D01*
X0116971Y0039552D01*
X0120264Y0040603D02*
X0120264Y0037450D01*
X0122366Y0037450D02*
X0122366Y0040603D01*
X0121315Y0041654D01*
X0120264Y0040603D01*
X0122366Y0040603D02*
X0123417Y0041654D01*
X0124468Y0041654D01*
X0124468Y0037450D01*
X0126710Y0037450D02*
X0126710Y0041654D01*
X0130913Y0041654D02*
X0130913Y0038501D01*
X0129862Y0037450D01*
X0126710Y0037450D01*
X0133155Y0039552D02*
X0137359Y0039552D01*
X0137359Y0040603D02*
X0136308Y0041654D01*
X0134206Y0041654D01*
X0133155Y0040603D01*
X0133155Y0039552D01*
X0134206Y0037450D02*
X0136308Y0037450D01*
X0137359Y0038501D01*
X0137359Y0040603D01*
X0139601Y0037450D02*
X0139601Y0043755D01*
X0143804Y0043755D02*
X0139601Y0037450D01*
X0143804Y0037450D02*
X0143804Y0043755D01*
X0157793Y0031154D02*
X0158844Y0031154D01*
X0162090Y0033255D02*
X0162090Y0026950D01*
X0163141Y0026950D02*
X0161039Y0026950D01*
X0165336Y0026950D02*
X0167438Y0026950D01*
X0166387Y0026950D02*
X0166387Y0033255D01*
X0167438Y0033255D01*
X0169680Y0031154D02*
X0169680Y0026950D01*
X0169680Y0030103D02*
X0173883Y0030103D01*
X0173883Y0031154D02*
X0171781Y0033255D01*
X0169680Y0031154D01*
X0173883Y0031154D02*
X0173883Y0026950D01*
X0163141Y0033255D02*
X0162090Y0033255D01*
X0086383Y0032204D02*
X0085332Y0033255D01*
X0083231Y0033255D01*
X0082180Y0032204D01*
X0082180Y0031154D01*
X0086383Y0026950D01*
X0082180Y0026950D01*
X0079938Y0028001D02*
X0075734Y0032204D01*
X0075734Y0028001D01*
X0076785Y0026950D01*
X0078887Y0026950D01*
X0079938Y0028001D01*
X0079938Y0032204D01*
X0078887Y0033255D01*
X0076785Y0033255D01*
X0075734Y0032204D01*
X0073492Y0032204D02*
X0072441Y0033255D01*
X0070340Y0033255D01*
X0069289Y0032204D01*
X0069289Y0031154D01*
X0073492Y0026950D01*
X0069289Y0026950D01*
X0067047Y0028001D02*
X0065996Y0026950D01*
X0063894Y0026950D01*
X0062843Y0028001D01*
X0062843Y0029052D01*
X0063894Y0030103D01*
X0064945Y0030103D01*
X0063894Y0030103D02*
X0062843Y0031154D01*
X0062843Y0032204D01*
X0063894Y0033255D01*
X0065996Y0033255D01*
X0067047Y0032204D01*
X0067047Y0037450D02*
X0065996Y0037450D01*
X0065996Y0038501D01*
X0067047Y0038501D01*
X0067047Y0037450D01*
X0069289Y0037450D02*
X0073492Y0037450D01*
X0071390Y0037450D02*
X0071390Y0043755D01*
X0073492Y0041654D01*
X0082180Y0039552D02*
X0082180Y0043755D01*
X0082180Y0039552D02*
X0084281Y0037450D01*
X0086383Y0039552D01*
X0086383Y0043755D01*
X0063824Y0042704D02*
X0063824Y0038501D01*
X0059620Y0042704D01*
X0059620Y0038501D01*
X0060671Y0037450D01*
X0062773Y0037450D01*
X0063824Y0038501D01*
X0063824Y0042704D02*
X0062773Y0043755D01*
X0060671Y0043755D01*
X0059620Y0042704D01*
X0059550Y0033255D02*
X0057449Y0033255D01*
X0056398Y0032204D01*
X0060601Y0028001D01*
X0059550Y0026950D01*
X0057449Y0026950D01*
X0056398Y0028001D01*
X0056398Y0032204D01*
X0054156Y0032204D02*
X0054156Y0031154D01*
X0053105Y0030103D01*
X0049952Y0030103D01*
X0049952Y0032204D02*
X0049952Y0028001D01*
X0051003Y0026950D01*
X0053105Y0026950D01*
X0054156Y0028001D01*
X0054156Y0032204D02*
X0053105Y0033255D01*
X0051003Y0033255D01*
X0049952Y0032204D01*
X0047710Y0032204D02*
X0046659Y0033255D01*
X0044558Y0033255D01*
X0043507Y0032204D01*
X0043507Y0031154D01*
X0047710Y0026950D01*
X0043507Y0026950D01*
X0041265Y0028001D02*
X0037061Y0032204D01*
X0037061Y0028001D01*
X0038112Y0026950D01*
X0040214Y0026950D01*
X0041265Y0028001D01*
X0041265Y0032204D01*
X0040214Y0033255D01*
X0038112Y0033255D01*
X0037061Y0032204D01*
X0059550Y0033255D02*
X0060601Y0032204D01*
X0060601Y0028001D01*
D14*
X0178399Y0034831D02*
X0178399Y0035198D01*
X0178766Y0035564D01*
X0180601Y0035564D01*
X0180601Y0034464D01*
X0180234Y0034097D01*
X0179500Y0034097D01*
X0179133Y0034464D01*
X0179133Y0035564D01*
X0179133Y0034464D01*
X0179500Y0034097D01*
X0180234Y0034097D01*
X0180601Y0034464D01*
X0180601Y0035564D01*
X0178766Y0035564D01*
X0178399Y0035198D01*
X0178399Y0034831D01*
X0179133Y0036306D02*
X0179133Y0037040D01*
X0179133Y0036306D01*
X0179133Y0036673D02*
X0180601Y0036673D01*
X0180601Y0036306D01*
X0180601Y0036673D01*
X0179133Y0036673D01*
X0180601Y0037780D02*
X0179133Y0038514D01*
X0180601Y0039248D01*
X0179133Y0038514D01*
X0180601Y0037780D01*
X0181335Y0036673D02*
X0181702Y0036673D01*
X0181335Y0036673D01*
X0182733Y0036673D02*
X0182733Y0037774D01*
X0183834Y0037774D01*
X0184201Y0037407D01*
X0184201Y0036673D01*
X0184201Y0037407D01*
X0183834Y0037774D01*
X0182733Y0037774D01*
X0182733Y0036673D01*
X0183100Y0036306D01*
X0183467Y0036673D01*
X0183467Y0037774D01*
X0183467Y0036673D01*
X0183100Y0036306D01*
X0182733Y0036673D01*
X0183100Y0035564D02*
X0182733Y0035198D01*
X0182733Y0034464D01*
X0183100Y0034097D01*
X0184568Y0034097D01*
X0184935Y0034464D01*
X0184935Y0035198D01*
X0184568Y0035564D01*
X0184935Y0035198D01*
X0184935Y0034464D01*
X0184568Y0034097D01*
X0183100Y0034097D01*
X0182733Y0034464D01*
X0182733Y0035198D01*
X0183100Y0035564D01*
X0182733Y0038516D02*
X0182733Y0039250D01*
X0182733Y0038516D01*
X0182733Y0038883D02*
X0184935Y0038883D01*
X0184935Y0038516D01*
X0184935Y0038883D01*
X0182733Y0038883D01*
X0182733Y0039990D02*
X0182733Y0040724D01*
X0182733Y0039990D01*
X0182733Y0040357D02*
X0184201Y0040357D01*
X0184201Y0039990D01*
X0184201Y0040357D01*
X0182733Y0040357D01*
X0182733Y0041830D02*
X0184568Y0041830D01*
X0184935Y0042197D01*
X0184568Y0041830D01*
X0182733Y0041830D01*
X0183834Y0041463D02*
X0183834Y0042197D01*
X0183834Y0041463D01*
X0183834Y0042936D02*
X0183100Y0042936D01*
X0182733Y0043303D01*
X0182733Y0044037D01*
X0183100Y0044404D01*
X0183834Y0044404D01*
X0184201Y0044037D01*
X0184201Y0043303D01*
X0183834Y0042936D01*
X0183100Y0042936D01*
X0182733Y0043303D01*
X0182733Y0044037D01*
X0183100Y0044404D01*
X0183834Y0044404D01*
X0184201Y0044037D01*
X0184201Y0043303D01*
X0183834Y0042936D01*
X0183467Y0045146D02*
X0184201Y0045880D01*
X0184201Y0046247D01*
X0184201Y0045880D01*
X0183467Y0045146D01*
X0182733Y0045146D02*
X0184201Y0045146D01*
X0182733Y0045146D01*
X0182733Y0046988D02*
X0184201Y0046988D01*
X0184201Y0048088D01*
X0183834Y0048455D01*
X0182733Y0048455D01*
X0183834Y0048455D01*
X0184201Y0048088D01*
X0184201Y0046988D01*
X0182733Y0046988D01*
X0180968Y0046986D02*
X0179500Y0046986D01*
X0179133Y0047353D01*
X0179500Y0046986D01*
X0180968Y0046986D01*
X0180601Y0046619D02*
X0180601Y0047353D01*
X0180601Y0046619D01*
X0180234Y0048092D02*
X0179500Y0048092D01*
X0179133Y0048459D01*
X0179133Y0049193D01*
X0179500Y0049560D01*
X0180234Y0049560D01*
X0180601Y0049193D01*
X0180601Y0048459D01*
X0180234Y0048092D01*
X0179500Y0048092D01*
X0179133Y0048459D01*
X0179133Y0049193D01*
X0179500Y0049560D01*
X0180234Y0049560D01*
X0180601Y0049193D01*
X0180601Y0048459D01*
X0180234Y0048092D01*
X0182733Y0049197D02*
X0182733Y0049931D01*
X0182733Y0049197D01*
X0182733Y0049564D02*
X0184201Y0049564D01*
X0184201Y0049197D01*
X0184201Y0049564D01*
X0182733Y0049564D01*
X0183100Y0050671D02*
X0183467Y0051038D01*
X0183467Y0052139D01*
X0183467Y0051038D01*
X0183100Y0050671D01*
X0182733Y0051038D01*
X0182733Y0052139D01*
X0183834Y0052139D01*
X0184201Y0051772D01*
X0184201Y0051038D01*
X0184201Y0051772D01*
X0183834Y0052139D01*
X0182733Y0052139D01*
X0182733Y0051038D01*
X0183100Y0050671D01*
X0184935Y0049564D02*
X0185302Y0049564D01*
X0184935Y0049564D01*
X0186333Y0049195D02*
X0186700Y0048828D01*
X0188168Y0048828D01*
X0186700Y0048828D01*
X0186333Y0049195D01*
X0186333Y0049934D02*
X0188535Y0049934D01*
X0186333Y0049934D01*
X0187434Y0049934D02*
X0187801Y0050301D01*
X0187801Y0051035D01*
X0187434Y0051402D01*
X0186333Y0051402D01*
X0187434Y0051402D01*
X0187801Y0051035D01*
X0187801Y0050301D01*
X0187434Y0049934D01*
X0187801Y0049195D02*
X0187801Y0048461D01*
X0187801Y0049195D01*
X0187801Y0047720D02*
X0187801Y0047353D01*
X0187067Y0046619D01*
X0187801Y0047353D01*
X0187801Y0047720D01*
X0187801Y0046619D02*
X0186333Y0046619D01*
X0187801Y0046619D01*
X0187801Y0045513D02*
X0186333Y0045513D01*
X0187801Y0045513D01*
X0187801Y0045146D01*
X0187801Y0045513D01*
X0188535Y0045513D02*
X0188902Y0045513D01*
X0188535Y0045513D01*
X0187434Y0044404D02*
X0187801Y0044037D01*
X0187801Y0042936D01*
X0187801Y0044037D01*
X0187434Y0044404D01*
X0186700Y0044404D01*
X0186333Y0044037D01*
X0186333Y0042936D01*
X0188535Y0042936D01*
X0186333Y0042936D01*
X0186333Y0044037D01*
X0186700Y0044404D01*
X0187434Y0044404D01*
X0186333Y0045146D02*
X0186333Y0045880D01*
X0186333Y0045146D01*
X0189933Y0044036D02*
X0191034Y0044036D01*
X0191401Y0043669D01*
X0191401Y0042568D01*
X0189933Y0042568D01*
X0191401Y0042568D01*
X0191401Y0043669D01*
X0191034Y0044036D01*
X0189933Y0044036D01*
X0190300Y0041826D02*
X0191401Y0041826D01*
X0190300Y0041826D01*
X0189933Y0041459D01*
X0190300Y0041092D01*
X0189933Y0040725D01*
X0190300Y0040358D01*
X0191401Y0040358D01*
X0190300Y0040358D01*
X0189933Y0040725D01*
X0190300Y0041092D01*
X0189933Y0041459D01*
X0190300Y0041826D01*
X0190300Y0039616D02*
X0191034Y0039616D01*
X0191401Y0039249D01*
X0191401Y0038515D01*
X0191034Y0038148D01*
X0190300Y0038148D01*
X0189933Y0038515D01*
X0189933Y0039249D01*
X0190300Y0039616D01*
X0191034Y0039616D01*
X0191401Y0039249D01*
X0191401Y0038515D01*
X0191034Y0038148D01*
X0190300Y0038148D01*
X0189933Y0038515D01*
X0189933Y0039249D01*
X0190300Y0039616D01*
X0188535Y0039984D02*
X0186333Y0039984D01*
X0186333Y0038883D01*
X0186700Y0038516D01*
X0187434Y0038516D01*
X0187801Y0038883D01*
X0187801Y0039984D01*
X0187801Y0038883D01*
X0187434Y0038516D01*
X0186700Y0038516D01*
X0186333Y0038883D01*
X0186333Y0039984D01*
X0188535Y0039984D01*
X0187434Y0037774D02*
X0186333Y0037774D01*
X0187434Y0037774D01*
X0187801Y0037407D01*
X0187801Y0036306D01*
X0186333Y0036306D01*
X0187801Y0036306D01*
X0187801Y0037407D01*
X0187434Y0037774D01*
X0187434Y0035564D02*
X0186333Y0035564D01*
X0186333Y0034464D01*
X0186700Y0034097D01*
X0187067Y0034464D01*
X0187067Y0035564D01*
X0187067Y0034464D01*
X0186700Y0034097D01*
X0186333Y0034464D01*
X0186333Y0035564D01*
X0187434Y0035564D01*
X0187801Y0035198D01*
X0187801Y0034464D01*
X0187801Y0035198D01*
X0187434Y0035564D01*
X0189933Y0035198D02*
X0190667Y0034097D01*
X0191401Y0035198D01*
X0190667Y0034097D01*
X0189933Y0035198D01*
X0189933Y0035938D02*
X0191401Y0035938D01*
X0191401Y0037039D01*
X0191034Y0037406D01*
X0189933Y0037406D01*
X0191034Y0037406D01*
X0191401Y0037039D01*
X0191401Y0035938D01*
X0189933Y0035938D01*
X0189933Y0034097D02*
X0192135Y0034097D01*
X0189933Y0034097D01*
X0193533Y0034097D02*
X0194267Y0034831D01*
X0193533Y0035564D01*
X0195735Y0035564D01*
X0193533Y0035564D01*
X0194267Y0034831D01*
X0193533Y0034097D01*
X0195735Y0034097D01*
X0193533Y0034097D01*
X0193533Y0036306D02*
X0195001Y0036306D01*
X0195735Y0037040D01*
X0195001Y0037774D01*
X0193533Y0037774D01*
X0195001Y0037774D01*
X0195735Y0037040D01*
X0195001Y0036306D01*
X0193533Y0036306D01*
X0194634Y0036306D02*
X0194634Y0037774D01*
X0194634Y0036306D01*
X0194267Y0038516D02*
X0194267Y0039617D01*
X0194634Y0039984D01*
X0195368Y0039984D01*
X0195735Y0039617D01*
X0195735Y0038516D01*
X0193533Y0038516D01*
X0195735Y0038516D01*
X0195735Y0039617D01*
X0195368Y0039984D01*
X0194634Y0039984D01*
X0194267Y0039617D01*
X0194267Y0038516D01*
X0194267Y0039250D02*
X0193533Y0039984D01*
X0194267Y0039250D01*
X0193533Y0040726D02*
X0195735Y0040726D01*
X0193533Y0042194D01*
X0195735Y0042194D01*
X0193533Y0042194D01*
X0195735Y0040726D01*
X0193533Y0040726D01*
X0193533Y0042936D02*
X0193533Y0043670D01*
X0193533Y0042936D01*
X0193533Y0043303D02*
X0195735Y0043303D01*
X0193533Y0043303D01*
X0193533Y0044409D02*
X0195735Y0044409D01*
X0193533Y0045877D01*
X0195735Y0045877D01*
X0193533Y0045877D01*
X0195735Y0044409D01*
X0193533Y0044409D01*
X0193900Y0046619D02*
X0193533Y0046986D01*
X0193533Y0047720D01*
X0193900Y0048087D01*
X0194634Y0048087D01*
X0194634Y0047353D01*
X0194634Y0048087D01*
X0193900Y0048087D01*
X0193533Y0047720D01*
X0193533Y0046986D01*
X0193900Y0046619D01*
X0195368Y0046619D01*
X0195735Y0046986D01*
X0195735Y0047720D01*
X0195368Y0048087D01*
X0195735Y0047720D01*
X0195735Y0046986D01*
X0195368Y0046619D01*
X0193900Y0046619D01*
X0193900Y0048829D02*
X0193533Y0048829D01*
X0193533Y0049196D01*
X0193900Y0049196D01*
X0193900Y0048829D01*
X0193533Y0048829D01*
X0193533Y0049196D01*
X0193900Y0049196D01*
X0193900Y0048829D01*
X0194634Y0048829D02*
X0195001Y0048829D01*
X0195001Y0049196D01*
X0194634Y0049196D01*
X0194634Y0048829D01*
X0195001Y0048829D01*
X0195001Y0049196D01*
X0194634Y0049196D01*
X0194634Y0048829D01*
X0197133Y0048829D02*
X0199335Y0048829D01*
X0199335Y0050297D01*
X0199335Y0048829D01*
X0197133Y0048829D01*
X0197133Y0048090D02*
X0197133Y0047356D01*
X0197133Y0048090D01*
X0197133Y0047723D02*
X0199335Y0047723D01*
X0197133Y0047723D01*
X0197133Y0046614D02*
X0197133Y0045146D01*
X0199335Y0045146D01*
X0197133Y0045146D01*
X0197133Y0046614D01*
X0197133Y0044404D02*
X0198601Y0044404D01*
X0199335Y0043670D01*
X0198601Y0042936D01*
X0197133Y0042936D01*
X0198601Y0042936D01*
X0199335Y0043670D01*
X0198601Y0044404D01*
X0197133Y0044404D01*
X0198234Y0044404D02*
X0198234Y0042936D01*
X0198234Y0044404D01*
X0197500Y0042194D02*
X0197133Y0041827D01*
X0197133Y0041093D01*
X0197500Y0040726D01*
X0198968Y0040726D01*
X0199335Y0041093D01*
X0199335Y0041827D01*
X0198968Y0042194D01*
X0199335Y0041827D01*
X0199335Y0041093D01*
X0198968Y0040726D01*
X0197500Y0040726D01*
X0197133Y0041093D01*
X0197133Y0041827D01*
X0197500Y0042194D01*
X0195735Y0042936D02*
X0195735Y0043670D01*
X0195735Y0042936D01*
X0191401Y0046988D02*
X0191401Y0047722D01*
X0191401Y0046988D01*
X0191768Y0047355D02*
X0190300Y0047355D01*
X0189933Y0047722D01*
X0190300Y0047355D01*
X0191768Y0047355D01*
X0191034Y0048461D02*
X0190300Y0048461D01*
X0189933Y0048828D01*
X0189933Y0049562D01*
X0190300Y0049929D01*
X0191034Y0049929D01*
X0191401Y0049562D01*
X0191401Y0048828D01*
X0191034Y0048461D01*
X0190300Y0048461D01*
X0189933Y0048828D01*
X0189933Y0049562D01*
X0190300Y0049929D01*
X0191034Y0049929D01*
X0191401Y0049562D01*
X0191401Y0048828D01*
X0191034Y0048461D01*
X0191401Y0052881D02*
X0191401Y0053615D01*
X0191401Y0052881D01*
X0191768Y0053248D02*
X0190300Y0053248D01*
X0189933Y0053615D01*
X0190300Y0053248D01*
X0191768Y0053248D01*
X0192135Y0054354D02*
X0189933Y0054354D01*
X0192135Y0054354D01*
X0191401Y0054721D02*
X0191401Y0055455D01*
X0191034Y0055822D01*
X0189933Y0055822D01*
X0191034Y0055822D01*
X0191401Y0055455D01*
X0191401Y0054721D01*
X0191034Y0054354D01*
X0191401Y0054721D01*
X0191034Y0056564D02*
X0191401Y0056931D01*
X0191401Y0057665D01*
X0191034Y0058032D01*
X0190667Y0058032D01*
X0190667Y0056564D01*
X0190667Y0058032D01*
X0191034Y0058032D01*
X0191401Y0057665D01*
X0191401Y0056931D01*
X0191034Y0056564D01*
X0190300Y0056564D01*
X0189933Y0056931D01*
X0189933Y0057665D01*
X0189933Y0056931D01*
X0190300Y0056564D01*
X0191034Y0056564D01*
X0193533Y0056564D02*
X0193533Y0057298D01*
X0193533Y0056564D01*
X0193533Y0056931D02*
X0195001Y0056931D01*
X0195001Y0056564D01*
X0195001Y0056931D01*
X0193533Y0056931D01*
X0193533Y0058037D02*
X0193533Y0059138D01*
X0193900Y0059505D01*
X0194267Y0059138D01*
X0194267Y0058404D01*
X0194634Y0058037D01*
X0195001Y0058404D01*
X0195001Y0059505D01*
X0195001Y0058404D01*
X0194634Y0058037D01*
X0194267Y0058404D01*
X0194267Y0059138D01*
X0193900Y0059505D01*
X0193533Y0059138D01*
X0193533Y0058037D01*
X0193533Y0055822D02*
X0194634Y0055822D01*
X0195001Y0055455D01*
X0195001Y0054721D01*
X0194634Y0054354D01*
X0195001Y0054721D01*
X0195001Y0055455D01*
X0194634Y0055822D01*
X0193533Y0055822D01*
X0193533Y0054354D02*
X0195735Y0054354D01*
X0193533Y0054354D01*
X0193533Y0052878D02*
X0195735Y0052878D01*
X0193533Y0052878D01*
X0195735Y0052144D02*
X0195735Y0053612D01*
X0195735Y0052144D01*
X0197133Y0052140D02*
X0197500Y0052507D01*
X0198968Y0052507D01*
X0199335Y0052140D01*
X0199335Y0051406D01*
X0198968Y0051039D01*
X0197500Y0051039D01*
X0197133Y0051406D01*
X0197133Y0052140D01*
X0197500Y0052507D01*
X0198968Y0052507D01*
X0199335Y0052140D01*
X0199335Y0051406D01*
X0198968Y0051039D01*
X0197500Y0051039D01*
X0197133Y0051406D01*
X0197133Y0052140D01*
X0197133Y0053249D02*
X0199335Y0053249D01*
X0199335Y0054350D01*
X0198968Y0054717D01*
X0198234Y0054717D01*
X0197867Y0054350D01*
X0197867Y0053249D01*
X0197867Y0054350D01*
X0198234Y0054717D01*
X0198968Y0054717D01*
X0199335Y0054350D01*
X0199335Y0053249D01*
X0197133Y0053249D01*
X0197867Y0053983D02*
X0197133Y0054717D01*
X0197867Y0053983D01*
X0197133Y0055459D02*
X0199335Y0055459D01*
X0197133Y0056927D01*
X0199335Y0056927D01*
X0197133Y0056927D01*
X0199335Y0055459D01*
X0197133Y0055459D01*
X0196102Y0056931D02*
X0195735Y0056931D01*
X0196102Y0056931D01*
X0197133Y0057669D02*
X0197133Y0058403D01*
X0197133Y0057669D01*
X0197133Y0058036D02*
X0199335Y0058036D01*
X0197133Y0058036D01*
X0197133Y0059142D02*
X0198601Y0059142D01*
X0199335Y0059876D01*
X0198601Y0060610D01*
X0197133Y0060610D01*
X0198601Y0060610D01*
X0199335Y0059876D01*
X0198601Y0059142D01*
X0197133Y0059142D01*
X0198234Y0059142D02*
X0198234Y0060610D01*
X0198234Y0059142D01*
X0199335Y0058403D02*
X0199335Y0057669D01*
X0199335Y0058403D01*
X0195001Y0062457D02*
X0195001Y0063558D01*
X0194634Y0063925D01*
X0193900Y0063925D01*
X0193533Y0063558D01*
X0193533Y0062457D01*
X0193533Y0063558D01*
X0193900Y0063925D01*
X0194634Y0063925D01*
X0195001Y0063558D01*
X0195001Y0062457D01*
X0192799Y0062457D01*
X0195001Y0062457D01*
X0195001Y0064667D02*
X0193533Y0064667D01*
X0195001Y0064667D01*
X0194267Y0064667D02*
X0195001Y0065401D01*
X0195001Y0065768D01*
X0195001Y0065401D01*
X0194267Y0064667D01*
X0193900Y0066508D02*
X0193533Y0066875D01*
X0193533Y0067609D01*
X0193900Y0067976D01*
X0194634Y0067976D01*
X0195001Y0067609D01*
X0195001Y0066875D01*
X0194634Y0066508D01*
X0193900Y0066508D01*
X0193533Y0066875D01*
X0193533Y0067609D01*
X0193900Y0067976D01*
X0194634Y0067976D01*
X0195001Y0067609D01*
X0195001Y0066875D01*
X0194634Y0066508D01*
X0193900Y0066508D01*
X0193900Y0068718D02*
X0194634Y0068718D01*
X0195001Y0069085D01*
X0195001Y0070186D01*
X0195001Y0069085D01*
X0194634Y0068718D01*
X0193900Y0068718D01*
X0193533Y0069085D01*
X0193533Y0070186D01*
X0195735Y0070186D01*
X0193533Y0070186D01*
X0193533Y0069085D01*
X0193900Y0068718D01*
X0197133Y0069082D02*
X0197500Y0069449D01*
X0198968Y0069449D01*
X0199335Y0069082D01*
X0199335Y0068348D01*
X0198968Y0067981D01*
X0197500Y0067981D01*
X0197133Y0068348D01*
X0197133Y0069082D01*
X0197500Y0069449D01*
X0198968Y0069449D01*
X0199335Y0069082D01*
X0199335Y0068348D01*
X0198968Y0067981D01*
X0197500Y0067981D01*
X0197133Y0068348D01*
X0197133Y0069082D01*
X0197133Y0070191D02*
X0199335Y0070191D01*
X0199335Y0071292D01*
X0198968Y0071659D01*
X0198234Y0071659D01*
X0197867Y0071292D01*
X0197867Y0070191D01*
X0197867Y0071292D01*
X0198234Y0071659D01*
X0198968Y0071659D01*
X0199335Y0071292D01*
X0199335Y0070191D01*
X0197133Y0070191D01*
X0197500Y0072401D02*
X0197133Y0072768D01*
X0197133Y0073502D01*
X0197500Y0073869D01*
X0198968Y0073869D01*
X0199335Y0073502D01*
X0199335Y0072768D01*
X0198968Y0072401D01*
X0197500Y0072401D01*
X0197133Y0072768D01*
X0197133Y0073502D01*
X0197500Y0073869D01*
X0198968Y0073869D01*
X0199335Y0073502D01*
X0199335Y0072768D01*
X0198968Y0072401D01*
X0197500Y0072401D01*
X0197500Y0074611D02*
X0197133Y0074978D01*
X0197133Y0075712D01*
X0197500Y0076079D01*
X0197867Y0076079D01*
X0198234Y0075712D01*
X0198234Y0074978D01*
X0198601Y0074611D01*
X0198968Y0074611D01*
X0199335Y0074978D01*
X0199335Y0075712D01*
X0198968Y0076079D01*
X0199335Y0075712D01*
X0199335Y0074978D01*
X0198968Y0074611D01*
X0198601Y0074611D01*
X0198234Y0074978D01*
X0198234Y0075712D01*
X0197867Y0076079D01*
X0197500Y0076079D01*
X0197133Y0075712D01*
X0197133Y0074978D01*
X0197500Y0074611D01*
X0195368Y0075715D02*
X0193900Y0075715D01*
X0193533Y0076082D01*
X0193900Y0075715D01*
X0195368Y0075715D01*
X0195001Y0075348D02*
X0195001Y0076082D01*
X0195001Y0075348D01*
X0195001Y0074606D02*
X0195001Y0073505D01*
X0194634Y0073138D01*
X0193900Y0073138D01*
X0193533Y0073505D01*
X0193533Y0074606D01*
X0193533Y0073505D01*
X0193900Y0073138D01*
X0194634Y0073138D01*
X0195001Y0073505D01*
X0195001Y0074606D01*
X0195001Y0072396D02*
X0193533Y0072396D01*
X0193533Y0071295D01*
X0193900Y0070928D01*
X0195001Y0070928D01*
X0193900Y0070928D01*
X0193533Y0071295D01*
X0193533Y0072396D01*
X0195001Y0072396D01*
X0191401Y0073136D02*
X0191034Y0072769D01*
X0190300Y0072769D01*
X0189933Y0073136D01*
X0189933Y0073870D01*
X0190300Y0074237D01*
X0191034Y0074237D01*
X0191401Y0073870D01*
X0191401Y0073136D01*
X0191034Y0072769D01*
X0190300Y0072769D01*
X0189933Y0073136D01*
X0189933Y0073870D01*
X0190300Y0074237D01*
X0191034Y0074237D01*
X0191401Y0073870D01*
X0191401Y0073136D01*
X0191034Y0074979D02*
X0191034Y0075713D01*
X0191034Y0074979D01*
X0191768Y0075346D02*
X0192135Y0075713D01*
X0191768Y0075346D01*
X0189933Y0075346D01*
X0191768Y0075346D01*
X0187801Y0073870D02*
X0187801Y0073503D01*
X0187067Y0072769D01*
X0187801Y0073503D01*
X0187801Y0073870D01*
X0187801Y0072769D02*
X0186333Y0072769D01*
X0187801Y0072769D01*
X0187434Y0072028D02*
X0187801Y0071661D01*
X0187801Y0070927D01*
X0187434Y0070560D01*
X0186700Y0070560D01*
X0186333Y0070927D01*
X0186333Y0071661D01*
X0186700Y0072028D01*
X0187434Y0072028D01*
X0187801Y0071661D01*
X0187801Y0070927D01*
X0187434Y0070560D01*
X0186700Y0070560D01*
X0186333Y0070927D01*
X0186333Y0071661D01*
X0186700Y0072028D01*
X0187434Y0072028D01*
X0185302Y0072032D02*
X0184935Y0072032D01*
X0185302Y0072032D01*
X0184201Y0072032D02*
X0182733Y0072032D01*
X0184201Y0072032D01*
X0184201Y0071665D01*
X0184201Y0072032D01*
X0184201Y0073138D02*
X0182733Y0073138D01*
X0184201Y0073138D01*
X0184201Y0073872D02*
X0184201Y0074239D01*
X0184201Y0073872D01*
X0183467Y0073138D01*
X0184201Y0073872D01*
X0183834Y0074979D02*
X0183100Y0074979D01*
X0182733Y0075346D01*
X0182733Y0076080D01*
X0182733Y0075346D01*
X0183100Y0074979D01*
X0183834Y0074979D01*
X0184201Y0075346D01*
X0184201Y0076080D01*
X0183834Y0076447D01*
X0183467Y0076447D01*
X0183467Y0074979D01*
X0183467Y0076447D01*
X0183834Y0076447D01*
X0184201Y0076080D01*
X0184201Y0075346D01*
X0183834Y0074979D01*
X0183834Y0077189D02*
X0183467Y0077556D01*
X0183467Y0078290D01*
X0183100Y0078657D01*
X0182733Y0078290D01*
X0182733Y0077189D01*
X0182733Y0078290D01*
X0183100Y0078657D01*
X0183467Y0078290D01*
X0183467Y0077556D01*
X0183834Y0077189D01*
X0184201Y0077556D01*
X0184201Y0078657D01*
X0184201Y0077556D01*
X0183834Y0077189D01*
X0186333Y0077188D02*
X0186700Y0076821D01*
X0187434Y0076821D01*
X0187801Y0077188D01*
X0187801Y0077922D01*
X0187434Y0078289D01*
X0186700Y0078289D01*
X0186333Y0077922D01*
X0186333Y0077188D01*
X0186700Y0076821D01*
X0187434Y0076821D01*
X0187801Y0077188D01*
X0187801Y0077922D01*
X0187434Y0078289D01*
X0186700Y0078289D01*
X0186333Y0077922D01*
X0186333Y0077188D01*
X0186700Y0079398D02*
X0186333Y0079765D01*
X0186700Y0079398D01*
X0188168Y0079398D01*
X0186700Y0079398D01*
X0187801Y0079031D02*
X0187801Y0079765D01*
X0187801Y0079031D01*
X0187434Y0080504D02*
X0187801Y0080871D01*
X0187801Y0081605D01*
X0187434Y0081972D01*
X0186333Y0081972D01*
X0187434Y0081972D01*
X0187801Y0081605D01*
X0187801Y0080871D01*
X0187434Y0080504D01*
X0188535Y0080504D02*
X0186333Y0080504D01*
X0188535Y0080504D01*
X0189933Y0081239D02*
X0190300Y0080872D01*
X0190667Y0081239D01*
X0190667Y0082340D01*
X0190667Y0081239D01*
X0190300Y0080872D01*
X0189933Y0081239D01*
X0189933Y0082340D01*
X0191034Y0082340D01*
X0191401Y0081973D01*
X0191401Y0081239D01*
X0191401Y0081973D01*
X0191034Y0082340D01*
X0189933Y0082340D01*
X0189933Y0081239D01*
X0190300Y0080130D02*
X0189933Y0079763D01*
X0189933Y0079029D01*
X0190300Y0078662D01*
X0191768Y0078662D01*
X0192135Y0079029D01*
X0192135Y0079763D01*
X0191768Y0080130D01*
X0192135Y0079763D01*
X0192135Y0079029D01*
X0191768Y0078662D01*
X0190300Y0078662D01*
X0189933Y0079029D01*
X0189933Y0079763D01*
X0190300Y0080130D01*
X0193533Y0080499D02*
X0193533Y0079398D01*
X0193900Y0079031D01*
X0194634Y0079031D01*
X0195001Y0079398D01*
X0195001Y0080499D01*
X0195001Y0079398D01*
X0194634Y0079031D01*
X0193900Y0079031D01*
X0193533Y0079398D01*
X0193533Y0080499D01*
X0193900Y0081241D02*
X0193533Y0081608D01*
X0193533Y0082342D01*
X0193900Y0082709D01*
X0194634Y0082709D01*
X0195001Y0082342D01*
X0195001Y0081608D01*
X0194634Y0081241D01*
X0193900Y0081241D01*
X0193533Y0081608D01*
X0193533Y0082342D01*
X0193900Y0082709D01*
X0194634Y0082709D01*
X0195001Y0082342D01*
X0195001Y0081608D01*
X0194634Y0081241D01*
X0193900Y0081241D01*
X0193533Y0083451D02*
X0195001Y0083451D01*
X0195001Y0084551D01*
X0194634Y0084918D01*
X0193533Y0084918D01*
X0194634Y0084918D01*
X0195001Y0084551D01*
X0195001Y0083451D01*
X0193533Y0083451D01*
X0192135Y0083449D02*
X0189933Y0083449D01*
X0192135Y0083449D01*
X0192135Y0083082D01*
X0192135Y0083449D01*
X0191401Y0084555D02*
X0191401Y0084922D01*
X0189933Y0084922D01*
X0191401Y0084922D01*
X0191401Y0084555D01*
X0192135Y0084922D02*
X0192502Y0084922D01*
X0192135Y0084922D01*
X0191768Y0086396D02*
X0192135Y0086763D01*
X0191768Y0086396D01*
X0189933Y0086396D01*
X0191768Y0086396D01*
X0191034Y0086029D02*
X0191034Y0086763D01*
X0191034Y0086029D01*
X0189933Y0085289D02*
X0189933Y0084555D01*
X0189933Y0085289D01*
X0189933Y0083816D02*
X0189933Y0083082D01*
X0189933Y0083816D01*
X0187801Y0083815D02*
X0187434Y0084182D01*
X0187067Y0084182D01*
X0187067Y0082714D01*
X0187067Y0084182D01*
X0187434Y0084182D01*
X0187801Y0083815D01*
X0187801Y0083081D01*
X0187434Y0082714D01*
X0186700Y0082714D01*
X0186333Y0083081D01*
X0186333Y0083815D01*
X0186333Y0083081D01*
X0186700Y0082714D01*
X0187434Y0082714D01*
X0187801Y0083081D01*
X0187801Y0083815D01*
X0187801Y0084924D02*
X0186333Y0084924D01*
X0187801Y0084924D01*
X0187801Y0085658D02*
X0187801Y0086025D01*
X0187801Y0085658D01*
X0187067Y0084924D01*
X0187801Y0085658D01*
X0189933Y0087869D02*
X0190300Y0087502D01*
X0191034Y0087502D01*
X0191401Y0087869D01*
X0191401Y0088603D01*
X0191034Y0088970D01*
X0190300Y0088970D01*
X0189933Y0088603D01*
X0189933Y0087869D01*
X0190300Y0087502D01*
X0191034Y0087502D01*
X0191401Y0087869D01*
X0191401Y0088603D01*
X0191034Y0088970D01*
X0190300Y0088970D01*
X0189933Y0088603D01*
X0189933Y0087869D01*
X0189933Y0089712D02*
X0191401Y0089712D01*
X0189933Y0089712D01*
X0190667Y0089712D02*
X0191401Y0090446D01*
X0191401Y0090813D01*
X0191401Y0090446D01*
X0190667Y0089712D01*
X0189933Y0091553D02*
X0191401Y0091553D01*
X0191401Y0092654D01*
X0191034Y0093021D01*
X0189933Y0093021D01*
X0191034Y0093021D01*
X0191401Y0092654D01*
X0191401Y0091553D01*
X0189933Y0091553D01*
X0187801Y0091918D02*
X0187434Y0092285D01*
X0187067Y0092285D01*
X0187067Y0090817D01*
X0187067Y0092285D01*
X0187434Y0092285D01*
X0187801Y0091918D01*
X0187801Y0091184D01*
X0187434Y0090817D01*
X0186700Y0090817D01*
X0186333Y0091184D01*
X0186333Y0091918D01*
X0186333Y0091184D01*
X0186700Y0090817D01*
X0187434Y0090817D01*
X0187801Y0091184D01*
X0187801Y0091918D01*
X0187801Y0093027D02*
X0187801Y0094128D01*
X0187434Y0094495D01*
X0186700Y0094495D01*
X0186333Y0094128D01*
X0186333Y0093027D01*
X0186333Y0094128D01*
X0186700Y0094495D01*
X0187434Y0094495D01*
X0187801Y0094128D01*
X0187801Y0093027D01*
X0185599Y0093027D01*
X0187801Y0093027D01*
X0187801Y0095237D02*
X0186333Y0095237D01*
X0187801Y0095237D01*
X0187801Y0095971D02*
X0187801Y0096338D01*
X0187801Y0095971D01*
X0187067Y0095237D01*
X0187801Y0095971D01*
X0187434Y0097078D02*
X0186700Y0097078D01*
X0186333Y0097445D01*
X0186333Y0098179D01*
X0186700Y0098546D01*
X0187434Y0098546D01*
X0187801Y0098179D01*
X0187801Y0097445D01*
X0187434Y0097078D01*
X0186700Y0097078D01*
X0186333Y0097445D01*
X0186333Y0098179D01*
X0186700Y0098546D01*
X0187434Y0098546D01*
X0187801Y0098179D01*
X0187801Y0097445D01*
X0187434Y0097078D01*
X0187434Y0099288D02*
X0187801Y0099655D01*
X0187801Y0100756D01*
X0187801Y0099655D01*
X0187434Y0099288D01*
X0186700Y0099288D01*
X0186333Y0099655D01*
X0186333Y0100756D01*
X0188535Y0100756D01*
X0186333Y0100756D01*
X0186333Y0099655D01*
X0186700Y0099288D01*
X0187434Y0099288D01*
X0187801Y0101498D02*
X0186700Y0101498D01*
X0186333Y0101865D01*
X0186333Y0102966D01*
X0187801Y0102966D01*
X0186333Y0102966D01*
X0186333Y0101865D01*
X0186700Y0101498D01*
X0187801Y0101498D01*
X0189933Y0101497D02*
X0189933Y0102231D01*
X0190300Y0102598D01*
X0191034Y0102598D01*
X0191401Y0102231D01*
X0191401Y0101497D01*
X0191034Y0101130D01*
X0190300Y0101130D01*
X0189933Y0101497D01*
X0190300Y0101130D01*
X0191034Y0101130D01*
X0191401Y0101497D01*
X0191401Y0102231D01*
X0191034Y0102598D01*
X0190300Y0102598D01*
X0189933Y0102231D01*
X0189933Y0101497D01*
X0189933Y0100390D02*
X0190300Y0100023D01*
X0191768Y0100023D01*
X0190300Y0100023D01*
X0189933Y0100390D01*
X0191401Y0100390D02*
X0191401Y0099656D01*
X0191401Y0100390D01*
X0193533Y0099656D02*
X0195735Y0099656D01*
X0193533Y0099656D01*
X0193533Y0098914D02*
X0193533Y0097813D01*
X0193900Y0097446D01*
X0194634Y0097446D01*
X0195001Y0097813D01*
X0195001Y0098914D01*
X0195001Y0097813D01*
X0194634Y0097446D01*
X0193900Y0097446D01*
X0193533Y0097813D01*
X0193533Y0098914D01*
X0194634Y0099656D02*
X0195001Y0100023D01*
X0195001Y0100757D01*
X0194634Y0101124D01*
X0193533Y0101124D01*
X0194634Y0101124D01*
X0195001Y0100757D01*
X0195001Y0100023D01*
X0194634Y0099656D01*
X0194634Y0101866D02*
X0195001Y0102233D01*
X0195001Y0102967D01*
X0194634Y0103334D01*
X0194267Y0103334D01*
X0194267Y0101866D01*
X0194267Y0103334D01*
X0194634Y0103334D01*
X0195001Y0102967D01*
X0195001Y0102233D01*
X0194634Y0101866D01*
X0193900Y0101866D01*
X0193533Y0102233D01*
X0193533Y0102967D01*
X0193533Y0102233D01*
X0193900Y0101866D01*
X0194634Y0101866D01*
X0195001Y0104076D02*
X0193533Y0104076D01*
X0195001Y0104076D01*
X0195001Y0104443D01*
X0194634Y0104810D01*
X0195001Y0105177D01*
X0194634Y0105544D01*
X0193533Y0105544D01*
X0194634Y0105544D01*
X0195001Y0105177D01*
X0194634Y0104810D01*
X0193533Y0104810D01*
X0194634Y0104810D01*
X0195001Y0104443D01*
X0195001Y0104076D01*
X0197133Y0104076D02*
X0197133Y0104810D01*
X0197133Y0104076D01*
X0197133Y0104443D02*
X0199335Y0104443D01*
X0197133Y0104443D01*
X0197133Y0105549D02*
X0199335Y0105549D01*
X0197133Y0107017D01*
X0199335Y0107017D01*
X0197133Y0107017D01*
X0199335Y0105549D01*
X0197133Y0105549D01*
X0196102Y0106653D02*
X0195735Y0106653D01*
X0196102Y0106653D01*
X0195001Y0106653D02*
X0193533Y0106653D01*
X0195001Y0106653D01*
X0195001Y0106286D01*
X0195001Y0106653D01*
X0194634Y0107759D02*
X0193900Y0107759D01*
X0193533Y0108126D01*
X0193533Y0109227D01*
X0193533Y0108126D01*
X0193900Y0107759D01*
X0194634Y0107759D01*
X0195001Y0108126D01*
X0195001Y0109227D01*
X0195001Y0108126D01*
X0194634Y0107759D01*
X0193533Y0107020D02*
X0193533Y0106286D01*
X0193533Y0107020D01*
X0191401Y0107017D02*
X0191401Y0105916D01*
X0191034Y0105549D01*
X0190300Y0105549D01*
X0189933Y0105916D01*
X0189933Y0107017D01*
X0189933Y0105916D01*
X0190300Y0105549D01*
X0191034Y0105549D01*
X0191401Y0105916D01*
X0191401Y0107017D01*
X0191401Y0108126D02*
X0191401Y0108860D01*
X0191034Y0109227D01*
X0189933Y0109227D01*
X0189933Y0108126D01*
X0190300Y0107759D01*
X0190667Y0108126D01*
X0190667Y0109227D01*
X0190667Y0108126D01*
X0190300Y0107759D01*
X0189933Y0108126D01*
X0189933Y0109227D01*
X0191034Y0109227D01*
X0191401Y0108860D01*
X0191401Y0108126D01*
X0191401Y0109969D02*
X0190300Y0109969D01*
X0189933Y0110336D01*
X0189933Y0111437D01*
X0191401Y0111437D01*
X0189933Y0111437D01*
X0189933Y0110336D01*
X0190300Y0109969D01*
X0191401Y0109969D01*
X0193533Y0110336D02*
X0193900Y0109969D01*
X0194267Y0110336D01*
X0194267Y0111437D01*
X0194267Y0110336D01*
X0193900Y0109969D01*
X0193533Y0110336D01*
X0193533Y0111437D01*
X0194634Y0111437D01*
X0195001Y0111070D01*
X0195001Y0110336D01*
X0195001Y0111070D01*
X0194634Y0111437D01*
X0193533Y0111437D01*
X0193533Y0110336D01*
X0193533Y0112179D02*
X0193533Y0112913D01*
X0193533Y0112179D01*
X0193533Y0112546D02*
X0195735Y0112546D01*
X0195735Y0112179D01*
X0195735Y0112546D01*
X0193533Y0112546D01*
X0193533Y0113652D02*
X0193533Y0114753D01*
X0193900Y0115120D01*
X0194267Y0114753D01*
X0194267Y0114019D01*
X0194634Y0113652D01*
X0195001Y0114019D01*
X0195001Y0115120D01*
X0195001Y0114019D01*
X0194634Y0113652D01*
X0194267Y0114019D01*
X0194267Y0114753D01*
X0193900Y0115120D01*
X0193533Y0114753D01*
X0193533Y0113652D01*
X0191401Y0113647D02*
X0191401Y0112546D01*
X0191034Y0112179D01*
X0190667Y0112546D01*
X0190667Y0113280D01*
X0190300Y0113647D01*
X0189933Y0113280D01*
X0189933Y0112179D01*
X0189933Y0113280D01*
X0190300Y0113647D01*
X0190667Y0113280D01*
X0190667Y0112546D01*
X0191034Y0112179D01*
X0191401Y0112546D01*
X0191401Y0113647D01*
X0191034Y0114389D02*
X0191401Y0114756D01*
X0191401Y0115490D01*
X0191034Y0115857D01*
X0190667Y0115857D01*
X0190667Y0114389D01*
X0190667Y0115857D01*
X0191034Y0115857D01*
X0191401Y0115490D01*
X0191401Y0114756D01*
X0191034Y0114389D01*
X0190300Y0114389D01*
X0189933Y0114756D01*
X0189933Y0115490D01*
X0189933Y0114756D01*
X0190300Y0114389D01*
X0191034Y0114389D01*
X0188535Y0115494D02*
X0186333Y0115494D01*
X0188535Y0115494D01*
X0187801Y0115861D02*
X0187801Y0116595D01*
X0187434Y0116962D01*
X0186333Y0116962D01*
X0187434Y0116962D01*
X0187801Y0116595D01*
X0187801Y0115861D01*
X0187434Y0115494D01*
X0187801Y0115861D01*
X0186700Y0117704D02*
X0187067Y0118071D01*
X0187067Y0119172D01*
X0187067Y0118071D01*
X0186700Y0117704D01*
X0186333Y0118071D01*
X0186333Y0119172D01*
X0187434Y0119172D01*
X0187801Y0118805D01*
X0187801Y0118071D01*
X0187801Y0118805D01*
X0187434Y0119172D01*
X0186333Y0119172D01*
X0186333Y0118071D01*
X0186700Y0117704D01*
X0184201Y0116963D02*
X0183834Y0117330D01*
X0183467Y0117330D01*
X0183467Y0115862D01*
X0183467Y0117330D01*
X0183834Y0117330D01*
X0184201Y0116963D01*
X0184201Y0116229D01*
X0183834Y0115862D01*
X0183100Y0115862D01*
X0182733Y0116229D01*
X0182733Y0116963D01*
X0182733Y0116229D01*
X0183100Y0115862D01*
X0183834Y0115862D01*
X0184201Y0116229D01*
X0184201Y0116963D01*
X0183834Y0115120D02*
X0183100Y0115120D01*
X0182733Y0114753D01*
X0182733Y0113652D01*
X0184935Y0113652D01*
X0182733Y0113652D01*
X0182733Y0114753D01*
X0183100Y0115120D01*
X0183834Y0115120D01*
X0184201Y0114753D01*
X0184201Y0113652D01*
X0184201Y0114753D01*
X0183834Y0115120D01*
X0186333Y0112175D02*
X0186333Y0111441D01*
X0186700Y0111074D01*
X0187434Y0111074D01*
X0187801Y0111441D01*
X0187801Y0112175D01*
X0187434Y0112542D01*
X0187067Y0112542D01*
X0187067Y0111074D01*
X0187067Y0112542D01*
X0187434Y0112542D01*
X0187801Y0112175D01*
X0187801Y0111441D01*
X0187434Y0111074D01*
X0186700Y0111074D01*
X0186333Y0111441D01*
X0186333Y0112175D01*
X0187801Y0110332D02*
X0186333Y0109598D01*
X0187801Y0108864D01*
X0186333Y0109598D01*
X0187801Y0110332D01*
X0186333Y0108125D02*
X0186333Y0107391D01*
X0186333Y0108125D01*
X0186333Y0107758D02*
X0187801Y0107758D01*
X0187801Y0107391D01*
X0187801Y0107758D01*
X0186333Y0107758D01*
X0186333Y0106652D02*
X0186700Y0106285D01*
X0188168Y0106285D01*
X0186700Y0106285D01*
X0186333Y0106652D01*
X0187801Y0106652D02*
X0187801Y0105918D01*
X0187801Y0106652D01*
X0188535Y0107758D02*
X0188902Y0107758D01*
X0188535Y0107758D01*
X0187801Y0105176D02*
X0187801Y0104075D01*
X0187434Y0103708D01*
X0186700Y0103708D01*
X0186333Y0104075D01*
X0186333Y0105176D01*
X0186333Y0104075D01*
X0186700Y0103708D01*
X0187434Y0103708D01*
X0187801Y0104075D01*
X0187801Y0105176D01*
X0184201Y0104807D02*
X0184201Y0103706D01*
X0183834Y0103339D01*
X0183100Y0103339D01*
X0182733Y0103706D01*
X0182733Y0104807D01*
X0182733Y0103706D01*
X0183100Y0103339D01*
X0183834Y0103339D01*
X0184201Y0103706D01*
X0184201Y0104807D01*
X0182366Y0104807D01*
X0181999Y0104440D01*
X0181999Y0104073D01*
X0181999Y0104440D01*
X0182366Y0104807D01*
X0184201Y0104807D01*
X0183834Y0102598D02*
X0182733Y0102598D01*
X0183834Y0102598D01*
X0184201Y0102231D01*
X0184201Y0101130D01*
X0182733Y0101130D01*
X0184201Y0101130D01*
X0184201Y0102231D01*
X0183834Y0102598D01*
X0182733Y0100390D02*
X0182733Y0099656D01*
X0182733Y0100390D01*
X0182733Y0100023D02*
X0184201Y0100023D01*
X0184201Y0099656D01*
X0184201Y0100023D01*
X0182733Y0100023D01*
X0182733Y0098914D02*
X0183834Y0098914D01*
X0184201Y0098547D01*
X0184201Y0097446D01*
X0182733Y0097446D01*
X0184201Y0097446D01*
X0184201Y0098547D01*
X0183834Y0098914D01*
X0182733Y0098914D01*
X0180601Y0099655D02*
X0180601Y0100389D01*
X0180234Y0100756D01*
X0179500Y0100756D01*
X0179133Y0100389D01*
X0179133Y0099655D01*
X0179500Y0099288D01*
X0180234Y0099288D01*
X0180601Y0099655D01*
X0180234Y0099288D01*
X0179500Y0099288D01*
X0179133Y0099655D01*
X0179133Y0100389D01*
X0179500Y0100756D01*
X0180234Y0100756D01*
X0180601Y0100389D01*
X0180601Y0099655D01*
X0180234Y0101498D02*
X0180234Y0102232D01*
X0180234Y0101498D01*
X0180968Y0101865D02*
X0181335Y0102232D01*
X0180968Y0101865D01*
X0179133Y0101865D01*
X0180968Y0101865D01*
X0180968Y0105181D02*
X0179500Y0105181D01*
X0179133Y0105548D01*
X0179133Y0106282D01*
X0179500Y0106649D01*
X0179133Y0106282D01*
X0179133Y0105548D01*
X0179500Y0105181D01*
X0180968Y0105181D01*
X0181335Y0105548D01*
X0181335Y0106282D01*
X0180968Y0106649D01*
X0181335Y0106282D01*
X0181335Y0105548D01*
X0180968Y0105181D01*
X0180601Y0107758D02*
X0180601Y0108492D01*
X0180234Y0108859D01*
X0179133Y0108859D01*
X0179133Y0107758D01*
X0179500Y0107391D01*
X0179867Y0107758D01*
X0179867Y0108859D01*
X0179867Y0107758D01*
X0179500Y0107391D01*
X0179133Y0107758D01*
X0179133Y0108859D01*
X0180234Y0108859D01*
X0180601Y0108492D01*
X0180601Y0107758D01*
X0181335Y0109601D02*
X0181335Y0109968D01*
X0179133Y0109968D01*
X0181335Y0109968D01*
X0181335Y0109601D01*
X0182733Y0109599D02*
X0182733Y0110333D01*
X0183100Y0110700D01*
X0183834Y0110700D01*
X0184201Y0110333D01*
X0184201Y0109599D01*
X0183834Y0109233D01*
X0183100Y0109233D01*
X0182733Y0109599D01*
X0183100Y0109233D01*
X0183834Y0109233D01*
X0184201Y0109599D01*
X0184201Y0110333D01*
X0183834Y0110700D01*
X0183100Y0110700D01*
X0182733Y0110333D01*
X0182733Y0109599D01*
X0182733Y0108493D02*
X0183100Y0108126D01*
X0184568Y0108126D01*
X0183100Y0108126D01*
X0182733Y0108493D01*
X0184201Y0108493D02*
X0184201Y0107759D01*
X0184201Y0108493D01*
X0181702Y0111441D02*
X0181335Y0111441D01*
X0181702Y0111441D01*
X0180601Y0111441D02*
X0179133Y0111441D01*
X0180601Y0111441D01*
X0180601Y0111074D01*
X0180601Y0111441D01*
X0180234Y0112547D02*
X0180234Y0113281D01*
X0180234Y0112547D01*
X0180968Y0112914D02*
X0181335Y0113281D01*
X0180968Y0112914D01*
X0179133Y0112914D01*
X0180968Y0112914D01*
X0180234Y0114021D02*
X0179500Y0114021D01*
X0179133Y0114388D01*
X0179133Y0115121D01*
X0179500Y0115488D01*
X0180234Y0115488D01*
X0180601Y0115121D01*
X0180601Y0114388D01*
X0180234Y0114021D01*
X0179500Y0114021D01*
X0179133Y0114388D01*
X0179133Y0115121D01*
X0179500Y0115488D01*
X0180234Y0115488D01*
X0180601Y0115121D01*
X0180601Y0114388D01*
X0180234Y0114021D01*
X0179867Y0116230D02*
X0180601Y0116964D01*
X0180601Y0117331D01*
X0180601Y0116964D01*
X0179867Y0116230D01*
X0179133Y0116230D02*
X0180601Y0116230D01*
X0179133Y0116230D01*
X0179133Y0118072D02*
X0180601Y0118072D01*
X0180601Y0119173D01*
X0180234Y0119540D01*
X0179133Y0119540D01*
X0180234Y0119540D01*
X0180601Y0119173D01*
X0180601Y0118072D01*
X0179133Y0118072D01*
X0179133Y0120282D02*
X0179133Y0121016D01*
X0179133Y0120282D01*
X0179133Y0120649D02*
X0180601Y0120649D01*
X0180601Y0120282D01*
X0180601Y0120649D01*
X0179133Y0120649D01*
X0179500Y0121755D02*
X0179133Y0122122D01*
X0179133Y0123223D01*
X0180234Y0123223D01*
X0180601Y0122856D01*
X0180601Y0122122D01*
X0180601Y0122856D01*
X0180234Y0123223D01*
X0179133Y0123223D01*
X0179133Y0122122D01*
X0179500Y0121755D01*
X0179867Y0122122D01*
X0179867Y0123223D01*
X0179867Y0122122D01*
X0179500Y0121755D01*
X0181335Y0120649D02*
X0181702Y0120649D01*
X0181335Y0120649D01*
X0186333Y0119914D02*
X0187801Y0119914D01*
X0186333Y0119914D01*
X0187067Y0119914D02*
X0187801Y0120648D01*
X0187801Y0121015D01*
X0187801Y0120648D01*
X0187067Y0119914D01*
X0186333Y0121755D02*
X0187801Y0121755D01*
X0187801Y0122122D01*
X0187434Y0122489D01*
X0187801Y0122856D01*
X0187434Y0123223D01*
X0186333Y0123223D01*
X0187434Y0123223D01*
X0187801Y0122856D01*
X0187434Y0122489D01*
X0186333Y0122489D01*
X0187434Y0122489D01*
X0187801Y0122122D01*
X0187801Y0121755D01*
X0186333Y0121755D01*
X0186333Y0123965D02*
X0186333Y0124332D01*
X0186700Y0124332D01*
X0186700Y0123965D01*
X0186333Y0123965D01*
X0186333Y0124332D01*
X0186700Y0124332D01*
X0186700Y0123965D01*
X0186333Y0123965D01*
X0189933Y0124696D02*
X0191034Y0124696D01*
X0191401Y0124329D01*
X0191401Y0123228D01*
X0189933Y0123228D01*
X0191401Y0123228D01*
X0191401Y0124329D01*
X0191034Y0124696D01*
X0189933Y0124696D01*
X0190300Y0125438D02*
X0189933Y0125805D01*
X0189933Y0126906D01*
X0189933Y0125805D01*
X0190300Y0125438D01*
X0191034Y0125438D01*
X0191401Y0125805D01*
X0191401Y0126906D01*
X0191401Y0125805D01*
X0191034Y0125438D01*
X0190300Y0125438D01*
X0190300Y0127648D02*
X0191034Y0127648D01*
X0191401Y0128015D01*
X0191401Y0128749D01*
X0191034Y0129116D01*
X0190667Y0129116D01*
X0190667Y0127648D01*
X0190667Y0129116D01*
X0191034Y0129116D01*
X0191401Y0128749D01*
X0191401Y0128015D01*
X0191034Y0127648D01*
X0190300Y0127648D01*
X0189933Y0128015D01*
X0189933Y0128749D01*
X0189933Y0128015D01*
X0190300Y0127648D01*
X0189933Y0129858D02*
X0191401Y0129858D01*
X0189933Y0129858D01*
X0190667Y0129858D02*
X0191401Y0130592D01*
X0191401Y0130959D01*
X0191401Y0130592D01*
X0190667Y0129858D01*
X0190667Y0122486D02*
X0190667Y0121385D01*
X0190300Y0121019D01*
X0189933Y0121385D01*
X0189933Y0122486D01*
X0191034Y0122486D01*
X0191401Y0122119D01*
X0191401Y0121385D01*
X0191401Y0122119D01*
X0191034Y0122486D01*
X0189933Y0122486D01*
X0189933Y0121385D01*
X0190300Y0121019D01*
X0190667Y0121385D01*
X0190667Y0122486D01*
X0189933Y0120277D02*
X0189933Y0119176D01*
X0190300Y0118809D01*
X0191034Y0118809D01*
X0191401Y0119176D01*
X0191401Y0120277D01*
X0191401Y0119176D01*
X0191034Y0118809D01*
X0190300Y0118809D01*
X0189933Y0119176D01*
X0189933Y0120277D01*
X0197500Y0109227D02*
X0198234Y0109227D01*
X0198234Y0108493D01*
X0198234Y0109227D01*
X0197500Y0109227D01*
X0197133Y0108860D01*
X0197133Y0108126D01*
X0197500Y0107759D01*
X0198968Y0107759D01*
X0199335Y0108126D01*
X0199335Y0108860D01*
X0198968Y0109227D01*
X0199335Y0108860D01*
X0199335Y0108126D01*
X0198968Y0107759D01*
X0197500Y0107759D01*
X0197133Y0108126D01*
X0197133Y0108860D01*
X0197500Y0109227D01*
X0199335Y0104810D02*
X0199335Y0104076D01*
X0199335Y0104810D01*
X0199335Y0103334D02*
X0197133Y0103334D01*
X0199335Y0101866D01*
X0197133Y0101866D01*
X0199335Y0101866D01*
X0197133Y0103334D01*
X0199335Y0103334D01*
X0198968Y0101124D02*
X0198234Y0101124D01*
X0197867Y0100757D01*
X0197867Y0099656D01*
X0197867Y0100757D01*
X0198234Y0101124D01*
X0198968Y0101124D01*
X0199335Y0100757D01*
X0199335Y0099656D01*
X0197133Y0099656D01*
X0199335Y0099656D01*
X0199335Y0100757D01*
X0198968Y0101124D01*
X0197867Y0100390D02*
X0197133Y0101124D01*
X0197867Y0100390D01*
X0198234Y0098914D02*
X0198234Y0097446D01*
X0198234Y0098914D01*
X0198601Y0098914D02*
X0197133Y0098914D01*
X0198601Y0098914D01*
X0199335Y0098180D01*
X0198601Y0097446D01*
X0197133Y0097446D01*
X0198601Y0097446D01*
X0199335Y0098180D01*
X0198601Y0098914D01*
X0199335Y0096704D02*
X0197133Y0096704D01*
X0197867Y0095971D01*
X0197133Y0095237D01*
X0199335Y0095237D01*
X0197133Y0095237D01*
X0197867Y0095971D01*
X0197133Y0096704D01*
X0199335Y0096704D01*
X0195001Y0094495D02*
X0195001Y0093394D01*
X0194634Y0093027D01*
X0194267Y0093394D01*
X0194267Y0094128D01*
X0193900Y0094495D01*
X0193533Y0094128D01*
X0193533Y0093027D01*
X0193533Y0094128D01*
X0193900Y0094495D01*
X0194267Y0094128D01*
X0194267Y0093394D01*
X0194634Y0093027D01*
X0195001Y0093394D01*
X0195001Y0094495D01*
X0192502Y0094130D02*
X0192135Y0094130D01*
X0192502Y0094130D01*
X0191401Y0094130D02*
X0189933Y0094130D01*
X0191401Y0094130D01*
X0191401Y0093763D01*
X0191401Y0094130D01*
X0191401Y0095604D02*
X0191401Y0096338D01*
X0191034Y0096705D01*
X0189933Y0096705D01*
X0189933Y0095604D01*
X0190300Y0095237D01*
X0190667Y0095604D01*
X0190667Y0096705D01*
X0190667Y0095604D01*
X0190300Y0095237D01*
X0189933Y0095604D01*
X0189933Y0096705D01*
X0191034Y0096705D01*
X0191401Y0096338D01*
X0191401Y0095604D01*
X0189933Y0094497D02*
X0189933Y0093763D01*
X0189933Y0094497D01*
X0193533Y0092285D02*
X0194634Y0092285D01*
X0195001Y0091918D01*
X0195001Y0090817D01*
X0193533Y0090817D01*
X0195001Y0090817D01*
X0195001Y0091918D01*
X0194634Y0092285D01*
X0193533Y0092285D01*
X0193533Y0090078D02*
X0193533Y0089344D01*
X0193533Y0090078D01*
X0193533Y0089711D02*
X0195001Y0089711D01*
X0195001Y0089344D01*
X0195001Y0089711D01*
X0193533Y0089711D01*
X0193533Y0088602D02*
X0193533Y0087501D01*
X0193900Y0087134D01*
X0194267Y0087501D01*
X0194267Y0088602D01*
X0194267Y0087501D01*
X0193900Y0087134D01*
X0193533Y0087501D01*
X0193533Y0088602D01*
X0194634Y0088602D01*
X0195001Y0088235D01*
X0195001Y0087501D01*
X0195001Y0088235D01*
X0194634Y0088602D01*
X0193533Y0088602D01*
X0195735Y0089711D02*
X0196102Y0089711D01*
X0195735Y0089711D01*
X0197133Y0089708D02*
X0197500Y0090075D01*
X0197867Y0090075D01*
X0198234Y0089708D01*
X0198234Y0088607D01*
X0197500Y0088607D01*
X0197133Y0088974D01*
X0197133Y0089708D01*
X0197500Y0090075D01*
X0197867Y0090075D01*
X0198234Y0089708D01*
X0198234Y0088607D01*
X0198968Y0089341D01*
X0199335Y0090075D01*
X0198968Y0089341D01*
X0198234Y0088607D01*
X0197500Y0088607D01*
X0197133Y0088974D01*
X0197133Y0089708D01*
X0197500Y0090817D02*
X0197133Y0091184D01*
X0197133Y0091918D01*
X0197500Y0092285D01*
X0198234Y0092285D01*
X0198601Y0091918D01*
X0198601Y0091551D01*
X0198234Y0090817D01*
X0199335Y0090817D01*
X0199335Y0092285D01*
X0199335Y0090817D01*
X0198234Y0090817D01*
X0198601Y0091551D01*
X0198601Y0091918D01*
X0198234Y0092285D01*
X0197500Y0092285D01*
X0197133Y0091918D01*
X0197133Y0091184D01*
X0197500Y0090817D01*
X0195001Y0086394D02*
X0195001Y0085660D01*
X0195001Y0086394D01*
X0195368Y0086027D02*
X0193900Y0086027D01*
X0193533Y0086394D01*
X0193900Y0086027D01*
X0195368Y0086027D01*
X0197133Y0085655D02*
X0199335Y0085655D01*
X0197133Y0085655D01*
X0199335Y0084187D01*
X0197133Y0084187D01*
X0199335Y0084187D01*
X0197133Y0085655D01*
X0197500Y0083445D02*
X0198968Y0083445D01*
X0199335Y0083078D01*
X0199335Y0082344D01*
X0198968Y0081977D01*
X0197500Y0081977D01*
X0197133Y0082344D01*
X0197133Y0083078D01*
X0197500Y0083445D01*
X0198968Y0083445D01*
X0199335Y0083078D01*
X0199335Y0082344D01*
X0198968Y0081977D01*
X0197500Y0081977D01*
X0197133Y0082344D01*
X0197133Y0083078D01*
X0197500Y0083445D01*
X0197133Y0081238D02*
X0197133Y0080504D01*
X0197133Y0081238D01*
X0197133Y0080871D02*
X0199335Y0080871D01*
X0197133Y0080871D01*
X0197133Y0079028D02*
X0199335Y0079028D01*
X0197133Y0079028D01*
X0197133Y0077555D02*
X0197133Y0076821D01*
X0197133Y0077555D01*
X0197133Y0077188D02*
X0199335Y0077188D01*
X0197133Y0077188D01*
X0199335Y0076821D02*
X0199335Y0077555D01*
X0199335Y0076821D01*
X0199335Y0078294D02*
X0199335Y0079762D01*
X0199335Y0078294D01*
X0199335Y0080504D02*
X0199335Y0081238D01*
X0199335Y0080504D01*
X0191034Y0069818D02*
X0190667Y0069818D01*
X0190667Y0068350D01*
X0190667Y0069818D01*
X0191034Y0069818D01*
X0191401Y0069451D01*
X0191401Y0068717D01*
X0191034Y0068350D01*
X0190300Y0068350D01*
X0189933Y0068717D01*
X0189933Y0069451D01*
X0189933Y0068717D01*
X0190300Y0068350D01*
X0191034Y0068350D01*
X0191401Y0068717D01*
X0191401Y0069451D01*
X0191034Y0069818D01*
X0191401Y0067610D02*
X0191401Y0066876D01*
X0191401Y0067610D01*
X0191768Y0067243D02*
X0190300Y0067243D01*
X0189933Y0067610D01*
X0190300Y0067243D01*
X0191768Y0067243D01*
X0191034Y0066134D02*
X0189933Y0066134D01*
X0189933Y0065034D01*
X0190300Y0064667D01*
X0190667Y0065034D01*
X0190667Y0066134D01*
X0190667Y0065034D01*
X0190300Y0064667D01*
X0189933Y0065034D01*
X0189933Y0066134D01*
X0191034Y0066134D01*
X0191401Y0065768D01*
X0191401Y0065034D01*
X0191401Y0065768D01*
X0191034Y0066134D01*
X0191401Y0063927D02*
X0191401Y0063193D01*
X0191401Y0063927D01*
X0191768Y0063560D02*
X0190300Y0063560D01*
X0189933Y0063927D01*
X0190300Y0063560D01*
X0191768Y0063560D01*
X0191768Y0062451D02*
X0192135Y0062084D01*
X0192135Y0061350D01*
X0191768Y0060983D01*
X0191401Y0060983D01*
X0191034Y0061350D01*
X0191034Y0062084D01*
X0190667Y0062451D01*
X0190300Y0062451D01*
X0189933Y0062084D01*
X0189933Y0061350D01*
X0190300Y0060983D01*
X0189933Y0061350D01*
X0189933Y0062084D01*
X0190300Y0062451D01*
X0190667Y0062451D01*
X0191034Y0062084D01*
X0191034Y0061350D01*
X0191401Y0060983D01*
X0191768Y0060983D01*
X0192135Y0061350D01*
X0192135Y0062084D01*
X0191768Y0062451D01*
X0187801Y0062824D02*
X0187801Y0063925D01*
X0187801Y0062824D01*
X0187434Y0062457D01*
X0186700Y0062457D01*
X0186333Y0062824D01*
X0186333Y0063925D01*
X0186333Y0062824D01*
X0186700Y0062457D01*
X0187434Y0062457D01*
X0187801Y0062824D01*
X0187434Y0061715D02*
X0187801Y0061348D01*
X0187801Y0060614D01*
X0187434Y0060247D01*
X0186700Y0060247D01*
X0186333Y0060614D01*
X0186333Y0061348D01*
X0186333Y0060614D01*
X0186700Y0060247D01*
X0187434Y0060247D01*
X0187801Y0060614D01*
X0187801Y0061348D01*
X0187434Y0061715D01*
X0187067Y0061715D01*
X0187067Y0060247D01*
X0187067Y0061715D01*
X0187434Y0061715D01*
X0187434Y0059508D02*
X0187434Y0058774D01*
X0187434Y0059508D01*
X0188168Y0059141D02*
X0186333Y0059141D01*
X0188168Y0059141D01*
X0188535Y0059508D01*
X0188168Y0059141D01*
X0187434Y0058032D02*
X0187067Y0058032D01*
X0187067Y0056564D01*
X0187067Y0058032D01*
X0187434Y0058032D01*
X0187801Y0057665D01*
X0187801Y0056931D01*
X0187434Y0056564D01*
X0186700Y0056564D01*
X0186333Y0056931D01*
X0186333Y0057665D01*
X0186333Y0056931D01*
X0186700Y0056564D01*
X0187434Y0056564D01*
X0187801Y0056931D01*
X0187801Y0057665D01*
X0187434Y0058032D01*
X0187801Y0055822D02*
X0187801Y0054721D01*
X0187434Y0054354D01*
X0186700Y0054354D01*
X0186333Y0054721D01*
X0186333Y0055822D01*
X0188535Y0055822D01*
X0186333Y0055822D01*
X0186333Y0054721D01*
X0186700Y0054354D01*
X0187434Y0054354D01*
X0187801Y0054721D01*
X0187801Y0055822D01*
X0184935Y0055457D02*
X0182733Y0055457D01*
X0184935Y0055457D01*
X0184935Y0055090D01*
X0184935Y0055457D01*
X0184201Y0056931D02*
X0184201Y0057665D01*
X0183834Y0058032D01*
X0182733Y0058032D01*
X0182733Y0056931D01*
X0183100Y0056564D01*
X0183467Y0056931D01*
X0183467Y0058032D01*
X0183467Y0056931D01*
X0183100Y0056564D01*
X0182733Y0056931D01*
X0182733Y0058032D01*
X0183834Y0058032D01*
X0184201Y0057665D01*
X0184201Y0056931D01*
X0182733Y0055824D02*
X0182733Y0055090D01*
X0182733Y0055824D01*
X0180601Y0056190D02*
X0179133Y0056190D01*
X0179133Y0055089D01*
X0179500Y0054722D01*
X0180601Y0054722D01*
X0179500Y0054722D01*
X0179133Y0055089D01*
X0179133Y0056190D01*
X0180601Y0056190D01*
X0180234Y0056932D02*
X0180601Y0057299D01*
X0180601Y0058400D01*
X0180601Y0057299D01*
X0180234Y0056932D01*
X0179867Y0057299D01*
X0179867Y0058033D01*
X0179500Y0058400D01*
X0179133Y0058033D01*
X0179133Y0056932D01*
X0179133Y0058033D01*
X0179500Y0058400D01*
X0179867Y0058033D01*
X0179867Y0057299D01*
X0180234Y0056932D01*
X0180601Y0053980D02*
X0180601Y0052879D01*
X0180234Y0052512D01*
X0179500Y0052512D01*
X0179133Y0052879D01*
X0179133Y0053980D01*
X0179133Y0052879D01*
X0179500Y0052512D01*
X0180234Y0052512D01*
X0180601Y0052879D01*
X0180601Y0053980D01*
X0183100Y0058774D02*
X0182733Y0059141D01*
X0183100Y0059508D01*
X0182733Y0059875D01*
X0183100Y0060241D01*
X0184201Y0060241D01*
X0183100Y0060241D01*
X0182733Y0059875D01*
X0183100Y0059508D01*
X0182733Y0059141D01*
X0183100Y0058774D01*
X0184201Y0058774D01*
X0183100Y0058774D01*
X0180968Y0059509D02*
X0179500Y0059509D01*
X0179133Y0059876D01*
X0179500Y0059509D01*
X0180968Y0059509D01*
X0180601Y0059142D02*
X0180601Y0059876D01*
X0180601Y0059142D01*
X0180234Y0060615D02*
X0179500Y0060615D01*
X0179133Y0060982D01*
X0179133Y0061716D01*
X0179500Y0062083D01*
X0180234Y0062083D01*
X0180601Y0061716D01*
X0180601Y0060982D01*
X0180234Y0060615D01*
X0179500Y0060615D01*
X0179133Y0060982D01*
X0179133Y0061716D01*
X0179500Y0062083D01*
X0180234Y0062083D01*
X0180601Y0061716D01*
X0180601Y0060982D01*
X0180234Y0060615D01*
X0180601Y0062825D02*
X0179133Y0062825D01*
X0180601Y0062825D01*
X0180601Y0063192D01*
X0180234Y0063559D01*
X0180601Y0063926D01*
X0180234Y0064293D01*
X0179133Y0064293D01*
X0180234Y0064293D01*
X0180601Y0063926D01*
X0180234Y0063559D01*
X0179133Y0063559D01*
X0180234Y0063559D01*
X0180601Y0063192D01*
X0180601Y0062825D01*
X0182733Y0063193D02*
X0184201Y0063193D01*
X0182733Y0063193D01*
X0183467Y0063193D02*
X0184201Y0063927D01*
X0184201Y0064294D01*
X0184201Y0063927D01*
X0183467Y0063193D01*
X0183467Y0065035D02*
X0183467Y0066503D01*
X0183834Y0066503D01*
X0184201Y0066136D01*
X0184201Y0065402D01*
X0183834Y0065035D01*
X0183100Y0065035D01*
X0182733Y0065402D01*
X0182733Y0066136D01*
X0182733Y0065402D01*
X0183100Y0065035D01*
X0183834Y0065035D01*
X0184201Y0065402D01*
X0184201Y0066136D01*
X0183834Y0066503D01*
X0183467Y0066503D01*
X0183467Y0065035D01*
X0183100Y0067245D02*
X0182733Y0067612D01*
X0182733Y0068713D01*
X0182733Y0067612D01*
X0183100Y0067245D01*
X0183834Y0067245D01*
X0184201Y0067612D01*
X0184201Y0068713D01*
X0181999Y0068713D01*
X0184201Y0068713D01*
X0184201Y0067612D01*
X0183834Y0067245D01*
X0183100Y0067245D01*
X0183100Y0069455D02*
X0182733Y0069822D01*
X0182733Y0070923D01*
X0184201Y0070923D01*
X0182733Y0070923D01*
X0182733Y0069822D01*
X0183100Y0069455D01*
X0184201Y0069455D01*
X0183100Y0069455D01*
X0182733Y0071665D02*
X0182733Y0072398D01*
X0182733Y0071665D01*
X0180601Y0070554D02*
X0180601Y0069453D01*
X0180234Y0069086D01*
X0179867Y0069453D01*
X0179867Y0070187D01*
X0179500Y0070554D01*
X0179133Y0070187D01*
X0179133Y0069086D01*
X0179133Y0070187D01*
X0179500Y0070554D01*
X0179867Y0070187D01*
X0179867Y0069453D01*
X0180234Y0069086D01*
X0180601Y0069453D01*
X0180601Y0070554D01*
X0180601Y0068346D02*
X0180601Y0067979D01*
X0179867Y0067245D01*
X0180601Y0067979D01*
X0180601Y0068346D01*
X0180601Y0067245D02*
X0179133Y0067245D01*
X0180601Y0067245D01*
X0180234Y0066503D02*
X0179867Y0066503D01*
X0179867Y0065035D01*
X0179867Y0066503D01*
X0180234Y0066503D01*
X0180601Y0066136D01*
X0180601Y0065402D01*
X0180234Y0065035D01*
X0179500Y0065035D01*
X0179133Y0065402D01*
X0179133Y0066136D01*
X0179133Y0065402D01*
X0179500Y0065035D01*
X0180234Y0065035D01*
X0180601Y0065402D01*
X0180601Y0066136D01*
X0180234Y0066503D01*
X0186333Y0066140D02*
X0186333Y0067241D01*
X0186700Y0067608D01*
X0187067Y0067241D01*
X0187067Y0066507D01*
X0187434Y0066140D01*
X0187801Y0066507D01*
X0187801Y0067608D01*
X0187801Y0066507D01*
X0187434Y0066140D01*
X0187067Y0066507D01*
X0187067Y0067241D01*
X0186700Y0067608D01*
X0186333Y0067241D01*
X0186333Y0066140D01*
X0186333Y0065401D02*
X0186700Y0065034D01*
X0188168Y0065034D01*
X0186700Y0065034D01*
X0186333Y0065401D01*
X0187801Y0065401D02*
X0187801Y0064667D01*
X0187801Y0065401D01*
X0197133Y0065772D02*
X0199335Y0065772D01*
X0199335Y0066872D01*
X0198968Y0067239D01*
X0198234Y0067239D01*
X0197867Y0066872D01*
X0197867Y0065772D01*
X0197867Y0066872D01*
X0198234Y0067239D01*
X0198968Y0067239D01*
X0199335Y0066872D01*
X0199335Y0065772D01*
X0197133Y0065772D01*
X0197867Y0066505D02*
X0197133Y0067239D01*
X0197867Y0066505D01*
X0198234Y0065030D02*
X0197867Y0064663D01*
X0197867Y0063562D01*
X0197867Y0064663D01*
X0198234Y0065030D01*
X0198968Y0065030D01*
X0199335Y0064663D01*
X0199335Y0063562D01*
X0197133Y0063562D01*
X0199335Y0063562D01*
X0199335Y0064663D01*
X0198968Y0065030D01*
X0198234Y0065030D01*
X0198234Y0049563D02*
X0198234Y0048829D01*
X0198234Y0049563D01*
X0199335Y0048090D02*
X0199335Y0047356D01*
X0199335Y0048090D01*
X0185302Y0040357D02*
X0184935Y0040357D01*
X0185302Y0040357D01*
X0180601Y0040357D02*
X0180601Y0041091D01*
X0180234Y0041458D01*
X0179867Y0041458D01*
X0179867Y0039990D01*
X0179867Y0041458D01*
X0180234Y0041458D01*
X0180601Y0041091D01*
X0180601Y0040357D01*
X0180234Y0039990D01*
X0179500Y0039990D01*
X0179133Y0040357D01*
X0179133Y0041091D01*
X0179133Y0040357D01*
X0179500Y0039990D01*
X0180234Y0039990D01*
X0180601Y0040357D01*
X0180601Y0042199D02*
X0179133Y0042199D01*
X0180601Y0042199D01*
X0180601Y0043300D01*
X0180234Y0043667D01*
X0179133Y0043667D01*
X0180234Y0043667D01*
X0180601Y0043300D01*
X0180601Y0042199D01*
X0180601Y0073506D02*
X0180601Y0073873D01*
X0179133Y0073873D01*
X0180601Y0073873D01*
X0180601Y0073506D01*
X0181335Y0073873D02*
X0181702Y0073873D01*
X0181335Y0073873D01*
X0180601Y0074979D02*
X0179133Y0074979D01*
X0180601Y0074979D01*
X0180601Y0076080D01*
X0180234Y0076447D01*
X0179133Y0076447D01*
X0180234Y0076447D01*
X0180601Y0076080D01*
X0180601Y0074979D01*
X0179133Y0074240D02*
X0179133Y0073506D01*
X0179133Y0074240D01*
X0180601Y0079399D02*
X0180601Y0080133D01*
X0180601Y0079399D01*
X0180968Y0079766D02*
X0179500Y0079766D01*
X0179133Y0080133D01*
X0179500Y0079766D01*
X0180968Y0079766D01*
X0181335Y0080872D02*
X0179133Y0080872D01*
X0181335Y0080872D01*
X0180601Y0081239D02*
X0180601Y0081973D01*
X0180234Y0082340D01*
X0179133Y0082340D01*
X0180234Y0082340D01*
X0180601Y0081973D01*
X0180601Y0081239D01*
X0180234Y0080872D01*
X0180601Y0081239D01*
X0180234Y0083082D02*
X0180601Y0083449D01*
X0180601Y0084183D01*
X0180234Y0084550D01*
X0179867Y0084550D01*
X0179867Y0083082D01*
X0179867Y0084550D01*
X0180234Y0084550D01*
X0180601Y0084183D01*
X0180601Y0083449D01*
X0180234Y0083082D01*
X0179500Y0083082D01*
X0179133Y0083449D01*
X0179133Y0084183D01*
X0179133Y0083449D01*
X0179500Y0083082D01*
X0180234Y0083082D01*
X0182733Y0083082D02*
X0184935Y0083082D01*
X0182733Y0083082D01*
X0182733Y0082343D02*
X0183100Y0081976D01*
X0184568Y0081976D01*
X0183100Y0081976D01*
X0182733Y0082343D01*
X0183834Y0083082D02*
X0184201Y0083449D01*
X0184201Y0084183D01*
X0183834Y0084550D01*
X0182733Y0084550D01*
X0183834Y0084550D01*
X0184201Y0084183D01*
X0184201Y0083449D01*
X0183834Y0083082D01*
X0184201Y0082343D02*
X0184201Y0081609D01*
X0184201Y0082343D01*
X0184201Y0085292D02*
X0184201Y0085659D01*
X0182733Y0085659D01*
X0184201Y0085659D01*
X0184201Y0085292D01*
X0184935Y0085659D02*
X0185302Y0085659D01*
X0184935Y0085659D01*
X0183834Y0086765D02*
X0183467Y0087132D01*
X0183467Y0087866D01*
X0183100Y0088233D01*
X0182733Y0087866D01*
X0182733Y0086765D01*
X0182733Y0087866D01*
X0183100Y0088233D01*
X0183467Y0087866D01*
X0183467Y0087132D01*
X0183834Y0086765D01*
X0184201Y0087132D01*
X0184201Y0088233D01*
X0184201Y0087132D01*
X0183834Y0086765D01*
X0182733Y0086026D02*
X0182733Y0085292D01*
X0182733Y0086026D01*
X0180968Y0087502D02*
X0180601Y0087502D01*
X0180234Y0087869D01*
X0180234Y0088603D01*
X0179867Y0088970D01*
X0179500Y0088970D01*
X0179133Y0088603D01*
X0179133Y0087869D01*
X0179500Y0087502D01*
X0179133Y0087869D01*
X0179133Y0088603D01*
X0179500Y0088970D01*
X0179867Y0088970D01*
X0180234Y0088603D01*
X0180234Y0087869D01*
X0180601Y0087502D01*
X0180968Y0087502D01*
X0181335Y0087869D01*
X0181335Y0088603D01*
X0180968Y0088970D01*
X0181335Y0088603D01*
X0181335Y0087869D01*
X0180968Y0087502D01*
X0180601Y0089712D02*
X0180601Y0090446D01*
X0180601Y0089712D01*
X0180968Y0090079D02*
X0179500Y0090079D01*
X0179133Y0090446D01*
X0179500Y0090079D01*
X0180968Y0090079D01*
X0180601Y0091552D02*
X0180601Y0092286D01*
X0180234Y0092653D01*
X0179133Y0092653D01*
X0179133Y0091552D01*
X0179500Y0091185D01*
X0179867Y0091552D01*
X0179867Y0092653D01*
X0179867Y0091552D01*
X0179500Y0091185D01*
X0179133Y0091552D01*
X0179133Y0092653D01*
X0180234Y0092653D01*
X0180601Y0092286D01*
X0180601Y0091552D01*
X0180601Y0093395D02*
X0180601Y0094129D01*
X0180601Y0093395D01*
X0180968Y0093762D02*
X0179500Y0093762D01*
X0179133Y0094129D01*
X0179500Y0093762D01*
X0180968Y0093762D01*
X0180234Y0094868D02*
X0180601Y0095235D01*
X0180601Y0095969D01*
X0180234Y0096336D01*
X0179867Y0096336D01*
X0179867Y0094868D01*
X0179867Y0096336D01*
X0180234Y0096336D01*
X0180601Y0095969D01*
X0180601Y0095235D01*
X0180234Y0094868D01*
X0179500Y0094868D01*
X0179133Y0095235D01*
X0179133Y0095969D01*
X0179133Y0095235D01*
X0179500Y0094868D01*
X0180234Y0094868D01*
X0182733Y0094863D02*
X0182733Y0093762D01*
X0183100Y0093395D01*
X0183467Y0093762D01*
X0183467Y0094863D01*
X0183467Y0093762D01*
X0183100Y0093395D01*
X0182733Y0093762D01*
X0182733Y0094863D01*
X0183834Y0094863D01*
X0184201Y0094496D01*
X0184201Y0093762D01*
X0184201Y0094496D01*
X0183834Y0094863D01*
X0182733Y0094863D01*
X0182733Y0095605D02*
X0184201Y0095605D01*
X0182733Y0095605D01*
X0183467Y0095605D02*
X0184201Y0096339D01*
X0184201Y0096706D01*
X0184201Y0096339D01*
X0183467Y0095605D01*
X0183100Y0092653D02*
X0184201Y0092653D01*
X0183100Y0092653D01*
X0182733Y0092286D01*
X0183100Y0091919D01*
X0182733Y0091552D01*
X0183100Y0091185D01*
X0184201Y0091185D01*
X0183100Y0091185D01*
X0182733Y0091552D01*
X0183100Y0091919D01*
X0182733Y0092286D01*
X0183100Y0092653D01*
X0186333Y0088975D02*
X0187801Y0088975D01*
X0186333Y0088975D01*
X0187067Y0088975D02*
X0187801Y0089709D01*
X0187801Y0090076D01*
X0187801Y0089709D01*
X0187067Y0088975D01*
X0185302Y0100023D02*
X0184935Y0100023D01*
X0185302Y0100023D01*
X0179133Y0109601D02*
X0179133Y0110335D01*
X0179133Y0109601D01*
X0179133Y0111074D02*
X0179133Y0111808D01*
X0179133Y0111074D01*
X0058133Y0185567D02*
X0057766Y0185200D01*
X0057032Y0185200D01*
X0056665Y0185567D01*
X0056665Y0186301D01*
X0057032Y0186668D01*
X0057766Y0186668D01*
X0058133Y0186301D01*
X0058133Y0185567D01*
X0055923Y0185567D02*
X0055923Y0186301D01*
X0055556Y0186668D01*
X0054455Y0186668D01*
X0054455Y0187402D02*
X0054455Y0185200D01*
X0055556Y0185200D01*
X0055923Y0185567D01*
X0053713Y0185567D02*
X0053713Y0186301D01*
X0053347Y0186668D01*
X0052613Y0186668D01*
X0052246Y0186301D01*
X0052246Y0185934D01*
X0053713Y0185934D01*
X0053713Y0185567D02*
X0053347Y0185200D01*
X0052613Y0185200D01*
X0051504Y0185200D02*
X0050770Y0185200D01*
X0051137Y0185200D02*
X0051137Y0187402D01*
X0051504Y0187402D01*
X0053056Y0181769D02*
X0053056Y0181402D01*
X0053056Y0180668D02*
X0053056Y0179200D01*
X0053423Y0179200D02*
X0052689Y0179200D01*
X0051950Y0179200D02*
X0051216Y0179200D01*
X0051583Y0179200D02*
X0051583Y0181402D01*
X0051950Y0181402D01*
X0053056Y0180668D02*
X0053423Y0180668D01*
X0054165Y0180301D02*
X0054165Y0179200D01*
X0055266Y0179200D01*
X0055633Y0179567D01*
X0055266Y0179934D01*
X0054165Y0179934D01*
X0054165Y0180301D02*
X0054532Y0180668D01*
X0055266Y0180668D01*
X0050477Y0180668D02*
X0050477Y0179200D01*
X0050477Y0179934D02*
X0049743Y0180668D01*
X0049376Y0180668D01*
X0048635Y0180301D02*
X0048635Y0179567D01*
X0048268Y0179200D01*
X0047534Y0179200D01*
X0047167Y0179567D01*
X0047167Y0180301D01*
X0047534Y0180668D01*
X0048268Y0180668D01*
X0048635Y0180301D01*
X0046425Y0179567D02*
X0046058Y0179934D01*
X0044957Y0179934D01*
X0044957Y0180301D02*
X0044957Y0179200D01*
X0046058Y0179200D01*
X0046425Y0179567D01*
X0046058Y0180668D02*
X0045324Y0180668D01*
X0044957Y0180301D01*
X0044216Y0180301D02*
X0043849Y0180668D01*
X0042748Y0180668D01*
X0042748Y0181402D02*
X0042748Y0179200D01*
X0043849Y0179200D01*
X0044216Y0179567D01*
X0044216Y0180301D01*
X0043189Y0176402D02*
X0042822Y0176402D01*
X0042822Y0174200D01*
X0043189Y0174200D02*
X0042455Y0174200D01*
X0043931Y0174567D02*
X0043931Y0175301D01*
X0044298Y0175668D01*
X0045032Y0175668D01*
X0045399Y0175301D01*
X0045399Y0174567D01*
X0045032Y0174200D01*
X0044298Y0174200D01*
X0043931Y0174567D01*
X0046139Y0175668D02*
X0046506Y0175668D01*
X0047240Y0174934D01*
X0047240Y0174200D02*
X0047240Y0175668D01*
X0047980Y0175668D02*
X0048713Y0175668D01*
X0048347Y0176035D02*
X0048347Y0174567D01*
X0047980Y0174200D01*
X0049455Y0174200D02*
X0049455Y0175301D01*
X0049822Y0175668D01*
X0050923Y0175668D01*
X0050923Y0174200D01*
X0051665Y0174567D02*
X0051665Y0175301D01*
X0052032Y0175668D01*
X0052766Y0175668D01*
X0053133Y0175301D01*
X0053133Y0174567D01*
X0052766Y0174200D01*
X0052032Y0174200D01*
X0051665Y0174567D01*
X0050633Y0170668D02*
X0050633Y0169567D01*
X0050266Y0169200D01*
X0049165Y0169200D01*
X0049165Y0168833D02*
X0049165Y0170668D01*
X0048423Y0170301D02*
X0048056Y0170668D01*
X0046955Y0170668D01*
X0046213Y0170668D02*
X0045480Y0170668D01*
X0045847Y0171035D02*
X0045847Y0169567D01*
X0045480Y0169200D01*
X0044740Y0169567D02*
X0044740Y0170301D01*
X0044373Y0170668D01*
X0043639Y0170668D01*
X0043272Y0170301D01*
X0043272Y0169934D01*
X0044740Y0169934D01*
X0044740Y0169567D02*
X0044373Y0169200D01*
X0043639Y0169200D01*
X0042530Y0169200D02*
X0042530Y0170668D01*
X0042163Y0170668D01*
X0041796Y0170301D01*
X0041429Y0170668D01*
X0041062Y0170301D01*
X0041062Y0169200D01*
X0041796Y0169200D02*
X0041796Y0170301D01*
X0040320Y0170301D02*
X0039953Y0170668D01*
X0038853Y0170668D01*
X0039220Y0169934D02*
X0038853Y0169567D01*
X0039220Y0169200D01*
X0040320Y0169200D01*
X0039953Y0169934D02*
X0040320Y0170301D01*
X0039953Y0169934D02*
X0039220Y0169934D01*
X0046955Y0169567D02*
X0047322Y0169934D01*
X0048056Y0169934D01*
X0048423Y0170301D01*
X0048423Y0169200D02*
X0047322Y0169200D01*
X0046955Y0169567D01*
X0049165Y0168833D02*
X0049532Y0168466D01*
X0049899Y0168466D01*
D15*
X0066733Y0172600D02*
X0066733Y0179100D01*
X0066733Y0185600D01*
X0066733Y0186600D01*
D16*
X0061583Y0187953D02*
X0061583Y0184250D01*
X0059114Y0184250D02*
X0059114Y0187953D01*
X0060349Y0186719D01*
X0061583Y0187953D01*
X0059083Y0181953D02*
X0057232Y0181953D01*
X0056614Y0181336D01*
X0056614Y0180102D01*
X0057232Y0179484D01*
X0059083Y0179484D01*
X0059083Y0178250D02*
X0059083Y0181953D01*
X0057849Y0179484D02*
X0056614Y0178250D01*
X0055966Y0176953D02*
X0056583Y0176336D01*
X0056583Y0173867D01*
X0055966Y0173250D01*
X0054732Y0173250D01*
X0054114Y0173867D01*
X0053466Y0171953D02*
X0054083Y0171336D01*
X0054083Y0170719D01*
X0053466Y0170102D01*
X0052232Y0170102D01*
X0051614Y0169484D01*
X0051614Y0168867D01*
X0052232Y0168250D01*
X0053466Y0168250D01*
X0054083Y0168867D01*
X0053466Y0171953D02*
X0052232Y0171953D01*
X0051614Y0171336D01*
X0054114Y0176336D02*
X0054732Y0176953D01*
X0055966Y0176953D01*
M02*
