G75*
%MOIN*%
%OFA0B0*%
%FSLAX25Y25*%
%IPPOS*%
%LPD*%
%AMOC8*
5,1,8,0,0,1.08239X$1,22.5*
%
%ADD10C,0.01200*%
%ADD11C,0.00000*%
D10*
X0011733Y0001600D02*
X0011733Y0194513D01*
X0204647Y0194513D01*
X0204647Y0001600D01*
X0011733Y0001600D01*
D11*
X0017433Y0014100D02*
X0017435Y0014267D01*
X0017441Y0014434D01*
X0017451Y0014600D01*
X0017466Y0014767D01*
X0017484Y0014932D01*
X0017507Y0015098D01*
X0017533Y0015263D01*
X0017564Y0015427D01*
X0017598Y0015590D01*
X0017637Y0015752D01*
X0017679Y0015914D01*
X0017726Y0016074D01*
X0017776Y0016233D01*
X0017831Y0016391D01*
X0017889Y0016547D01*
X0017951Y0016702D01*
X0018016Y0016856D01*
X0018086Y0017007D01*
X0018159Y0017157D01*
X0018236Y0017305D01*
X0018316Y0017452D01*
X0018400Y0017596D01*
X0018488Y0017738D01*
X0018579Y0017878D01*
X0018673Y0018015D01*
X0018771Y0018151D01*
X0018872Y0018284D01*
X0018977Y0018414D01*
X0019084Y0018542D01*
X0019195Y0018667D01*
X0019308Y0018789D01*
X0019425Y0018908D01*
X0019544Y0019025D01*
X0019666Y0019138D01*
X0019791Y0019249D01*
X0019919Y0019356D01*
X0020049Y0019461D01*
X0020182Y0019562D01*
X0020318Y0019660D01*
X0020455Y0019754D01*
X0020595Y0019845D01*
X0020737Y0019933D01*
X0020881Y0020017D01*
X0021028Y0020097D01*
X0021176Y0020174D01*
X0021326Y0020247D01*
X0021477Y0020317D01*
X0021631Y0020382D01*
X0021786Y0020444D01*
X0021942Y0020502D01*
X0022100Y0020557D01*
X0022259Y0020607D01*
X0022419Y0020654D01*
X0022581Y0020696D01*
X0022743Y0020735D01*
X0022906Y0020769D01*
X0023070Y0020800D01*
X0023235Y0020826D01*
X0023401Y0020849D01*
X0023566Y0020867D01*
X0023733Y0020882D01*
X0023899Y0020892D01*
X0024066Y0020898D01*
X0024233Y0020900D01*
X0024400Y0020898D01*
X0024567Y0020892D01*
X0024733Y0020882D01*
X0024900Y0020867D01*
X0025065Y0020849D01*
X0025231Y0020826D01*
X0025396Y0020800D01*
X0025560Y0020769D01*
X0025723Y0020735D01*
X0025885Y0020696D01*
X0026047Y0020654D01*
X0026207Y0020607D01*
X0026366Y0020557D01*
X0026524Y0020502D01*
X0026680Y0020444D01*
X0026835Y0020382D01*
X0026989Y0020317D01*
X0027140Y0020247D01*
X0027290Y0020174D01*
X0027438Y0020097D01*
X0027585Y0020017D01*
X0027729Y0019933D01*
X0027871Y0019845D01*
X0028011Y0019754D01*
X0028148Y0019660D01*
X0028284Y0019562D01*
X0028417Y0019461D01*
X0028547Y0019356D01*
X0028675Y0019249D01*
X0028800Y0019138D01*
X0028922Y0019025D01*
X0029041Y0018908D01*
X0029158Y0018789D01*
X0029271Y0018667D01*
X0029382Y0018542D01*
X0029489Y0018414D01*
X0029594Y0018284D01*
X0029695Y0018151D01*
X0029793Y0018015D01*
X0029887Y0017878D01*
X0029978Y0017738D01*
X0030066Y0017596D01*
X0030150Y0017452D01*
X0030230Y0017305D01*
X0030307Y0017157D01*
X0030380Y0017007D01*
X0030450Y0016856D01*
X0030515Y0016702D01*
X0030577Y0016547D01*
X0030635Y0016391D01*
X0030690Y0016233D01*
X0030740Y0016074D01*
X0030787Y0015914D01*
X0030829Y0015752D01*
X0030868Y0015590D01*
X0030902Y0015427D01*
X0030933Y0015263D01*
X0030959Y0015098D01*
X0030982Y0014932D01*
X0031000Y0014767D01*
X0031015Y0014600D01*
X0031025Y0014434D01*
X0031031Y0014267D01*
X0031033Y0014100D01*
X0031031Y0013933D01*
X0031025Y0013766D01*
X0031015Y0013600D01*
X0031000Y0013433D01*
X0030982Y0013268D01*
X0030959Y0013102D01*
X0030933Y0012937D01*
X0030902Y0012773D01*
X0030868Y0012610D01*
X0030829Y0012448D01*
X0030787Y0012286D01*
X0030740Y0012126D01*
X0030690Y0011967D01*
X0030635Y0011809D01*
X0030577Y0011653D01*
X0030515Y0011498D01*
X0030450Y0011344D01*
X0030380Y0011193D01*
X0030307Y0011043D01*
X0030230Y0010895D01*
X0030150Y0010748D01*
X0030066Y0010604D01*
X0029978Y0010462D01*
X0029887Y0010322D01*
X0029793Y0010185D01*
X0029695Y0010049D01*
X0029594Y0009916D01*
X0029489Y0009786D01*
X0029382Y0009658D01*
X0029271Y0009533D01*
X0029158Y0009411D01*
X0029041Y0009292D01*
X0028922Y0009175D01*
X0028800Y0009062D01*
X0028675Y0008951D01*
X0028547Y0008844D01*
X0028417Y0008739D01*
X0028284Y0008638D01*
X0028148Y0008540D01*
X0028011Y0008446D01*
X0027871Y0008355D01*
X0027729Y0008267D01*
X0027585Y0008183D01*
X0027438Y0008103D01*
X0027290Y0008026D01*
X0027140Y0007953D01*
X0026989Y0007883D01*
X0026835Y0007818D01*
X0026680Y0007756D01*
X0026524Y0007698D01*
X0026366Y0007643D01*
X0026207Y0007593D01*
X0026047Y0007546D01*
X0025885Y0007504D01*
X0025723Y0007465D01*
X0025560Y0007431D01*
X0025396Y0007400D01*
X0025231Y0007374D01*
X0025065Y0007351D01*
X0024900Y0007333D01*
X0024733Y0007318D01*
X0024567Y0007308D01*
X0024400Y0007302D01*
X0024233Y0007300D01*
X0024066Y0007302D01*
X0023899Y0007308D01*
X0023733Y0007318D01*
X0023566Y0007333D01*
X0023401Y0007351D01*
X0023235Y0007374D01*
X0023070Y0007400D01*
X0022906Y0007431D01*
X0022743Y0007465D01*
X0022581Y0007504D01*
X0022419Y0007546D01*
X0022259Y0007593D01*
X0022100Y0007643D01*
X0021942Y0007698D01*
X0021786Y0007756D01*
X0021631Y0007818D01*
X0021477Y0007883D01*
X0021326Y0007953D01*
X0021176Y0008026D01*
X0021028Y0008103D01*
X0020881Y0008183D01*
X0020737Y0008267D01*
X0020595Y0008355D01*
X0020455Y0008446D01*
X0020318Y0008540D01*
X0020182Y0008638D01*
X0020049Y0008739D01*
X0019919Y0008844D01*
X0019791Y0008951D01*
X0019666Y0009062D01*
X0019544Y0009175D01*
X0019425Y0009292D01*
X0019308Y0009411D01*
X0019195Y0009533D01*
X0019084Y0009658D01*
X0018977Y0009786D01*
X0018872Y0009916D01*
X0018771Y0010049D01*
X0018673Y0010185D01*
X0018579Y0010322D01*
X0018488Y0010462D01*
X0018400Y0010604D01*
X0018316Y0010748D01*
X0018236Y0010895D01*
X0018159Y0011043D01*
X0018086Y0011193D01*
X0018016Y0011344D01*
X0017951Y0011498D01*
X0017889Y0011653D01*
X0017831Y0011809D01*
X0017776Y0011967D01*
X0017726Y0012126D01*
X0017679Y0012286D01*
X0017637Y0012448D01*
X0017598Y0012610D01*
X0017564Y0012773D01*
X0017533Y0012937D01*
X0017507Y0013102D01*
X0017484Y0013268D01*
X0017466Y0013433D01*
X0017451Y0013600D01*
X0017441Y0013766D01*
X0017435Y0013933D01*
X0017433Y0014100D01*
X0182433Y0016600D02*
X0182435Y0016767D01*
X0182441Y0016934D01*
X0182451Y0017100D01*
X0182466Y0017267D01*
X0182484Y0017432D01*
X0182507Y0017598D01*
X0182533Y0017763D01*
X0182564Y0017927D01*
X0182598Y0018090D01*
X0182637Y0018252D01*
X0182679Y0018414D01*
X0182726Y0018574D01*
X0182776Y0018733D01*
X0182831Y0018891D01*
X0182889Y0019047D01*
X0182951Y0019202D01*
X0183016Y0019356D01*
X0183086Y0019507D01*
X0183159Y0019657D01*
X0183236Y0019805D01*
X0183316Y0019952D01*
X0183400Y0020096D01*
X0183488Y0020238D01*
X0183579Y0020378D01*
X0183673Y0020515D01*
X0183771Y0020651D01*
X0183872Y0020784D01*
X0183977Y0020914D01*
X0184084Y0021042D01*
X0184195Y0021167D01*
X0184308Y0021289D01*
X0184425Y0021408D01*
X0184544Y0021525D01*
X0184666Y0021638D01*
X0184791Y0021749D01*
X0184919Y0021856D01*
X0185049Y0021961D01*
X0185182Y0022062D01*
X0185318Y0022160D01*
X0185455Y0022254D01*
X0185595Y0022345D01*
X0185737Y0022433D01*
X0185881Y0022517D01*
X0186028Y0022597D01*
X0186176Y0022674D01*
X0186326Y0022747D01*
X0186477Y0022817D01*
X0186631Y0022882D01*
X0186786Y0022944D01*
X0186942Y0023002D01*
X0187100Y0023057D01*
X0187259Y0023107D01*
X0187419Y0023154D01*
X0187581Y0023196D01*
X0187743Y0023235D01*
X0187906Y0023269D01*
X0188070Y0023300D01*
X0188235Y0023326D01*
X0188401Y0023349D01*
X0188566Y0023367D01*
X0188733Y0023382D01*
X0188899Y0023392D01*
X0189066Y0023398D01*
X0189233Y0023400D01*
X0189400Y0023398D01*
X0189567Y0023392D01*
X0189733Y0023382D01*
X0189900Y0023367D01*
X0190065Y0023349D01*
X0190231Y0023326D01*
X0190396Y0023300D01*
X0190560Y0023269D01*
X0190723Y0023235D01*
X0190885Y0023196D01*
X0191047Y0023154D01*
X0191207Y0023107D01*
X0191366Y0023057D01*
X0191524Y0023002D01*
X0191680Y0022944D01*
X0191835Y0022882D01*
X0191989Y0022817D01*
X0192140Y0022747D01*
X0192290Y0022674D01*
X0192438Y0022597D01*
X0192585Y0022517D01*
X0192729Y0022433D01*
X0192871Y0022345D01*
X0193011Y0022254D01*
X0193148Y0022160D01*
X0193284Y0022062D01*
X0193417Y0021961D01*
X0193547Y0021856D01*
X0193675Y0021749D01*
X0193800Y0021638D01*
X0193922Y0021525D01*
X0194041Y0021408D01*
X0194158Y0021289D01*
X0194271Y0021167D01*
X0194382Y0021042D01*
X0194489Y0020914D01*
X0194594Y0020784D01*
X0194695Y0020651D01*
X0194793Y0020515D01*
X0194887Y0020378D01*
X0194978Y0020238D01*
X0195066Y0020096D01*
X0195150Y0019952D01*
X0195230Y0019805D01*
X0195307Y0019657D01*
X0195380Y0019507D01*
X0195450Y0019356D01*
X0195515Y0019202D01*
X0195577Y0019047D01*
X0195635Y0018891D01*
X0195690Y0018733D01*
X0195740Y0018574D01*
X0195787Y0018414D01*
X0195829Y0018252D01*
X0195868Y0018090D01*
X0195902Y0017927D01*
X0195933Y0017763D01*
X0195959Y0017598D01*
X0195982Y0017432D01*
X0196000Y0017267D01*
X0196015Y0017100D01*
X0196025Y0016934D01*
X0196031Y0016767D01*
X0196033Y0016600D01*
X0196031Y0016433D01*
X0196025Y0016266D01*
X0196015Y0016100D01*
X0196000Y0015933D01*
X0195982Y0015768D01*
X0195959Y0015602D01*
X0195933Y0015437D01*
X0195902Y0015273D01*
X0195868Y0015110D01*
X0195829Y0014948D01*
X0195787Y0014786D01*
X0195740Y0014626D01*
X0195690Y0014467D01*
X0195635Y0014309D01*
X0195577Y0014153D01*
X0195515Y0013998D01*
X0195450Y0013844D01*
X0195380Y0013693D01*
X0195307Y0013543D01*
X0195230Y0013395D01*
X0195150Y0013248D01*
X0195066Y0013104D01*
X0194978Y0012962D01*
X0194887Y0012822D01*
X0194793Y0012685D01*
X0194695Y0012549D01*
X0194594Y0012416D01*
X0194489Y0012286D01*
X0194382Y0012158D01*
X0194271Y0012033D01*
X0194158Y0011911D01*
X0194041Y0011792D01*
X0193922Y0011675D01*
X0193800Y0011562D01*
X0193675Y0011451D01*
X0193547Y0011344D01*
X0193417Y0011239D01*
X0193284Y0011138D01*
X0193148Y0011040D01*
X0193011Y0010946D01*
X0192871Y0010855D01*
X0192729Y0010767D01*
X0192585Y0010683D01*
X0192438Y0010603D01*
X0192290Y0010526D01*
X0192140Y0010453D01*
X0191989Y0010383D01*
X0191835Y0010318D01*
X0191680Y0010256D01*
X0191524Y0010198D01*
X0191366Y0010143D01*
X0191207Y0010093D01*
X0191047Y0010046D01*
X0190885Y0010004D01*
X0190723Y0009965D01*
X0190560Y0009931D01*
X0190396Y0009900D01*
X0190231Y0009874D01*
X0190065Y0009851D01*
X0189900Y0009833D01*
X0189733Y0009818D01*
X0189567Y0009808D01*
X0189400Y0009802D01*
X0189233Y0009800D01*
X0189066Y0009802D01*
X0188899Y0009808D01*
X0188733Y0009818D01*
X0188566Y0009833D01*
X0188401Y0009851D01*
X0188235Y0009874D01*
X0188070Y0009900D01*
X0187906Y0009931D01*
X0187743Y0009965D01*
X0187581Y0010004D01*
X0187419Y0010046D01*
X0187259Y0010093D01*
X0187100Y0010143D01*
X0186942Y0010198D01*
X0186786Y0010256D01*
X0186631Y0010318D01*
X0186477Y0010383D01*
X0186326Y0010453D01*
X0186176Y0010526D01*
X0186028Y0010603D01*
X0185881Y0010683D01*
X0185737Y0010767D01*
X0185595Y0010855D01*
X0185455Y0010946D01*
X0185318Y0011040D01*
X0185182Y0011138D01*
X0185049Y0011239D01*
X0184919Y0011344D01*
X0184791Y0011451D01*
X0184666Y0011562D01*
X0184544Y0011675D01*
X0184425Y0011792D01*
X0184308Y0011911D01*
X0184195Y0012033D01*
X0184084Y0012158D01*
X0183977Y0012286D01*
X0183872Y0012416D01*
X0183771Y0012549D01*
X0183673Y0012685D01*
X0183579Y0012822D01*
X0183488Y0012962D01*
X0183400Y0013104D01*
X0183316Y0013248D01*
X0183236Y0013395D01*
X0183159Y0013543D01*
X0183086Y0013693D01*
X0183016Y0013844D01*
X0182951Y0013998D01*
X0182889Y0014153D01*
X0182831Y0014309D01*
X0182776Y0014467D01*
X0182726Y0014626D01*
X0182679Y0014786D01*
X0182637Y0014948D01*
X0182598Y0015110D01*
X0182564Y0015273D01*
X0182533Y0015437D01*
X0182507Y0015602D01*
X0182484Y0015768D01*
X0182466Y0015933D01*
X0182451Y0016100D01*
X0182441Y0016266D01*
X0182435Y0016433D01*
X0182433Y0016600D01*
X0179933Y0179100D02*
X0179935Y0179267D01*
X0179941Y0179434D01*
X0179951Y0179600D01*
X0179966Y0179767D01*
X0179984Y0179932D01*
X0180007Y0180098D01*
X0180033Y0180263D01*
X0180064Y0180427D01*
X0180098Y0180590D01*
X0180137Y0180752D01*
X0180179Y0180914D01*
X0180226Y0181074D01*
X0180276Y0181233D01*
X0180331Y0181391D01*
X0180389Y0181547D01*
X0180451Y0181702D01*
X0180516Y0181856D01*
X0180586Y0182007D01*
X0180659Y0182157D01*
X0180736Y0182305D01*
X0180816Y0182452D01*
X0180900Y0182596D01*
X0180988Y0182738D01*
X0181079Y0182878D01*
X0181173Y0183015D01*
X0181271Y0183151D01*
X0181372Y0183284D01*
X0181477Y0183414D01*
X0181584Y0183542D01*
X0181695Y0183667D01*
X0181808Y0183789D01*
X0181925Y0183908D01*
X0182044Y0184025D01*
X0182166Y0184138D01*
X0182291Y0184249D01*
X0182419Y0184356D01*
X0182549Y0184461D01*
X0182682Y0184562D01*
X0182818Y0184660D01*
X0182955Y0184754D01*
X0183095Y0184845D01*
X0183237Y0184933D01*
X0183381Y0185017D01*
X0183528Y0185097D01*
X0183676Y0185174D01*
X0183826Y0185247D01*
X0183977Y0185317D01*
X0184131Y0185382D01*
X0184286Y0185444D01*
X0184442Y0185502D01*
X0184600Y0185557D01*
X0184759Y0185607D01*
X0184919Y0185654D01*
X0185081Y0185696D01*
X0185243Y0185735D01*
X0185406Y0185769D01*
X0185570Y0185800D01*
X0185735Y0185826D01*
X0185901Y0185849D01*
X0186066Y0185867D01*
X0186233Y0185882D01*
X0186399Y0185892D01*
X0186566Y0185898D01*
X0186733Y0185900D01*
X0186900Y0185898D01*
X0187067Y0185892D01*
X0187233Y0185882D01*
X0187400Y0185867D01*
X0187565Y0185849D01*
X0187731Y0185826D01*
X0187896Y0185800D01*
X0188060Y0185769D01*
X0188223Y0185735D01*
X0188385Y0185696D01*
X0188547Y0185654D01*
X0188707Y0185607D01*
X0188866Y0185557D01*
X0189024Y0185502D01*
X0189180Y0185444D01*
X0189335Y0185382D01*
X0189489Y0185317D01*
X0189640Y0185247D01*
X0189790Y0185174D01*
X0189938Y0185097D01*
X0190085Y0185017D01*
X0190229Y0184933D01*
X0190371Y0184845D01*
X0190511Y0184754D01*
X0190648Y0184660D01*
X0190784Y0184562D01*
X0190917Y0184461D01*
X0191047Y0184356D01*
X0191175Y0184249D01*
X0191300Y0184138D01*
X0191422Y0184025D01*
X0191541Y0183908D01*
X0191658Y0183789D01*
X0191771Y0183667D01*
X0191882Y0183542D01*
X0191989Y0183414D01*
X0192094Y0183284D01*
X0192195Y0183151D01*
X0192293Y0183015D01*
X0192387Y0182878D01*
X0192478Y0182738D01*
X0192566Y0182596D01*
X0192650Y0182452D01*
X0192730Y0182305D01*
X0192807Y0182157D01*
X0192880Y0182007D01*
X0192950Y0181856D01*
X0193015Y0181702D01*
X0193077Y0181547D01*
X0193135Y0181391D01*
X0193190Y0181233D01*
X0193240Y0181074D01*
X0193287Y0180914D01*
X0193329Y0180752D01*
X0193368Y0180590D01*
X0193402Y0180427D01*
X0193433Y0180263D01*
X0193459Y0180098D01*
X0193482Y0179932D01*
X0193500Y0179767D01*
X0193515Y0179600D01*
X0193525Y0179434D01*
X0193531Y0179267D01*
X0193533Y0179100D01*
X0193531Y0178933D01*
X0193525Y0178766D01*
X0193515Y0178600D01*
X0193500Y0178433D01*
X0193482Y0178268D01*
X0193459Y0178102D01*
X0193433Y0177937D01*
X0193402Y0177773D01*
X0193368Y0177610D01*
X0193329Y0177448D01*
X0193287Y0177286D01*
X0193240Y0177126D01*
X0193190Y0176967D01*
X0193135Y0176809D01*
X0193077Y0176653D01*
X0193015Y0176498D01*
X0192950Y0176344D01*
X0192880Y0176193D01*
X0192807Y0176043D01*
X0192730Y0175895D01*
X0192650Y0175748D01*
X0192566Y0175604D01*
X0192478Y0175462D01*
X0192387Y0175322D01*
X0192293Y0175185D01*
X0192195Y0175049D01*
X0192094Y0174916D01*
X0191989Y0174786D01*
X0191882Y0174658D01*
X0191771Y0174533D01*
X0191658Y0174411D01*
X0191541Y0174292D01*
X0191422Y0174175D01*
X0191300Y0174062D01*
X0191175Y0173951D01*
X0191047Y0173844D01*
X0190917Y0173739D01*
X0190784Y0173638D01*
X0190648Y0173540D01*
X0190511Y0173446D01*
X0190371Y0173355D01*
X0190229Y0173267D01*
X0190085Y0173183D01*
X0189938Y0173103D01*
X0189790Y0173026D01*
X0189640Y0172953D01*
X0189489Y0172883D01*
X0189335Y0172818D01*
X0189180Y0172756D01*
X0189024Y0172698D01*
X0188866Y0172643D01*
X0188707Y0172593D01*
X0188547Y0172546D01*
X0188385Y0172504D01*
X0188223Y0172465D01*
X0188060Y0172431D01*
X0187896Y0172400D01*
X0187731Y0172374D01*
X0187565Y0172351D01*
X0187400Y0172333D01*
X0187233Y0172318D01*
X0187067Y0172308D01*
X0186900Y0172302D01*
X0186733Y0172300D01*
X0186566Y0172302D01*
X0186399Y0172308D01*
X0186233Y0172318D01*
X0186066Y0172333D01*
X0185901Y0172351D01*
X0185735Y0172374D01*
X0185570Y0172400D01*
X0185406Y0172431D01*
X0185243Y0172465D01*
X0185081Y0172504D01*
X0184919Y0172546D01*
X0184759Y0172593D01*
X0184600Y0172643D01*
X0184442Y0172698D01*
X0184286Y0172756D01*
X0184131Y0172818D01*
X0183977Y0172883D01*
X0183826Y0172953D01*
X0183676Y0173026D01*
X0183528Y0173103D01*
X0183381Y0173183D01*
X0183237Y0173267D01*
X0183095Y0173355D01*
X0182955Y0173446D01*
X0182818Y0173540D01*
X0182682Y0173638D01*
X0182549Y0173739D01*
X0182419Y0173844D01*
X0182291Y0173951D01*
X0182166Y0174062D01*
X0182044Y0174175D01*
X0181925Y0174292D01*
X0181808Y0174411D01*
X0181695Y0174533D01*
X0181584Y0174658D01*
X0181477Y0174786D01*
X0181372Y0174916D01*
X0181271Y0175049D01*
X0181173Y0175185D01*
X0181079Y0175322D01*
X0180988Y0175462D01*
X0180900Y0175604D01*
X0180816Y0175748D01*
X0180736Y0175895D01*
X0180659Y0176043D01*
X0180586Y0176193D01*
X0180516Y0176344D01*
X0180451Y0176498D01*
X0180389Y0176653D01*
X0180331Y0176809D01*
X0180276Y0176967D01*
X0180226Y0177126D01*
X0180179Y0177286D01*
X0180137Y0177448D01*
X0180098Y0177610D01*
X0180064Y0177773D01*
X0180033Y0177937D01*
X0180007Y0178102D01*
X0179984Y0178268D01*
X0179966Y0178433D01*
X0179951Y0178600D01*
X0179941Y0178766D01*
X0179935Y0178933D01*
X0179933Y0179100D01*
X0019933Y0179100D02*
X0019935Y0179267D01*
X0019941Y0179434D01*
X0019951Y0179600D01*
X0019966Y0179767D01*
X0019984Y0179932D01*
X0020007Y0180098D01*
X0020033Y0180263D01*
X0020064Y0180427D01*
X0020098Y0180590D01*
X0020137Y0180752D01*
X0020179Y0180914D01*
X0020226Y0181074D01*
X0020276Y0181233D01*
X0020331Y0181391D01*
X0020389Y0181547D01*
X0020451Y0181702D01*
X0020516Y0181856D01*
X0020586Y0182007D01*
X0020659Y0182157D01*
X0020736Y0182305D01*
X0020816Y0182452D01*
X0020900Y0182596D01*
X0020988Y0182738D01*
X0021079Y0182878D01*
X0021173Y0183015D01*
X0021271Y0183151D01*
X0021372Y0183284D01*
X0021477Y0183414D01*
X0021584Y0183542D01*
X0021695Y0183667D01*
X0021808Y0183789D01*
X0021925Y0183908D01*
X0022044Y0184025D01*
X0022166Y0184138D01*
X0022291Y0184249D01*
X0022419Y0184356D01*
X0022549Y0184461D01*
X0022682Y0184562D01*
X0022818Y0184660D01*
X0022955Y0184754D01*
X0023095Y0184845D01*
X0023237Y0184933D01*
X0023381Y0185017D01*
X0023528Y0185097D01*
X0023676Y0185174D01*
X0023826Y0185247D01*
X0023977Y0185317D01*
X0024131Y0185382D01*
X0024286Y0185444D01*
X0024442Y0185502D01*
X0024600Y0185557D01*
X0024759Y0185607D01*
X0024919Y0185654D01*
X0025081Y0185696D01*
X0025243Y0185735D01*
X0025406Y0185769D01*
X0025570Y0185800D01*
X0025735Y0185826D01*
X0025901Y0185849D01*
X0026066Y0185867D01*
X0026233Y0185882D01*
X0026399Y0185892D01*
X0026566Y0185898D01*
X0026733Y0185900D01*
X0026900Y0185898D01*
X0027067Y0185892D01*
X0027233Y0185882D01*
X0027400Y0185867D01*
X0027565Y0185849D01*
X0027731Y0185826D01*
X0027896Y0185800D01*
X0028060Y0185769D01*
X0028223Y0185735D01*
X0028385Y0185696D01*
X0028547Y0185654D01*
X0028707Y0185607D01*
X0028866Y0185557D01*
X0029024Y0185502D01*
X0029180Y0185444D01*
X0029335Y0185382D01*
X0029489Y0185317D01*
X0029640Y0185247D01*
X0029790Y0185174D01*
X0029938Y0185097D01*
X0030085Y0185017D01*
X0030229Y0184933D01*
X0030371Y0184845D01*
X0030511Y0184754D01*
X0030648Y0184660D01*
X0030784Y0184562D01*
X0030917Y0184461D01*
X0031047Y0184356D01*
X0031175Y0184249D01*
X0031300Y0184138D01*
X0031422Y0184025D01*
X0031541Y0183908D01*
X0031658Y0183789D01*
X0031771Y0183667D01*
X0031882Y0183542D01*
X0031989Y0183414D01*
X0032094Y0183284D01*
X0032195Y0183151D01*
X0032293Y0183015D01*
X0032387Y0182878D01*
X0032478Y0182738D01*
X0032566Y0182596D01*
X0032650Y0182452D01*
X0032730Y0182305D01*
X0032807Y0182157D01*
X0032880Y0182007D01*
X0032950Y0181856D01*
X0033015Y0181702D01*
X0033077Y0181547D01*
X0033135Y0181391D01*
X0033190Y0181233D01*
X0033240Y0181074D01*
X0033287Y0180914D01*
X0033329Y0180752D01*
X0033368Y0180590D01*
X0033402Y0180427D01*
X0033433Y0180263D01*
X0033459Y0180098D01*
X0033482Y0179932D01*
X0033500Y0179767D01*
X0033515Y0179600D01*
X0033525Y0179434D01*
X0033531Y0179267D01*
X0033533Y0179100D01*
X0033531Y0178933D01*
X0033525Y0178766D01*
X0033515Y0178600D01*
X0033500Y0178433D01*
X0033482Y0178268D01*
X0033459Y0178102D01*
X0033433Y0177937D01*
X0033402Y0177773D01*
X0033368Y0177610D01*
X0033329Y0177448D01*
X0033287Y0177286D01*
X0033240Y0177126D01*
X0033190Y0176967D01*
X0033135Y0176809D01*
X0033077Y0176653D01*
X0033015Y0176498D01*
X0032950Y0176344D01*
X0032880Y0176193D01*
X0032807Y0176043D01*
X0032730Y0175895D01*
X0032650Y0175748D01*
X0032566Y0175604D01*
X0032478Y0175462D01*
X0032387Y0175322D01*
X0032293Y0175185D01*
X0032195Y0175049D01*
X0032094Y0174916D01*
X0031989Y0174786D01*
X0031882Y0174658D01*
X0031771Y0174533D01*
X0031658Y0174411D01*
X0031541Y0174292D01*
X0031422Y0174175D01*
X0031300Y0174062D01*
X0031175Y0173951D01*
X0031047Y0173844D01*
X0030917Y0173739D01*
X0030784Y0173638D01*
X0030648Y0173540D01*
X0030511Y0173446D01*
X0030371Y0173355D01*
X0030229Y0173267D01*
X0030085Y0173183D01*
X0029938Y0173103D01*
X0029790Y0173026D01*
X0029640Y0172953D01*
X0029489Y0172883D01*
X0029335Y0172818D01*
X0029180Y0172756D01*
X0029024Y0172698D01*
X0028866Y0172643D01*
X0028707Y0172593D01*
X0028547Y0172546D01*
X0028385Y0172504D01*
X0028223Y0172465D01*
X0028060Y0172431D01*
X0027896Y0172400D01*
X0027731Y0172374D01*
X0027565Y0172351D01*
X0027400Y0172333D01*
X0027233Y0172318D01*
X0027067Y0172308D01*
X0026900Y0172302D01*
X0026733Y0172300D01*
X0026566Y0172302D01*
X0026399Y0172308D01*
X0026233Y0172318D01*
X0026066Y0172333D01*
X0025901Y0172351D01*
X0025735Y0172374D01*
X0025570Y0172400D01*
X0025406Y0172431D01*
X0025243Y0172465D01*
X0025081Y0172504D01*
X0024919Y0172546D01*
X0024759Y0172593D01*
X0024600Y0172643D01*
X0024442Y0172698D01*
X0024286Y0172756D01*
X0024131Y0172818D01*
X0023977Y0172883D01*
X0023826Y0172953D01*
X0023676Y0173026D01*
X0023528Y0173103D01*
X0023381Y0173183D01*
X0023237Y0173267D01*
X0023095Y0173355D01*
X0022955Y0173446D01*
X0022818Y0173540D01*
X0022682Y0173638D01*
X0022549Y0173739D01*
X0022419Y0173844D01*
X0022291Y0173951D01*
X0022166Y0174062D01*
X0022044Y0174175D01*
X0021925Y0174292D01*
X0021808Y0174411D01*
X0021695Y0174533D01*
X0021584Y0174658D01*
X0021477Y0174786D01*
X0021372Y0174916D01*
X0021271Y0175049D01*
X0021173Y0175185D01*
X0021079Y0175322D01*
X0020988Y0175462D01*
X0020900Y0175604D01*
X0020816Y0175748D01*
X0020736Y0175895D01*
X0020659Y0176043D01*
X0020586Y0176193D01*
X0020516Y0176344D01*
X0020451Y0176498D01*
X0020389Y0176653D01*
X0020331Y0176809D01*
X0020276Y0176967D01*
X0020226Y0177126D01*
X0020179Y0177286D01*
X0020137Y0177448D01*
X0020098Y0177610D01*
X0020064Y0177773D01*
X0020033Y0177937D01*
X0020007Y0178102D01*
X0019984Y0178268D01*
X0019966Y0178433D01*
X0019951Y0178600D01*
X0019941Y0178766D01*
X0019935Y0178933D01*
X0019933Y0179100D01*
M02*
