%
M48
M72
T01C0.02756
T02C0.03200
T03C0.04000
T04C0.04724
T05C0.13600
%
T01
X99233Y121600
X109233Y121600
T02
X104233Y134100
X104233Y144100
X104233Y159100
X94233Y159100
X84233Y159100
X74233Y159100
X64233Y159100
X114233Y159100
X124233Y159100
X134233Y159100
X144233Y159100
X119233Y106600
X119233Y96600
X119233Y86600
X119233Y76600
X119233Y66600
X119233Y56600
X119233Y46600
X114233Y19100
X104233Y19100
X94233Y19100
X84233Y19100
X74233Y19100
X64233Y19100
X89233Y46600
X89233Y56600
X89233Y66600
X89233Y76600
X89233Y86600
X89233Y96600
X89233Y106600
X124233Y19100
X134233Y19100
X144233Y19100
T03
X161233Y36600
X162233Y46600
X161233Y56600
X162233Y66600
X161233Y76600
X162233Y86600
X161233Y96600
X162233Y106600
X161233Y116600
X162233Y126600
X161233Y136600
X162233Y146600
X52233Y146600
X51233Y136600
X52233Y126600
X51233Y116600
X52233Y106600
X51233Y96600
X52233Y86600
X51233Y76600
X52233Y66600
X51233Y56600
X52233Y46600
X51233Y36600
T04
X81733Y181600
X95513Y181600
X109292Y181600
X123072Y181600
T05
X24233Y14100
X189233Y16600
X186733Y179100
X26733Y179100
M30
